<?xml version="1.0" encoding="UTF-8"?>
<svg xmlns="http://www.w3.org/2000/svg" baseProfile="tiny" version="1.2" viewBox="0 0 1789.5 1022">
  <!-- Generator: Adobe Illustrator 28.6.0, SVG Export Plug-In . SVG Version: 1.2.0 Build 709)  -->
  <g>
    <g id="Ebene_2">
      <g id="Binde">
        <g>
          <path d="M3.3,798.9c15.5,6.3,44.9,3.3,60.7-2.2,20.9-10.9,40.6-25.3,56.2-43.1,8.6-7,14.3-16.7,23.1-23.2,6.7-4.9,11.4-11.8,17.7-16.9,12.9-8.3,29.4-3.3,42.9-9.7,11.5-4.5,19-14.3,28.4-21.9,21.5-20.1,42.9-40.4,63.1-61.7,6.8-6.2,13.6-12.6,21.3-17.4,9.3-6.1,19.9-7.2,29.2-13.2,7.9-4.2,11.9-12.1,17.9-18.2,8.7-6.5,12.6-19.5,24.4-21,16.2-5.7,32.8-9,49.1-14.1,14.4-1.9,28.5-5.6,40.2-14.7,11.5-8.4,16-21.7,15.2-35.5.1-12.6-.3-25.8-3.4-38.1-2.7-18.6-12.3-35.1-25.3-48.4-7.7-6.8-16.7-14-27.3-15.3-20.1-1.6-40.3-2.9-60.5-1.1-15.5,1.8-30.8,5.2-46.1,8.5-2.6.7-5.2.1-7.6-1-8-3.9-16.4-5.8-24.7-9.1-12.2-5.8-26.6-5-39.2-1.5-22.8,3.8-45,11.1-65.9,21.1-21,6.6-40,17.4-59.2,28.1-28,13.6-38.2,15.5-50.6,46.1-2.5,6.2-4.3,12.6-6.9,18.8-2.9,11,1.1,15.9-10.6,22.7-6.6,5.3-13.4,10.5-20.6,15.1-9.7,5.6-15.7,15.3-23.8,22.7-16.8,14.4-35.2,27.2-48.8,44.9-10.4,17.4-22.1,35.8-24.2,56.4-1.2,9.4-4.8,18.4-4.2,28,0,12.8,2.8,25.6,5.9,38.1,1.2,7.1,2.1,13.9,5.8,20.3,2.9,6.9,3.1,15.1,8.7,20.6,12.3,12.9,21.6,29.8,39.1,36.3Z" fill="#e6c9fe"/>
          <path d="M7.4,752.6c-24.7-18.2-28.4-52.3-24.4-80.5,3.2-43.6,36.2-67.4,68.8-91.6,96.5-82.8,179.4-125.6,302.4-157.1,29.3-10.2,67.1-17.5,90.5,8.5,13.9,14.6,23.3,41.4,7.7,57.5-21.3,17.3-50,21.5-75.3,30.4-24.8,10-51.3,15.7-75.2,27.4-17.4,9.5-32.6,23.4-47.8,36.1-25.3,21.1-51.5,41.2-75.1,64.2-47.2,32.3-107.6,145.4-171.7,105.1Z" fill="none" stroke="#000" stroke-miterlimit="10" stroke-width="5.7"/>
          <path d="M3.3,798.9c15.5,6.3,44.9,3.3,60.7-2.2,20.9-10.9,40.6-25.3,56.2-43.1,8.6-7,14.3-16.7,23.1-23.2,6.7-4.9,11.4-11.8,17.7-16.9,12.9-8.3,29.4-3.3,42.9-9.7,11.5-4.5,19-14.3,28.4-21.9,21.5-20.1,42.9-40.4,63.1-61.7,6.8-6.2,13.6-12.6,21.3-17.4,9.3-6.1,19.9-7.2,29.2-13.2,7.9-4.2,11.9-12.1,17.9-18.2,8.7-6.5,12.6-19.5,24.4-21,16.2-5.7,32.8-9,49.1-14.1,14.4-1.9,28.5-5.6,40.2-14.7,11.5-8.4,16-21.7,15.2-35.5.1-12.6-.3-25.8-3.4-38.1-2.7-18.6-12.3-35.1-25.3-48.4-7.7-6.8-16.7-14-27.3-15.3-20.1-1.6-40.3-2.9-60.5-1.1-15.5,1.8-30.8,5.2-46.1,8.5-2.6.7-5.2.1-7.6-1-8-3.9-16.4-5.8-24.7-9.1-12.2-5.8-26.6-5-39.2-1.5-22.8,3.8-45,11.1-65.9,21.1-21,6.6-40,17.4-59.2,28.1-28,13.6-38.2,15.5-50.6,46.1-2.5,6.2-4.3,12.6-6.9,18.8-2.9,11,1.1,15.9-10.6,22.7-6.6,5.3-13.4,10.5-20.6,15.1-9.7,5.6-15.7,15.3-23.8,22.7-16.8,14.4-35.2,27.2-48.8,44.9-10.4,17.4-22.1,35.8-24.2,56.4-1.2,9.4-4.8,18.4-4.2,28,0,12.8,2.8,25.6,5.9,38.1,1.2,7.1,2.1,13.9,5.8,20.3,2.9,6.9,3.1,15.1,8.7,20.6,12.3,12.9,21.6,29.8,39.1,36.3ZM369.7,557.4c-.5,4.5-5.8,7.5-8.8,10.7-3.9,3.2-6.1,8-9.7,11.5-8,8.5-19.8,10.1-29.7,15.3-10.2,4-18.4,11.6-26.4,18.9-20.9,20.7-41.7,41.9-63.7,61.7-18.9,17.4-27.6,28.2-55.3,27.6-4.9.5-3-2.9-.6-5.1,22.4-24.6,48.3-45.7,72.6-68.2,18.2-16.3,37.7-31.1,55.8-47.6,19-12.6,40.5-20.2,62.7-25.2,1-.2,2.8-.5,3.1.4ZM79.5,504.1c-1.4-3.8.9-8.7,2.2-12.4,3.9-11.6,8.7-23,14.2-33.9,9.3-13.8,27.7-17.5,41.4-25.7,9.9-5.5,20-10.8,29.8-16.5,34.5-13.8,68.6-29.8,105.9-34.7,15.1-1.7,28.5,5.9,42.4,10.2,3.8,2.1-1.5,3.6-3.4,4.2-16,5.4-31.2,12.7-47.5,17.3-12.5,4.2-25.7,6.2-37.6,12-33.5,16.5-67.2,32.4-100.1,50.1-14.8,8.8-29,18.7-43.4,28.3-1.1.7-3.1,2.1-3.9,1ZM269.7,603.8c-31.4,25.1-60,53.4-89.6,80.6-13.1,14.1-26.1,28.5-40.5,41.4-4,2.8-7.5,6.3-10.4,10.2-7.4,8.6-16.4,15.9-23.5,24.8-17,13-33.5,29.1-55,33.8-12.8,2.5-26.5,2.2-39.5,1.3-12-3.4-21.8-11.2-29.3-21.1-5.3-6.5-11.2-12.6-16.2-19.4-2.6-9.8-7.8-19.2-9.4-29.2-4.2-20.3-10.3-41.3-3.9-61.8,1.9-14.5,4.9-28.4,12.8-40.8,4.4-7.6,7.7-16.5,13.7-23.2,13.6-16.7,31.7-29.3,47.9-43.4,15.7-19.7,38.6-31.4,57.7-47.7,36.6-26.3,76.4-47.2,117.4-65.8,15.2-7.8,30-16.8,46.8-20.7,25.8-5.4,48.9-18.9,74.4-24.9,25.5-5.1,51.1-11.8,77.4-11,15.2,1.6,31.3-1.3,45.5,5.4,31.3,17.2,42.7,54.8,41.5,88.5,1.8,17.9-5.7,34.2-22.6,41.6-13.1,7.7-29.1,6.5-42.9,12.4-15.5,2.7-30.4,8.6-45.5,12.8-32.7,10.5-68.3,17.8-92.4,44.6" stroke="#000" stroke-miterlimit="10" stroke-width=".6"/>
          <path d="M122.9,629.5c12.3,8.1,24.9-4.9,33.4-13.2,7.4-7.8,16.9-13.1,24.6-20.7,9.2-9,20.4-15.7,30.8-23.2,13-8.9,23.4-20.7,36.3-29.7,12.1-7.1,21.9-17.5,35.1-22.6,14.3-6.9,40.1-12.5,48.8-25.8,5.1-20-15.4-22.7-30.3-20.6-9.6,2.3-18.7,6.4-28,9.8-7.5,2.3-13.4,7.7-20.9,10-3.4,1.3-7,2.2-10.1,4.3-19.8,12.1-38.3,26.1-57.5,38.9-22.4,13.5-45.2,28.1-63.3,47-11.2,14-18.5,35.9,1.1,45.8ZM122.1,626.6c-10.5-6.9-11.8-20.6-4.8-30.8h.1c5.6-14.3,19.1-22,30.5-31.3,12-9.3,24.7-17.9,37.9-25.5,19.3-12.8,37.6-27.1,57.4-39.2,9.8-4.4,19.6-8.6,29.1-13.6,16.4-5.7,35.4-16.6,52.5-7.9,5.6,3.1,7.4,11.8,3.9,16.9-9.7,7.7-21.5,12.8-33.1,17-8.9,3.6-18.4,6.6-26.3,12.1-15.9,12.1-32.9,22.6-47.1,36.8-13.7,12-30.4,20.4-43.4,33.2-8.5,8.1-17.2,12.9-25.3,21.7-8.1,7.9-20.2,19.6-31.4,10.6Z" stroke="#000" stroke-miterlimit="10" stroke-width="3.7"/>
        </g>
        <g>
          <path d="M2.8,798.4c15.5,6.3,44.9,3.3,60.7-2.2,20.9-10.9,40.6-25.3,56.2-43.1,8.6-7,14.3-16.7,23.1-23.2,6.7-4.9,11.4-11.8,17.7-16.9,12.9-8.3,29.4-3.3,42.9-9.7,11.5-4.5,19-14.3,28.4-21.9,21.5-20.1,42.9-40.4,63.1-61.7,6.8-6.2,13.6-12.6,21.3-17.4,9.3-6.1,19.9-7.2,29.2-13.2,7.9-4.2,11.9-12.1,17.9-18.2,8.7-6.5,12.6-19.5,24.4-21,16.2-5.7,32.8-9,49.1-14.1,14.4-1.9,28.5-5.6,40.2-14.7,11.5-8.4,16-21.7,15.2-35.5.1-12.6-.3-25.8-3.4-38.1-2.7-18.6-12.3-35.1-25.3-48.4-7.7-6.8-16.7-14-27.3-15.3-20.1-1.6-40.3-2.9-60.5-1.1-15.5,1.8-30.8,5.2-46.1,8.5-2.6.7-5.2.1-7.6-1-8-3.9-16.4-5.8-24.7-9.1-12.2-5.8-26.6-5-39.2-1.5-22.8,3.8-45,11.1-65.9,21.1-21,6.6-40,17.4-59.2,28.1-28,13.6-38.2,15.5-50.6,46.1-2.5,6.2-4.3,12.6-6.9,18.8-2.9,11,1.1,15.9-10.6,22.7-6.6,5.3-13.4,10.5-20.6,15.1-9.7,5.6-15.7,15.3-23.8,22.7-16.8,14.4-35.2,27.2-48.8,44.9-10.4,17.4-22.1,35.8-24.2,56.4-1.2,9.4-4.8,18.4-4.2,28,0,12.8,2.8,25.6,5.9,38.1,1.2,7.1,2.1,13.9,5.8,20.3,2.9,6.9,3.1,15.1,8.7,20.6,12.3,12.9,21.6,29.8,39.1,36.3Z" fill="#e6c9fe"/>
          <path d="M6.9,752.1c-24.7-18.2-28.4-52.3-24.4-80.5,3.2-43.6,36.2-67.4,68.8-91.6,96.5-82.8,179.4-125.6,302.4-157.1,29.3-10.2,67.1-17.5,90.5,8.5,13.9,14.6,23.3,41.4,7.7,57.5-21.3,17.3-50,21.5-75.3,30.4-24.8,10-51.3,15.7-75.2,27.4-17.4,9.5-32.6,23.4-47.8,36.1-25.3,21.1-51.5,41.2-75.1,64.2-47.2,32.3-107.6,145.4-171.7,105.1Z" fill="none" stroke="#000" stroke-miterlimit="10" stroke-width="5.7"/>
          <path d="M2.8,798.4c15.5,6.3,44.9,3.3,60.7-2.2,20.9-10.9,40.6-25.3,56.2-43.1,8.6-7,14.3-16.7,23.1-23.2,6.7-4.9,11.4-11.8,17.7-16.9,12.9-8.3,29.4-3.3,42.9-9.7,11.5-4.5,19-14.3,28.4-21.9,21.5-20.1,42.9-40.4,63.1-61.7,6.8-6.2,13.6-12.6,21.3-17.4,9.3-6.1,19.9-7.2,29.2-13.2,7.9-4.2,11.9-12.1,17.9-18.2,8.7-6.5,12.6-19.5,24.4-21,16.2-5.7,32.8-9,49.1-14.1,14.4-1.9,28.5-5.6,40.2-14.7,11.5-8.4,16-21.7,15.2-35.5.1-12.6-.3-25.8-3.4-38.1-2.7-18.6-12.3-35.1-25.3-48.4-7.7-6.8-16.7-14-27.3-15.3-20.1-1.6-40.3-2.9-60.5-1.1-15.5,1.8-30.8,5.2-46.1,8.5-2.6.7-5.2.1-7.6-1-8-3.9-16.4-5.8-24.7-9.1-12.2-5.8-26.6-5-39.2-1.5-22.8,3.8-45,11.1-65.9,21.1-21,6.6-40,17.4-59.2,28.1-28,13.6-38.2,15.5-50.6,46.1-2.5,6.2-4.3,12.6-6.9,18.8-2.9,11,1.1,15.9-10.6,22.7-6.6,5.3-13.4,10.5-20.6,15.1-9.7,5.6-15.7,15.3-23.8,22.7-16.8,14.4-35.2,27.2-48.8,44.9-10.4,17.4-22.1,35.8-24.2,56.4-1.2,9.4-4.8,18.4-4.2,28,0,12.8,2.8,25.6,5.9,38.1,1.2,7.1,2.1,13.9,5.8,20.3,2.9,6.9,3.1,15.1,8.7,20.6,12.3,12.9,21.6,29.8,39.1,36.3ZM369.2,556.9c-.5,4.5-5.8,7.5-8.8,10.7-3.9,3.2-6.1,8-9.7,11.5-8,8.5-19.8,10.1-29.7,15.3-10.2,4-18.4,11.6-26.4,18.9-20.9,20.7-41.7,41.9-63.7,61.7-18.9,17.4-27.6,28.2-55.3,27.6-4.9.5-3-2.9-.6-5.1,22.4-24.6,48.3-45.7,72.6-68.2,18.2-16.3,37.7-31.1,55.8-47.6,19-12.6,40.5-20.2,62.7-25.2,1-.2,2.8-.5,3.1.4ZM79,503.6c-1.4-3.8.9-8.7,2.2-12.4,3.9-11.6,8.7-23,14.2-33.9,9.3-13.8,27.7-17.5,41.4-25.7,9.9-5.5,20-10.8,29.8-16.5,34.5-13.8,68.6-29.8,105.9-34.7,15.1-1.7,28.5,5.9,42.4,10.2,3.8,2.1-1.5,3.6-3.4,4.2-16,5.4-31.2,12.7-47.5,17.3-12.5,4.2-25.7,6.2-37.6,12-33.5,16.5-67.2,32.4-100.1,50.1-14.8,8.8-29,18.7-43.4,28.3-1.1.7-3.1,2.1-3.9,1ZM269.2,603.3c-31.4,25.1-60,53.4-89.6,80.6-13.1,14.1-26.1,28.5-40.5,41.4-4,2.8-7.5,6.3-10.4,10.2-7.4,8.6-16.4,15.9-23.5,24.8-17,13-33.5,29.1-55,33.8-12.8,2.5-26.5,2.2-39.5,1.3-12-3.4-21.8-11.2-29.3-21.1-5.3-6.5-11.2-12.6-16.2-19.4-2.6-9.8-7.8-19.2-9.4-29.2-4.2-20.3-10.3-41.3-3.9-61.8,1.9-14.5,4.9-28.4,12.8-40.8,4.4-7.6,7.7-16.5,13.7-23.2,13.6-16.7,31.7-29.3,47.9-43.4,15.7-19.7,38.6-31.4,57.7-47.7,36.6-26.3,76.4-47.2,117.4-65.8,15.2-7.8,30-16.8,46.8-20.7,25.8-5.4,48.9-18.9,74.4-24.9,25.5-5.1,51.1-11.8,77.4-11,15.2,1.6,31.3-1.3,45.5,5.4,31.3,17.2,42.7,54.8,41.5,88.5,1.8,17.9-5.7,34.2-22.6,41.6-13.1,7.7-29.1,6.5-42.9,12.4-15.5,2.7-30.4,8.6-45.5,12.8-32.7,10.5-68.3,17.8-92.4,44.6" stroke="#000" stroke-miterlimit="10" stroke-width=".6"/>
          <path d="M122.4,629c12.3,8.1,24.9-4.9,33.4-13.2,7.4-7.8,16.9-13.1,24.6-20.7,9.2-9,20.4-15.7,30.8-23.2,13-8.9,23.4-20.7,36.3-29.7,12.1-7.1,21.9-17.5,35.1-22.6,14.3-6.9,40.1-12.5,48.8-25.8,5.1-20-15.4-22.7-30.3-20.6-9.6,2.3-18.7,6.4-28,9.8-7.5,2.3-13.4,7.7-20.9,10-3.4,1.3-7,2.2-10.1,4.3-19.8,12.1-38.3,26.1-57.5,38.9-22.4,13.5-45.2,28.1-63.3,47-11.2,14-18.5,35.9,1.1,45.8ZM121.6,626.1c-10.5-6.9-11.8-20.6-4.8-30.8h.1c5.6-14.3,19.1-22,30.5-31.3,12-9.3,24.7-17.9,37.9-25.5,19.3-12.8,37.6-27.1,57.4-39.2,9.8-4.4,19.6-8.6,29.1-13.6,16.4-5.7,35.4-16.6,52.5-7.9,5.6,3.1,7.4,11.8,3.9,16.9-9.7,7.7-21.5,12.8-33.1,17-8.9,3.6-18.4,6.6-26.3,12.1-15.9,12.1-32.9,22.6-47.1,36.8-13.7,12-30.4,20.4-43.4,33.2-8.5,8.1-17.2,12.9-25.3,21.7-8.1,7.9-20.2,19.6-31.4,10.6Z" stroke="#000" stroke-miterlimit="10" stroke-width="3.7"/>
        </g>
        <g>
          <path d="M2.3,797.9c15.5,6.3,44.9,3.3,60.7-2.2,20.9-10.9,40.6-25.3,56.2-43.1,8.6-7,14.3-16.7,23.1-23.2,6.7-4.9,11.4-11.8,17.7-16.9,12.9-8.3,29.4-3.3,42.9-9.7,11.5-4.5,19-14.3,28.4-21.9,21.5-20.1,42.9-40.4,63.1-61.7,6.8-6.2,13.6-12.6,21.3-17.4,9.3-6.1,19.9-7.2,29.2-13.2,7.9-4.2,11.9-12.1,17.9-18.2,8.7-6.5,12.6-19.5,24.4-21,16.2-5.7,32.8-9,49.1-14.1,14.4-1.9,28.5-5.6,40.2-14.7,11.5-8.4,16-21.7,15.2-35.5.1-12.6-.3-25.8-3.4-38.1-2.7-18.6-12.3-35.1-25.3-48.4-7.7-6.8-16.7-14-27.3-15.3-20.1-1.6-40.3-2.9-60.5-1.1-15.5,1.8-30.8,5.2-46.1,8.5-2.6.7-5.2.1-7.6-1-8-3.9-16.4-5.8-24.7-9.1-12.2-5.8-26.6-5-39.2-1.5-22.8,3.8-45,11.1-65.9,21.1-21,6.6-40,17.4-59.2,28.1-28,13.6-38.2,15.5-50.6,46.1-2.5,6.2-4.3,12.6-6.9,18.8-2.9,11,1.1,15.9-10.6,22.7-6.6,5.3-13.4,10.5-20.6,15.1-9.7,5.6-15.7,15.3-23.8,22.7-16.8,14.4-35.2,27.2-48.8,44.9-10.4,17.4-22.1,35.8-24.2,56.4-1.2,9.4-4.8,18.4-4.2,28,0,12.8,2.8,25.6,5.9,38.1,1.2,7.1,2.1,13.9,5.8,20.3,2.9,6.9,3.1,15.1,8.7,20.6,12.3,12.9,21.6,29.8,39.1,36.3Z" fill="#e6c9fe"/>
          <path d="M6.4,751.6c-24.7-18.2-28.4-52.3-24.4-80.5,3.2-43.6,36.2-67.4,68.8-91.6,96.5-82.8,179.4-125.6,302.4-157.1,29.3-10.2,67.1-17.5,90.5,8.5,13.9,14.6,23.3,41.4,7.7,57.5-21.3,17.3-50,21.5-75.3,30.4-24.8,10-51.3,15.7-75.2,27.4-17.4,9.5-32.6,23.4-47.8,36.1-25.3,21.1-51.5,41.2-75.1,64.2-47.2,32.3-107.6,145.4-171.7,105.1Z" fill="none" stroke="#000" stroke-miterlimit="10" stroke-width="5.7"/>
          <path d="M2.3,797.9c15.5,6.3,44.9,3.3,60.7-2.2,20.9-10.9,40.6-25.3,56.2-43.1,8.6-7,14.3-16.7,23.1-23.2,6.7-4.9,11.4-11.8,17.7-16.9,12.9-8.3,29.4-3.3,42.9-9.7,11.5-4.5,19-14.3,28.4-21.9,21.5-20.1,42.9-40.4,63.1-61.7,6.8-6.2,13.6-12.6,21.3-17.4,9.3-6.1,19.9-7.2,29.2-13.2,7.9-4.2,11.9-12.1,17.9-18.2,8.7-6.5,12.6-19.5,24.4-21,16.2-5.7,32.8-9,49.1-14.1,14.4-1.9,28.5-5.6,40.2-14.7,11.5-8.4,16-21.7,15.2-35.5.1-12.6-.3-25.8-3.4-38.1-2.7-18.6-12.3-35.1-25.3-48.4-7.7-6.8-16.7-14-27.3-15.3-20.1-1.6-40.3-2.9-60.5-1.1-15.5,1.8-30.8,5.2-46.1,8.5-2.6.7-5.2.1-7.6-1-8-3.9-16.4-5.8-24.7-9.1-12.2-5.8-26.6-5-39.2-1.5-22.8,3.8-45,11.1-65.9,21.1-21,6.6-40,17.4-59.2,28.1-28,13.6-38.2,15.5-50.6,46.1-2.5,6.2-4.3,12.6-6.9,18.8-2.9,11,1.1,15.9-10.6,22.7-6.6,5.3-13.4,10.5-20.6,15.1-9.7,5.6-15.7,15.3-23.8,22.7-16.8,14.4-35.2,27.2-48.8,44.9-10.4,17.4-22.1,35.8-24.2,56.4-1.2,9.4-4.8,18.4-4.2,28,0,12.8,2.8,25.6,5.9,38.1,1.2,7.1,2.1,13.9,5.8,20.3,2.9,6.9,3.1,15.1,8.7,20.6,12.3,12.9,21.6,29.8,39.1,36.3ZM368.7,556.4c-.5,4.5-5.8,7.5-8.8,10.7-3.9,3.2-6.1,8-9.7,11.5-8,8.5-19.8,10.1-29.7,15.3-10.2,4-18.4,11.6-26.4,18.9-20.9,20.7-41.7,41.9-63.7,61.7-18.9,17.4-27.6,28.2-55.3,27.6-4.9.5-3-2.9-.6-5.1,22.4-24.6,48.3-45.7,72.6-68.2,18.2-16.3,37.7-31.1,55.8-47.6,19-12.6,40.5-20.2,62.7-25.2,1-.2,2.8-.5,3.1.4ZM78.5,503.1c-1.4-3.8.9-8.7,2.2-12.4,3.9-11.6,8.7-23,14.2-33.9,9.3-13.8,27.7-17.5,41.4-25.7,9.9-5.5,20-10.8,29.8-16.5,34.5-13.8,68.6-29.8,105.9-34.7,15.1-1.7,28.5,5.9,42.4,10.2,3.8,2.1-1.5,3.6-3.4,4.2-16,5.4-31.2,12.7-47.5,17.3-12.5,4.2-25.7,6.2-37.6,12-33.5,16.5-67.2,32.4-100.1,50.1-14.8,8.8-29,18.7-43.4,28.3-1.1.7-3.1,2.1-3.9,1ZM268.7,602.8c-31.4,25.1-60,53.4-89.6,80.6-13.1,14.1-26.1,28.5-40.5,41.4-4,2.8-7.5,6.3-10.4,10.2-7.4,8.6-16.4,15.9-23.5,24.8-17,13-33.5,29.1-55,33.8-12.8,2.5-26.5,2.2-39.5,1.3-12-3.4-21.8-11.2-29.3-21.1-5.3-6.5-11.2-12.6-16.2-19.4-2.6-9.8-7.8-19.2-9.4-29.2-4.2-20.3-10.3-41.3-3.9-61.8,1.9-14.5,4.9-28.4,12.8-40.8,4.4-7.6,7.7-16.5,13.7-23.2,13.6-16.7,31.7-29.3,47.9-43.4,15.7-19.7,38.6-31.4,57.7-47.7,36.6-26.3,76.4-47.2,117.4-65.8,15.2-7.8,30-16.8,46.8-20.7,25.8-5.4,48.9-18.9,74.4-24.9,25.5-5.1,51.1-11.8,77.4-11,15.2,1.6,31.3-1.3,45.5,5.4,31.3,17.2,42.7,54.8,41.5,88.5,1.8,17.9-5.7,34.2-22.6,41.6-13.1,7.7-29.1,6.5-42.9,12.4-15.5,2.7-30.4,8.6-45.5,12.8-32.7,10.5-68.3,17.8-92.4,44.6" stroke="#000" stroke-miterlimit="10" stroke-width=".6"/>
          <path d="M121.9,628.5c12.3,8.1,24.9-4.9,33.4-13.2,7.4-7.8,16.9-13.1,24.6-20.7,9.2-9,20.4-15.7,30.8-23.2,13-8.9,23.4-20.7,36.3-29.7,12.1-7.1,21.9-17.5,35.1-22.6,14.3-6.9,40.1-12.5,48.8-25.8,5.1-20-15.4-22.7-30.3-20.6-9.6,2.3-18.7,6.4-28,9.8-7.5,2.3-13.4,7.7-20.9,10-3.4,1.3-7,2.2-10.1,4.3-19.8,12.1-38.3,26.1-57.5,38.9-22.4,13.5-45.2,28.1-63.3,47-11.2,14-18.5,35.9,1.1,45.8ZM121.1,625.6c-10.5-6.9-11.8-20.6-4.8-30.8h.1c5.6-14.3,19.1-22,30.5-31.3,12-9.3,24.7-17.9,37.9-25.5,19.3-12.8,37.6-27.1,57.4-39.2,9.8-4.4,19.6-8.6,29.1-13.6,16.4-5.7,35.4-16.6,52.5-7.9,5.6,3.1,7.4,11.8,3.9,16.9-9.7,7.7-21.5,12.8-33.1,17-8.9,3.6-18.4,6.6-26.3,12.1-15.9,12.1-32.9,22.6-47.1,36.8-13.7,12-30.4,20.4-43.4,33.2-8.5,8.1-17.2,12.9-25.3,21.7-8.1,7.9-20.2,19.6-31.4,10.6Z" stroke="#000" stroke-miterlimit="10" stroke-width="3.7"/>
        </g>
        <g>
          <path d="M1.8,797.4c15.5,6.3,44.9,3.3,60.7-2.2,20.9-10.9,40.6-25.3,56.2-43.1,8.6-7,14.3-16.7,23.1-23.2,6.7-4.9,11.4-11.8,17.7-16.9,12.9-8.3,29.4-3.3,42.9-9.7,11.5-4.5,19-14.3,28.4-21.9,21.5-20.1,42.9-40.4,63.1-61.7,6.8-6.2,13.6-12.6,21.3-17.4,9.3-6.1,19.9-7.2,29.2-13.2,7.9-4.2,11.9-12.1,17.9-18.2,8.7-6.5,12.6-19.5,24.4-21,16.2-5.7,32.8-9,49.1-14.1,14.4-1.9,28.5-5.6,40.2-14.7,11.5-8.4,16-21.7,15.2-35.5.1-12.6-.3-25.8-3.4-38.1-2.7-18.6-12.3-35.1-25.3-48.4-7.7-6.8-16.7-14-27.3-15.3-20.1-1.6-40.3-2.9-60.5-1.1-15.5,1.8-30.8,5.2-46.1,8.5-2.6.7-5.2.1-7.6-1-8-3.9-16.4-5.8-24.7-9.1-12.2-5.8-26.6-5-39.2-1.5-22.8,3.8-45,11.1-65.9,21.1-21,6.6-40,17.4-59.2,28.1-28,13.6-38.2,15.5-50.6,46.1-2.5,6.2-4.3,12.6-6.9,18.8-2.9,11,1.1,15.9-10.6,22.7-6.6,5.3-13.4,10.5-20.6,15.1-9.7,5.6-15.7,15.3-23.8,22.7-16.8,14.4-35.2,27.2-48.8,44.9-10.4,17.4-22.1,35.8-24.2,56.4-1.2,9.4-4.8,18.4-4.2,28,0,12.8,2.8,25.6,5.9,38.1,1.2,7.1,2.1,13.9,5.8,20.3,2.9,6.9,3.1,15.1,8.7,20.6,12.3,12.9,21.6,29.8,39.1,36.3Z" fill="#e6c9fe"/>
          <path d="M5.9,751.1c-24.7-18.2-28.4-52.3-24.4-80.5,3.2-43.6,36.2-67.4,68.8-91.6,96.5-82.8,179.4-125.6,302.4-157.1,29.3-10.2,67.1-17.5,90.5,8.5,13.9,14.6,23.3,41.4,7.7,57.5-21.3,17.3-50,21.5-75.3,30.4-24.8,10-51.3,15.7-75.2,27.4-17.4,9.5-32.6,23.4-47.8,36.1-25.3,21.1-51.5,41.2-75.1,64.2-47.2,32.3-107.6,145.4-171.7,105.1Z" fill="none" stroke="#000" stroke-miterlimit="10" stroke-width="5.7"/>
          <path d="M1.8,797.4c15.5,6.3,44.9,3.3,60.7-2.2,20.9-10.9,40.6-25.3,56.2-43.1,8.6-7,14.3-16.7,23.1-23.2,6.7-4.9,11.4-11.8,17.7-16.9,12.9-8.3,29.4-3.3,42.9-9.7,11.5-4.5,19-14.3,28.4-21.9,21.5-20.1,42.9-40.4,63.1-61.7,6.8-6.2,13.6-12.6,21.3-17.4,9.3-6.1,19.9-7.2,29.2-13.2,7.9-4.2,11.9-12.1,17.9-18.2,8.7-6.5,12.6-19.5,24.4-21,16.2-5.7,32.8-9,49.1-14.1,14.4-1.9,28.5-5.6,40.2-14.7,11.5-8.4,16-21.7,15.2-35.5.1-12.6-.3-25.8-3.4-38.1-2.7-18.6-12.3-35.1-25.3-48.4-7.7-6.8-16.7-14-27.3-15.3-20.1-1.6-40.3-2.9-60.5-1.1-15.5,1.8-30.8,5.2-46.1,8.5-2.6.7-5.2.1-7.6-1-8-3.9-16.4-5.8-24.7-9.1-12.2-5.8-26.6-5-39.2-1.5-22.8,3.8-45,11.1-65.9,21.1-21,6.6-40,17.4-59.2,28.1-28,13.6-38.2,15.5-50.6,46.1-2.5,6.2-4.3,12.6-6.9,18.8-2.9,11,1.1,15.9-10.6,22.7-6.6,5.3-13.4,10.5-20.6,15.1-9.7,5.6-15.7,15.3-23.8,22.7-16.8,14.4-35.2,27.2-48.8,44.9-10.4,17.4-22.1,35.8-24.2,56.4-1.2,9.4-4.8,18.4-4.2,28,0,12.8,2.8,25.6,5.9,38.1,1.2,7.1,2.1,13.9,5.8,20.3,2.9,6.9,3.1,15.1,8.7,20.6,12.3,12.9,21.6,29.8,39.1,36.3ZM368.2,555.9c-.5,4.5-5.8,7.5-8.8,10.7-3.9,3.2-6.1,8-9.7,11.5-8,8.5-19.8,10.1-29.7,15.3-10.2,4-18.4,11.6-26.4,18.9-20.9,20.7-41.7,41.9-63.7,61.7-18.9,17.4-27.6,28.2-55.3,27.6-4.9.5-3-2.9-.6-5.1,22.4-24.6,48.3-45.7,72.6-68.2,18.2-16.3,37.7-31.1,55.8-47.6,19-12.6,40.5-20.2,62.7-25.2,1-.2,2.8-.5,3.1.4ZM78,502.6c-1.4-3.8.9-8.7,2.2-12.4,3.9-11.6,8.7-23,14.2-33.9,9.3-13.8,27.7-17.5,41.4-25.7,9.9-5.5,20-10.8,29.8-16.5,34.5-13.8,68.6-29.8,105.9-34.7,15.1-1.7,28.5,5.9,42.4,10.2,3.8,2.1-1.5,3.6-3.4,4.2-16,5.4-31.2,12.7-47.5,17.3-12.5,4.2-25.7,6.2-37.6,12-33.5,16.5-67.2,32.4-100.1,50.1-14.8,8.8-29,18.7-43.4,28.3-1.1.7-3.1,2.1-3.9,1ZM268.2,602.3c-31.4,25.1-60,53.4-89.6,80.6-13.1,14.1-26.1,28.5-40.5,41.4-4,2.8-7.5,6.3-10.4,10.2-7.4,8.6-16.4,15.9-23.5,24.8-17,13-33.5,29.1-55,33.8-12.8,2.5-26.5,2.2-39.5,1.3-12-3.4-21.8-11.2-29.3-21.1-5.3-6.5-11.2-12.6-16.2-19.4-2.6-9.8-7.8-19.2-9.4-29.2-4.2-20.3-10.3-41.3-3.9-61.8,1.9-14.5,4.9-28.4,12.8-40.8,4.4-7.6,7.7-16.5,13.7-23.2,13.6-16.7,31.7-29.3,47.9-43.4,15.7-19.7,38.6-31.4,57.7-47.7,36.6-26.3,76.4-47.2,117.4-65.8,15.2-7.8,30-16.8,46.8-20.7,25.8-5.4,48.9-18.9,74.4-24.9,25.5-5.1,51.1-11.8,77.4-11,15.2,1.6,31.3-1.3,45.5,5.4,31.3,17.2,42.7,54.8,41.5,88.5,1.8,17.9-5.7,34.2-22.6,41.6-13.1,7.7-29.1,6.5-42.9,12.4-15.5,2.7-30.4,8.6-45.5,12.8-32.7,10.5-68.3,17.8-92.4,44.6" stroke="#000" stroke-miterlimit="10" stroke-width=".6"/>
          <path d="M121.4,628c12.3,8.1,24.9-4.9,33.4-13.2,7.4-7.8,16.9-13.1,24.6-20.7,9.2-9,20.4-15.7,30.8-23.2,13-8.9,23.4-20.7,36.3-29.7,12.1-7.1,21.9-17.5,35.1-22.6,14.3-6.9,40.1-12.5,48.8-25.8,5.1-20-15.4-22.7-30.3-20.6-9.6,2.3-18.7,6.4-28,9.8-7.5,2.3-13.4,7.7-20.9,10-3.4,1.3-7,2.2-10.1,4.3-19.8,12.1-38.3,26.1-57.5,38.9-22.4,13.5-45.2,28.1-63.3,47-11.2,14-18.5,35.9,1.1,45.8ZM120.6,625.1c-10.5-6.9-11.8-20.6-4.8-30.8h.1c5.6-14.3,19.1-22,30.5-31.3,12-9.3,24.7-17.9,37.9-25.5,19.3-12.8,37.6-27.1,57.4-39.2,9.8-4.4,19.6-8.6,29.1-13.6,16.4-5.7,35.4-16.6,52.5-7.9,5.6,3.1,7.4,11.8,3.9,16.9-9.7,7.7-21.5,12.8-33.1,17-8.9,3.6-18.4,6.6-26.3,12.1-15.9,12.1-32.9,22.6-47.1,36.8-13.7,12-30.4,20.4-43.4,33.2-8.5,8.1-17.2,12.9-25.3,21.7-8.1,7.9-20.2,19.6-31.4,10.6Z" stroke="#000" stroke-miterlimit="10" stroke-width="3.7"/>
        </g>
        <g>
          <path d="M1.3,796.9c15.5,6.3,44.9,3.3,60.7-2.2,20.9-10.9,40.6-25.3,56.2-43.1,8.6-7,14.3-16.7,23.1-23.2,6.7-4.9,11.4-11.8,17.7-16.9,12.9-8.3,29.4-3.3,42.9-9.7,11.5-4.5,19-14.3,28.4-21.9,21.5-20.1,42.9-40.4,63.1-61.7,6.8-6.2,13.6-12.6,21.3-17.4,9.3-6.1,19.9-7.2,29.2-13.2,7.9-4.2,11.9-12.1,17.9-18.2,8.7-6.5,12.6-19.5,24.4-21,16.2-5.7,32.8-9,49.1-14.1,14.4-1.9,28.5-5.6,40.2-14.7,11.5-8.4,16-21.7,15.2-35.5.1-12.6-.3-25.8-3.4-38.1-2.7-18.6-12.3-35.1-25.3-48.4-7.7-6.8-16.7-14-27.3-15.3-20.1-1.6-40.3-2.9-60.5-1.1-15.5,1.8-30.8,5.2-46.1,8.5-2.6.7-5.2.1-7.6-1-8-3.9-16.4-5.8-24.7-9.1-12.2-5.8-26.6-5-39.2-1.5-22.8,3.8-45,11.1-65.9,21.1-21,6.6-40,17.4-59.2,28.1-28,13.6-38.2,15.5-50.6,46.1-2.5,6.2-4.3,12.6-6.9,18.8-2.9,11,1.1,15.9-10.6,22.7-6.6,5.3-13.4,10.5-20.6,15.1-9.7,5.6-15.7,15.3-23.8,22.7-16.8,14.4-35.2,27.2-48.8,44.9-10.4,17.4-22.1,35.8-24.2,56.4-1.2,9.4-4.8,18.4-4.2,28,0,12.8,2.8,25.6,5.9,38.1,1.2,7.1,2.1,13.9,5.8,20.3,2.9,6.9,3.1,15.1,8.7,20.6,12.3,12.9,21.6,29.8,39.1,36.3Z" fill="#e6c9fe"/>
          <path d="M5.4,750.6c-24.7-18.2-28.4-52.3-24.4-80.5,3.2-43.6,36.2-67.4,68.8-91.6,96.5-82.8,179.4-125.6,302.4-157.1,29.3-10.2,67.1-17.5,90.5,8.5,13.9,14.6,23.3,41.4,7.7,57.5-21.3,17.3-50,21.5-75.3,30.4-24.8,10-51.3,15.7-75.2,27.4-17.4,9.5-32.6,23.4-47.8,36.1-25.3,21.1-51.5,41.2-75.1,64.2-47.2,32.3-107.6,145.4-171.7,105.1Z" fill="none" stroke="#000" stroke-miterlimit="10" stroke-width="5.7"/>
          <path d="M1.3,796.9c15.5,6.3,44.9,3.3,60.7-2.2,20.9-10.9,40.6-25.3,56.2-43.1,8.6-7,14.3-16.7,23.1-23.2,6.7-4.9,11.4-11.8,17.7-16.9,12.9-8.3,29.4-3.3,42.9-9.7,11.5-4.5,19-14.3,28.4-21.9,21.5-20.1,42.9-40.4,63.1-61.7,6.8-6.2,13.6-12.6,21.3-17.4,9.3-6.1,19.9-7.2,29.2-13.2,7.9-4.2,11.9-12.1,17.9-18.2,8.7-6.5,12.6-19.5,24.4-21,16.2-5.7,32.8-9,49.1-14.1,14.4-1.9,28.5-5.6,40.2-14.7,11.5-8.4,16-21.7,15.2-35.5.1-12.6-.3-25.8-3.4-38.1-2.7-18.6-12.3-35.1-25.3-48.4-7.7-6.8-16.7-14-27.3-15.3-20.1-1.6-40.3-2.9-60.5-1.1-15.5,1.8-30.8,5.2-46.1,8.5-2.6.7-5.2.1-7.6-1-8-3.9-16.4-5.8-24.7-9.1-12.2-5.8-26.6-5-39.2-1.5-22.8,3.8-45,11.1-65.9,21.1-21,6.6-40,17.4-59.2,28.1-28,13.6-38.2,15.5-50.6,46.1-2.5,6.2-4.3,12.6-6.9,18.8-2.9,11,1.1,15.9-10.6,22.7-6.6,5.3-13.4,10.5-20.6,15.1-9.7,5.6-15.7,15.3-23.8,22.7-16.8,14.4-35.2,27.2-48.8,44.9-10.4,17.4-22.1,35.8-24.2,56.4-1.2,9.4-4.8,18.4-4.2,28,0,12.8,2.8,25.6,5.9,38.1,1.2,7.1,2.1,13.9,5.8,20.3,2.9,6.9,3.1,15.1,8.7,20.6,12.3,12.9,21.6,29.8,39.1,36.3ZM367.7,555.4c-.5,4.5-5.8,7.5-8.8,10.7-3.9,3.2-6.1,8-9.7,11.5-8,8.5-19.8,10.1-29.7,15.3-10.2,4-18.4,11.6-26.4,18.9-20.9,20.7-41.7,41.9-63.7,61.7-18.9,17.4-27.6,28.2-55.3,27.6-4.9.5-3-2.9-.6-5.1,22.4-24.6,48.3-45.7,72.6-68.2,18.2-16.3,37.7-31.1,55.8-47.6,19-12.6,40.5-20.2,62.7-25.2,1-.2,2.8-.5,3.1.4ZM77.5,502.1c-1.4-3.8.9-8.7,2.2-12.4,3.9-11.6,8.7-23,14.2-33.9,9.3-13.8,27.7-17.5,41.4-25.7,9.9-5.5,20-10.8,29.8-16.5,34.5-13.8,68.6-29.8,105.9-34.7,15.1-1.7,28.5,5.9,42.4,10.2,3.8,2.1-1.5,3.6-3.4,4.2-16,5.4-31.2,12.7-47.5,17.3-12.5,4.2-25.7,6.2-37.6,12-33.5,16.5-67.2,32.4-100.1,50.1-14.8,8.8-29,18.7-43.4,28.3-1.1.7-3.1,2.1-3.9,1ZM267.7,601.8c-31.4,25.1-60,53.4-89.6,80.6-13.1,14.1-26.1,28.5-40.5,41.4-4,2.8-7.5,6.3-10.4,10.2-7.4,8.6-16.4,15.9-23.5,24.8-17,13-33.5,29.1-55,33.8-12.8,2.5-26.5,2.2-39.5,1.3-12-3.4-21.8-11.2-29.3-21.1-5.3-6.5-11.2-12.6-16.2-19.4-2.6-9.8-7.8-19.2-9.4-29.2-4.2-20.3-10.3-41.3-3.9-61.8,1.9-14.5,4.9-28.4,12.8-40.8,4.4-7.6,7.7-16.5,13.7-23.2,13.6-16.7,31.7-29.3,47.9-43.4,15.7-19.7,38.6-31.4,57.7-47.7,36.6-26.3,76.4-47.2,117.4-65.8,15.2-7.8,30-16.8,46.8-20.7,25.8-5.4,48.9-18.9,74.4-24.9,25.5-5.1,51.1-11.8,77.4-11,15.2,1.6,31.3-1.3,45.5,5.4,31.3,17.2,42.7,54.8,41.5,88.5,1.8,17.9-5.7,34.2-22.6,41.6-13.1,7.7-29.1,6.5-42.9,12.4-15.5,2.7-30.4,8.6-45.5,12.8-32.7,10.5-68.3,17.8-92.4,44.6" stroke="#000" stroke-miterlimit="10" stroke-width=".6"/>
          <path d="M120.9,627.5c12.3,8.1,24.9-4.9,33.4-13.2,7.4-7.8,16.9-13.1,24.6-20.7,9.2-9,20.4-15.7,30.8-23.2,13-8.9,23.4-20.7,36.3-29.7,12.1-7.1,21.9-17.5,35.1-22.6,14.3-6.9,40.1-12.5,48.8-25.8,5.1-20-15.4-22.7-30.3-20.6-9.6,2.3-18.7,6.4-28,9.8-7.5,2.3-13.4,7.7-20.9,10-3.4,1.3-7,2.2-10.1,4.3-19.8,12.1-38.3,26.1-57.5,38.9-22.4,13.5-45.2,28.1-63.3,47-11.2,14-18.5,35.9,1.1,45.8ZM120.1,624.6c-10.5-6.9-11.8-20.6-4.8-30.8h.1c5.6-14.3,19.1-22,30.5-31.3,12-9.3,24.7-17.9,37.9-25.5,19.3-12.8,37.6-27.1,57.4-39.2,9.8-4.4,19.6-8.6,29.1-13.6,16.4-5.7,35.4-16.6,52.5-7.9,5.6,3.1,7.4,11.8,3.9,16.9-9.7,7.7-21.5,12.8-33.1,17-8.9,3.6-18.4,6.6-26.3,12.1-15.9,12.1-32.9,22.6-47.1,36.8-13.7,12-30.4,20.4-43.4,33.2-8.5,8.1-17.2,12.9-25.3,21.7-8.1,7.9-20.2,19.6-31.4,10.6Z" stroke="#000" stroke-miterlimit="10" stroke-width="3.7"/>
        </g>
        <g>
          <path d="M.8,796.4c15.5,6.3,44.9,3.3,60.7-2.2,20.9-10.9,40.6-25.3,56.2-43.1,8.6-7,14.3-16.7,23.1-23.2,6.7-4.9,11.4-11.8,17.7-16.9,12.9-8.3,29.4-3.3,42.9-9.7,11.5-4.5,19-14.3,28.4-21.9,21.5-20.1,42.9-40.4,63.1-61.7,6.8-6.2,13.6-12.6,21.3-17.4,9.3-6.1,19.9-7.2,29.2-13.2,7.9-4.2,11.9-12.1,17.9-18.2,8.7-6.5,12.6-19.5,24.4-21,16.2-5.7,32.8-9,49.1-14.1,14.4-1.9,28.5-5.6,40.2-14.7,11.5-8.4,16-21.7,15.2-35.5.1-12.6-.3-25.8-3.4-38.1-2.7-18.6-12.3-35.1-25.3-48.4-7.7-6.8-16.7-14-27.3-15.3-20.1-1.6-40.3-2.9-60.5-1.1-15.5,1.8-30.8,5.2-46.1,8.5-2.6.7-5.2.1-7.6-1-8-3.9-16.4-5.8-24.7-9.1-12.2-5.8-26.6-5-39.2-1.5-22.8,3.8-45,11.1-65.9,21.1-21,6.6-40,17.4-59.2,28.1-28,13.6-38.2,15.5-50.6,46.1-2.5,6.2-4.3,12.6-6.9,18.8-2.9,11,1.1,15.9-10.6,22.7-6.6,5.3-13.4,10.5-20.6,15.1-9.7,5.6-15.7,15.3-23.8,22.7-16.8,14.4-35.2,27.2-48.8,44.9-10.4,17.4-22.1,35.8-24.2,56.4-1.2,9.4-4.8,18.4-4.2,28,0,12.8,2.8,25.6,5.9,38.1,1.2,7.1,2.1,13.9,5.8,20.3,2.9,6.9,3.1,15.1,8.7,20.6,12.3,12.9,21.6,29.8,39.1,36.3Z" fill="#e6c9fe"/>
          <path d="M4.9,750.1c-24.7-18.2-28.4-52.3-24.4-80.5,3.2-43.6,36.2-67.4,68.8-91.6,96.5-82.8,179.4-125.6,302.4-157.1,29.3-10.2,67.1-17.5,90.5,8.5,13.9,14.6,23.3,41.4,7.7,57.5-21.3,17.3-50,21.5-75.3,30.4-24.8,10-51.3,15.7-75.2,27.4-17.4,9.5-32.6,23.4-47.8,36.1-25.3,21.1-51.5,41.2-75.1,64.2-47.2,32.3-107.6,145.4-171.7,105.1Z" fill="none" stroke="#000" stroke-miterlimit="10" stroke-width="5.7"/>
          <path d="M.8,796.4c15.5,6.3,44.9,3.3,60.7-2.2,20.9-10.9,40.6-25.3,56.2-43.1,8.6-7,14.3-16.7,23.1-23.2,6.7-4.9,11.4-11.8,17.7-16.9,12.9-8.3,29.4-3.3,42.9-9.7,11.5-4.5,19-14.3,28.4-21.9,21.5-20.1,42.9-40.4,63.1-61.7,6.8-6.2,13.6-12.6,21.3-17.4,9.3-6.1,19.9-7.2,29.2-13.2,7.9-4.2,11.9-12.1,17.9-18.2,8.7-6.5,12.6-19.5,24.4-21,16.2-5.7,32.8-9,49.1-14.1,14.4-1.9,28.5-5.6,40.2-14.7,11.5-8.4,16-21.7,15.2-35.5.1-12.6-.3-25.8-3.4-38.1-2.7-18.6-12.3-35.1-25.3-48.4-7.7-6.8-16.7-14-27.3-15.3-20.1-1.6-40.3-2.9-60.5-1.1-15.5,1.8-30.8,5.2-46.1,8.5-2.6.7-5.2.1-7.6-1-8-3.9-16.4-5.8-24.7-9.1-12.2-5.8-26.6-5-39.2-1.5-22.8,3.8-45,11.1-65.9,21.1-21,6.6-40,17.4-59.2,28.1-28,13.6-38.2,15.5-50.6,46.1-2.5,6.2-4.3,12.6-6.9,18.8-2.9,11,1.1,15.9-10.6,22.7-6.6,5.3-13.4,10.5-20.6,15.1-9.7,5.6-15.7,15.3-23.8,22.7-16.8,14.4-35.2,27.2-48.8,44.9-10.4,17.4-22.1,35.8-24.2,56.4-1.2,9.4-4.8,18.4-4.2,28,0,12.8,2.8,25.6,5.9,38.1,1.2,7.1,2.1,13.9,5.8,20.3,2.9,6.9,3.1,15.1,8.7,20.6,12.3,12.9,21.6,29.8,39.1,36.3ZM367.2,554.9c-.5,4.5-5.8,7.5-8.8,10.7-3.9,3.2-6.1,8-9.7,11.5-8,8.5-19.8,10.1-29.7,15.3-10.2,4-18.4,11.6-26.4,18.9-20.9,20.7-41.7,41.9-63.7,61.7-18.9,17.4-27.6,28.2-55.3,27.6-4.9.5-3-2.9-.6-5.1,22.4-24.6,48.3-45.7,72.6-68.2,18.2-16.3,37.7-31.1,55.8-47.6,19-12.6,40.5-20.2,62.7-25.2,1-.2,2.8-.5,3.1.4ZM77,501.6c-1.4-3.8.9-8.7,2.2-12.4,3.9-11.6,8.7-23,14.2-33.9,9.3-13.8,27.7-17.5,41.4-25.7,9.9-5.5,20-10.8,29.8-16.5,34.5-13.8,68.6-29.8,105.9-34.7,15.1-1.7,28.5,5.9,42.4,10.2,3.8,2.1-1.5,3.6-3.4,4.2-16,5.4-31.2,12.7-47.5,17.3-12.5,4.2-25.7,6.2-37.6,12-33.5,16.5-67.2,32.4-100.1,50.1-14.8,8.8-29,18.7-43.4,28.3-1.1.7-3.1,2.1-3.9,1ZM267.2,601.3c-31.4,25.1-60,53.4-89.6,80.6-13.1,14.1-26.1,28.5-40.5,41.4-4,2.8-7.5,6.3-10.4,10.2-7.4,8.6-16.4,15.9-23.5,24.8-17,13-33.5,29.1-55,33.8-12.8,2.5-26.5,2.2-39.5,1.3-12-3.4-21.8-11.2-29.3-21.1-5.3-6.5-11.2-12.6-16.2-19.4-2.6-9.8-7.8-19.2-9.4-29.2-4.2-20.3-10.3-41.3-3.9-61.8,1.9-14.5,4.9-28.4,12.8-40.8,4.4-7.6,7.7-16.5,13.7-23.2,13.6-16.7,31.7-29.3,47.9-43.4,15.7-19.7,38.6-31.4,57.7-47.7,36.6-26.3,76.4-47.2,117.4-65.8,15.2-7.8,30-16.8,46.8-20.7,25.8-5.4,48.9-18.9,74.4-24.9,25.5-5.1,51.1-11.8,77.4-11,15.2,1.6,31.3-1.3,45.5,5.4,31.3,17.2,42.7,54.8,41.5,88.5,1.8,17.9-5.7,34.2-22.6,41.6-13.1,7.7-29.1,6.5-42.9,12.4-15.5,2.7-30.4,8.6-45.5,12.8-32.7,10.5-68.3,17.8-92.4,44.6" stroke="#000" stroke-miterlimit="10" stroke-width=".6"/>
          <path d="M120.4,627c12.3,8.1,24.9-4.9,33.4-13.2,7.4-7.8,16.9-13.1,24.6-20.7,9.2-9,20.4-15.7,30.8-23.2,13-8.9,23.4-20.7,36.3-29.7,12.1-7.1,21.9-17.5,35.1-22.6,14.3-6.9,40.1-12.5,48.8-25.8,5.1-20-15.4-22.7-30.3-20.6-9.6,2.3-18.7,6.4-28,9.8-7.5,2.3-13.4,7.7-20.9,10-3.4,1.3-7,2.2-10.1,4.3-19.8,12.1-38.3,26.1-57.5,38.9-22.4,13.5-45.2,28.1-63.3,47-11.2,14-18.5,35.9,1.1,45.8ZM119.6,624.1c-10.5-6.9-11.8-20.6-4.8-30.8h.1c5.6-14.3,19.1-22,30.5-31.3,12-9.3,24.7-17.9,37.9-25.5,19.3-12.8,37.6-27.1,57.4-39.2,9.8-4.4,19.6-8.6,29.1-13.6,16.4-5.7,35.4-16.6,52.5-7.9,5.6,3.1,7.4,11.8,3.9,16.9-9.7,7.7-21.5,12.8-33.1,17-8.9,3.6-18.4,6.6-26.3,12.1-15.9,12.1-32.9,22.6-47.1,36.8-13.7,12-30.4,20.4-43.4,33.2-8.5,8.1-17.2,12.9-25.3,21.7-8.1,7.9-20.2,19.6-31.4,10.6Z" stroke="#000" stroke-miterlimit="10" stroke-width="3.7"/>
        </g>
        <g>
          <path d="M.3,795.9c15.5,6.3,44.9,3.3,60.7-2.2,20.9-10.9,40.6-25.3,56.2-43.1,8.6-7,14.3-16.7,23.1-23.2,6.7-4.9,11.4-11.8,17.7-16.9,12.9-8.3,29.4-3.3,42.9-9.7,11.5-4.5,19-14.3,28.4-21.9,21.5-20.1,42.9-40.4,63.1-61.7,6.8-6.2,13.6-12.6,21.3-17.4,9.3-6.1,19.9-7.2,29.2-13.2,7.9-4.2,11.9-12.1,17.9-18.2,8.7-6.5,12.6-19.5,24.4-21,16.2-5.7,32.8-9,49.1-14.1,14.4-1.9,28.5-5.6,40.2-14.7,11.5-8.4,16-21.7,15.2-35.5.1-12.6-.3-25.8-3.4-38.1-2.7-18.6-12.3-35.1-25.3-48.4-7.7-6.8-16.7-14-27.3-15.3-20.1-1.6-40.3-2.9-60.5-1.1-15.5,1.8-30.8,5.2-46.1,8.5-2.6.7-5.2.1-7.6-1-8-3.9-16.4-5.8-24.7-9.1-12.2-5.8-26.6-5-39.2-1.5-22.8,3.8-45,11.1-65.9,21.1-21,6.6-40,17.4-59.2,28.1-28,13.6-38.2,15.5-50.6,46.1-2.5,6.2-4.3,12.6-6.9,18.8-2.9,11,1.1,15.9-10.6,22.7-6.6,5.3-13.4,10.5-20.6,15.1-9.7,5.6-15.7,15.3-23.8,22.7-16.8,14.4-35.2,27.2-48.8,44.9-10.4,17.4-22.1,35.8-24.2,56.4-1.2,9.4-4.8,18.4-4.2,28,0,12.8,2.8,25.6,5.9,38.1,1.2,7.1,2.1,13.9,5.8,20.3,2.9,6.9,3.1,15.1,8.7,20.6,12.3,12.9,21.6,29.8,39.1,36.3Z" fill="#e6c9fe"/>
          <path d="M4.4,749.6c-24.7-18.2-28.4-52.3-24.4-80.5,3.2-43.6,36.2-67.4,68.8-91.6,96.5-82.8,179.4-125.6,302.4-157.1,29.3-10.2,67.1-17.5,90.5,8.5,13.9,14.6,23.3,41.4,7.7,57.5-21.3,17.3-50,21.5-75.3,30.4-24.8,10-51.3,15.7-75.2,27.4-17.4,9.5-32.6,23.4-47.8,36.1-25.3,21.1-51.5,41.2-75.1,64.2-47.2,32.3-107.6,145.4-171.7,105.1Z" fill="none" stroke="#000" stroke-miterlimit="10" stroke-width="5.7"/>
          <path d="M.3,795.9c15.5,6.3,44.9,3.3,60.7-2.2,20.9-10.9,40.6-25.3,56.2-43.1,8.6-7,14.3-16.7,23.1-23.2,6.7-4.9,11.4-11.8,17.7-16.9,12.9-8.3,29.4-3.3,42.9-9.7,11.5-4.5,19-14.3,28.4-21.9,21.5-20.1,42.9-40.4,63.1-61.7,6.8-6.2,13.6-12.6,21.3-17.4,9.3-6.1,19.9-7.2,29.2-13.2,7.9-4.2,11.9-12.1,17.9-18.2,8.7-6.5,12.6-19.5,24.4-21,16.2-5.7,32.8-9,49.1-14.1,14.4-1.9,28.5-5.6,40.2-14.7,11.5-8.4,16-21.7,15.2-35.5.1-12.6-.3-25.8-3.4-38.1-2.7-18.6-12.3-35.1-25.3-48.4-7.7-6.8-16.7-14-27.3-15.3-20.1-1.6-40.3-2.9-60.5-1.1-15.5,1.8-30.8,5.2-46.1,8.5-2.6.7-5.2.1-7.6-1-8-3.9-16.4-5.8-24.7-9.1-12.2-5.8-26.6-5-39.2-1.5-22.8,3.8-45,11.1-65.9,21.1-21,6.6-40,17.4-59.2,28.1-28,13.6-38.2,15.5-50.6,46.1-2.5,6.2-4.3,12.6-6.9,18.8-2.9,11,1.1,15.9-10.6,22.7-6.6,5.3-13.4,10.5-20.6,15.1-9.7,5.6-15.7,15.3-23.8,22.7-16.8,14.4-35.2,27.2-48.8,44.9-10.4,17.4-22.1,35.8-24.2,56.4-1.2,9.4-4.8,18.4-4.2,28,0,12.8,2.8,25.6,5.9,38.1,1.2,7.1,2.1,13.9,5.8,20.3,2.9,6.9,3.1,15.1,8.7,20.6,12.3,12.9,21.6,29.8,39.1,36.3ZM366.7,554.4c-.5,4.5-5.8,7.5-8.8,10.7-3.9,3.2-6.1,8-9.7,11.5-8,8.5-19.8,10.1-29.7,15.3-10.2,4-18.4,11.6-26.4,18.9-20.9,20.7-41.7,41.9-63.7,61.7-18.9,17.4-27.6,28.2-55.3,27.6-4.9.5-3-2.9-.6-5.1,22.4-24.6,48.3-45.7,72.6-68.2,18.2-16.3,37.7-31.1,55.8-47.6,19-12.6,40.5-20.2,62.7-25.2,1-.2,2.8-.5,3.1.4ZM76.5,501.1c-1.4-3.8.9-8.7,2.2-12.4,3.9-11.6,8.7-23,14.2-33.9,9.3-13.8,27.7-17.5,41.4-25.7,9.9-5.5,20-10.8,29.8-16.5,34.5-13.8,68.6-29.8,105.9-34.7,15.1-1.7,28.5,5.9,42.4,10.2,3.8,2.1-1.5,3.6-3.4,4.2-16,5.4-31.2,12.7-47.5,17.3-12.5,4.2-25.7,6.2-37.6,12-33.5,16.5-67.2,32.4-100.1,50.1-14.8,8.8-29,18.7-43.4,28.3-1.1.7-3.1,2.1-3.9,1ZM266.7,600.8c-31.4,25.1-60,53.4-89.6,80.6-13.1,14.1-26.1,28.5-40.5,41.4-4,2.8-7.5,6.3-10.4,10.2-7.4,8.6-16.4,15.9-23.5,24.8-17,13-33.5,29.1-55,33.8-12.8,2.5-26.5,2.2-39.5,1.3-12-3.4-21.8-11.2-29.3-21.1-5.3-6.5-11.2-12.6-16.2-19.4-2.6-9.8-7.8-19.2-9.4-29.2-4.2-20.3-10.3-41.3-3.9-61.8,1.9-14.5,4.9-28.4,12.8-40.8,4.4-7.6,7.7-16.5,13.7-23.2,13.6-16.7,31.7-29.3,47.9-43.4,15.7-19.7,38.6-31.4,57.7-47.7,36.6-26.3,76.4-47.2,117.4-65.8,15.2-7.8,30-16.8,46.8-20.7,25.8-5.4,48.9-18.9,74.4-24.9,25.5-5.1,51.1-11.8,77.4-11,15.2,1.6,31.3-1.3,45.5,5.4,31.3,17.2,42.7,54.8,41.5,88.5,1.8,17.9-5.7,34.2-22.6,41.6-13.1,7.7-29.1,6.5-42.9,12.4-15.5,2.7-30.4,8.6-45.5,12.8-32.7,10.5-68.3,17.8-92.4,44.6" stroke="#000" stroke-miterlimit="10" stroke-width=".6"/>
          <path d="M119.9,626.5c12.3,8.1,24.9-4.9,33.4-13.2,7.4-7.8,16.9-13.1,24.6-20.7,9.2-9,20.4-15.7,30.8-23.2,13-8.9,23.4-20.7,36.3-29.7,12.1-7.1,21.9-17.5,35.1-22.6,14.3-6.9,40.1-12.5,48.8-25.8,5.1-20-15.4-22.7-30.3-20.6-9.6,2.3-18.7,6.4-28,9.8-7.5,2.3-13.4,7.7-20.9,10-3.4,1.3-7,2.2-10.1,4.3-19.8,12.1-38.3,26.1-57.5,38.9-22.4,13.5-45.2,28.1-63.3,47-11.2,14-18.5,35.9,1.1,45.8ZM119.1,623.6c-10.5-6.9-11.8-20.6-4.8-30.8h.1c5.6-14.3,19.1-22,30.5-31.3,12-9.3,24.7-17.9,37.9-25.5,19.3-12.8,37.6-27.1,57.4-39.2,9.8-4.4,19.6-8.6,29.1-13.6,16.4-5.7,35.4-16.6,52.5-7.9,5.6,3.1,7.4,11.8,3.9,16.9-9.7,7.7-21.5,12.8-33.1,17-8.9,3.6-18.4,6.6-26.3,12.1-15.9,12.1-32.9,22.6-47.1,36.8-13.7,12-30.4,20.4-43.4,33.2-8.5,8.1-17.2,12.9-25.3,21.7-8.1,7.9-20.2,19.6-31.4,10.6Z" stroke="#000" stroke-miterlimit="10" stroke-width="3.7"/>
        </g>
        <g>
          <path d="M-.2,795.4c15.5,6.3,44.9,3.3,60.7-2.2,20.9-10.9,40.6-25.3,56.2-43.1,8.6-7,14.3-16.7,23.1-23.2,6.7-4.9,11.4-11.8,17.7-16.9,12.9-8.3,29.4-3.3,42.9-9.7,11.5-4.5,19-14.3,28.4-21.9,21.5-20.1,42.9-40.4,63.1-61.7,6.8-6.2,13.6-12.6,21.3-17.4,9.3-6.1,19.9-7.2,29.2-13.2,7.9-4.2,11.9-12.1,17.9-18.2,8.7-6.5,12.6-19.5,24.4-21,16.2-5.7,32.8-9,49.1-14.1,14.4-1.9,28.5-5.6,40.2-14.7,11.5-8.4,16-21.7,15.2-35.5.1-12.6-.3-25.8-3.4-38.1-2.7-18.6-12.3-35.1-25.3-48.4-7.7-6.8-16.7-14-27.3-15.3-20.1-1.6-40.3-2.9-60.5-1.1-15.5,1.8-30.8,5.2-46.1,8.5-2.6.7-5.2.1-7.6-1-8-3.9-16.4-5.8-24.7-9.1-12.2-5.8-26.6-5-39.2-1.5-22.8,3.8-45,11.1-65.9,21.1-21,6.6-40,17.4-59.2,28.1-28,13.6-38.2,15.5-50.6,46.1-2.5,6.2-4.3,12.6-6.9,18.8-2.9,11,1.1,15.9-10.6,22.7-6.6,5.3-13.4,10.5-20.6,15.1-9.7,5.6-15.7,15.3-23.8,22.7-16.8,14.4-35.2,27.2-48.8,44.9-10.4,17.4-22.1,35.8-24.2,56.4-1.2,9.4-4.8,18.4-4.2,28,0,12.8,2.8,25.6,5.9,38.1,1.2,7.1,2.1,13.9,5.8,20.3,2.9,6.9,3.1,15.1,8.7,20.6,12.3,12.9,21.6,29.8,39.1,36.3Z" fill="#e6c9fe"/>
          <path d="M3.9,749.1c-24.7-18.2-28.4-52.3-24.4-80.5,3.2-43.6,36.2-67.4,68.8-91.6,96.5-82.8,179.4-125.6,302.4-157.1,29.3-10.2,67.1-17.5,90.5,8.5,13.9,14.6,23.3,41.4,7.7,57.5-21.3,17.3-50,21.5-75.3,30.4-24.8,10-51.3,15.7-75.2,27.4-17.4,9.5-32.6,23.4-47.8,36.1-25.3,21.1-51.5,41.2-75.1,64.2-47.2,32.3-107.6,145.4-171.7,105.1Z" fill="none" stroke="#000" stroke-miterlimit="10" stroke-width="5.7"/>
          <path d="M-.2,795.4c15.5,6.3,44.9,3.3,60.7-2.2,20.9-10.9,40.6-25.3,56.2-43.1,8.6-7,14.3-16.7,23.1-23.2,6.7-4.9,11.4-11.8,17.7-16.9,12.9-8.3,29.4-3.3,42.9-9.7,11.5-4.5,19-14.3,28.4-21.9,21.5-20.1,42.9-40.4,63.1-61.7,6.8-6.2,13.6-12.6,21.3-17.4,9.3-6.1,19.9-7.2,29.2-13.2,7.9-4.2,11.9-12.1,17.9-18.2,8.7-6.5,12.6-19.5,24.4-21,16.2-5.7,32.8-9,49.1-14.1,14.4-1.9,28.5-5.6,40.2-14.7,11.5-8.4,16-21.7,15.2-35.5.1-12.6-.3-25.8-3.4-38.1-2.7-18.6-12.3-35.1-25.3-48.4-7.7-6.8-16.7-14-27.3-15.3-20.1-1.6-40.3-2.9-60.5-1.1-15.5,1.8-30.8,5.2-46.1,8.5-2.6.7-5.2.1-7.6-1-8-3.9-16.4-5.8-24.7-9.1-12.2-5.8-26.6-5-39.2-1.5-22.8,3.8-45,11.1-65.9,21.1-21,6.6-40,17.4-59.2,28.1-28,13.6-38.2,15.5-50.6,46.1-2.5,6.2-4.3,12.6-6.9,18.8-2.9,11,1.1,15.9-10.6,22.7-6.6,5.3-13.4,10.5-20.6,15.1-9.7,5.6-15.7,15.3-23.8,22.7-16.8,14.4-35.2,27.2-48.8,44.9-10.4,17.4-22.1,35.8-24.2,56.4-1.2,9.4-4.8,18.4-4.2,28,0,12.8,2.8,25.6,5.9,38.1,1.2,7.1,2.1,13.9,5.8,20.3,2.9,6.9,3.1,15.1,8.7,20.6,12.3,12.9,21.6,29.8,39.1,36.3ZM366.2,553.9c-.5,4.5-5.8,7.5-8.8,10.7-3.9,3.2-6.1,8-9.7,11.5-8,8.5-19.8,10.1-29.7,15.3-10.2,4-18.4,11.6-26.4,18.9-20.9,20.7-41.7,41.9-63.7,61.7-18.9,17.4-27.6,28.2-55.3,27.6-4.9.5-3-2.9-.6-5.1,22.4-24.6,48.3-45.7,72.6-68.2,18.2-16.3,37.7-31.1,55.8-47.6,19-12.6,40.5-20.2,62.7-25.2,1-.2,2.8-.5,3.1.4ZM76,500.6c-1.4-3.8.9-8.7,2.2-12.4,3.9-11.6,8.7-23,14.2-33.9,9.3-13.8,27.7-17.5,41.4-25.7,9.9-5.5,20-10.8,29.8-16.5,34.5-13.8,68.6-29.8,105.9-34.7,15.1-1.7,28.5,5.9,42.4,10.2,3.8,2.1-1.5,3.6-3.4,4.2-16,5.4-31.2,12.7-47.5,17.3-12.5,4.2-25.7,6.2-37.6,12-33.5,16.5-67.2,32.4-100.1,50.1-14.8,8.8-29,18.7-43.4,28.3-1.1.7-3.1,2.1-3.9,1ZM266.2,600.3c-31.4,25.1-60,53.4-89.6,80.6-13.1,14.1-26.1,28.5-40.5,41.4-4,2.8-7.5,6.3-10.4,10.2-7.4,8.6-16.4,15.9-23.5,24.8-17,13-33.5,29.1-55,33.8-12.8,2.5-26.5,2.2-39.5,1.3-12-3.4-21.8-11.2-29.3-21.1-5.3-6.5-11.2-12.6-16.2-19.4-2.6-9.8-7.8-19.2-9.4-29.2-4.2-20.3-10.3-41.3-3.9-61.8,1.9-14.5,4.9-28.4,12.8-40.8,4.4-7.6,7.7-16.5,13.7-23.2,13.6-16.7,31.7-29.3,47.9-43.4,15.7-19.7,38.6-31.4,57.7-47.7,36.6-26.3,76.4-47.2,117.4-65.8,15.2-7.8,30-16.8,46.8-20.7,25.8-5.4,48.9-18.9,74.4-24.9,25.5-5.1,51.1-11.8,77.4-11,15.2,1.6,31.3-1.3,45.5,5.4,31.3,17.2,42.7,54.8,41.5,88.5,1.8,17.9-5.7,34.2-22.6,41.6-13.1,7.7-29.1,6.5-42.9,12.4-15.5,2.7-30.4,8.6-45.5,12.8-32.7,10.5-68.3,17.8-92.4,44.6" stroke="#000" stroke-miterlimit="10" stroke-width=".6"/>
          <path d="M119.4,626c12.3,8.1,24.9-4.9,33.4-13.2,7.4-7.8,16.9-13.1,24.6-20.7,9.2-9,20.4-15.7,30.8-23.2,13-8.9,23.4-20.7,36.3-29.7,12.1-7.1,21.9-17.5,35.1-22.6,14.3-6.9,40.1-12.5,48.8-25.8,5.1-20-15.4-22.7-30.3-20.6-9.6,2.3-18.7,6.4-28,9.8-7.5,2.3-13.4,7.7-20.9,10-3.4,1.3-7,2.2-10.1,4.3-19.8,12.1-38.3,26.1-57.5,38.9-22.4,13.5-45.2,28.1-63.3,47-11.2,14-18.5,35.9,1.1,45.8ZM118.6,623.1c-10.5-6.9-11.8-20.6-4.8-30.8h.1c5.6-14.3,19.1-22,30.5-31.3,12-9.3,24.7-17.9,37.9-25.5,19.3-12.8,37.6-27.1,57.4-39.2,9.8-4.4,19.6-8.6,29.1-13.6,16.4-5.7,35.4-16.6,52.5-7.9,5.6,3.1,7.4,11.8,3.9,16.9-9.7,7.7-21.5,12.8-33.1,17-8.9,3.6-18.4,6.6-26.3,12.1-15.9,12.1-32.9,22.6-47.1,36.8-13.7,12-30.4,20.4-43.4,33.2-8.5,8.1-17.2,12.9-25.3,21.7-8.1,7.9-20.2,19.6-31.4,10.6Z" stroke="#000" stroke-miterlimit="10" stroke-width="3.7"/>
        </g>
        <g>
          <path d="M-.7,794.9c15.5,6.3,44.9,3.3,60.7-2.2,20.9-10.9,40.6-25.3,56.2-43.1,8.6-7,14.3-16.7,23.1-23.2,6.7-4.9,11.4-11.8,17.7-16.9,12.9-8.3,29.4-3.3,42.9-9.7,11.5-4.5,19-14.3,28.4-21.9,21.5-20.1,42.9-40.4,63.1-61.7,6.8-6.2,13.6-12.6,21.3-17.4,9.3-6.1,19.9-7.2,29.2-13.2,7.9-4.2,11.9-12.1,17.9-18.2,8.7-6.5,12.6-19.5,24.4-21,16.2-5.7,32.8-9,49.1-14.1,14.4-1.9,28.5-5.6,40.2-14.7,11.5-8.4,16-21.7,15.2-35.5.1-12.6-.3-25.8-3.4-38.1-2.7-18.6-12.3-35.1-25.3-48.4-7.7-6.8-16.7-14-27.3-15.3-20.1-1.6-40.3-2.9-60.5-1.1-15.5,1.8-30.8,5.2-46.1,8.5-2.6.7-5.2.1-7.6-1-8-3.9-16.4-5.8-24.7-9.1-12.2-5.8-26.6-5-39.2-1.5-22.8,3.8-45,11.1-65.9,21.1-21,6.6-40,17.4-59.2,28.1-28,13.6-38.2,15.5-50.6,46.1-2.5,6.2-4.3,12.6-6.9,18.8-2.9,11,1.1,15.9-10.6,22.7-6.6,5.3-13.4,10.5-20.6,15.1-9.7,5.6-15.7,15.3-23.8,22.7-16.8,14.4-35.2,27.2-48.8,44.9-10.4,17.4-22.1,35.8-24.2,56.4-1.2,9.4-4.8,18.4-4.2,28,0,12.8,2.8,25.6,5.9,38.1,1.2,7.1,2.1,13.9,5.8,20.3,2.9,6.9,3.1,15.1,8.7,20.6,12.3,12.9,21.6,29.8,39.1,36.3Z" fill="#e6c9fe"/>
          <path d="M3.4,748.6c-24.7-18.2-28.4-52.3-24.4-80.5,3.2-43.6,36.2-67.4,68.8-91.6,96.5-82.8,179.4-125.6,302.4-157.1,29.3-10.2,67.1-17.5,90.5,8.5,13.9,14.6,23.3,41.4,7.7,57.5-21.3,17.3-50,21.5-75.3,30.4-24.8,10-51.3,15.7-75.2,27.4-17.4,9.5-32.6,23.4-47.8,36.1-25.3,21.1-51.5,41.2-75.1,64.2-47.2,32.3-107.6,145.4-171.7,105.1Z" fill="none" stroke="#000" stroke-miterlimit="10" stroke-width="5.7"/>
          <path d="M-.7,794.9c15.5,6.3,44.9,3.3,60.7-2.2,20.9-10.9,40.6-25.3,56.2-43.1,8.6-7,14.3-16.7,23.1-23.2,6.7-4.9,11.4-11.8,17.7-16.9,12.9-8.3,29.4-3.3,42.9-9.7,11.5-4.5,19-14.3,28.4-21.9,21.5-20.1,42.9-40.4,63.1-61.7,6.8-6.2,13.6-12.6,21.3-17.4,9.3-6.1,19.9-7.2,29.2-13.2,7.9-4.2,11.9-12.1,17.9-18.2,8.7-6.5,12.6-19.5,24.4-21,16.2-5.7,32.8-9,49.1-14.1,14.4-1.9,28.5-5.6,40.2-14.7,11.5-8.4,16-21.7,15.2-35.5.1-12.6-.3-25.8-3.4-38.1-2.7-18.6-12.3-35.1-25.3-48.4-7.7-6.8-16.7-14-27.3-15.3-20.1-1.6-40.3-2.9-60.5-1.1-15.5,1.8-30.8,5.2-46.1,8.5-2.6.7-5.2.1-7.6-1-8-3.9-16.4-5.8-24.7-9.1-12.2-5.8-26.6-5-39.2-1.5-22.8,3.8-45,11.1-65.9,21.1-21,6.6-40,17.4-59.2,28.1-28,13.6-38.2,15.5-50.6,46.1-2.5,6.2-4.3,12.6-6.9,18.8-2.9,11,1.1,15.9-10.6,22.7-6.6,5.3-13.4,10.5-20.6,15.1-9.7,5.6-15.7,15.3-23.8,22.7-16.8,14.4-35.2,27.2-48.8,44.9-10.4,17.4-22.1,35.8-24.2,56.4-1.2,9.4-4.8,18.4-4.2,28,0,12.8,2.8,25.6,5.9,38.1,1.2,7.1,2.1,13.9,5.8,20.3,2.9,6.9,3.1,15.1,8.7,20.6,12.3,12.9,21.6,29.8,39.1,36.3ZM365.7,553.4c-.5,4.5-5.8,7.5-8.8,10.7-3.9,3.2-6.1,8-9.7,11.5-8,8.5-19.8,10.1-29.7,15.3-10.2,4-18.4,11.6-26.4,18.9-20.9,20.7-41.7,41.9-63.7,61.7-18.9,17.4-27.6,28.2-55.3,27.6-4.9.5-3-2.9-.6-5.1,22.4-24.6,48.3-45.7,72.6-68.2,18.2-16.3,37.7-31.1,55.8-47.6,19-12.6,40.5-20.2,62.7-25.2,1-.2,2.8-.5,3.1.4ZM75.5,500.1c-1.4-3.8.9-8.7,2.2-12.4,3.9-11.6,8.7-23,14.2-33.9,9.3-13.8,27.7-17.5,41.4-25.7,9.9-5.5,20-10.8,29.8-16.5,34.5-13.8,68.6-29.8,105.9-34.7,15.1-1.7,28.5,5.9,42.4,10.2,3.8,2.1-1.5,3.6-3.4,4.2-16,5.4-31.2,12.7-47.5,17.3-12.5,4.2-25.7,6.2-37.6,12-33.5,16.5-67.2,32.4-100.1,50.1-14.8,8.8-29,18.7-43.4,28.3-1.1.7-3.1,2.1-3.9,1ZM265.7,599.8c-31.4,25.1-60,53.4-89.6,80.6-13.1,14.1-26.1,28.5-40.5,41.4-4,2.8-7.5,6.3-10.4,10.2-7.4,8.6-16.4,15.9-23.5,24.8-17,13-33.5,29.1-55,33.8-12.8,2.5-26.5,2.2-39.5,1.3-12-3.4-21.8-11.2-29.3-21.1-5.3-6.5-11.2-12.6-16.2-19.4-2.6-9.8-7.8-19.2-9.4-29.2-4.2-20.3-10.3-41.3-3.9-61.8,1.9-14.5,4.9-28.4,12.8-40.8,4.4-7.6,7.7-16.5,13.7-23.2,13.6-16.7,31.7-29.3,47.9-43.4,15.7-19.7,38.6-31.4,57.7-47.7,36.6-26.3,76.4-47.2,117.4-65.8,15.2-7.8,30-16.8,46.8-20.7,25.8-5.4,48.9-18.9,74.4-24.9,25.5-5.1,51.1-11.8,77.4-11,15.2,1.6,31.3-1.3,45.5,5.4,31.3,17.2,42.7,54.8,41.5,88.5,1.8,17.9-5.7,34.2-22.6,41.6-13.1,7.7-29.1,6.5-42.9,12.4-15.5,2.7-30.4,8.6-45.5,12.8-32.7,10.5-68.3,17.8-92.4,44.6" stroke="#000" stroke-miterlimit="10" stroke-width=".6"/>
          <path d="M118.9,625.5c12.3,8.1,24.9-4.9,33.4-13.2,7.4-7.8,16.9-13.1,24.6-20.7,9.2-9,20.4-15.7,30.8-23.2,13-8.9,23.4-20.7,36.3-29.7,12.1-7.1,21.9-17.5,35.1-22.6,14.3-6.9,40.1-12.5,48.8-25.8,5.1-20-15.4-22.7-30.3-20.6-9.6,2.3-18.7,6.4-28,9.8-7.5,2.3-13.4,7.7-20.9,10-3.4,1.3-7,2.2-10.1,4.3-19.8,12.1-38.3,26.1-57.5,38.9-22.4,13.5-45.2,28.1-63.3,47-11.2,14-18.5,35.9,1.1,45.8ZM118.1,622.6c-10.5-6.9-11.8-20.6-4.8-30.8h.1c5.6-14.3,19.1-22,30.5-31.3,12-9.3,24.7-17.9,37.9-25.5,19.3-12.8,37.6-27.1,57.4-39.2,9.8-4.4,19.6-8.6,29.1-13.6,16.4-5.7,35.4-16.6,52.5-7.9,5.6,3.1,7.4,11.8,3.9,16.9-9.7,7.7-21.5,12.8-33.1,17-8.9,3.6-18.4,6.6-26.3,12.1-15.9,12.1-32.9,22.6-47.1,36.8-13.7,12-30.4,20.4-43.4,33.2-8.5,8.1-17.2,12.9-25.3,21.7-8.1,7.9-20.2,19.6-31.4,10.6Z" stroke="#000" stroke-miterlimit="10" stroke-width="3.7"/>
        </g>
        <g>
          <path d="M-1.2,794.4c15.5,6.3,44.9,3.3,60.7-2.2,20.9-10.9,40.6-25.3,56.2-43.1,8.6-7,14.3-16.7,23.1-23.2,6.7-4.9,11.4-11.8,17.7-16.9,12.9-8.3,29.4-3.3,42.9-9.7,11.5-4.5,19-14.3,28.4-21.9,21.5-20.1,42.9-40.4,63.1-61.7,6.8-6.2,13.6-12.6,21.3-17.4,9.3-6.1,19.9-7.2,29.2-13.2,7.9-4.2,11.9-12.1,17.9-18.2,8.7-6.5,12.6-19.5,24.4-21,16.2-5.7,32.8-9,49.1-14.1,14.4-1.9,28.5-5.6,40.2-14.7,11.5-8.4,16-21.7,15.2-35.5.1-12.6-.3-25.8-3.4-38.1-2.7-18.6-12.3-35.1-25.3-48.4-7.7-6.8-16.7-14-27.3-15.3-20.1-1.6-40.3-2.9-60.5-1.1-15.5,1.8-30.8,5.2-46.1,8.5-2.6.7-5.2.1-7.6-1-8-3.9-16.4-5.8-24.7-9.1-12.2-5.8-26.6-5-39.2-1.5-22.8,3.8-45,11.1-65.9,21.1-21,6.6-40,17.4-59.2,28.1-28,13.6-38.2,15.5-50.6,46.1-2.5,6.2-4.3,12.6-6.9,18.8-2.9,11,1.1,15.9-10.6,22.7-6.6,5.3-13.4,10.5-20.6,15.1-9.7,5.6-15.7,15.3-23.8,22.7-16.8,14.4-35.2,27.2-48.8,44.9-10.4,17.4-22.1,35.8-24.2,56.4-1.2,9.4-4.8,18.4-4.2,28,0,12.8,2.8,25.6,5.9,38.1,1.2,7.1,2.1,13.9,5.8,20.3,2.9,6.9,3.1,15.1,8.7,20.6,12.3,12.9,21.6,29.8,39.1,36.3Z" fill="#e6c9fe"/>
          <path d="M2.9,748.1c-24.7-18.2-28.4-52.3-24.4-80.5,3.2-43.6,36.2-67.4,68.8-91.6,96.5-82.8,179.4-125.6,302.4-157.1,29.3-10.2,67.1-17.5,90.5,8.5,13.9,14.6,23.3,41.4,7.7,57.5-21.3,17.3-50,21.5-75.3,30.4-24.8,10-51.3,15.7-75.2,27.4-17.4,9.5-32.6,23.4-47.8,36.1-25.3,21.1-51.5,41.2-75.1,64.2-47.2,32.3-107.6,145.4-171.7,105.1Z" fill="none" stroke="#000" stroke-miterlimit="10" stroke-width="5.7"/>
          <path d="M-1.2,794.4c15.5,6.3,44.9,3.3,60.7-2.2,20.9-10.9,40.6-25.3,56.2-43.1,8.6-7,14.3-16.7,23.1-23.2,6.7-4.9,11.4-11.8,17.7-16.9,12.9-8.3,29.4-3.3,42.9-9.7,11.5-4.5,19-14.3,28.4-21.9,21.5-20.1,42.9-40.4,63.1-61.7,6.8-6.2,13.6-12.6,21.3-17.4,9.3-6.1,19.9-7.2,29.2-13.2,7.9-4.2,11.9-12.1,17.9-18.2,8.7-6.5,12.6-19.5,24.4-21,16.2-5.7,32.8-9,49.1-14.1,14.4-1.9,28.5-5.6,40.2-14.7,11.5-8.4,16-21.7,15.2-35.5.1-12.6-.3-25.8-3.4-38.1-2.7-18.6-12.3-35.1-25.3-48.4-7.7-6.8-16.7-14-27.3-15.3-20.1-1.6-40.3-2.9-60.5-1.1-15.5,1.8-30.8,5.2-46.1,8.5-2.6.7-5.2.1-7.6-1-8-3.9-16.4-5.8-24.7-9.1-12.2-5.8-26.6-5-39.2-1.5-22.8,3.8-45,11.1-65.9,21.1-21,6.6-40,17.4-59.2,28.1-28,13.6-38.2,15.5-50.6,46.1-2.5,6.2-4.3,12.6-6.9,18.8-2.9,11,1.1,15.9-10.6,22.7-6.6,5.3-13.4,10.5-20.6,15.1-9.7,5.6-15.7,15.3-23.8,22.7-16.8,14.4-35.2,27.2-48.8,44.9-10.4,17.4-22.1,35.8-24.2,56.4-1.2,9.4-4.8,18.4-4.2,28,0,12.8,2.8,25.6,5.9,38.1,1.2,7.1,2.1,13.9,5.8,20.3,2.9,6.9,3.1,15.1,8.7,20.6,12.3,12.9,21.6,29.8,39.1,36.3ZM365.2,552.9c-.5,4.5-5.8,7.5-8.8,10.7-3.9,3.2-6.1,8-9.7,11.5-8,8.5-19.8,10.1-29.7,15.3-10.2,4-18.4,11.6-26.4,18.9-20.9,20.7-41.7,41.9-63.7,61.7-18.9,17.4-27.6,28.2-55.3,27.6-4.9.5-3-2.9-.6-5.1,22.4-24.6,48.3-45.7,72.6-68.2,18.2-16.3,37.7-31.1,55.8-47.6,19-12.6,40.5-20.2,62.7-25.2,1-.2,2.8-.5,3.1.4ZM75,499.6c-1.4-3.8.9-8.7,2.2-12.4,3.9-11.6,8.7-23,14.2-33.9,9.3-13.8,27.7-17.5,41.4-25.7,9.9-5.5,20-10.8,29.8-16.5,34.5-13.8,68.6-29.8,105.9-34.7,15.1-1.7,28.5,5.9,42.4,10.2,3.8,2.1-1.5,3.6-3.4,4.2-16,5.4-31.2,12.7-47.5,17.3-12.5,4.2-25.7,6.2-37.6,12-33.5,16.5-67.2,32.4-100.1,50.1-14.8,8.8-29,18.7-43.4,28.3-1.1.7-3.1,2.1-3.9,1ZM265.2,599.3c-31.4,25.1-60,53.4-89.6,80.6-13.1,14.1-26.1,28.5-40.5,41.4-4,2.8-7.5,6.3-10.4,10.2-7.4,8.6-16.4,15.9-23.5,24.8-17,13-33.5,29.1-55,33.8-12.8,2.5-26.5,2.2-39.5,1.3-12-3.4-21.8-11.2-29.3-21.1-5.3-6.5-11.2-12.6-16.2-19.4-2.6-9.8-7.8-19.2-9.4-29.2-4.2-20.3-10.3-41.3-3.9-61.8,1.9-14.5,4.9-28.4,12.8-40.8,4.4-7.6,7.7-16.5,13.7-23.2,13.6-16.7,31.7-29.3,47.9-43.4,15.7-19.7,38.6-31.4,57.7-47.7,36.6-26.3,76.4-47.2,117.4-65.8,15.2-7.8,30-16.8,46.8-20.7,25.8-5.4,48.9-18.9,74.4-24.9,25.5-5.1,51.1-11.8,77.4-11,15.2,1.6,31.3-1.3,45.5,5.4,31.3,17.2,42.7,54.8,41.5,88.5,1.8,17.9-5.7,34.2-22.6,41.6-13.1,7.7-29.1,6.5-42.9,12.4-15.5,2.7-30.4,8.6-45.5,12.8-32.7,10.5-68.3,17.8-92.4,44.6" stroke="#000" stroke-miterlimit="10" stroke-width=".6"/>
          <path d="M118.4,625c12.3,8.1,24.9-4.9,33.4-13.2,7.4-7.8,16.9-13.1,24.6-20.7,9.2-9,20.4-15.7,30.8-23.2,13-8.9,23.4-20.7,36.3-29.7,12.1-7.1,21.9-17.5,35.1-22.6,14.3-6.9,40.1-12.5,48.8-25.8,5.1-20-15.4-22.7-30.3-20.6-9.6,2.3-18.7,6.4-28,9.8-7.5,2.3-13.4,7.7-20.9,10-3.4,1.3-7,2.2-10.1,4.3-19.8,12.1-38.3,26.1-57.5,38.9-22.4,13.5-45.2,28.1-63.3,47-11.2,14-18.5,35.9,1.1,45.8ZM117.6,622.1c-10.5-6.9-11.8-20.6-4.8-30.8h.1c5.6-14.3,19.1-22,30.5-31.3,12-9.3,24.7-17.9,37.9-25.5,19.3-12.8,37.6-27.1,57.4-39.2,9.8-4.4,19.6-8.6,29.1-13.6,16.4-5.7,35.4-16.6,52.5-7.9,5.6,3.1,7.4,11.8,3.9,16.9-9.7,7.7-21.5,12.8-33.1,17-8.9,3.6-18.4,6.6-26.3,12.1-15.9,12.1-32.9,22.6-47.1,36.8-13.7,12-30.4,20.4-43.4,33.2-8.5,8.1-17.2,12.9-25.3,21.7-8.1,7.9-20.2,19.6-31.4,10.6Z" stroke="#000" stroke-miterlimit="10" stroke-width="3.7"/>
        </g>
        <g>
          <path d="M-1.7,793.9c15.5,6.3,44.9,3.3,60.7-2.2,20.9-10.9,40.6-25.3,56.2-43.1,8.6-7,14.3-16.7,23.1-23.2,6.7-4.9,11.4-11.8,17.7-16.9,12.9-8.3,29.4-3.3,42.9-9.7,11.5-4.5,19-14.3,28.4-21.9,21.5-20.1,42.9-40.4,63.1-61.7,6.8-6.2,13.6-12.6,21.3-17.4,9.3-6.1,19.9-7.2,29.2-13.2,7.9-4.2,11.9-12.1,17.9-18.2,8.7-6.5,12.6-19.5,24.4-21,16.2-5.7,32.8-9,49.1-14.1,14.4-1.9,28.5-5.6,40.2-14.7,11.5-8.4,16-21.7,15.2-35.5.1-12.6-.3-25.8-3.4-38.1-2.7-18.6-12.3-35.1-25.3-48.4-7.7-6.8-16.7-14-27.3-15.3-20.1-1.6-40.3-2.9-60.5-1.1-15.5,1.8-30.8,5.2-46.1,8.5-2.6.7-5.2.1-7.6-1-8-3.9-16.4-5.8-24.7-9.1-12.2-5.8-26.6-5-39.2-1.5-22.8,3.8-45,11.1-65.9,21.1-21,6.6-40,17.4-59.2,28.1-28,13.6-38.2,15.5-50.6,46.1-2.5,6.2-4.3,12.6-6.9,18.8-2.9,11,1.1,15.9-10.6,22.7-6.6,5.3-13.4,10.5-20.6,15.1-9.7,5.6-15.7,15.3-23.8,22.7-16.8,14.4-35.2,27.2-48.8,44.9-10.4,17.4-22.1,35.8-24.2,56.4-1.2,9.4-4.8,18.4-4.2,28,0,12.8,2.8,25.6,5.9,38.1,1.2,7.1,2.1,13.9,5.8,20.3,2.9,6.9,3.1,15.1,8.7,20.6,12.3,12.9,21.6,29.8,39.1,36.3Z" fill="#e6c9fe"/>
          <path d="M2.4,747.6c-24.7-18.2-28.4-52.3-24.4-80.5,3.2-43.6,36.2-67.4,68.8-91.6,96.5-82.8,179.4-125.6,302.4-157.1,29.3-10.2,67.1-17.5,90.5,8.5,13.9,14.6,23.3,41.4,7.7,57.5-21.3,17.3-50,21.5-75.3,30.4-24.8,10-51.3,15.7-75.2,27.4-17.4,9.5-32.6,23.4-47.8,36.1-25.3,21.1-51.5,41.2-75.1,64.2-47.2,32.3-107.6,145.4-171.7,105.1Z" fill="none" stroke="#000" stroke-miterlimit="10" stroke-width="5.7"/>
          <path d="M-1.7,793.9c15.5,6.3,44.9,3.3,60.7-2.2,20.9-10.9,40.6-25.3,56.2-43.1,8.6-7,14.3-16.7,23.1-23.2,6.7-4.9,11.4-11.8,17.7-16.9,12.9-8.3,29.4-3.3,42.9-9.7,11.5-4.5,19-14.3,28.4-21.9,21.5-20.1,42.9-40.4,63.1-61.7,6.8-6.2,13.6-12.6,21.3-17.4,9.3-6.1,19.9-7.2,29.2-13.2,7.9-4.2,11.9-12.1,17.9-18.2,8.7-6.5,12.6-19.5,24.4-21,16.2-5.7,32.8-9,49.1-14.1,14.4-1.9,28.5-5.6,40.2-14.7,11.5-8.4,16-21.7,15.2-35.5.1-12.6-.3-25.8-3.4-38.1-2.7-18.6-12.3-35.1-25.3-48.4-7.7-6.8-16.7-14-27.3-15.3-20.1-1.6-40.3-2.9-60.5-1.1-15.5,1.8-30.8,5.2-46.1,8.5-2.6.7-5.2.1-7.6-1-8-3.9-16.4-5.8-24.7-9.1-12.2-5.8-26.6-5-39.2-1.5-22.8,3.8-45,11.1-65.9,21.1-21,6.6-40,17.4-59.2,28.1-28,13.6-38.2,15.5-50.6,46.1-2.5,6.2-4.3,12.6-6.9,18.8-2.9,11,1.1,15.9-10.6,22.7-6.6,5.3-13.4,10.5-20.6,15.1-9.7,5.6-15.7,15.3-23.8,22.7-16.8,14.4-35.2,27.2-48.8,44.9-10.4,17.4-22.1,35.8-24.2,56.4-1.2,9.4-4.8,18.4-4.2,28,0,12.8,2.8,25.6,5.9,38.1,1.2,7.1,2.1,13.9,5.8,20.3,2.9,6.9,3.1,15.1,8.7,20.6,12.3,12.9,21.6,29.8,39.1,36.3ZM364.7,552.4c-.5,4.5-5.8,7.5-8.8,10.7-3.9,3.2-6.1,8-9.7,11.5-8,8.5-19.8,10.1-29.7,15.3-10.2,4-18.4,11.6-26.4,18.9-20.9,20.7-41.7,41.9-63.7,61.7-18.9,17.4-27.6,28.2-55.3,27.6-4.9.5-3-2.9-.6-5.1,22.4-24.6,48.3-45.7,72.6-68.2,18.2-16.3,37.7-31.1,55.8-47.6,19-12.6,40.5-20.2,62.7-25.2,1-.2,2.8-.5,3.1.4ZM74.5,499.1c-1.4-3.8.9-8.7,2.2-12.4,3.9-11.6,8.7-23,14.2-33.9,9.3-13.8,27.7-17.5,41.4-25.7,9.9-5.5,20-10.8,29.8-16.5,34.5-13.8,68.6-29.8,105.9-34.7,15.1-1.7,28.5,5.9,42.4,10.2,3.8,2.1-1.5,3.6-3.4,4.2-16,5.4-31.2,12.7-47.5,17.3-12.5,4.2-25.7,6.2-37.6,12-33.5,16.5-67.2,32.4-100.1,50.1-14.8,8.8-29,18.7-43.4,28.3-1.1.7-3.1,2.1-3.9,1ZM264.7,598.8c-31.4,25.1-60,53.4-89.6,80.6-13.1,14.1-26.1,28.5-40.5,41.4-4,2.8-7.5,6.3-10.4,10.2-7.4,8.6-16.4,15.9-23.5,24.8-17,13-33.5,29.1-55,33.8-12.8,2.5-26.5,2.2-39.5,1.3-12-3.4-21.8-11.2-29.3-21.1-5.3-6.5-11.2-12.6-16.2-19.4-2.6-9.8-7.8-19.2-9.4-29.2-4.2-20.3-10.3-41.3-3.9-61.8,1.9-14.5,4.9-28.4,12.8-40.8,4.4-7.6,7.7-16.5,13.7-23.2,13.6-16.7,31.7-29.3,47.9-43.4,15.7-19.7,38.6-31.4,57.7-47.7,36.6-26.3,76.4-47.2,117.4-65.8,15.2-7.8,30-16.8,46.8-20.7,25.8-5.4,48.9-18.9,74.4-24.9,25.5-5.1,51.1-11.8,77.4-11,15.2,1.6,31.3-1.3,45.5,5.4,31.3,17.2,42.7,54.8,41.5,88.5,1.8,17.9-5.7,34.2-22.6,41.6-13.1,7.7-29.1,6.5-42.9,12.4-15.5,2.7-30.4,8.6-45.5,12.8-32.7,10.5-68.3,17.8-92.4,44.6" stroke="#000" stroke-miterlimit="10" stroke-width=".6"/>
          <path d="M117.9,624.5c12.3,8.1,24.9-4.9,33.4-13.2,7.4-7.8,16.9-13.1,24.6-20.7,9.2-9,20.4-15.7,30.8-23.2,13-8.9,23.4-20.7,36.3-29.7,12.1-7.1,21.9-17.5,35.1-22.6,14.3-6.9,40.1-12.5,48.8-25.8,5.1-20-15.4-22.7-30.3-20.6-9.6,2.3-18.7,6.4-28,9.8-7.5,2.3-13.4,7.7-20.9,10-3.4,1.3-7,2.2-10.1,4.3-19.8,12.1-38.3,26.1-57.5,38.9-22.4,13.5-45.2,28.1-63.3,47-11.2,14-18.5,35.9,1.1,45.8ZM117.1,621.6c-10.5-6.9-11.8-20.6-4.8-30.8h.1c5.6-14.3,19.1-22,30.5-31.3,12-9.3,24.7-17.9,37.9-25.5,19.3-12.8,37.6-27.1,57.4-39.2,9.8-4.4,19.6-8.6,29.1-13.6,16.4-5.7,35.4-16.6,52.5-7.9,5.6,3.1,7.4,11.8,3.9,16.9-9.7,7.7-21.5,12.8-33.1,17-8.9,3.6-18.4,6.6-26.3,12.1-15.9,12.1-32.9,22.6-47.1,36.8-13.7,12-30.4,20.4-43.4,33.2-8.5,8.1-17.2,12.9-25.3,21.7-8.1,7.9-20.2,19.6-31.4,10.6Z" stroke="#000" stroke-miterlimit="10" stroke-width="3.7"/>
        </g>
        <g>
          <path d="M-2.2,793.4c15.5,6.3,44.9,3.3,60.7-2.2,20.9-10.9,40.6-25.3,56.2-43.1,8.6-7,14.3-16.7,23.1-23.2,6.7-4.9,11.4-11.8,17.7-16.9,12.9-8.3,29.4-3.3,42.9-9.7,11.5-4.5,19-14.3,28.4-21.9,21.5-20.1,42.9-40.4,63.1-61.7,6.8-6.2,13.6-12.6,21.3-17.4,9.3-6.1,19.9-7.2,29.2-13.2,7.9-4.2,11.9-12.1,17.9-18.2,8.7-6.5,12.6-19.5,24.4-21,16.2-5.7,32.8-9,49.1-14.1,14.4-1.9,28.5-5.6,40.2-14.7,11.5-8.4,16-21.7,15.2-35.5.1-12.6-.3-25.8-3.4-38.1-2.7-18.6-12.3-35.1-25.3-48.4-7.7-6.8-16.7-14-27.3-15.3-20.1-1.6-40.3-2.9-60.5-1.1-15.5,1.8-30.8,5.2-46.1,8.5-2.6.7-5.2.1-7.6-1-8-3.9-16.4-5.8-24.7-9.1-12.2-5.8-26.6-5-39.2-1.5-22.8,3.8-45,11.1-65.9,21.1-21,6.6-40,17.4-59.2,28.1-28,13.6-38.2,15.5-50.6,46.1-2.5,6.2-4.3,12.6-6.9,18.8-2.9,11,1.1,15.9-10.6,22.7-6.6,5.3-13.4,10.5-20.6,15.1-9.7,5.6-15.7,15.3-23.8,22.7-16.8,14.4-35.2,27.2-48.8,44.9-10.4,17.4-22.1,35.8-24.2,56.4-1.2,9.4-4.8,18.4-4.2,28,0,12.8,2.8,25.6,5.9,38.1,1.2,7.1,2.1,13.9,5.8,20.3,2.9,6.9,3.1,15.1,8.7,20.6,12.3,12.9,21.6,29.8,39.1,36.3Z" fill="#e6c9fe"/>
          <path d="M1.9,747.1c-24.7-18.2-28.4-52.3-24.4-80.5,3.2-43.6,36.2-67.4,68.8-91.6,96.5-82.8,179.4-125.6,302.4-157.1,29.3-10.2,67.1-17.5,90.5,8.5,13.9,14.6,23.3,41.4,7.7,57.5-21.3,17.3-50,21.5-75.3,30.4-24.8,10-51.3,15.7-75.2,27.4-17.4,9.5-32.6,23.4-47.8,36.1-25.3,21.1-51.5,41.2-75.1,64.2-47.2,32.3-107.6,145.4-171.7,105.1Z" fill="none" stroke="#000" stroke-miterlimit="10" stroke-width="5.7"/>
          <path d="M-2.2,793.4c15.5,6.3,44.9,3.3,60.7-2.2,20.9-10.9,40.6-25.3,56.2-43.1,8.6-7,14.3-16.7,23.1-23.2,6.7-4.9,11.4-11.8,17.7-16.9,12.9-8.3,29.4-3.3,42.9-9.7,11.5-4.5,19-14.3,28.4-21.9,21.5-20.1,42.9-40.4,63.1-61.7,6.8-6.2,13.6-12.6,21.3-17.4,9.3-6.1,19.9-7.2,29.2-13.2,7.9-4.2,11.9-12.1,17.9-18.2,8.7-6.5,12.6-19.5,24.4-21,16.2-5.7,32.8-9,49.1-14.1,14.4-1.9,28.5-5.6,40.2-14.7,11.5-8.4,16-21.7,15.2-35.5.1-12.6-.3-25.8-3.4-38.1-2.7-18.6-12.3-35.1-25.3-48.4-7.7-6.8-16.7-14-27.3-15.3-20.1-1.6-40.3-2.9-60.5-1.1-15.5,1.8-30.8,5.2-46.1,8.5-2.6.7-5.2.1-7.6-1-8-3.9-16.4-5.8-24.7-9.1-12.2-5.8-26.6-5-39.2-1.5-22.8,3.8-45,11.1-65.9,21.1-21,6.6-40,17.4-59.2,28.1-28,13.6-38.2,15.5-50.6,46.1-2.5,6.2-4.3,12.6-6.9,18.8-2.9,11,1.1,15.9-10.6,22.7-6.6,5.3-13.4,10.5-20.6,15.1-9.7,5.6-15.7,15.3-23.8,22.7-16.8,14.4-35.2,27.2-48.8,44.9-10.4,17.4-22.1,35.8-24.2,56.4-1.2,9.4-4.8,18.4-4.2,28,0,12.8,2.8,25.6,5.9,38.1,1.2,7.1,2.1,13.9,5.8,20.3,2.9,6.9,3.1,15.1,8.7,20.6,12.3,12.9,21.6,29.8,39.1,36.3ZM364.2,551.9c-.5,4.5-5.8,7.5-8.8,10.7-3.9,3.2-6.1,8-9.7,11.5-8,8.5-19.8,10.1-29.7,15.3-10.2,4-18.4,11.6-26.4,18.9-20.9,20.7-41.7,41.9-63.7,61.7-18.9,17.4-27.6,28.2-55.3,27.6-4.9.5-3-2.9-.6-5.1,22.4-24.6,48.3-45.7,72.6-68.2,18.2-16.3,37.7-31.1,55.8-47.6,19-12.6,40.5-20.2,62.7-25.2,1-.2,2.8-.5,3.1.4ZM74,498.6c-1.4-3.8.9-8.7,2.2-12.4,3.9-11.6,8.7-23,14.2-33.9,9.3-13.8,27.7-17.5,41.4-25.7,9.9-5.5,20-10.8,29.8-16.5,34.5-13.8,68.6-29.8,105.9-34.7,15.1-1.7,28.5,5.9,42.4,10.2,3.8,2.1-1.5,3.6-3.4,4.2-16,5.4-31.2,12.7-47.5,17.3-12.5,4.2-25.7,6.2-37.6,12-33.5,16.5-67.2,32.4-100.1,50.1-14.8,8.8-29,18.7-43.4,28.3-1.1.7-3.1,2.1-3.9,1ZM264.2,598.3c-31.4,25.1-60,53.4-89.6,80.6-13.1,14.1-26.1,28.5-40.5,41.4-4,2.8-7.5,6.3-10.4,10.2-7.4,8.6-16.4,15.9-23.5,24.8-17,13-33.5,29.1-55,33.8-12.8,2.5-26.5,2.2-39.5,1.3-12-3.4-21.8-11.2-29.3-21.1-5.3-6.5-11.2-12.6-16.2-19.4-2.6-9.8-7.8-19.2-9.4-29.2-4.2-20.3-10.3-41.3-3.9-61.8,1.9-14.5,4.9-28.4,12.8-40.8,4.4-7.6,7.7-16.5,13.7-23.2,13.6-16.7,31.7-29.3,47.9-43.4,15.7-19.7,38.6-31.4,57.7-47.7,36.6-26.3,76.4-47.2,117.4-65.8,15.2-7.8,30-16.8,46.8-20.7,25.8-5.4,48.9-18.9,74.4-24.9,25.5-5.1,51.1-11.8,77.4-11,15.2,1.6,31.3-1.3,45.5,5.4,31.3,17.2,42.7,54.8,41.5,88.5,1.8,17.9-5.7,34.2-22.6,41.6-13.1,7.7-29.1,6.5-42.9,12.4-15.5,2.7-30.4,8.6-45.5,12.8-32.7,10.5-68.3,17.8-92.4,44.6" stroke="#000" stroke-miterlimit="10" stroke-width=".6"/>
          <path d="M117.4,624c12.3,8.1,24.9-4.9,33.4-13.2,7.4-7.8,16.9-13.1,24.6-20.7,9.2-9,20.4-15.7,30.8-23.2,13-8.9,23.4-20.7,36.3-29.7,12.1-7.1,21.9-17.5,35.1-22.6,14.3-6.9,40.1-12.5,48.8-25.8,5.1-20-15.4-22.7-30.3-20.6-9.6,2.3-18.7,6.4-28,9.8-7.5,2.3-13.4,7.7-20.9,10-3.4,1.3-7,2.2-10.1,4.3-19.8,12.1-38.3,26.1-57.5,38.9-22.4,13.5-45.2,28.1-63.3,47-11.2,14-18.5,35.9,1.1,45.8ZM116.6,621.1c-10.5-6.9-11.8-20.6-4.8-30.8h.1c5.6-14.3,19.1-22,30.5-31.3,12-9.3,24.7-17.9,37.9-25.5,19.3-12.8,37.6-27.1,57.4-39.2,9.8-4.4,19.6-8.6,29.1-13.6,16.4-5.7,35.4-16.6,52.5-7.9,5.6,3.1,7.4,11.8,3.9,16.9-9.7,7.7-21.5,12.8-33.1,17-8.9,3.6-18.4,6.6-26.3,12.1-15.9,12.1-32.9,22.6-47.1,36.8-13.7,12-30.4,20.4-43.4,33.2-8.5,8.1-17.2,12.9-25.3,21.7-8.1,7.9-20.2,19.6-31.4,10.6Z" stroke="#000" stroke-miterlimit="10" stroke-width="3.7"/>
        </g>
        <g>
          <path d="M-2.7,792.9c15.5,6.3,44.9,3.3,60.7-2.2,20.9-10.9,40.6-25.3,56.2-43.1,8.6-7,14.3-16.7,23.1-23.2,6.7-4.9,11.4-11.8,17.7-16.9,12.9-8.3,29.4-3.3,42.9-9.7,11.5-4.5,19-14.3,28.4-21.9,21.5-20.1,42.9-40.4,63.1-61.7,6.8-6.2,13.6-12.6,21.3-17.4,9.3-6.1,19.9-7.2,29.2-13.2,7.9-4.2,11.9-12.1,17.9-18.2,8.7-6.5,12.6-19.5,24.4-21,16.2-5.7,32.8-9,49.1-14.1,14.4-1.9,28.5-5.6,40.2-14.7,11.5-8.4,16-21.7,15.2-35.5.1-12.6-.3-25.8-3.4-38.1-2.7-18.6-12.3-35.1-25.3-48.4-7.7-6.8-16.7-14-27.3-15.3-20.1-1.6-40.3-2.9-60.5-1.1-15.5,1.8-30.8,5.2-46.1,8.5-2.6.7-5.2.1-7.6-1-8-3.9-16.4-5.8-24.7-9.1-12.2-5.8-26.6-5-39.2-1.5-22.8,3.8-45,11.1-65.9,21.1-21,6.6-40,17.4-59.2,28.1-28,13.6-38.2,15.5-50.6,46.1-2.5,6.2-4.3,12.6-6.9,18.8-2.9,11,1.1,15.9-10.6,22.7-6.6,5.3-13.4,10.5-20.6,15.1-9.7,5.6-15.7,15.3-23.8,22.7-16.8,14.4-35.2,27.2-48.8,44.9-10.4,17.4-22.1,35.8-24.2,56.4-1.2,9.4-4.8,18.4-4.2,28,0,12.8,2.8,25.6,5.9,38.1,1.2,7.1,2.1,13.9,5.8,20.3,2.9,6.9,3.1,15.1,8.7,20.6,12.3,12.9,21.6,29.8,39.1,36.3Z" fill="#e6c9fe"/>
          <path d="M1.4,746.6c-24.7-18.2-28.4-52.3-24.4-80.5,3.2-43.6,36.2-67.4,68.8-91.6,96.5-82.8,179.4-125.6,302.4-157.1,29.3-10.2,67.1-17.5,90.5,8.5,13.9,14.6,23.3,41.4,7.7,57.5-21.3,17.3-50,21.5-75.3,30.4-24.8,10-51.3,15.7-75.2,27.4-17.4,9.5-32.6,23.4-47.8,36.1-25.3,21.1-51.5,41.2-75.1,64.2-47.2,32.3-107.6,145.4-171.7,105.1Z" fill="none" stroke="#000" stroke-miterlimit="10" stroke-width="5.7"/>
          <path d="M-2.7,792.9c15.5,6.3,44.9,3.3,60.7-2.2,20.9-10.9,40.6-25.3,56.2-43.1,8.6-7,14.3-16.7,23.1-23.2,6.7-4.9,11.4-11.8,17.7-16.9,12.9-8.3,29.4-3.3,42.9-9.7,11.5-4.5,19-14.3,28.4-21.9,21.5-20.1,42.9-40.4,63.1-61.7,6.8-6.2,13.6-12.6,21.3-17.4,9.3-6.1,19.9-7.2,29.2-13.2,7.9-4.2,11.9-12.1,17.9-18.2,8.7-6.5,12.6-19.5,24.4-21,16.2-5.7,32.8-9,49.1-14.1,14.4-1.9,28.5-5.6,40.2-14.7,11.5-8.4,16-21.7,15.2-35.5.1-12.6-.3-25.8-3.4-38.1-2.7-18.6-12.3-35.1-25.3-48.4-7.7-6.8-16.7-14-27.3-15.3-20.1-1.6-40.3-2.9-60.5-1.1-15.5,1.8-30.8,5.2-46.1,8.5-2.6.7-5.2.1-7.6-1-8-3.9-16.4-5.8-24.7-9.1-12.2-5.8-26.6-5-39.2-1.5-22.8,3.8-45,11.1-65.9,21.1-21,6.6-40,17.4-59.2,28.1-28,13.6-38.2,15.5-50.6,46.1-2.5,6.2-4.3,12.6-6.9,18.8-2.9,11,1.1,15.9-10.6,22.7-6.6,5.3-13.4,10.5-20.6,15.1-9.7,5.6-15.7,15.3-23.8,22.7-16.8,14.4-35.2,27.2-48.8,44.9-10.4,17.4-22.1,35.8-24.2,56.4-1.2,9.4-4.8,18.4-4.2,28,0,12.8,2.8,25.6,5.9,38.1,1.2,7.1,2.1,13.9,5.8,20.3,2.9,6.9,3.1,15.1,8.7,20.6,12.3,12.9,21.6,29.8,39.1,36.3ZM363.7,551.4c-.5,4.5-5.8,7.5-8.8,10.7-3.9,3.2-6.1,8-9.7,11.5-8,8.5-19.8,10.1-29.7,15.3-10.2,4-18.4,11.6-26.4,18.9-20.9,20.7-41.7,41.9-63.7,61.7-18.9,17.4-27.6,28.2-55.3,27.6-4.9.5-3-2.9-.6-5.1,22.4-24.6,48.3-45.7,72.6-68.2,18.2-16.3,37.7-31.1,55.8-47.6,19-12.6,40.5-20.2,62.7-25.2,1-.2,2.8-.5,3.1.4ZM73.5,498.1c-1.4-3.8.9-8.7,2.2-12.4,3.9-11.6,8.7-23,14.2-33.9,9.3-13.8,27.7-17.5,41.4-25.7,9.9-5.5,20-10.8,29.8-16.5,34.5-13.8,68.6-29.8,105.9-34.7,15.1-1.7,28.5,5.9,42.4,10.2,3.8,2.1-1.5,3.6-3.4,4.2-16,5.4-31.2,12.7-47.5,17.3-12.5,4.2-25.7,6.2-37.6,12-33.5,16.5-67.2,32.4-100.1,50.1-14.8,8.8-29,18.7-43.4,28.3-1.1.7-3.1,2.1-3.9,1ZM263.7,597.8c-31.4,25.1-60,53.4-89.6,80.6-13.1,14.1-26.1,28.5-40.5,41.4-4,2.8-7.5,6.3-10.4,10.2-7.4,8.6-16.4,15.9-23.5,24.8-17,13-33.5,29.1-55,33.8-12.8,2.5-26.5,2.2-39.5,1.3-12-3.4-21.8-11.2-29.3-21.1-5.3-6.5-11.2-12.6-16.2-19.4-2.6-9.8-7.8-19.2-9.4-29.2-4.2-20.3-10.3-41.3-3.9-61.8,1.9-14.5,4.9-28.4,12.8-40.8,4.4-7.6,7.7-16.5,13.7-23.2,13.6-16.7,31.7-29.3,47.9-43.4,15.7-19.7,38.6-31.4,57.7-47.7,36.6-26.3,76.4-47.2,117.4-65.8,15.2-7.8,30-16.8,46.8-20.7,25.8-5.4,48.9-18.9,74.4-24.9,25.5-5.1,51.1-11.8,77.4-11,15.2,1.6,31.3-1.3,45.5,5.4,31.3,17.2,42.7,54.8,41.5,88.5,1.8,17.9-5.7,34.2-22.6,41.6-13.1,7.7-29.1,6.5-42.9,12.4-15.5,2.7-30.4,8.6-45.5,12.8-32.7,10.5-68.3,17.8-92.4,44.6" stroke="#000" stroke-miterlimit="10" stroke-width=".6"/>
          <path d="M116.9,623.5c12.3,8.1,24.9-4.9,33.4-13.2,7.4-7.8,16.9-13.1,24.6-20.7,9.2-9,20.4-15.7,30.8-23.2,13-8.9,23.4-20.7,36.3-29.7,12.1-7.1,21.9-17.5,35.1-22.6,14.3-6.9,40.1-12.5,48.8-25.8,5.1-20-15.4-22.7-30.3-20.6-9.6,2.3-18.7,6.4-28,9.8-7.5,2.3-13.4,7.7-20.9,10-3.4,1.3-7,2.2-10.1,4.3-19.8,12.1-38.3,26.1-57.5,38.9-22.4,13.5-45.2,28.1-63.3,47-11.2,14-18.5,35.9,1.1,45.8ZM116.1,620.6c-10.5-6.9-11.8-20.6-4.8-30.8h.1c5.6-14.3,19.1-22,30.5-31.3,12-9.3,24.7-17.9,37.9-25.5,19.3-12.8,37.6-27.1,57.4-39.2,9.8-4.4,19.6-8.6,29.1-13.6,16.4-5.7,35.4-16.6,52.5-7.9,5.6,3.1,7.4,11.8,3.9,16.9-9.7,7.7-21.5,12.8-33.1,17-8.9,3.6-18.4,6.6-26.3,12.1-15.9,12.1-32.9,22.6-47.1,36.8-13.7,12-30.4,20.4-43.4,33.2-8.5,8.1-17.2,12.9-25.3,21.7-8.1,7.9-20.2,19.6-31.4,10.6Z" stroke="#000" stroke-miterlimit="10" stroke-width="3.7"/>
        </g>
        <g>
          <path d="M-3.2,792.4c15.5,6.3,44.9,3.3,60.7-2.2,20.9-10.9,40.6-25.3,56.2-43.1,8.6-7,14.3-16.7,23.1-23.2,6.7-4.9,11.4-11.8,17.7-16.9,12.9-8.3,29.4-3.3,42.9-9.7,11.5-4.5,19-14.3,28.4-21.9,21.5-20.1,42.9-40.4,63.1-61.7,6.8-6.2,13.6-12.6,21.3-17.4,9.3-6.1,19.9-7.2,29.2-13.2,7.9-4.2,11.9-12.1,17.9-18.2,8.7-6.5,12.6-19.5,24.4-21,16.2-5.7,32.8-9,49.1-14.1,14.4-1.9,28.5-5.6,40.2-14.7,11.5-8.4,16-21.7,15.2-35.5.1-12.6-.3-25.8-3.4-38.1-2.7-18.6-12.3-35.1-25.3-48.4-7.7-6.8-16.7-14-27.3-15.3-20.1-1.6-40.3-2.9-60.5-1.1-15.5,1.8-30.8,5.2-46.1,8.5-2.6.7-5.2.1-7.6-1-8-3.9-16.4-5.8-24.7-9.1-12.2-5.8-26.6-5-39.2-1.5-22.8,3.8-45,11.1-65.9,21.1-21,6.6-40,17.4-59.2,28.1-28,13.6-38.2,15.5-50.6,46.1-2.5,6.2-4.3,12.6-6.9,18.8-2.9,11,1.1,15.9-10.6,22.7-6.6,5.3-13.4,10.5-20.6,15.1-9.7,5.6-15.7,15.3-23.8,22.7-16.8,14.4-35.2,27.2-48.8,44.9-10.4,17.4-22.1,35.8-24.2,56.4-1.2,9.4-4.8,18.4-4.2,28,0,12.8,2.8,25.6,5.9,38.1,1.2,7.1,2.1,13.9,5.8,20.3,2.9,6.9,3.1,15.1,8.7,20.6,12.3,12.9,21.6,29.8,39.1,36.3Z" fill="#e6c9fe"/>
          <path d="M.9,746.1c-24.7-18.2-28.4-52.3-24.4-80.5,3.2-43.6,36.2-67.4,68.8-91.6,96.5-82.8,179.4-125.6,302.4-157.1,29.3-10.2,67.1-17.5,90.5,8.5,13.9,14.6,23.3,41.4,7.7,57.5-21.3,17.3-50,21.5-75.3,30.4-24.8,10-51.3,15.7-75.2,27.4-17.4,9.5-32.6,23.4-47.8,36.1-25.3,21.1-51.5,41.2-75.1,64.2-47.2,32.3-107.6,145.4-171.7,105.1Z" fill="none" stroke="#000" stroke-miterlimit="10" stroke-width="5.7"/>
          <path d="M-3.2,792.4c15.5,6.3,44.9,3.3,60.7-2.2,20.9-10.9,40.6-25.3,56.2-43.1,8.6-7,14.3-16.7,23.1-23.2,6.7-4.9,11.4-11.8,17.7-16.9,12.9-8.3,29.4-3.3,42.9-9.7,11.5-4.5,19-14.3,28.4-21.9,21.5-20.1,42.9-40.4,63.1-61.7,6.8-6.2,13.6-12.6,21.3-17.4,9.3-6.1,19.9-7.2,29.2-13.2,7.9-4.2,11.9-12.1,17.9-18.2,8.7-6.5,12.6-19.5,24.4-21,16.2-5.7,32.8-9,49.1-14.1,14.4-1.9,28.5-5.6,40.2-14.7,11.5-8.4,16-21.7,15.2-35.5.1-12.6-.3-25.8-3.4-38.1-2.7-18.6-12.3-35.1-25.3-48.4-7.7-6.8-16.7-14-27.3-15.3-20.1-1.6-40.3-2.9-60.5-1.1-15.5,1.8-30.8,5.2-46.1,8.5-2.6.7-5.2.1-7.6-1-8-3.9-16.4-5.8-24.7-9.1-12.2-5.8-26.6-5-39.2-1.5-22.8,3.8-45,11.1-65.9,21.1-21,6.6-40,17.4-59.2,28.1-28,13.6-38.2,15.5-50.6,46.1-2.5,6.2-4.3,12.6-6.9,18.8-2.9,11,1.1,15.9-10.6,22.7-6.6,5.3-13.4,10.5-20.6,15.1-9.7,5.6-15.7,15.3-23.8,22.7-16.8,14.4-35.2,27.2-48.8,44.9-10.4,17.4-22.1,35.8-24.2,56.4-1.2,9.4-4.8,18.4-4.2,28,0,12.8,2.8,25.6,5.9,38.1,1.2,7.1,2.1,13.9,5.8,20.3,2.9,6.9,3.1,15.1,8.7,20.6,12.3,12.9,21.6,29.8,39.1,36.3ZM363.2,550.9c-.5,4.5-5.8,7.5-8.8,10.7-3.9,3.2-6.1,8-9.7,11.5-8,8.5-19.8,10.1-29.7,15.3-10.2,4-18.4,11.6-26.4,18.9-20.9,20.7-41.7,41.9-63.7,61.7-18.9,17.4-27.6,28.2-55.3,27.6-4.9.5-3-2.9-.6-5.1,22.4-24.6,48.3-45.7,72.6-68.2,18.2-16.3,37.7-31.1,55.8-47.6,19-12.6,40.5-20.2,62.7-25.2,1-.2,2.8-.5,3.1.4ZM73,497.6c-1.4-3.8.9-8.7,2.2-12.4,3.9-11.6,8.7-23,14.2-33.9,9.3-13.8,27.7-17.5,41.4-25.7,9.9-5.5,20-10.8,29.8-16.5,34.5-13.8,68.6-29.8,105.9-34.7,15.1-1.7,28.5,5.9,42.4,10.2,3.8,2.1-1.5,3.6-3.4,4.2-16,5.4-31.2,12.7-47.5,17.3-12.5,4.2-25.7,6.2-37.6,12-33.5,16.5-67.2,32.4-100.1,50.1-14.8,8.8-29,18.7-43.4,28.3-1.1.7-3.1,2.1-3.9,1ZM263.2,597.3c-31.4,25.1-60,53.4-89.6,80.6-13.1,14.1-26.1,28.5-40.5,41.4-4,2.8-7.5,6.3-10.4,10.2-7.4,8.6-16.4,15.9-23.5,24.8-17,13-33.5,29.1-55,33.8-12.8,2.5-26.5,2.2-39.5,1.3-12-3.4-21.8-11.2-29.3-21.1-5.3-6.5-11.2-12.6-16.2-19.4-2.6-9.8-7.8-19.2-9.4-29.2-4.2-20.3-10.3-41.3-3.9-61.8,1.9-14.5,4.9-28.4,12.8-40.8,4.4-7.6,7.7-16.5,13.7-23.2,13.6-16.7,31.7-29.3,47.9-43.4,15.7-19.7,38.6-31.4,57.7-47.7,36.6-26.3,76.4-47.2,117.4-65.8,15.2-7.8,30-16.8,46.8-20.7,25.8-5.4,48.9-18.9,74.4-24.9,25.5-5.1,51.1-11.8,77.4-11,15.2,1.6,31.3-1.3,45.5,5.4,31.3,17.2,42.7,54.8,41.5,88.5,1.8,17.9-5.7,34.2-22.6,41.6-13.1,7.7-29.1,6.5-42.9,12.4-15.5,2.7-30.4,8.6-45.5,12.8-32.7,10.5-68.3,17.8-92.4,44.6" stroke="#000" stroke-miterlimit="10" stroke-width=".6"/>
          <path d="M116.4,623c12.3,8.1,24.9-4.9,33.4-13.2,7.4-7.8,16.9-13.1,24.6-20.7,9.2-9,20.4-15.7,30.8-23.2,13-8.9,23.4-20.7,36.3-29.7,12.1-7.1,21.9-17.5,35.1-22.6,14.3-6.9,40.1-12.5,48.8-25.8,5.1-20-15.4-22.7-30.3-20.6-9.6,2.3-18.7,6.4-28,9.8-7.5,2.3-13.4,7.7-20.9,10-3.4,1.3-7,2.2-10.1,4.3-19.8,12.1-38.3,26.1-57.5,38.9-22.4,13.5-45.2,28.1-63.3,47-11.2,14-18.5,35.9,1.1,45.8ZM115.6,620.1c-10.5-6.9-11.8-20.6-4.8-30.8h.1c5.6-14.3,19.1-22,30.5-31.3,12-9.3,24.7-17.9,37.9-25.5,19.3-12.8,37.6-27.1,57.4-39.2,9.8-4.4,19.6-8.6,29.1-13.6,16.4-5.7,35.4-16.6,52.5-7.9,5.6,3.1,7.4,11.8,3.9,16.9-9.7,7.7-21.5,12.8-33.1,17-8.9,3.6-18.4,6.6-26.3,12.1-15.9,12.1-32.9,22.6-47.1,36.8-13.7,12-30.4,20.4-43.4,33.2-8.5,8.1-17.2,12.9-25.3,21.7-8.1,7.9-20.2,19.6-31.4,10.6Z" stroke="#000" stroke-miterlimit="10" stroke-width="3.7"/>
        </g>
        <g>
          <path d="M-3.7,791.9c15.5,6.3,44.9,3.3,60.7-2.2,20.9-10.9,40.6-25.3,56.2-43.1,8.6-7,14.3-16.7,23.1-23.2,6.7-4.9,11.4-11.8,17.7-16.9,12.9-8.3,29.4-3.3,42.9-9.7,11.5-4.5,19-14.3,28.4-21.9,21.5-20.1,42.9-40.4,63.1-61.7,6.8-6.2,13.6-12.6,21.3-17.4,9.3-6.1,19.9-7.2,29.2-13.2,7.9-4.2,11.9-12.1,17.9-18.2,8.7-6.5,12.6-19.5,24.4-21,16.2-5.7,32.8-9,49.1-14.1,14.4-1.9,28.5-5.6,40.2-14.7,11.5-8.4,16-21.7,15.2-35.5.1-12.6-.3-25.8-3.4-38.1-2.7-18.6-12.3-35.1-25.3-48.4-7.7-6.8-16.7-14-27.3-15.3-20.1-1.6-40.3-2.9-60.5-1.1-15.5,1.8-30.8,5.2-46.1,8.5-2.6.7-5.2.1-7.6-1-8-3.9-16.4-5.8-24.7-9.1-12.2-5.8-26.6-5-39.2-1.5-22.8,3.8-45,11.1-65.9,21.1-21,6.6-40,17.4-59.2,28.1-28,13.6-38.2,15.5-50.6,46.1-2.5,6.2-4.3,12.6-6.9,18.8-2.9,11,1.1,15.9-10.6,22.7-6.6,5.3-13.4,10.5-20.6,15.1-9.7,5.6-15.7,15.3-23.8,22.7-16.8,14.4-35.2,27.2-48.8,44.9-10.4,17.4-22.1,35.8-24.2,56.4-1.2,9.4-4.8,18.4-4.2,28,0,12.8,2.8,25.6,5.9,38.1,1.2,7.1,2.1,13.9,5.8,20.3,2.9,6.9,3.1,15.1,8.7,20.6,12.3,12.9,21.6,29.8,39.1,36.3Z" fill="#e6c9fe"/>
          <path d="M.4,745.6c-24.7-18.2-28.4-52.3-24.4-80.5,3.2-43.6,36.2-67.4,68.8-91.6,96.5-82.8,179.4-125.6,302.4-157.1,29.3-10.2,67.1-17.5,90.5,8.5,13.9,14.6,23.3,41.4,7.7,57.5-21.3,17.3-50,21.5-75.3,30.4-24.8,10-51.3,15.7-75.2,27.4-17.4,9.5-32.6,23.4-47.8,36.1-25.3,21.1-51.5,41.2-75.1,64.2-47.2,32.3-107.6,145.4-171.7,105.1Z" fill="none" stroke="#000" stroke-miterlimit="10" stroke-width="5.7"/>
          <path d="M-3.7,791.9c15.5,6.3,44.9,3.3,60.7-2.2,20.9-10.9,40.6-25.3,56.2-43.1,8.6-7,14.3-16.7,23.1-23.2,6.7-4.9,11.4-11.8,17.7-16.9,12.9-8.3,29.4-3.3,42.9-9.7,11.5-4.5,19-14.3,28.4-21.9,21.5-20.1,42.9-40.4,63.1-61.7,6.8-6.2,13.6-12.6,21.3-17.4,9.3-6.1,19.9-7.2,29.2-13.2,7.9-4.2,11.9-12.1,17.9-18.2,8.7-6.5,12.6-19.5,24.4-21,16.2-5.7,32.8-9,49.1-14.1,14.4-1.9,28.5-5.6,40.2-14.7,11.5-8.4,16-21.7,15.2-35.5.1-12.6-.3-25.8-3.4-38.1-2.7-18.6-12.3-35.1-25.3-48.4-7.7-6.8-16.7-14-27.3-15.3-20.1-1.6-40.3-2.9-60.5-1.1-15.5,1.8-30.8,5.2-46.1,8.5-2.6.7-5.2.1-7.6-1-8-3.9-16.4-5.8-24.7-9.1-12.2-5.8-26.6-5-39.2-1.5-22.8,3.8-45,11.1-65.9,21.1-21,6.6-40,17.4-59.2,28.1-28,13.6-38.2,15.5-50.6,46.1-2.5,6.2-4.3,12.6-6.9,18.8-2.9,11,1.1,15.9-10.6,22.7-6.6,5.3-13.4,10.5-20.6,15.1-9.7,5.6-15.7,15.3-23.8,22.7-16.8,14.4-35.2,27.2-48.8,44.9-10.4,17.4-22.1,35.8-24.2,56.4-1.2,9.4-4.8,18.4-4.2,28,0,12.8,2.8,25.6,5.9,38.1,1.2,7.1,2.1,13.9,5.8,20.3,2.9,6.9,3.1,15.1,8.7,20.6,12.3,12.9,21.6,29.8,39.1,36.3ZM362.7,550.4c-.5,4.5-5.8,7.5-8.8,10.7-3.9,3.2-6.1,8-9.7,11.5-8,8.5-19.8,10.1-29.7,15.3-10.2,4-18.4,11.6-26.4,18.9-20.9,20.7-41.7,41.9-63.7,61.7-18.9,17.4-27.6,28.2-55.3,27.6-4.9.5-3-2.9-.6-5.1,22.4-24.6,48.3-45.7,72.6-68.2,18.2-16.3,37.7-31.1,55.8-47.6,19-12.6,40.5-20.2,62.7-25.2,1-.2,2.8-.5,3.1.4ZM72.5,497.1c-1.4-3.8.9-8.7,2.2-12.4,3.9-11.6,8.7-23,14.2-33.9,9.3-13.8,27.7-17.5,41.4-25.7,9.9-5.5,20-10.8,29.8-16.5,34.5-13.8,68.6-29.8,105.9-34.7,15.1-1.7,28.5,5.9,42.4,10.2,3.8,2.1-1.5,3.6-3.4,4.2-16,5.4-31.2,12.7-47.5,17.3-12.5,4.2-25.7,6.2-37.6,12-33.5,16.5-67.2,32.4-100.1,50.1-14.8,8.8-29,18.7-43.4,28.3-1.1.7-3.1,2.1-3.9,1ZM262.7,596.8c-31.4,25.1-60,53.4-89.6,80.6-13.1,14.1-26.1,28.5-40.5,41.4-4,2.8-7.5,6.3-10.4,10.2-7.4,8.6-16.4,15.9-23.5,24.8-17,13-33.5,29.1-55,33.8-12.8,2.5-26.5,2.2-39.5,1.3-12-3.4-21.8-11.2-29.3-21.1-5.3-6.5-11.2-12.6-16.2-19.4-2.6-9.8-7.8-19.2-9.4-29.2-4.2-20.3-10.3-41.3-3.9-61.8,1.9-14.5,4.9-28.4,12.8-40.8,4.4-7.6,7.7-16.5,13.7-23.2,13.6-16.7,31.7-29.3,47.9-43.4,15.7-19.7,38.6-31.4,57.7-47.7,36.6-26.3,76.4-47.2,117.4-65.8,15.2-7.8,30-16.8,46.8-20.7,25.8-5.4,48.9-18.9,74.4-24.9,25.5-5.1,51.1-11.8,77.4-11,15.2,1.6,31.3-1.3,45.5,5.4,31.3,17.2,42.7,54.8,41.5,88.5,1.8,17.9-5.7,34.2-22.6,41.6-13.1,7.7-29.1,6.5-42.9,12.4-15.5,2.7-30.4,8.6-45.5,12.8-32.7,10.5-68.3,17.8-92.4,44.6" stroke="#000" stroke-miterlimit="10" stroke-width=".6"/>
          <path d="M115.9,622.5c12.3,8.1,24.9-4.9,33.4-13.2,7.4-7.8,16.9-13.1,24.6-20.7,9.2-9,20.4-15.7,30.8-23.2,13-8.9,23.4-20.7,36.3-29.7,12.1-7.1,21.9-17.5,35.1-22.6,14.3-6.9,40.1-12.5,48.8-25.8,5.1-20-15.4-22.7-30.3-20.6-9.6,2.3-18.7,6.4-28,9.8-7.5,2.3-13.4,7.7-20.9,10-3.4,1.3-7,2.2-10.1,4.3-19.8,12.1-38.3,26.1-57.5,38.9-22.4,13.5-45.2,28.1-63.3,47-11.2,14-18.5,35.9,1.1,45.8ZM115.1,619.6c-10.5-6.9-11.8-20.6-4.8-30.8h.1c5.6-14.3,19.1-22,30.5-31.3,12-9.3,24.7-17.9,37.9-25.5,19.3-12.8,37.6-27.1,57.4-39.2,9.8-4.4,19.6-8.6,29.1-13.6,16.4-5.7,35.4-16.6,52.5-7.9,5.6,3.1,7.4,11.8,3.9,16.9-9.7,7.7-21.5,12.8-33.1,17-8.9,3.6-18.4,6.6-26.3,12.1-15.9,12.1-32.9,22.6-47.1,36.8-13.7,12-30.4,20.4-43.4,33.2-8.5,8.1-17.2,12.9-25.3,21.7-8.1,7.9-20.2,19.6-31.4,10.6Z" stroke="#000" stroke-miterlimit="10" stroke-width="3.7"/>
        </g>
        <g>
          <path d="M-4.2,791.4c15.5,6.3,44.9,3.3,60.7-2.2,20.9-10.9,40.6-25.3,56.2-43.1,8.6-7,14.3-16.7,23.1-23.2,6.7-4.9,11.4-11.8,17.7-16.9,12.9-8.3,29.4-3.3,42.9-9.7,11.5-4.5,19-14.3,28.4-21.9,21.5-20.1,42.9-40.4,63.1-61.7,6.8-6.2,13.6-12.6,21.3-17.4,9.3-6.1,19.9-7.2,29.2-13.2,7.9-4.2,11.9-12.1,17.9-18.2,8.7-6.5,12.6-19.5,24.4-21,16.2-5.7,32.8-9,49.1-14.1,14.4-1.9,28.5-5.6,40.2-14.7,11.5-8.4,16-21.7,15.2-35.5.1-12.6-.3-25.8-3.4-38.1-2.7-18.6-12.3-35.1-25.3-48.4-7.7-6.8-16.7-14-27.3-15.3-20.1-1.6-40.3-2.9-60.5-1.1-15.5,1.8-30.8,5.2-46.1,8.5-2.6.7-5.2.1-7.6-1-8-3.9-16.4-5.8-24.7-9.1-12.2-5.8-26.6-5-39.2-1.5-22.8,3.8-45,11.1-65.9,21.1-21,6.6-40,17.4-59.2,28.1-28,13.6-38.2,15.5-50.6,46.1-2.5,6.2-4.3,12.6-6.9,18.8-2.9,11,1.1,15.9-10.6,22.7-6.6,5.3-13.4,10.5-20.6,15.1-9.7,5.6-15.7,15.3-23.8,22.7-16.8,14.4-35.2,27.2-48.8,44.9-10.4,17.4-22.1,35.8-24.2,56.4-1.2,9.4-4.8,18.4-4.2,28,0,12.8,2.8,25.6,5.9,38.1,1.2,7.1,2.1,13.9,5.8,20.3,2.9,6.9,3.1,15.1,8.7,20.6,12.3,12.9,21.6,29.8,39.1,36.3Z" fill="#e6c9fe"/>
          <path d="M0,745.1c-24.7-18.2-28.4-52.3-24.4-80.5,3.2-43.6,36.2-67.4,68.8-91.6,96.5-82.8,179.4-125.6,302.4-157.1,29.3-10.2,67.1-17.5,90.5,8.5,13.9,14.6,23.3,41.4,7.7,57.5-21.3,17.3-50,21.5-75.3,30.4-24.8,10-51.3,15.7-75.2,27.4-17.4,9.5-32.6,23.4-47.8,36.1-25.3,21.1-51.5,41.2-75.1,64.2C124.4,672.3,64,785.4,0,745.1Z" fill="none" stroke="#000" stroke-miterlimit="10" stroke-width="5.7"/>
          <path d="M-4.2,791.4c15.5,6.3,44.9,3.3,60.7-2.2,20.9-10.9,40.6-25.3,56.2-43.1,8.6-7,14.3-16.7,23.1-23.2,6.7-4.9,11.4-11.8,17.7-16.9,12.9-8.3,29.4-3.3,42.9-9.7,11.5-4.5,19-14.3,28.4-21.9,21.5-20.1,42.9-40.4,63.1-61.7,6.8-6.2,13.6-12.6,21.3-17.4,9.3-6.1,19.9-7.2,29.2-13.2,7.9-4.2,11.9-12.1,17.9-18.2,8.7-6.5,12.6-19.5,24.4-21,16.2-5.7,32.8-9,49.1-14.1,14.4-1.9,28.5-5.6,40.2-14.7,11.5-8.4,16-21.7,15.2-35.5.1-12.6-.3-25.8-3.4-38.1-2.7-18.6-12.3-35.1-25.3-48.4-7.7-6.8-16.7-14-27.3-15.3-20.1-1.6-40.3-2.9-60.5-1.1-15.5,1.8-30.8,5.2-46.1,8.5-2.6.7-5.2.1-7.6-1-8-3.9-16.4-5.8-24.7-9.1-12.2-5.8-26.6-5-39.2-1.5-22.8,3.8-45,11.1-65.9,21.1-21,6.6-40,17.4-59.2,28.1-28,13.6-38.2,15.5-50.6,46.1-2.5,6.2-4.3,12.6-6.9,18.8-2.9,11,1.1,15.9-10.6,22.7-6.6,5.3-13.4,10.5-20.6,15.1-9.7,5.6-15.7,15.3-23.8,22.7-16.8,14.4-35.2,27.2-48.8,44.9-10.4,17.4-22.1,35.8-24.2,56.4-1.2,9.4-4.8,18.4-4.2,28,0,12.8,2.8,25.6,5.9,38.1,1.2,7.1,2.1,13.9,5.8,20.3,2.9,6.9,3.1,15.1,8.7,20.6,12.3,12.9,21.6,29.8,39.1,36.3ZM362.2,549.9c-.5,4.5-5.8,7.5-8.8,10.7-3.9,3.2-6.1,8-9.7,11.5-8,8.5-19.8,10.1-29.7,15.3-10.2,4-18.4,11.6-26.4,18.9-20.9,20.7-41.7,41.9-63.7,61.7-18.9,17.4-27.6,28.2-55.3,27.6-4.9.5-3-2.9-.6-5.1,22.4-24.6,48.3-45.7,72.6-68.2,18.2-16.3,37.7-31.1,55.8-47.6,19-12.6,40.5-20.2,62.7-25.2,1-.2,2.8-.5,3.1.4ZM72,496.6c-1.4-3.8.9-8.7,2.2-12.4,3.9-11.6,8.7-23,14.2-33.9,9.3-13.8,27.7-17.5,41.4-25.7,9.9-5.5,20-10.8,29.8-16.5,34.5-13.8,68.6-29.8,105.9-34.7,15.1-1.7,28.5,5.9,42.4,10.2,3.8,2.1-1.5,3.6-3.4,4.2-16,5.4-31.2,12.7-47.5,17.3-12.5,4.2-25.7,6.2-37.6,12-33.5,16.5-67.2,32.4-100.1,50.1-14.8,8.8-29,18.7-43.4,28.3-1.1.7-3.1,2.1-3.9,1ZM262.2,596.3c-31.4,25.1-60,53.4-89.6,80.6-13.1,14.1-26.1,28.5-40.5,41.4-4,2.8-7.5,6.3-10.4,10.2-7.4,8.6-16.4,15.9-23.5,24.8-17,13-33.5,29.1-55,33.8-12.8,2.5-26.5,2.2-39.5,1.3-12-3.4-21.8-11.2-29.3-21.1-5.3-6.5-11.2-12.6-16.2-19.4-2.6-9.8-7.8-19.2-9.4-29.2-4.2-20.3-10.3-41.3-3.9-61.8,1.9-14.5,4.9-28.4,12.8-40.8,4.4-7.6,7.7-16.5,13.7-23.2,13.6-16.7,31.7-29.3,47.9-43.4,15.7-19.7,38.6-31.4,57.7-47.7,36.6-26.3,76.4-47.2,117.4-65.8,15.2-7.8,30-16.8,46.8-20.7,25.8-5.4,48.9-18.9,74.4-24.9,25.5-5.1,51.1-11.8,77.4-11,15.2,1.6,31.3-1.3,45.5,5.4,31.3,17.2,42.7,54.8,41.5,88.5,1.8,17.9-5.7,34.2-22.6,41.6-13.1,7.7-29.1,6.5-42.9,12.4-15.5,2.7-30.4,8.6-45.5,12.8-32.7,10.5-68.3,17.8-92.4,44.6" stroke="#000" stroke-miterlimit="10" stroke-width=".6"/>
          <path d="M115.4,622c12.3,8.1,24.9-4.9,33.4-13.2,7.4-7.8,16.9-13.1,24.6-20.7,9.2-9,20.4-15.7,30.8-23.2,13-8.9,23.4-20.7,36.3-29.7,12.1-7.1,21.9-17.5,35.1-22.6,14.3-6.9,40.1-12.5,48.8-25.8,5.1-20-15.4-22.7-30.3-20.6-9.6,2.3-18.7,6.4-28,9.8-7.5,2.3-13.4,7.7-20.9,10-3.4,1.3-7,2.2-10.1,4.3-19.8,12.1-38.3,26.1-57.5,38.9-22.4,13.5-45.2,28.1-63.3,47-11.2,14-18.5,35.9,1.1,45.8ZM114.6,619.1c-10.5-6.9-11.8-20.6-4.8-30.8h.1c5.6-14.3,19.1-22,30.5-31.3,12-9.3,24.7-17.9,37.9-25.5,19.3-12.8,37.6-27.1,57.4-39.2,9.8-4.4,19.6-8.6,29.1-13.6,16.4-5.7,35.4-16.6,52.5-7.9,5.6,3.1,7.4,11.8,3.9,16.9-9.7,7.7-21.5,12.8-33.1,17-8.9,3.6-18.4,6.6-26.3,12.1-15.9,12.1-32.9,22.6-47.1,36.8-13.7,12-30.4,20.4-43.4,33.2-8.5,8.1-17.2,12.9-25.3,21.7-8.1,7.9-20.2,19.6-31.4,10.6Z" stroke="#000" stroke-miterlimit="10" stroke-width="3.7"/>
        </g>
        <g>
          <path d="M-4.7,790.9c15.5,6.3,44.9,3.3,60.7-2.2,20.9-10.9,40.6-25.3,56.2-43.1,8.6-7,14.3-16.7,23.1-23.2,6.7-4.9,11.4-11.8,17.7-16.9,12.9-8.3,29.4-3.3,42.9-9.7,11.5-4.5,19-14.3,28.4-21.9,21.5-20.1,42.9-40.4,63.1-61.7,6.8-6.2,13.6-12.6,21.3-17.4,9.3-6.1,19.9-7.2,29.2-13.2,7.9-4.2,11.9-12.1,17.9-18.2,8.7-6.5,12.6-19.5,24.4-21,16.2-5.7,32.8-9,49.1-14.1,14.4-1.9,28.5-5.6,40.2-14.7,11.5-8.4,16-21.7,15.2-35.5.1-12.6-.3-25.8-3.4-38.1-2.7-18.6-12.3-35.1-25.3-48.4-7.7-6.8-16.7-14-27.3-15.3-20.1-1.6-40.3-2.9-60.5-1.1-15.5,1.8-30.8,5.2-46.1,8.5-2.6.7-5.2.1-7.6-1-8-3.9-16.4-5.8-24.7-9.1-12.2-5.8-26.6-5-39.2-1.5-22.8,3.8-45,11.1-65.9,21.1-21,6.6-40,17.4-59.2,28.1-28,13.6-38.2,15.5-50.6,46.1-2.5,6.2-4.3,12.6-6.9,18.8-2.9,11,1.1,15.9-10.6,22.7-6.6,5.3-13.4,10.5-20.6,15.1-9.7,5.6-15.7,15.3-23.8,22.7-16.8,14.4-35.2,27.2-48.8,44.9-10.4,17.4-22.1,35.8-24.2,56.4-1.2,9.4-4.8,18.4-4.2,28,0,12.8,2.8,25.6,5.9,38.1,1.2,7.1,2.1,13.9,5.8,20.3,2.9,6.9,3.1,15.1,8.7,20.6,12.3,12.9,21.6,29.8,39.1,36.3Z" fill="#e6c9fe"/>
          <path d="M-.6,744.6c-24.7-18.2-28.4-52.3-24.4-80.5,3.2-43.6,36.2-67.4,68.8-91.6,96.5-82.8,179.4-125.6,302.4-157.1,29.3-10.2,67.1-17.5,90.5,8.5,13.9,14.6,23.3,41.4,7.7,57.5-21.3,17.3-50,21.5-75.3,30.4-24.8,10-51.3,15.7-75.2,27.4-17.4,9.5-32.6,23.4-47.8,36.1-25.3,21.1-51.5,41.2-75.1,64.2-47.2,32.3-107.6,145.4-171.7,105.1Z" fill="none" stroke="#000" stroke-miterlimit="10" stroke-width="5.7"/>
          <path d="M-4.7,790.9c15.5,6.3,44.9,3.3,60.7-2.2,20.9-10.9,40.6-25.3,56.2-43.1,8.6-7,14.3-16.7,23.1-23.2,6.7-4.9,11.4-11.8,17.7-16.9,12.9-8.3,29.4-3.3,42.9-9.7,11.5-4.5,19-14.3,28.4-21.9,21.5-20.1,42.9-40.4,63.1-61.7,6.8-6.2,13.6-12.6,21.3-17.4,9.3-6.1,19.9-7.2,29.2-13.2,7.9-4.2,11.9-12.1,17.9-18.2,8.7-6.5,12.6-19.5,24.4-21,16.2-5.7,32.8-9,49.1-14.1,14.4-1.9,28.5-5.6,40.2-14.7,11.5-8.4,16-21.7,15.2-35.5.1-12.6-.3-25.8-3.4-38.1-2.7-18.6-12.3-35.1-25.3-48.4-7.7-6.8-16.7-14-27.3-15.3-20.1-1.6-40.3-2.9-60.5-1.1-15.5,1.8-30.8,5.2-46.1,8.5-2.6.7-5.2.1-7.6-1-8-3.9-16.4-5.8-24.7-9.1-12.2-5.8-26.6-5-39.2-1.5-22.8,3.8-45,11.1-65.9,21.1-21,6.6-40,17.4-59.2,28.1-28,13.6-38.2,15.5-50.6,46.1-2.5,6.2-4.3,12.6-6.9,18.8-2.9,11,1.1,15.9-10.6,22.7-6.6,5.3-13.4,10.5-20.6,15.1-9.7,5.6-15.7,15.3-23.8,22.7-16.8,14.4-35.2,27.2-48.8,44.9-10.4,17.4-22.1,35.8-24.2,56.4-1.2,9.4-4.8,18.4-4.2,28,0,12.8,2.8,25.6,5.9,38.1,1.2,7.1,2.1,13.9,5.8,20.3,2.9,6.9,3.1,15.1,8.7,20.6,12.3,12.9,21.6,29.8,39.1,36.3ZM361.7,549.4c-.5,4.5-5.8,7.5-8.8,10.7-3.9,3.2-6.1,8-9.7,11.5-8,8.5-19.8,10.1-29.7,15.3-10.2,4-18.4,11.6-26.4,18.9-20.9,20.7-41.7,41.9-63.7,61.7-18.9,17.4-27.6,28.2-55.3,27.6-4.9.5-3-2.9-.6-5.1,22.4-24.6,48.3-45.7,72.6-68.2,18.2-16.3,37.7-31.1,55.8-47.6,19-12.6,40.5-20.2,62.7-25.2,1-.2,2.8-.5,3.1.4ZM71.5,496.1c-1.4-3.8.9-8.7,2.2-12.4,3.9-11.6,8.7-23,14.2-33.9,9.3-13.8,27.7-17.5,41.4-25.7,9.9-5.5,20-10.8,29.8-16.5,34.5-13.8,68.6-29.8,105.9-34.7,15.1-1.7,28.5,5.9,42.4,10.2,3.8,2.1-1.5,3.6-3.4,4.2-16,5.4-31.2,12.7-47.5,17.3-12.5,4.2-25.7,6.2-37.6,12-33.5,16.5-67.2,32.4-100.1,50.1-14.8,8.8-29,18.7-43.4,28.3-1.1.7-3.1,2.1-3.9,1ZM261.7,595.8c-31.4,25.1-60,53.4-89.6,80.6-13.1,14.1-26.1,28.5-40.5,41.4-4,2.8-7.5,6.3-10.4,10.2-7.4,8.6-16.4,15.9-23.5,24.8-17,13-33.5,29.1-55,33.8-12.8,2.5-26.5,2.2-39.5,1.3-12-3.4-21.8-11.2-29.3-21.1-5.3-6.5-11.2-12.6-16.2-19.4-2.6-9.8-7.8-19.2-9.4-29.2-4.2-20.3-10.3-41.3-3.9-61.8,1.9-14.5,4.9-28.4,12.8-40.8,4.4-7.6,7.7-16.5,13.7-23.2,13.6-16.7,31.7-29.3,47.9-43.4,15.7-19.7,38.6-31.4,57.7-47.7,36.6-26.3,76.4-47.2,117.4-65.8,15.2-7.8,30-16.8,46.8-20.7,25.8-5.4,48.9-18.9,74.4-24.9,25.5-5.1,51.1-11.8,77.4-11,15.2,1.6,31.3-1.3,45.5,5.4,31.3,17.2,42.7,54.8,41.5,88.5,1.8,17.9-5.7,34.2-22.6,41.6-13.1,7.7-29.1,6.5-42.9,12.4-15.5,2.7-30.4,8.6-45.5,12.8-32.7,10.5-68.3,17.8-92.4,44.6" stroke="#000" stroke-miterlimit="10" stroke-width=".6"/>
          <path d="M114.9,621.5c12.3,8.1,24.9-4.9,33.4-13.2,7.4-7.8,16.9-13.1,24.6-20.7,9.2-9,20.4-15.7,30.8-23.2,13-8.9,23.4-20.7,36.3-29.7,12.1-7.1,21.9-17.5,35.1-22.6,14.3-6.9,40.1-12.5,48.8-25.8,5.1-20-15.4-22.7-30.3-20.6-9.6,2.3-18.7,6.4-28,9.8-7.5,2.3-13.4,7.7-20.9,10-3.4,1.3-7,2.2-10.1,4.3-19.8,12.1-38.3,26.1-57.5,38.9-22.4,13.5-45.2,28.1-63.3,47-11.2,14-18.5,35.9,1.1,45.8ZM114.1,618.6c-10.5-6.9-11.8-20.6-4.8-30.8h.1c5.6-14.3,19.1-22,30.5-31.3,12-9.3,24.7-17.9,37.9-25.5,19.3-12.8,37.6-27.1,57.4-39.2,9.8-4.4,19.6-8.6,29.1-13.6,16.4-5.7,35.4-16.6,52.5-7.9,5.6,3.1,7.4,11.8,3.9,16.9-9.7,7.7-21.5,12.8-33.1,17-8.9,3.6-18.4,6.6-26.3,12.1-15.9,12.1-32.9,22.6-47.1,36.8-13.7,12-30.4,20.4-43.4,33.2-8.5,8.1-17.2,12.9-25.3,21.7-8.1,7.9-20.2,19.6-31.4,10.6Z" stroke="#000" stroke-miterlimit="10" stroke-width="3.7"/>
        </g>
        <g>
          <path d="M-5.2,790.4c15.5,6.3,44.9,3.3,60.7-2.2,20.9-10.9,40.6-25.3,56.2-43.1,8.6-7,14.3-16.7,23.1-23.2,6.7-4.9,11.4-11.8,17.7-16.9,12.9-8.3,29.4-3.3,42.9-9.7,11.5-4.5,19-14.3,28.4-21.9,21.5-20.1,42.9-40.4,63.1-61.7,6.8-6.2,13.6-12.6,21.3-17.4,9.3-6.1,19.9-7.2,29.2-13.2,7.9-4.2,11.9-12.1,17.9-18.2,8.7-6.5,12.6-19.5,24.4-21,16.2-5.7,32.8-9,49.1-14.1,14.4-1.9,28.5-5.6,40.2-14.7,11.5-8.4,16-21.7,15.2-35.5.1-12.6-.3-25.8-3.4-38.1-2.7-18.6-12.3-35.1-25.3-48.4-7.7-6.8-16.7-14-27.3-15.3-20.1-1.6-40.3-2.9-60.5-1.1-15.5,1.8-30.8,5.2-46.1,8.5-2.6.7-5.2.1-7.6-1-8-3.9-16.4-5.8-24.7-9.1-12.2-5.8-26.6-5-39.2-1.5-22.8,3.8-45,11.1-65.9,21.1-21,6.6-40,17.4-59.2,28.1-28,13.6-38.2,15.5-50.6,46.1-2.5,6.2-4.3,12.6-6.9,18.8-2.9,11,1.1,15.9-10.6,22.7-6.6,5.3-13.4,10.5-20.6,15.1-9.7,5.6-15.7,15.3-23.8,22.7-16.8,14.4-35.2,27.2-48.8,44.9-10.4,17.4-22.1,35.8-24.2,56.4-1.2,9.4-4.8,18.4-4.2,28,0,12.8,2.8,25.6,5.9,38.1,1.2,7.1,2.1,13.9,5.8,20.3,2.9,6.9,3.1,15.1,8.7,20.6,12.3,12.9,21.6,29.8,39.1,36.3Z" fill="#e6c9fe"/>
          <path d="M-1.1,744.1c-24.7-18.2-28.4-52.3-24.4-80.5,3.2-43.6,36.2-67.4,68.8-91.6,96.5-82.8,179.4-125.6,302.4-157.1,29.3-10.2,67.1-17.5,90.5,8.5,13.9,14.6,23.3,41.4,7.7,57.5-21.3,17.3-50,21.5-75.3,30.4-24.8,10-51.3,15.7-75.2,27.4-17.4,9.5-32.6,23.4-47.8,36.1-25.3,21.1-51.5,41.2-75.1,64.2-47.2,32.3-107.6,145.4-171.7,105.1Z" fill="none" stroke="#000" stroke-miterlimit="10" stroke-width="5.7"/>
          <path d="M-5.2,790.4c15.5,6.3,44.9,3.3,60.7-2.2,20.9-10.9,40.6-25.3,56.2-43.1,8.6-7,14.3-16.7,23.1-23.2,6.7-4.9,11.4-11.8,17.7-16.9,12.9-8.3,29.4-3.3,42.9-9.7,11.5-4.5,19-14.3,28.4-21.9,21.5-20.1,42.9-40.4,63.1-61.7,6.8-6.2,13.6-12.6,21.3-17.4,9.3-6.1,19.9-7.2,29.2-13.2,7.9-4.2,11.9-12.1,17.9-18.2,8.7-6.5,12.6-19.5,24.4-21,16.2-5.7,32.8-9,49.1-14.1,14.4-1.9,28.5-5.6,40.2-14.7,11.5-8.4,16-21.7,15.2-35.5.1-12.6-.3-25.8-3.4-38.1-2.7-18.6-12.3-35.1-25.3-48.4-7.7-6.8-16.7-14-27.3-15.3-20.1-1.6-40.3-2.9-60.5-1.1-15.5,1.8-30.8,5.2-46.1,8.5-2.6.7-5.2.1-7.6-1-8-3.9-16.4-5.8-24.7-9.1-12.2-5.8-26.6-5-39.2-1.5-22.8,3.8-45,11.1-65.9,21.1-21,6.6-40,17.4-59.2,28.1-28,13.6-38.2,15.5-50.6,46.1-2.5,6.2-4.3,12.6-6.9,18.8-2.9,11,1.1,15.9-10.6,22.7-6.6,5.3-13.4,10.5-20.6,15.1-9.7,5.6-15.7,15.3-23.8,22.7-16.8,14.4-35.2,27.2-48.8,44.9-10.4,17.4-22.1,35.8-24.2,56.4-1.2,9.4-4.8,18.4-4.2,28,0,12.8,2.8,25.6,5.9,38.1,1.2,7.1,2.1,13.9,5.8,20.3,2.9,6.9,3.1,15.1,8.7,20.6,12.3,12.9,21.6,29.8,39.1,36.3ZM361.2,548.9c-.5,4.5-5.8,7.5-8.8,10.7-3.9,3.2-6.1,8-9.7,11.5-8,8.5-19.8,10.1-29.7,15.3-10.2,4-18.4,11.6-26.4,18.9-20.9,20.7-41.7,41.9-63.7,61.7-18.9,17.4-27.6,28.2-55.3,27.6-4.9.5-3-2.9-.6-5.1,22.4-24.6,48.3-45.7,72.6-68.2,18.2-16.3,37.7-31.1,55.8-47.6,19-12.6,40.5-20.2,62.7-25.2,1-.2,2.8-.5,3.1.4ZM71,495.6c-1.4-3.8.9-8.7,2.2-12.4,3.9-11.6,8.7-23,14.2-33.9,9.3-13.8,27.7-17.5,41.4-25.7,9.9-5.5,20-10.8,29.8-16.5,34.5-13.8,68.6-29.8,105.9-34.7,15.1-1.7,28.5,5.9,42.4,10.2,3.8,2.1-1.5,3.6-3.4,4.2-16,5.4-31.2,12.7-47.5,17.3-12.5,4.2-25.7,6.2-37.6,12-33.5,16.5-67.2,32.4-100.1,50.1-14.8,8.8-29,18.7-43.4,28.3-1.1.7-3.1,2.1-3.9,1ZM261.2,595.3c-31.4,25.1-60,53.4-89.6,80.6-13.1,14.1-26.1,28.5-40.5,41.4-4,2.8-7.5,6.3-10.4,10.2-7.4,8.6-16.4,15.9-23.5,24.8-17,13-33.5,29.1-55,33.8-12.8,2.5-26.5,2.2-39.5,1.3-12-3.4-21.8-11.2-29.3-21.1-5.3-6.5-11.2-12.6-16.2-19.4-2.6-9.8-7.8-19.2-9.4-29.2-4.2-20.3-10.3-41.3-3.9-61.8,1.9-14.5,4.9-28.4,12.8-40.8,4.4-7.6,7.7-16.5,13.7-23.2,13.6-16.7,31.7-29.3,47.9-43.4,15.7-19.7,38.6-31.4,57.7-47.7,36.6-26.3,76.4-47.2,117.4-65.8,15.2-7.8,30-16.8,46.8-20.7,25.8-5.4,48.9-18.9,74.4-24.9,25.5-5.1,51.1-11.8,77.4-11,15.2,1.6,31.3-1.3,45.5,5.4,31.3,17.2,42.7,54.8,41.5,88.5,1.8,17.9-5.7,34.2-22.6,41.6-13.1,7.7-29.1,6.5-42.9,12.4-15.5,2.7-30.4,8.6-45.5,12.8-32.7,10.5-68.3,17.8-92.4,44.6" stroke="#000" stroke-miterlimit="10" stroke-width=".6"/>
          <path d="M114.4,621c12.3,8.1,24.9-4.9,33.4-13.2,7.4-7.8,16.9-13.1,24.6-20.7,9.2-9,20.4-15.7,30.8-23.2,13-8.9,23.4-20.7,36.3-29.7,12.1-7.1,21.9-17.5,35.1-22.6,14.3-6.9,40.1-12.5,48.8-25.8,5.1-20-15.4-22.7-30.3-20.6-9.6,2.3-18.7,6.4-28,9.8-7.5,2.3-13.4,7.7-20.9,10-3.4,1.3-7,2.2-10.1,4.3-19.8,12.1-38.3,26.1-57.5,38.9-22.4,13.5-45.2,28.1-63.3,47-11.2,14-18.5,35.9,1.1,45.8ZM113.6,618.1c-10.5-6.9-11.8-20.6-4.8-30.8h.1c5.6-14.3,19.1-22,30.5-31.3,12-9.3,24.7-17.9,37.9-25.5,19.3-12.8,37.6-27.1,57.4-39.2,9.8-4.4,19.6-8.6,29.1-13.6,16.4-5.7,35.4-16.6,52.5-7.9,5.6,3.1,7.4,11.8,3.9,16.9-9.7,7.7-21.5,12.8-33.1,17-8.9,3.6-18.4,6.6-26.3,12.1-15.9,12.1-32.9,22.6-47.1,36.8-13.7,12-30.4,20.4-43.4,33.2-8.5,8.1-17.2,12.9-25.3,21.7-8.1,7.9-20.2,19.6-31.4,10.6Z" stroke="#000" stroke-miterlimit="10" stroke-width="3.7"/>
        </g>
        <g>
          <path d="M-5.7,789.9c15.5,6.3,44.9,3.3,60.7-2.2,20.9-10.9,40.6-25.3,56.2-43.1,8.6-7,14.3-16.7,23.1-23.2,6.7-4.9,11.4-11.8,17.7-16.9,12.9-8.3,29.4-3.3,42.9-9.7,11.5-4.5,19-14.3,28.4-21.9,21.5-20.1,42.9-40.4,63.1-61.7,6.8-6.2,13.6-12.6,21.3-17.4,9.3-6.1,19.9-7.2,29.2-13.2,7.9-4.2,11.9-12.1,17.9-18.2,8.7-6.5,12.6-19.5,24.4-21,16.2-5.7,32.8-9,49.1-14.1,14.4-1.9,28.5-5.6,40.2-14.7,11.5-8.4,16-21.7,15.2-35.5.1-12.6-.3-25.8-3.4-38.1-2.7-18.6-12.3-35.1-25.3-48.4-7.7-6.8-16.7-14-27.3-15.3-20.1-1.6-40.3-2.9-60.5-1.1-15.5,1.8-30.8,5.2-46.1,8.5-2.6.7-5.2.1-7.6-1-8-3.9-16.4-5.8-24.7-9.1-12.2-5.8-26.6-5-39.2-1.5-22.8,3.8-45,11.1-65.9,21.1-21,6.6-40,17.4-59.2,28.1-28,13.6-38.2,15.5-50.6,46.1-2.5,6.2-4.3,12.6-6.9,18.8-2.9,11,1.1,15.9-10.6,22.7-6.6,5.3-13.4,10.5-20.6,15.1-9.7,5.6-15.7,15.3-23.8,22.7-16.8,14.4-35.2,27.2-48.8,44.9-10.4,17.4-22.1,35.8-24.2,56.4-1.2,9.4-4.8,18.4-4.2,28,0,12.8,2.8,25.6,5.9,38.1,1.2,7.1,2.1,13.9,5.8,20.3,2.9,6.9,3.1,15.1,8.7,20.6,12.3,12.9,21.6,29.8,39.1,36.3Z" fill="#e6c9fe"/>
          <path d="M-1.6,743.6c-24.7-18.2-28.4-52.3-24.4-80.5,3.2-43.6,36.2-67.4,68.8-91.6,96.5-82.8,179.4-125.6,302.4-157.1,29.3-10.2,67.1-17.5,90.5,8.5,13.9,14.6,23.3,41.4,7.7,57.5-21.3,17.3-50,21.5-75.3,30.4-24.8,10-51.3,15.7-75.2,27.4-17.4,9.5-32.6,23.4-47.8,36.1-25.3,21.1-51.5,41.2-75.1,64.2-47.2,32.3-107.6,145.4-171.7,105.1Z" fill="none" stroke="#000" stroke-miterlimit="10" stroke-width="5.7"/>
          <path d="M-5.7,789.9c15.5,6.3,44.9,3.3,60.7-2.2,20.9-10.9,40.6-25.3,56.2-43.1,8.6-7,14.3-16.7,23.1-23.2,6.7-4.9,11.4-11.8,17.7-16.9,12.9-8.3,29.4-3.3,42.9-9.7,11.5-4.5,19-14.3,28.4-21.9,21.5-20.1,42.9-40.4,63.1-61.7,6.8-6.2,13.6-12.6,21.3-17.4,9.3-6.1,19.9-7.2,29.2-13.2,7.9-4.2,11.9-12.1,17.9-18.2,8.7-6.5,12.6-19.5,24.4-21,16.2-5.7,32.8-9,49.1-14.1,14.4-1.9,28.5-5.6,40.2-14.7,11.5-8.4,16-21.7,15.2-35.5.1-12.6-.3-25.8-3.4-38.1-2.7-18.6-12.3-35.1-25.3-48.4-7.7-6.8-16.7-14-27.3-15.3-20.1-1.6-40.3-2.9-60.5-1.1-15.5,1.8-30.8,5.2-46.1,8.5-2.6.7-5.2.1-7.6-1-8-3.9-16.4-5.8-24.7-9.1-12.2-5.8-26.6-5-39.2-1.5-22.8,3.8-45,11.1-65.9,21.1-21,6.6-40,17.4-59.2,28.1-28,13.6-38.2,15.5-50.6,46.1-2.5,6.2-4.3,12.6-6.9,18.8-2.9,11,1.1,15.9-10.6,22.7-6.6,5.3-13.4,10.5-20.6,15.1-9.7,5.6-15.7,15.3-23.8,22.7-16.8,14.4-35.2,27.2-48.8,44.9-10.4,17.4-22.1,35.8-24.2,56.4-1.2,9.4-4.8,18.4-4.2,28,0,12.8,2.8,25.6,5.9,38.1,1.2,7.1,2.1,13.9,5.8,20.3,2.9,6.9,3.1,15.1,8.7,20.6,12.3,12.9,21.6,29.8,39.1,36.3ZM360.7,548.4c-.5,4.5-5.8,7.5-8.8,10.7-3.9,3.2-6.1,8-9.7,11.5-8,8.5-19.8,10.1-29.7,15.3-10.2,4-18.4,11.6-26.4,18.9-20.9,20.7-41.7,41.9-63.7,61.7-18.9,17.4-27.6,28.2-55.3,27.6-4.9.5-3-2.9-.6-5.1,22.4-24.6,48.3-45.7,72.6-68.2,18.2-16.3,37.7-31.1,55.8-47.6,19-12.6,40.5-20.2,62.7-25.2,1-.2,2.8-.5,3.1.4ZM70.5,495.1c-1.4-3.8.9-8.7,2.2-12.4,3.9-11.6,8.7-23,14.2-33.9,9.3-13.8,27.7-17.5,41.4-25.7,9.9-5.5,20-10.8,29.8-16.5,34.5-13.8,68.6-29.8,105.9-34.7,15.1-1.7,28.5,5.9,42.4,10.2,3.8,2.1-1.5,3.6-3.4,4.2-16,5.4-31.2,12.7-47.5,17.3-12.5,4.2-25.7,6.2-37.6,12-33.5,16.5-67.2,32.4-100.1,50.1-14.8,8.8-29,18.7-43.4,28.3-1.1.7-3.1,2.1-3.9,1ZM260.7,594.8c-31.4,25.1-60,53.4-89.6,80.6-13.1,14.1-26.1,28.5-40.5,41.4-4,2.8-7.5,6.3-10.4,10.2-7.4,8.6-16.4,15.9-23.5,24.8-17,13-33.5,29.1-55,33.8-12.8,2.5-26.5,2.2-39.5,1.3-12-3.4-21.8-11.2-29.3-21.1-5.3-6.5-11.2-12.6-16.2-19.4-2.6-9.8-7.8-19.2-9.4-29.2-4.2-20.3-10.3-41.3-3.9-61.8,1.9-14.5,4.9-28.4,12.8-40.8,4.4-7.6,7.7-16.5,13.7-23.2,13.6-16.7,31.7-29.3,47.9-43.4,15.7-19.7,38.6-31.4,57.7-47.7,36.6-26.3,76.4-47.2,117.4-65.8,15.2-7.8,30-16.8,46.8-20.7,25.8-5.4,48.9-18.9,74.4-24.9,25.5-5.1,51.1-11.8,77.4-11,15.2,1.6,31.3-1.3,45.5,5.4,31.3,17.2,42.7,54.8,41.5,88.5,1.8,17.9-5.7,34.2-22.6,41.6-13.1,7.7-29.1,6.5-42.9,12.4-15.5,2.7-30.4,8.6-45.5,12.8-32.7,10.5-68.3,17.8-92.4,44.6" stroke="#000" stroke-miterlimit="10" stroke-width=".6"/>
          <path d="M113.9,620.5c12.3,8.1,24.9-4.9,33.4-13.2,7.4-7.8,16.9-13.1,24.6-20.7,9.2-9,20.4-15.7,30.8-23.2,13-8.9,23.4-20.7,36.3-29.7,12.1-7.1,21.9-17.5,35.1-22.6,14.3-6.9,40.1-12.5,48.8-25.8,5.1-20-15.4-22.7-30.3-20.6-9.6,2.3-18.7,6.4-28,9.8-7.5,2.3-13.4,7.7-20.9,10-3.4,1.3-7,2.2-10.1,4.3-19.8,12.1-38.3,26.1-57.5,38.9-22.4,13.5-45.2,28.1-63.3,47-11.2,14-18.5,35.9,1.1,45.8ZM113.1,617.6c-10.5-6.9-11.8-20.6-4.8-30.8h.1c5.6-14.3,19.1-22,30.5-31.3,12-9.3,24.7-17.9,37.9-25.5,19.3-12.8,37.6-27.1,57.4-39.2,9.8-4.4,19.6-8.6,29.1-13.6,16.4-5.7,35.4-16.6,52.5-7.9,5.6,3.1,7.4,11.8,3.9,16.9-9.7,7.7-21.5,12.8-33.1,17-8.9,3.6-18.4,6.6-26.3,12.1-15.9,12.1-32.9,22.6-47.1,36.8-13.7,12-30.4,20.4-43.4,33.2-8.5,8.1-17.2,12.9-25.3,21.7-8.1,7.9-20.2,19.6-31.4,10.6Z" stroke="#000" stroke-miterlimit="10" stroke-width="3.7"/>
        </g>
        <g>
          <path d="M-6.2,789.4c15.5,6.3,44.9,3.3,60.7-2.2,20.9-10.9,40.6-25.3,56.2-43.1,8.6-7,14.3-16.7,23.1-23.2,6.7-4.9,11.4-11.8,17.7-16.9,12.9-8.3,29.4-3.3,42.9-9.7,11.5-4.5,19-14.3,28.4-21.9,21.5-20.1,42.9-40.4,63.1-61.7,6.8-6.2,13.6-12.6,21.3-17.4,9.3-6.1,19.9-7.2,29.2-13.2,7.9-4.2,11.9-12.1,17.9-18.2,8.7-6.5,12.6-19.5,24.4-21,16.2-5.7,32.8-9,49.1-14.1,14.4-1.9,28.5-5.6,40.2-14.7,11.5-8.4,16-21.7,15.2-35.5.1-12.6-.3-25.8-3.4-38.1-2.7-18.6-12.3-35.1-25.3-48.4-7.7-6.8-16.7-14-27.3-15.3-20.1-1.6-40.3-2.9-60.5-1.1-15.5,1.8-30.8,5.2-46.1,8.5-2.6.7-5.2.1-7.6-1-8-3.9-16.4-5.8-24.7-9.1-12.2-5.8-26.6-5-39.2-1.5-22.8,3.8-45,11.1-65.9,21.1-21,6.6-40,17.4-59.2,28.1-28,13.6-38.2,15.5-50.6,46.1-2.5,6.2-4.3,12.6-6.9,18.8-2.9,11,1.1,15.9-10.6,22.7-6.6,5.3-13.4,10.5-20.6,15.1-9.7,5.6-15.7,15.3-23.8,22.7-16.8,14.4-35.2,27.2-48.8,44.9-10.4,17.4-22.1,35.8-24.2,56.4-1.2,9.4-4.8,18.4-4.2,28,0,12.8,2.8,25.6,5.9,38.1,1.2,7.1,2.1,13.9,5.8,20.3,2.9,6.9,3.1,15.1,8.7,20.6,12.3,12.9,21.6,29.8,39.1,36.3Z" fill="#e6c9fe"/>
          <path d="M-2.1,743.1c-24.7-18.2-28.4-52.3-24.4-80.5,3.2-43.6,36.2-67.4,68.8-91.6,96.5-82.8,179.4-125.6,302.4-157.1,29.3-10.2,67.1-17.5,90.5,8.5,13.9,14.6,23.3,41.4,7.7,57.5-21.3,17.3-50,21.5-75.3,30.4-24.8,10-51.3,15.7-75.2,27.4-17.4,9.5-32.6,23.4-47.8,36.1-25.3,21.1-51.5,41.2-75.1,64.2-47.2,32.3-107.6,145.4-171.7,105.1Z" fill="none" stroke="#000" stroke-miterlimit="10" stroke-width="5.7"/>
          <path d="M-6.2,789.4c15.5,6.3,44.9,3.3,60.7-2.2,20.9-10.9,40.6-25.3,56.2-43.1,8.6-7,14.3-16.7,23.1-23.2,6.7-4.9,11.4-11.8,17.7-16.9,12.9-8.3,29.4-3.3,42.9-9.7,11.5-4.5,19-14.3,28.4-21.9,21.5-20.1,42.9-40.4,63.1-61.7,6.8-6.2,13.6-12.6,21.3-17.4,9.3-6.1,19.9-7.2,29.2-13.2,7.9-4.2,11.9-12.1,17.9-18.2,8.7-6.5,12.6-19.5,24.4-21,16.2-5.7,32.8-9,49.1-14.1,14.4-1.9,28.5-5.6,40.2-14.7,11.5-8.4,16-21.7,15.2-35.5.1-12.6-.3-25.8-3.4-38.1-2.7-18.6-12.3-35.1-25.3-48.4-7.7-6.8-16.7-14-27.3-15.3-20.1-1.6-40.3-2.9-60.5-1.1-15.5,1.8-30.8,5.2-46.1,8.5-2.6.7-5.2.1-7.6-1-8-3.9-16.4-5.8-24.7-9.1-12.2-5.8-26.6-5-39.2-1.5-22.8,3.8-45,11.1-65.9,21.1-21,6.6-40,17.4-59.2,28.1-28,13.6-38.2,15.5-50.6,46.1-2.5,6.2-4.3,12.6-6.9,18.8-2.9,11,1.1,15.9-10.6,22.7-6.6,5.3-13.4,10.5-20.6,15.1-9.7,5.6-15.7,15.3-23.8,22.7-16.8,14.4-35.2,27.2-48.8,44.9-10.4,17.4-22.1,35.8-24.2,56.4-1.2,9.4-4.8,18.4-4.2,28,0,12.8,2.8,25.6,5.9,38.1,1.2,7.1,2.1,13.9,5.8,20.3,2.9,6.9,3.1,15.1,8.7,20.6,12.3,12.9,21.6,29.8,39.1,36.3ZM360.2,547.9c-.5,4.5-5.8,7.5-8.8,10.7-3.9,3.2-6.1,8-9.7,11.5-8,8.5-19.8,10.1-29.7,15.3-10.2,4-18.4,11.6-26.4,18.9-20.9,20.7-41.7,41.9-63.7,61.7-18.9,17.4-27.6,28.2-55.3,27.6-4.9.5-3-2.9-.6-5.1,22.4-24.6,48.3-45.7,72.6-68.2,18.2-16.3,37.7-31.1,55.8-47.6,19-12.6,40.5-20.2,62.7-25.2,1-.2,2.8-.5,3.1.4ZM70,494.6c-1.4-3.8.9-8.7,2.2-12.4,3.9-11.6,8.7-23,14.2-33.9,9.3-13.8,27.7-17.5,41.4-25.7,9.9-5.5,20-10.8,29.8-16.5,34.5-13.8,68.6-29.8,105.9-34.7,15.1-1.7,28.5,5.9,42.4,10.2,3.8,2.1-1.5,3.6-3.4,4.2-16,5.4-31.2,12.7-47.5,17.3-12.5,4.2-25.7,6.2-37.6,12-33.5,16.5-67.2,32.4-100.1,50.1-14.8,8.8-29,18.7-43.4,28.3-1.1.7-3.1,2.1-3.9,1ZM260.2,594.3c-31.4,25.1-60,53.4-89.6,80.6-13.1,14.1-26.1,28.5-40.5,41.4-4,2.8-7.5,6.3-10.4,10.2-7.4,8.6-16.4,15.9-23.5,24.8-17,13-33.5,29.1-55,33.8-12.8,2.5-26.5,2.2-39.5,1.3-12-3.4-21.8-11.2-29.3-21.1-5.3-6.5-11.2-12.6-16.2-19.4-2.6-9.8-7.8-19.2-9.4-29.2-4.2-20.3-10.3-41.3-3.9-61.8,1.9-14.5,4.9-28.4,12.8-40.8,4.4-7.6,7.7-16.5,13.7-23.2,13.6-16.7,31.7-29.3,47.9-43.4,15.7-19.7,38.6-31.4,57.7-47.7,36.6-26.3,76.4-47.2,117.4-65.8,15.2-7.8,30-16.8,46.8-20.7,25.8-5.4,48.9-18.9,74.4-24.9,25.5-5.1,51.1-11.8,77.4-11,15.2,1.6,31.3-1.3,45.5,5.4,31.3,17.2,42.7,54.8,41.5,88.5,1.8,17.9-5.7,34.2-22.6,41.6-13.1,7.7-29.1,6.5-42.9,12.4-15.5,2.7-30.4,8.6-45.5,12.8-32.7,10.5-68.3,17.8-92.4,44.6" stroke="#000" stroke-miterlimit="10" stroke-width=".6"/>
          <path d="M113.4,620c12.3,8.1,24.9-4.9,33.4-13.2,7.4-7.8,16.9-13.1,24.6-20.7,9.2-9,20.4-15.7,30.8-23.2,13-8.9,23.4-20.7,36.3-29.7,12.1-7.1,21.9-17.5,35.1-22.6,14.3-6.9,40.1-12.5,48.8-25.8,5.1-20-15.4-22.7-30.3-20.6-9.6,2.3-18.7,6.4-28,9.8-7.5,2.3-13.4,7.7-20.9,10-3.4,1.3-7,2.2-10.1,4.3-19.8,12.1-38.3,26.1-57.5,38.9-22.4,13.5-45.2,28.1-63.3,47-11.2,14-18.5,35.9,1.1,45.8ZM112.6,617.1c-10.5-6.9-11.8-20.6-4.8-30.8h.1c5.6-14.3,19.1-22,30.5-31.3,12-9.3,24.7-17.9,37.9-25.5,19.3-12.8,37.6-27.1,57.4-39.2,9.8-4.4,19.6-8.6,29.1-13.6,16.4-5.7,35.4-16.6,52.5-7.9,5.6,3.1,7.4,11.8,3.9,16.9-9.7,7.7-21.5,12.8-33.1,17-8.9,3.6-18.4,6.6-26.3,12.1-15.9,12.1-32.9,22.6-47.1,36.8-13.7,12-30.4,20.4-43.4,33.2-8.5,8.1-17.2,12.9-25.3,21.7-8.1,7.9-20.2,19.6-31.4,10.6Z" stroke="#000" stroke-miterlimit="10" stroke-width="3.7"/>
        </g>
        <g>
          <path d="M-6.7,788.9c15.5,6.3,44.9,3.3,60.7-2.2,20.9-10.9,40.6-25.3,56.2-43.1,8.6-7,14.3-16.7,23.1-23.2,6.7-4.9,11.4-11.8,17.7-16.9,12.9-8.3,29.4-3.3,42.9-9.7,11.5-4.5,19-14.3,28.4-21.9,21.5-20.1,42.9-40.4,63.1-61.7,6.8-6.2,13.6-12.6,21.3-17.4,9.3-6.1,19.9-7.2,29.2-13.2,7.9-4.2,11.9-12.1,17.9-18.2,8.7-6.5,12.6-19.5,24.4-21,16.2-5.7,32.8-9,49.1-14.1,14.4-1.9,28.5-5.6,40.2-14.7,11.5-8.4,16-21.7,15.2-35.5.1-12.6-.3-25.8-3.4-38.1-2.7-18.6-12.3-35.1-25.3-48.4-7.7-6.8-16.7-14-27.3-15.3-20.1-1.6-40.3-2.9-60.5-1.1-15.5,1.8-30.8,5.2-46.1,8.5-2.6.7-5.2.1-7.6-1-8-3.9-16.4-5.8-24.7-9.1-12.2-5.8-26.6-5-39.2-1.5-22.8,3.8-45,11.1-65.9,21.1-21,6.6-40,17.4-59.2,28.1-28,13.6-38.2,15.5-50.6,46.1-2.5,6.2-4.3,12.6-6.9,18.8-2.9,11,1.1,15.9-10.6,22.7-6.6,5.3-13.4,10.5-20.6,15.1-9.7,5.6-15.7,15.3-23.8,22.7-16.8,14.4-35.2,27.2-48.8,44.9-10.4,17.4-22.1,35.8-24.2,56.4-1.2,9.4-4.8,18.4-4.2,28,0,12.8,2.8,25.6,5.9,38.1,1.2,7.1,2.1,13.9,5.8,20.3,2.9,6.9,3.1,15.1,8.7,20.6,12.3,12.9,21.6,29.8,39.1,36.3Z" fill="#e6c9fe"/>
          <path d="M-2.6,742.6c-24.7-18.2-28.4-52.3-24.4-80.5,3.2-43.6,36.2-67.4,68.8-91.6,96.5-82.8,179.4-125.6,302.4-157.1,29.3-10.2,67.1-17.5,90.5,8.5,13.9,14.6,23.3,41.4,7.7,57.5-21.3,17.3-50,21.5-75.3,30.4-24.8,10-51.3,15.7-75.2,27.4-17.4,9.5-32.6,23.4-47.8,36.1-25.3,21.1-51.5,41.2-75.1,64.2-47.2,32.3-107.6,145.4-171.7,105.1Z" fill="none" stroke="#000" stroke-miterlimit="10" stroke-width="5.7"/>
          <path d="M-6.7,788.9c15.5,6.3,44.9,3.3,60.7-2.2,20.9-10.9,40.6-25.3,56.2-43.1,8.6-7,14.3-16.7,23.1-23.2,6.7-4.9,11.4-11.8,17.7-16.9,12.9-8.3,29.4-3.3,42.9-9.7,11.5-4.5,19-14.3,28.4-21.9,21.5-20.1,42.9-40.4,63.1-61.7,6.8-6.2,13.6-12.6,21.3-17.4,9.3-6.1,19.9-7.2,29.2-13.2,7.9-4.2,11.9-12.1,17.9-18.2,8.7-6.5,12.6-19.5,24.4-21,16.2-5.7,32.8-9,49.1-14.1,14.4-1.9,28.5-5.6,40.2-14.7,11.5-8.4,16-21.7,15.2-35.5.1-12.6-.3-25.8-3.4-38.1-2.7-18.6-12.3-35.1-25.3-48.4-7.7-6.8-16.7-14-27.3-15.3-20.1-1.6-40.3-2.9-60.5-1.1-15.5,1.8-30.8,5.2-46.1,8.5-2.6.7-5.2.1-7.6-1-8-3.9-16.4-5.8-24.7-9.1-12.2-5.8-26.6-5-39.2-1.5-22.8,3.8-45,11.1-65.9,21.1-21,6.6-40,17.4-59.2,28.1-28,13.6-38.2,15.5-50.6,46.1-2.5,6.2-4.3,12.6-6.9,18.8-2.9,11,1.1,15.9-10.6,22.7-6.6,5.3-13.4,10.5-20.6,15.1-9.7,5.6-15.7,15.3-23.8,22.7-16.8,14.4-35.2,27.2-48.8,44.9-10.4,17.4-22.1,35.8-24.2,56.4-1.2,9.4-4.8,18.4-4.2,28,0,12.8,2.8,25.6,5.9,38.1,1.2,7.1,2.1,13.9,5.8,20.3,2.9,6.9,3.1,15.1,8.7,20.6,12.3,12.9,21.6,29.8,39.1,36.3ZM359.7,547.4c-.5,4.5-5.8,7.5-8.8,10.7-3.9,3.2-6.1,8-9.7,11.5-8,8.5-19.8,10.1-29.7,15.3-10.2,4-18.4,11.6-26.4,18.9-20.9,20.7-41.7,41.9-63.7,61.7-18.9,17.4-27.6,28.2-55.3,27.6-4.9.5-3-2.9-.6-5.1,22.4-24.6,48.3-45.7,72.6-68.2,18.2-16.3,37.7-31.1,55.8-47.6,19-12.6,40.5-20.2,62.7-25.2,1-.2,2.8-.5,3.1.4ZM69.5,494.1c-1.4-3.8.9-8.7,2.2-12.4,3.9-11.6,8.7-23,14.2-33.9,9.3-13.8,27.7-17.5,41.4-25.7,9.9-5.5,20-10.8,29.8-16.5,34.5-13.8,68.6-29.8,105.9-34.7,15.1-1.7,28.5,5.9,42.4,10.2,3.8,2.1-1.5,3.6-3.4,4.2-16,5.4-31.2,12.7-47.5,17.3-12.5,4.2-25.7,6.2-37.6,12-33.5,16.5-67.2,32.4-100.1,50.1-14.8,8.8-29,18.7-43.4,28.3-1.1.7-3.1,2.1-3.9,1ZM259.7,593.8c-31.4,25.1-60,53.4-89.6,80.6-13.1,14.1-26.1,28.5-40.5,41.4-4,2.8-7.5,6.3-10.4,10.2-7.4,8.6-16.4,15.9-23.5,24.8-17,13-33.5,29.1-55,33.8-12.8,2.5-26.5,2.2-39.5,1.3-12-3.4-21.8-11.2-29.3-21.1-5.3-6.5-11.2-12.6-16.2-19.4-2.6-9.8-7.8-19.2-9.4-29.2-4.2-20.3-10.3-41.3-3.9-61.8,1.9-14.5,4.9-28.4,12.8-40.8,4.4-7.6,7.7-16.5,13.7-23.2,13.6-16.7,31.7-29.3,47.9-43.4,15.7-19.7,38.6-31.4,57.7-47.7,36.6-26.3,76.4-47.2,117.4-65.8,15.2-7.8,30-16.8,46.8-20.7,25.8-5.4,48.9-18.9,74.4-24.9,25.5-5.1,51.1-11.8,77.4-11,15.2,1.6,31.3-1.3,45.5,5.4,31.3,17.2,42.7,54.8,41.5,88.5,1.8,17.9-5.7,34.2-22.6,41.6-13.1,7.7-29.1,6.5-42.9,12.4-15.5,2.7-30.4,8.6-45.5,12.8-32.7,10.5-68.3,17.8-92.4,44.6" stroke="#000" stroke-miterlimit="10" stroke-width=".6"/>
          <path d="M112.9,619.5c12.3,8.1,24.9-4.9,33.4-13.2,7.4-7.8,16.9-13.1,24.6-20.7,9.2-9,20.4-15.7,30.8-23.2,13-8.9,23.4-20.7,36.3-29.7,12.1-7.1,21.9-17.5,35.1-22.6,14.3-6.9,40.1-12.5,48.8-25.8,5.1-20-15.4-22.7-30.3-20.6-9.6,2.3-18.7,6.4-28,9.8-7.5,2.3-13.4,7.7-20.9,10-3.4,1.3-7,2.2-10.1,4.3-19.8,12.1-38.3,26.1-57.5,38.9-22.4,13.5-45.2,28.1-63.3,47-11.2,14-18.5,35.9,1.1,45.8ZM112.1,616.6c-10.5-6.9-11.8-20.6-4.8-30.8h.1c5.6-14.3,19.1-22,30.5-31.3,12-9.3,24.7-17.9,37.9-25.5,19.3-12.8,37.6-27.1,57.4-39.2,9.8-4.4,19.6-8.6,29.1-13.6,16.4-5.7,35.4-16.6,52.5-7.9,5.6,3.1,7.4,11.8,3.9,16.9-9.7,7.7-21.5,12.8-33.1,17-8.9,3.6-18.4,6.6-26.3,12.1-15.9,12.1-32.9,22.6-47.1,36.8-13.7,12-30.4,20.4-43.4,33.2-8.5,8.1-17.2,12.9-25.3,21.7-8.1,7.9-20.2,19.6-31.4,10.6Z" stroke="#000" stroke-miterlimit="10" stroke-width="3.7"/>
        </g>
      </g>
    </g>
  </g>
</svg>