<?xml version="1.0" encoding="UTF-8"?>
<svg xmlns="http://www.w3.org/2000/svg" baseProfile="tiny" version="1.2" viewBox="0 0 1789.5 1022">
  <!-- Generator: Adobe Illustrator 28.6.0, SVG Export Plug-In . SVG Version: 1.2.0 Build 709)  -->
  <g>
    <g id="Ebene_2">
      <g>
        <g>
          <path d="M960.5,690.4c19.2-.4,38.6,10.3,43.3,29.6,12.6,59.9,27.5,117.5,37.4,178.3,3.4,24.2,3.9,49.2-5.8,72-3.4,7.5-11.6,13.7-18.1,14.6-21.1,2.9-39.6-18.5-47.8-36.4-33.7-66.2-38-143-53.1-213.7-2.3-24.5,22.1-43.3,43.9-44.5h.3Z" fill="#e6c9fe"/>
          <path d="M957,707.9,951,719.9,951,719.4c-6.1,2-6.5,8.2-7.5,13.7-1.1,4.6-3.4,9.1.3,11.8.4.2.9.2,1.5.2,9.3-1.4,23.9-5.9,28.4-13,1.5-3.4-3.8-6.4-8.7-9.3-3.9-1.9-10.2-5-13.7-3.5h-.2ZM960.5,690.4c19.2-.4,38.6,10.3,43.3,29.6,12.6,59.9,27.5,117.5,37.4,178.3,3.4,24.2,3.9,49.2-5.8,72-3.4,7.5-11.6,13.7-18.1,14.6-21.1,2.9-39.6-18.5-47.8-36.4-33.7-66.2-38-143-53.1-213.7-2.3-24.5,22.1-43.3,43.9-44.5h.3ZM958.1,700.2,957,707.9c3.4-.1,6.9-1.9,10.1-3.3,3.6-1.7,7.2-3.8,9.9-5.7.2-.2.3-.3.2-.5-5.4-2.7-15.3-4.5-19.1,1.3-1.4,2.4-3.1,5.1-1.4,7.9h.2ZM929.2,712.3c2.1.8,6.5-.1,9.3-.6,4-.8,7.8-2,8.6-3.5,1-2.2,2.1-6.7.6-8.2-4-1.8-17.5,7.3-18.6,12.2h0ZM943.7,850.7c11,38.5,18.9,92.6,50.4,118.5-10.8-26.6-16.3-55.5-25.6-82.6-9.5-28-13.4-57.8-20.2-86.6-2.1-11.2-3-26.4-6.2-36.9-2-5.6-3.6-9.6-8.7-8-4.7,1.7-5.1,7.4-4.3,11.6,4.1,28,7.9,56.1,14.6,83.7v.3ZM992,812.3,1008.2,861.9c5.6,35.8,9.8,71.1,16.5,106.7,33.2-26.9-17.8-192.9-27.4-239.9-.5-2.1-1.8-.5-3.7.4-4.1,2.6-11.2,3.6-10,9.2,2.9,21.9,7.2,44.5,12,66.2l12.6,57.5ZM1002,862.2,990.9,811.8c-4-10.5-8.8-63.4-16.3-68.8-.8-.5-1.3-.5-2.6.2-3.2,1.5-6.8,3.1-10.3,4.6-16.1,7.3-16.6,5.3-12.8,20.2,9.3,51.9,17.7,104.3,37.1,153.9,4.2,12.7,6.2,25.8,11.1,38,4,9,6.7,19.4,18.9,15.5,1-.3,1.5-1,1.6-2.2-.3-36.7-11.1-74.6-15.6-111.1l-11-50.3ZM967.9,867.6,940,718.6c0-.3-.5-.2-1.2-.2-3.7.2-8.4.2-11.8,1.8-7.8,3.8-3.5,21,4.1,24.7,1.3.7,3.4.4,4-1,1.1-2.4,0-5.6.6-8.1.6-6.1,3.3-11.1,4.4-17.1v-.2ZM961.9,712.8c3.1,3.2,9.4,3.1,12.3,6.6,6.6,7.8,9.4,4.6,17-.8,5.4-2-2-11.6-4.5-14-5.4-4.8-16,5.3-24,7.6-.4.1-.7.3-.8.4h0Z"/>
        </g>
        <g>
          <path d="M960,689.9c19.2-.4,38.6,10.3,43.3,29.6,12.6,59.9,27.5,117.5,37.4,178.3,3.4,24.2,3.9,49.2-5.8,72-3.4,7.5-11.6,13.7-18.1,14.6-21.1,2.9-39.6-18.5-47.8-36.4-33.7-66.2-38-143-53.1-213.7-2.3-24.5,22.1-43.3,43.9-44.5h.3Z" fill="#e6c9fe"/>
          <path d="M956.5,707.4,950.5,719.4,950.5,718.9c-6.1,2-6.5,8.2-7.5,13.7-1.1,4.6-3.4,9.1.3,11.8.4.2.9.2,1.5.2,9.3-1.4,23.9-5.9,28.4-13,1.5-3.4-3.8-6.4-8.7-9.3-3.9-1.9-10.2-5-13.7-3.5h-.2ZM960,689.9c19.2-.4,38.6,10.3,43.3,29.6,12.6,59.9,27.5,117.5,37.4,178.3,3.4,24.2,3.9,49.2-5.8,72-3.4,7.5-11.6,13.7-18.1,14.6-21.1,2.9-39.6-18.5-47.8-36.4-33.7-66.2-38-143-53.1-213.7-2.3-24.5,22.1-43.3,43.9-44.5h.3ZM957.6,699.7,956.5,707.4c3.4-.1,6.9-1.9,10.1-3.3,3.6-1.7,7.2-3.8,9.9-5.7.2-.2.3-.3.2-.5-5.4-2.7-15.3-4.5-19.1,1.3-1.4,2.4-3.1,5.1-1.4,7.9h.2ZM928.7,711.8c2.1.8,6.5-.1,9.3-.6,4-.8,7.8-2,8.6-3.5,1-2.2,2.1-6.7.6-8.2-4-1.8-17.5,7.3-18.6,12.2h0ZM943.2,850.2c11,38.5,18.9,92.6,50.4,118.5-10.8-26.6-16.3-55.5-25.6-82.6-9.5-28-13.4-57.8-20.2-86.6-2.1-11.2-3-26.4-6.2-36.9-2-5.6-3.6-9.6-8.7-8-4.7,1.7-5.1,7.4-4.3,11.6,4.1,28,7.9,56.1,14.6,83.7v.3ZM991.5,811.8,1007.7,861.4c5.6,35.8,9.8,71.1,16.5,106.7,33.2-26.9-17.8-192.9-27.4-239.9-.5-2.1-1.8-.5-3.7.4-4.1,2.6-11.2,3.6-10,9.2,2.9,21.9,7.2,44.5,12,66.2l12.6,57.5ZM1001.5,861.7,990.4,811.3c-4-10.5-8.8-63.4-16.3-68.8-.8-.5-1.3-.5-2.6.2-3.2,1.5-6.8,3.1-10.3,4.6-16.1,7.3-16.6,5.3-12.8,20.2,9.3,51.9,17.7,104.3,37.1,153.9,4.2,12.7,6.2,25.8,11.1,38,4,9,6.7,19.4,18.9,15.5,1-.3,1.5-1,1.6-2.2-.3-36.7-11.1-74.6-15.6-111.1l-11-50.3ZM967.4,867.1,939.5,718.1c0-.3-.5-.2-1.2-.2-3.7.2-8.4.2-11.8,1.8-7.8,3.8-3.5,21,4.1,24.7,1.3.7,3.4.4,4-1,1.1-2.4,0-5.6.6-8.1.6-6.1,3.3-11.1,4.4-17.1v-.2ZM961.4,712.3c3.1,3.2,9.4,3.1,12.3,6.6,6.6,7.8,9.4,4.6,17-.8,5.4-2-2-11.6-4.5-14-5.4-4.8-16,5.3-24,7.6-.4.1-.7.3-.8.4h0Z"/>
        </g>
        <g>
          <path d="M959.5,689.4c19.2-.4,38.6,10.3,43.3,29.6,12.6,59.9,27.5,117.5,37.4,178.3,3.4,24.2,3.9,49.2-5.8,72-3.4,7.5-11.6,13.7-18.1,14.6-21.1,2.9-39.6-18.5-47.8-36.4-33.7-66.2-38-143-53.1-213.7-2.3-24.5,22.1-43.3,43.9-44.5h.3Z" fill="#e6c9fe"/>
          <path d="M956,706.9,950,718.9,950,718.4c-6.1,2-6.5,8.2-7.5,13.7-1.1,4.6-3.4,9.1.3,11.8.4.2.9.2,1.5.2,9.3-1.4,23.9-5.9,28.4-13,1.5-3.4-3.8-6.4-8.7-9.3-3.9-1.9-10.2-5-13.7-3.5h-.2ZM959.5,689.4c19.2-.4,38.6,10.3,43.3,29.6,12.6,59.9,27.5,117.5,37.4,178.3,3.4,24.2,3.9,49.2-5.8,72-3.4,7.5-11.6,13.7-18.1,14.6-21.1,2.9-39.6-18.5-47.8-36.4-33.7-66.2-38-143-53.1-213.7-2.3-24.5,22.1-43.3,43.9-44.5h.3ZM957.1,699.2,956,706.9c3.4-.1,6.9-1.9,10.1-3.3,3.6-1.7,7.2-3.8,9.9-5.7.2-.2.3-.3.2-.5-5.4-2.7-15.3-4.5-19.1,1.3-1.4,2.4-3.1,5.1-1.4,7.9h.2ZM928.2,711.3c2.1.8,6.5-.1,9.3-.6,4-.8,7.8-2,8.6-3.5,1-2.2,2.1-6.7.6-8.2-4-1.8-17.5,7.3-18.6,12.2h0ZM942.7,849.7c11,38.5,18.9,92.6,50.4,118.5-10.8-26.6-16.3-55.5-25.6-82.6-9.5-28-13.4-57.8-20.2-86.6-2.1-11.2-3-26.4-6.2-36.9-2-5.6-3.6-9.6-8.7-8-4.7,1.7-5.1,7.4-4.3,11.6,4.1,28,7.9,56.1,14.6,83.7v.3ZM991,811.3,1007.2,860.9c5.6,35.8,9.8,71.1,16.5,106.7,33.2-26.9-17.8-192.9-27.4-239.9-.5-2.1-1.8-.5-3.7.4-4.1,2.6-11.2,3.6-10,9.2,2.9,21.9,7.2,44.5,12,66.2l12.6,57.5ZM1001,861.2,989.9,810.8c-4-10.5-8.8-63.4-16.3-68.8-.8-.5-1.3-.5-2.6.2-3.2,1.5-6.8,3.1-10.3,4.6-16.1,7.3-16.6,5.3-12.8,20.2,9.3,51.9,17.7,104.3,37.1,153.9,4.2,12.7,6.2,25.8,11.1,38,4,9,6.7,19.4,18.9,15.5,1-.3,1.5-1,1.6-2.2-.3-36.7-11.1-74.6-15.6-111.1l-11-50.3ZM966.9,866.6,939,717.6c0-.3-.5-.2-1.2-.2-3.7.2-8.4.2-11.8,1.8-7.8,3.8-3.5,21,4.1,24.7,1.3.7,3.4.4,4-1,1.1-2.4,0-5.6.6-8.1.6-6.1,3.3-11.1,4.4-17.1v-.2ZM960.9,711.8c3.1,3.2,9.4,3.1,12.3,6.6,6.6,7.8,9.4,4.6,17-.8,5.4-2-2-11.6-4.5-14-5.4-4.8-16,5.3-24,7.6-.4.1-.7.3-.8.4h0Z"/>
        </g>
        <g>
          <path d="M959,688.9c19.2-.4,38.6,10.3,43.3,29.6,12.6,59.9,27.5,117.5,37.4,178.3,3.4,24.2,3.9,49.2-5.8,72-3.4,7.5-11.6,13.7-18.1,14.6-21.1,2.9-39.6-18.5-47.8-36.4-33.7-66.2-38-143-53.1-213.7-2.3-24.5,22.1-43.3,43.9-44.5h.3Z" fill="#e6c9fe"/>
          <path d="M955.5,706.4,949.5,718.4,949.5,717.9c-6.1,2-6.5,8.2-7.5,13.7-1.1,4.6-3.4,9.1.3,11.8.4.2.9.2,1.5.2,9.3-1.4,23.9-5.9,28.4-13,1.5-3.4-3.8-6.4-8.7-9.3-3.9-1.9-10.2-5-13.7-3.5h-.2ZM959,688.9c19.2-.4,38.6,10.3,43.3,29.6,12.6,59.9,27.5,117.5,37.4,178.3,3.4,24.2,3.9,49.2-5.8,72-3.4,7.5-11.6,13.7-18.1,14.6-21.1,2.9-39.6-18.5-47.8-36.4-33.7-66.2-38-143-53.1-213.7-2.3-24.5,22.1-43.3,43.9-44.5h.3ZM956.6,698.7,955.5,706.4c3.4-.1,6.9-1.9,10.1-3.3,3.6-1.7,7.2-3.8,9.9-5.7.2-.2.3-.3.2-.5-5.4-2.7-15.3-4.5-19.1,1.3-1.4,2.4-3.1,5.1-1.4,7.9h.2ZM927.7,710.8c2.1.8,6.5-.1,9.3-.6,4-.8,7.8-2,8.6-3.5,1-2.2,2.1-6.7.6-8.2-4-1.8-17.5,7.3-18.6,12.2h0ZM942.2,849.2c11,38.5,18.9,92.6,50.4,118.5-10.8-26.6-16.3-55.5-25.6-82.6-9.5-28-13.4-57.8-20.2-86.6-2.1-11.2-3-26.4-6.2-36.9-2-5.6-3.6-9.6-8.7-8-4.7,1.7-5.1,7.4-4.3,11.6,4.1,28,7.9,56.1,14.6,83.7v.3ZM990.5,810.8,1006.7,860.4c5.6,35.8,9.8,71.1,16.5,106.7,33.2-26.9-17.8-192.9-27.4-239.9-.5-2.1-1.8-.5-3.7.4-4.1,2.6-11.2,3.6-10,9.2,2.9,21.9,7.2,44.5,12,66.2l12.6,57.5ZM1000.5,860.7,989.4,810.3c-4-10.5-8.8-63.4-16.3-68.8-.8-.5-1.3-.5-2.6.2-3.2,1.5-6.8,3.1-10.3,4.6-16.1,7.3-16.6,5.3-12.8,20.2,9.3,51.9,17.7,104.3,37.1,153.9,4.2,12.7,6.2,25.8,11.1,38,4,9,6.7,19.4,18.9,15.5,1-.3,1.5-1,1.6-2.2-.3-36.7-11.1-74.6-15.6-111.1l-11-50.3ZM966.4,866.1,938.5,717.1c0-.3-.5-.2-1.2-.2-3.7.2-8.4.2-11.8,1.8-7.8,3.8-3.5,21,4.1,24.7,1.3.7,3.4.4,4-1,1.1-2.4,0-5.6.6-8.1.6-6.1,3.3-11.1,4.4-17.1v-.2ZM960.4,711.3c3.1,3.2,9.4,3.1,12.3,6.6,6.6,7.8,9.4,4.6,17-.8,5.4-2-2-11.6-4.5-14-5.4-4.8-16,5.3-24,7.6-.4.1-.7.3-.8.4h0Z"/>
        </g>
        <g>
          <path d="M958.5,688.4c19.2-.4,38.6,10.3,43.3,29.6,12.6,59.9,27.5,117.5,37.4,178.3,3.4,24.2,3.9,49.2-5.8,72-3.4,7.5-11.6,13.7-18.1,14.6-21.1,2.9-39.6-18.5-47.8-36.4-33.7-66.2-38-143-53.1-213.7-2.3-24.5,22.1-43.3,43.9-44.5h.3Z" fill="#e6c9fe"/>
          <path d="M955,705.9,949,717.9,949,717.4c-6.1,2-6.5,8.2-7.5,13.7-1.1,4.6-3.4,9.1.3,11.8.4.2.9.2,1.5.2,9.3-1.4,23.9-5.9,28.4-13,1.5-3.4-3.8-6.4-8.7-9.3-3.9-1.9-10.2-5-13.7-3.5h-.2ZM958.5,688.4c19.2-.4,38.6,10.3,43.3,29.6,12.6,59.9,27.5,117.5,37.4,178.3,3.4,24.2,3.9,49.2-5.8,72-3.4,7.5-11.6,13.7-18.1,14.6-21.1,2.9-39.6-18.5-47.8-36.4-33.7-66.2-38-143-53.1-213.7-2.3-24.5,22.1-43.3,43.9-44.5h.3ZM956.1,698.2,955,705.9c3.4-.1,6.9-1.9,10.1-3.3,3.6-1.7,7.2-3.8,9.9-5.7.2-.2.3-.3.2-.5-5.4-2.7-15.3-4.5-19.1,1.3-1.4,2.4-3.1,5.1-1.4,7.9h.2ZM927.2,710.3c2.1.8,6.5-.1,9.3-.6,4-.8,7.8-2,8.6-3.5,1-2.2,2.1-6.7.6-8.2-4-1.8-17.5,7.3-18.6,12.2h0ZM941.7,848.7c11,38.5,18.9,92.6,50.4,118.5-10.8-26.6-16.3-55.5-25.6-82.6-9.5-28-13.4-57.8-20.2-86.6-2.1-11.2-3-26.4-6.2-36.9-2-5.6-3.6-9.6-8.7-8-4.7,1.7-5.1,7.4-4.3,11.6,4.1,28,7.9,56.1,14.6,83.7v.3ZM990,810.3,1006.2,859.9c5.6,35.8,9.8,71.1,16.5,106.7,33.2-26.9-17.8-192.9-27.4-239.9-.5-2.1-1.8-.5-3.7.4-4.1,2.6-11.2,3.6-10,9.2,2.9,21.9,7.2,44.5,12,66.2l12.6,57.5ZM1000,860.2,988.9,809.8c-4-10.5-8.8-63.4-16.3-68.8-.8-.5-1.3-.5-2.6.2-3.2,1.5-6.8,3.1-10.3,4.6-16.1,7.3-16.6,5.3-12.8,20.2,9.3,51.9,17.7,104.3,37.1,153.9,4.2,12.7,6.2,25.8,11.1,38,4,9,6.7,19.4,18.9,15.5,1-.3,1.5-1,1.6-2.2-.3-36.7-11.1-74.6-15.6-111.1l-11-50.3ZM965.9,865.6,938,716.6c0-.3-.5-.2-1.2-.2-3.7.2-8.4.2-11.8,1.8-7.8,3.8-3.5,21,4.1,24.7,1.3.7,3.4.4,4-1,1.1-2.4,0-5.6.6-8.1.6-6.1,3.3-11.1,4.4-17.1v-.2ZM959.9,710.8c3.1,3.2,9.4,3.1,12.3,6.6,6.6,7.8,9.4,4.6,17-.8,5.4-2-2-11.6-4.5-14-5.4-4.8-16,5.3-24,7.6-.4.1-.7.3-.8.4h0Z"/>
        </g>
        <g>
          <path d="M958,687.9c19.2-.4,38.6,10.3,43.3,29.6,12.6,59.9,27.5,117.5,37.4,178.3,3.4,24.2,3.9,49.2-5.8,72-3.4,7.5-11.6,13.7-18.1,14.6-21.1,2.9-39.6-18.5-47.8-36.4-33.7-66.2-38-143-53.1-213.7-2.3-24.5,22.1-43.3,43.9-44.5h.3Z" fill="#e6c9fe"/>
          <path d="M954.5,705.4,948.5,717.4,948.5,716.9c-6.1,2-6.5,8.2-7.5,13.7-1.1,4.6-3.4,9.1.3,11.8.4.2.9.2,1.5.2,9.3-1.4,23.9-5.9,28.4-13,1.5-3.4-3.8-6.4-8.7-9.3-3.9-1.9-10.2-5-13.7-3.5h-.2ZM958,687.9c19.2-.4,38.6,10.3,43.3,29.6,12.6,59.9,27.5,117.5,37.4,178.3,3.4,24.2,3.9,49.2-5.8,72-3.4,7.5-11.6,13.7-18.1,14.6-21.1,2.9-39.6-18.5-47.8-36.4-33.7-66.2-38-143-53.1-213.7-2.3-24.5,22.1-43.3,43.9-44.5h.3ZM955.6,697.7,954.5,705.4c3.4-.1,6.9-1.9,10.1-3.3,3.6-1.7,7.2-3.8,9.9-5.7.2-.2.3-.3.2-.5-5.4-2.7-15.3-4.5-19.1,1.3-1.4,2.4-3.1,5.1-1.4,7.9h.2ZM926.7,709.8c2.1.8,6.5-.1,9.3-.6,4-.8,7.8-2,8.6-3.5,1-2.2,2.1-6.7.6-8.2-4-1.8-17.5,7.3-18.6,12.2h0ZM941.2,848.2c11,38.5,18.9,92.6,50.4,118.5-10.8-26.6-16.3-55.5-25.6-82.6-9.5-28-13.4-57.8-20.2-86.6-2.1-11.2-3-26.4-6.2-36.9-2-5.6-3.6-9.6-8.7-8-4.7,1.7-5.1,7.4-4.3,11.6,4.1,28,7.9,56.1,14.6,83.7v.3ZM989.5,809.8,1005.7,859.4c5.6,35.8,9.8,71.1,16.5,106.7,33.2-26.9-17.8-192.9-27.4-239.9-.5-2.1-1.8-.5-3.7.4-4.1,2.6-11.2,3.6-10,9.2,2.9,21.9,7.2,44.5,12,66.2l12.6,57.5ZM999.5,859.7,988.4,809.3c-4-10.5-8.8-63.4-16.3-68.8-.8-.5-1.3-.5-2.6.2-3.2,1.5-6.8,3.1-10.3,4.6-16.1,7.3-16.6,5.3-12.8,20.2,9.3,51.9,17.7,104.3,37.1,153.9,4.2,12.7,6.2,25.8,11.1,38,4,9,6.7,19.4,18.9,15.5,1-.3,1.5-1,1.6-2.2-.3-36.7-11.1-74.6-15.6-111.1l-11-50.3ZM965.4,865.1,937.5,716.1c0-.3-.5-.2-1.2-.2-3.7.2-8.4.2-11.8,1.8-7.8,3.8-3.5,21,4.1,24.7,1.3.7,3.4.4,4-1,1.1-2.4,0-5.6.6-8.1.6-6.1,3.3-11.1,4.4-17.1v-.2ZM959.4,710.3c3.1,3.2,9.4,3.1,12.3,6.6,6.6,7.8,9.4,4.6,17-.8,5.4-2-2-11.6-4.5-14-5.4-4.8-16,5.3-24,7.6-.4.1-.7.3-.8.4h0Z"/>
        </g>
        <g>
          <path d="M957.5,687.4c19.2-.4,38.6,10.3,43.3,29.6,12.6,59.9,27.5,117.5,37.4,178.3,3.4,24.2,3.9,49.2-5.8,72-3.4,7.5-11.6,13.7-18.1,14.6-21.1,2.9-39.6-18.5-47.8-36.4-33.7-66.2-38-143-53.1-213.7-2.3-24.5,22.1-43.3,43.9-44.5h.3Z" fill="#e6c9fe"/>
          <path d="M954,704.9,948,716.9,948,716.4c-6.1,2-6.5,8.2-7.5,13.7-1.1,4.6-3.4,9.1.3,11.8.4.2.9.2,1.5.2,9.3-1.4,23.9-5.9,28.4-13,1.5-3.4-3.8-6.4-8.7-9.3-3.9-1.9-10.2-5-13.7-3.5h-.2ZM957.5,687.4c19.2-.4,38.6,10.3,43.3,29.6,12.6,59.9,27.5,117.5,37.4,178.3,3.4,24.2,3.9,49.2-5.8,72-3.4,7.5-11.6,13.7-18.1,14.6-21.1,2.9-39.6-18.5-47.8-36.4-33.7-66.2-38-143-53.1-213.7-2.3-24.5,22.1-43.3,43.9-44.5h.3ZM955.1,697.2,954,704.9c3.4-.1,6.9-1.9,10.1-3.3,3.6-1.7,7.2-3.8,9.9-5.7.2-.2.3-.3.2-.5-5.4-2.7-15.3-4.5-19.1,1.3-1.4,2.4-3.1,5.1-1.4,7.9h.2ZM926.2,709.3c2.1.8,6.5-.1,9.3-.6,4-.8,7.8-2,8.6-3.5,1-2.2,2.1-6.7.6-8.2-4-1.8-17.5,7.3-18.6,12.2h0ZM940.7,847.7c11,38.5,18.9,92.6,50.4,118.5-10.8-26.6-16.3-55.5-25.6-82.6-9.5-28-13.4-57.8-20.2-86.6-2.1-11.2-3-26.4-6.2-36.9-2-5.6-3.6-9.6-8.7-8-4.7,1.7-5.1,7.4-4.3,11.6,4.1,28,7.9,56.1,14.6,83.7v.3ZM989,809.3,1005.2,858.9c5.6,35.8,9.8,71.1,16.5,106.7,33.2-26.9-17.8-192.9-27.4-239.9-.5-2.1-1.8-.5-3.7.4-4.1,2.6-11.2,3.6-10,9.2,2.9,21.9,7.2,44.5,12,66.2l12.6,57.5ZM999,859.2,987.9,808.8c-4-10.5-8.8-63.4-16.3-68.8-.8-.5-1.3-.5-2.6.2-3.2,1.5-6.8,3.1-10.3,4.6-16.1,7.3-16.6,5.3-12.8,20.2,9.3,51.9,17.7,104.3,37.1,153.9,4.2,12.7,6.2,25.8,11.1,38,4,9,6.7,19.4,18.9,15.5,1-.3,1.5-1,1.6-2.2-.3-36.7-11.1-74.6-15.6-111.1l-11-50.3ZM964.9,864.6,937,715.6c0-.3-.5-.2-1.2-.2-3.7.2-8.4.2-11.8,1.8-7.8,3.8-3.5,21,4.1,24.7,1.3.7,3.4.4,4-1,1.1-2.4,0-5.6.6-8.1.6-6.1,3.3-11.1,4.4-17.1v-.2ZM958.9,709.8c3.1,3.2,9.4,3.1,12.3,6.6,6.6,7.8,9.4,4.6,17-.8,5.4-2-2-11.6-4.5-14-5.4-4.8-16,5.3-24,7.6-.4.1-.7.3-.8.4h0Z"/>
        </g>
        <g>
          <path d="M957,686.9c19.2-.4,38.6,10.3,43.3,29.6,12.6,59.9,27.5,117.5,37.4,178.3,3.4,24.2,3.9,49.2-5.8,72-3.4,7.5-11.6,13.7-18.1,14.6-21.1,2.9-39.6-18.5-47.8-36.4-33.7-66.2-38-143-53.1-213.7-2.3-24.5,22.1-43.3,43.9-44.5h.3Z" fill="#e6c9fe"/>
          <path d="M953.5,704.4,947.5,716.4,947.5,715.9c-6.1,2-6.5,8.2-7.5,13.7-1.1,4.6-3.4,9.1.3,11.8.4.2.9.2,1.5.2,9.3-1.4,23.9-5.9,28.4-13,1.5-3.4-3.8-6.4-8.7-9.3-3.9-1.9-10.2-5-13.7-3.5h-.2ZM957,686.9c19.2-.4,38.6,10.3,43.3,29.6,12.6,59.9,27.5,117.5,37.4,178.3,3.4,24.2,3.9,49.2-5.8,72-3.4,7.5-11.6,13.7-18.1,14.6-21.1,2.9-39.6-18.5-47.8-36.4-33.7-66.2-38-143-53.1-213.7-2.3-24.5,22.1-43.3,43.9-44.5h.3ZM954.6,696.7,953.5,704.4c3.4-.1,6.9-1.9,10.1-3.3,3.6-1.7,7.2-3.8,9.9-5.7.2-.2.3-.3.2-.5-5.4-2.7-15.3-4.5-19.1,1.3-1.4,2.4-3.1,5.1-1.4,7.9h.2ZM925.7,708.8c2.1.8,6.5-.1,9.3-.6,4-.8,7.8-2,8.6-3.5,1-2.2,2.1-6.7.6-8.2-4-1.8-17.5,7.3-18.6,12.2h0ZM940.2,847.2c11,38.5,18.9,92.6,50.4,118.5-10.8-26.6-16.3-55.5-25.6-82.6-9.5-28-13.4-57.8-20.2-86.6-2.1-11.2-3-26.4-6.2-36.9-2-5.6-3.6-9.6-8.7-8-4.7,1.7-5.1,7.4-4.3,11.6,4.1,28,7.9,56.1,14.6,83.7v.3ZM988.5,808.8,1004.7,858.4c5.6,35.8,9.8,71.1,16.5,106.7,33.2-26.9-17.8-192.9-27.4-239.9-.5-2.1-1.8-.5-3.7.4-4.1,2.6-11.2,3.6-10,9.2,2.9,21.9,7.2,44.5,12,66.2l12.6,57.5ZM998.5,858.7,987.4,808.3c-4-10.5-8.8-63.4-16.3-68.8-.8-.5-1.3-.5-2.6.2-3.2,1.5-6.8,3.1-10.3,4.6-16.1,7.3-16.6,5.3-12.8,20.2,9.3,51.9,17.7,104.3,37.1,153.9,4.2,12.7,6.2,25.8,11.1,38,4,9,6.7,19.4,18.9,15.5,1-.3,1.5-1,1.6-2.2-.3-36.7-11.1-74.6-15.6-111.1l-11-50.3ZM964.4,864.1,936.5,715.1c0-.3-.5-.2-1.2-.2-3.7.2-8.4.2-11.8,1.8-7.8,3.8-3.5,21,4.1,24.7,1.3.7,3.4.4,4-1,1.1-2.4,0-5.6.6-8.1.6-6.1,3.3-11.1,4.4-17.1v-.2ZM958.4,709.3c3.1,3.2,9.4,3.1,12.3,6.6,6.6,7.8,9.4,4.6,17-.8,5.4-2-2-11.6-4.5-14-5.4-4.8-16,5.3-24,7.6-.4.1-.7.3-.8.4h0Z"/>
        </g>
        <g>
          <path d="M956.5,686.4c19.2-.4,38.6,10.3,43.3,29.6,12.6,59.9,27.5,117.5,37.4,178.3,3.4,24.2,3.9,49.2-5.8,72-3.4,7.5-11.6,13.7-18.1,14.6-21.1,2.9-39.6-18.5-47.8-36.4-33.7-66.2-38-143-53.1-213.7-2.3-24.5,22.1-43.3,43.9-44.5h.3Z" fill="#e6c9fe"/>
          <path d="M953,703.9,947,715.9,947,715.4c-6.1,2-6.5,8.2-7.5,13.7-1.1,4.6-3.4,9.1.3,11.8.4.2.9.2,1.5.2,9.3-1.4,23.9-5.9,28.4-13,1.5-3.4-3.8-6.4-8.7-9.3-3.9-1.9-10.2-5-13.7-3.5h-.2ZM956.5,686.4c19.2-.4,38.6,10.3,43.3,29.6,12.6,59.9,27.5,117.5,37.4,178.3,3.4,24.2,3.9,49.2-5.8,72-3.4,7.5-11.6,13.7-18.1,14.6-21.1,2.9-39.6-18.5-47.8-36.4-33.7-66.2-38-143-53.1-213.7-2.3-24.5,22.1-43.3,43.9-44.5h.3ZM954.1,696.2,953,703.9c3.4-.1,6.9-1.9,10.1-3.3,3.6-1.7,7.2-3.8,9.9-5.7.2-.2.3-.3.2-.5-5.4-2.7-15.3-4.5-19.1,1.3-1.4,2.4-3.1,5.1-1.4,7.9h.2ZM925.2,708.3c2.1.8,6.5-.1,9.3-.6,4-.8,7.8-2,8.6-3.5,1-2.2,2.1-6.7.6-8.2-4-1.8-17.5,7.3-18.6,12.2h0ZM939.7,846.7c11,38.5,18.9,92.6,50.4,118.5-10.8-26.6-16.3-55.5-25.6-82.6-9.5-28-13.4-57.8-20.2-86.6-2.1-11.2-3-26.4-6.2-36.9-2-5.6-3.6-9.6-8.7-8-4.7,1.7-5.1,7.4-4.3,11.6,4.1,28,7.9,56.1,14.6,83.7v.3ZM988,808.3,1004.2,857.9c5.6,35.8,9.8,71.1,16.5,106.7,33.2-26.9-17.8-192.9-27.4-239.9-.5-2.1-1.8-.5-3.7.4-4.1,2.6-11.2,3.6-10,9.2,2.9,21.9,7.2,44.5,12,66.2l12.6,57.5ZM998,858.2,986.9,807.8c-4-10.5-8.8-63.4-16.3-68.8-.8-.5-1.3-.5-2.6.2-3.2,1.5-6.8,3.1-10.3,4.6-16.1,7.3-16.6,5.3-12.8,20.2,9.3,51.9,17.7,104.3,37.1,153.9,4.2,12.7,6.2,25.8,11.1,38,4,9,6.7,19.4,18.9,15.5,1-.3,1.5-1,1.6-2.2-.3-36.7-11.1-74.6-15.6-111.1l-11-50.3ZM963.9,863.6,936,714.6c0-.3-.5-.2-1.2-.2-3.7.2-8.4.2-11.8,1.8-7.8,3.8-3.5,21,4.1,24.7,1.3.7,3.4.4,4-1,1.1-2.4,0-5.6.6-8.1.6-6.1,3.3-11.1,4.4-17.1v-.2ZM957.9,708.8c3.1,3.2,9.4,3.1,12.3,6.6,6.6,7.8,9.4,4.6,17-.8,5.4-2-2-11.6-4.5-14-5.4-4.8-16,5.3-24,7.6-.4.1-.7.3-.8.4h0Z"/>
        </g>
        <g>
          <path d="M956,685.9c19.2-.4,38.6,10.3,43.3,29.6,12.6,59.9,27.5,117.5,37.4,178.3,3.4,24.2,3.9,49.2-5.8,72-3.4,7.5-11.6,13.7-18.1,14.6-21.1,2.9-39.6-18.5-47.8-36.4-33.7-66.2-38-143-53.1-213.7-2.3-24.5,22.1-43.3,43.9-44.5h.3Z" fill="#e6c9fe"/>
          <path d="M952.5,703.4,946.5,715.4,946.5,714.9c-6.1,2-6.5,8.2-7.5,13.7-1.1,4.6-3.4,9.1.3,11.8.4.2.9.2,1.5.2,9.3-1.4,23.9-5.9,28.4-13,1.5-3.4-3.8-6.4-8.7-9.3-3.9-1.9-10.2-5-13.7-3.5h-.2ZM956,685.9c19.2-.4,38.6,10.3,43.3,29.6,12.6,59.9,27.5,117.5,37.4,178.3,3.4,24.2,3.9,49.2-5.8,72-3.4,7.5-11.6,13.7-18.1,14.6-21.1,2.9-39.6-18.5-47.8-36.4-33.7-66.2-38-143-53.1-213.7-2.3-24.5,22.1-43.3,43.9-44.5h.3ZM953.6,695.7,952.5,703.4c3.4-.1,6.9-1.9,10.1-3.3,3.6-1.7,7.2-3.8,9.9-5.7.2-.2.3-.3.2-.5-5.4-2.7-15.3-4.5-19.1,1.3-1.4,2.4-3.1,5.1-1.4,7.9h.2ZM924.7,707.8c2.1.8,6.5-.1,9.3-.6,4-.8,7.8-2,8.6-3.5,1-2.2,2.1-6.7.6-8.2-4-1.8-17.5,7.3-18.6,12.2h0ZM939.2,846.2c11,38.5,18.9,92.6,50.4,118.5-10.8-26.6-16.3-55.5-25.6-82.6-9.5-28-13.4-57.8-20.2-86.6-2.1-11.2-3-26.4-6.2-36.9-2-5.6-3.6-9.6-8.7-8-4.7,1.7-5.1,7.4-4.3,11.6,4.1,28,7.9,56.1,14.6,83.7v.3ZM987.5,807.8,1003.7,857.4c5.6,35.8,9.8,71.1,16.5,106.7,33.2-26.9-17.8-192.9-27.4-239.9-.5-2.1-1.8-.5-3.7.4-4.1,2.6-11.2,3.6-10,9.2,2.9,21.9,7.2,44.5,12,66.2l12.6,57.5ZM997.5,857.7,986.4,807.3c-4-10.5-8.8-63.4-16.3-68.8-.8-.5-1.3-.5-2.6.2-3.2,1.5-6.8,3.1-10.3,4.6-16.1,7.3-16.6,5.3-12.8,20.2,9.3,51.9,17.7,104.3,37.1,153.9,4.2,12.7,6.2,25.8,11.1,38,4,9,6.7,19.4,18.9,15.5,1-.3,1.5-1,1.6-2.2-.3-36.7-11.1-74.6-15.6-111.1l-11-50.3ZM963.4,863.1,935.5,714.1c0-.3-.5-.2-1.2-.2-3.7.2-8.4.2-11.8,1.8-7.8,3.8-3.5,21,4.1,24.7,1.3.7,3.4.4,4-1,1.1-2.4,0-5.6.6-8.1.6-6.1,3.3-11.1,4.4-17.1v-.2ZM957.4,708.3c3.1,3.2,9.4,3.1,12.3,6.6,6.6,7.8,9.4,4.6,17-.8,5.4-2-2-11.6-4.5-14-5.4-4.8-16,5.3-24,7.6-.4.1-.7.3-.8.4h0Z"/>
        </g>
        <g>
          <path d="M955.5,685.4c19.2-.4,38.6,10.3,43.3,29.6,12.6,59.9,27.5,117.5,37.4,178.3,3.4,24.2,3.9,49.2-5.8,72-3.4,7.5-11.6,13.7-18.1,14.6-21.1,2.9-39.6-18.5-47.8-36.4-33.7-66.2-38-143-53.1-213.7-2.3-24.5,22.1-43.3,43.9-44.5h.3Z" fill="#e6c9fe"/>
          <path d="M952,702.9,946,714.9,946,714.4c-6.1,2-6.5,8.2-7.5,13.7-1.1,4.6-3.4,9.1.3,11.8.4.2.9.2,1.5.2,9.3-1.4,23.9-5.9,28.4-13,1.5-3.4-3.8-6.4-8.7-9.3-3.9-1.9-10.2-5-13.7-3.5h-.2ZM955.5,685.4c19.2-.4,38.6,10.3,43.3,29.6,12.6,59.9,27.5,117.5,37.4,178.3,3.4,24.2,3.9,49.2-5.8,72-3.4,7.5-11.6,13.7-18.1,14.6-21.1,2.9-39.6-18.5-47.8-36.4-33.7-66.2-38-143-53.1-213.7-2.3-24.5,22.1-43.3,43.9-44.5h.3ZM953.1,695.2,952,702.9c3.4-.1,6.9-1.9,10.1-3.3,3.6-1.7,7.2-3.8,9.9-5.7.2-.2.3-.3.2-.5-5.4-2.7-15.3-4.5-19.1,1.3-1.4,2.4-3.1,5.1-1.4,7.9h.2ZM924.2,707.3c2.1.8,6.5-.1,9.3-.6,4-.8,7.8-2,8.6-3.5,1-2.2,2.1-6.7.6-8.2-4-1.8-17.5,7.3-18.6,12.2h0ZM938.7,845.7c11,38.5,18.9,92.6,50.4,118.5-10.8-26.6-16.3-55.5-25.6-82.6-9.5-28-13.4-57.8-20.2-86.6-2.1-11.2-3-26.4-6.2-36.9-2-5.6-3.6-9.6-8.7-8-4.7,1.7-5.1,7.4-4.3,11.6,4.1,28,7.9,56.1,14.6,83.7v.3ZM987,807.3,1003.2,856.9c5.6,35.8,9.8,71.1,16.5,106.7,33.2-26.9-17.8-192.9-27.4-239.9-.5-2.1-1.8-.5-3.7.4-4.1,2.6-11.2,3.6-10,9.2,2.9,21.9,7.2,44.5,12,66.2l12.6,57.5ZM997,857.2,985.9,806.8c-4-10.5-8.8-63.4-16.3-68.8-.8-.5-1.3-.5-2.6.2-3.2,1.5-6.8,3.1-10.3,4.6-16.1,7.3-16.6,5.3-12.8,20.2,9.3,51.9,17.7,104.3,37.1,153.9,4.2,12.7,6.2,25.8,11.1,38,4,9,6.7,19.4,18.9,15.5,1-.3,1.5-1,1.6-2.2-.3-36.7-11.1-74.6-15.6-111.1l-11-50.3ZM962.9,862.6,935,713.6c0-.3-.5-.2-1.2-.2-3.7.2-8.4.2-11.8,1.8-7.8,3.8-3.5,21,4.1,24.7,1.3.7,3.4.4,4-1,1.1-2.4,0-5.6.6-8.1.6-6.1,3.3-11.1,4.4-17.1v-.2ZM956.9,707.8c3.1,3.2,9.4,3.1,12.3,6.6,6.6,7.8,9.4,4.6,17-.8,5.4-2-2-11.6-4.5-14-5.4-4.8-16,5.3-24,7.6-.4.1-.7.3-.8.4h0Z"/>
        </g>
        <g>
          <path d="M955,684.9c19.2-.4,38.6,10.3,43.3,29.6,12.6,59.9,27.5,117.5,37.4,178.3,3.4,24.2,3.9,49.2-5.8,72-3.4,7.5-11.6,13.7-18.1,14.6-21.1,2.9-39.6-18.5-47.8-36.4-33.7-66.2-38-143-53.1-213.7-2.3-24.5,22.1-43.3,43.9-44.5h.3Z" fill="#e6c9fe"/>
          <path d="M951.5,702.4,945.5,714.4,945.5,713.9c-6.1,2-6.5,8.2-7.5,13.7-1.1,4.6-3.4,9.1.3,11.8.4.2.9.2,1.5.2,9.3-1.4,23.9-5.9,28.4-13,1.5-3.4-3.8-6.4-8.7-9.3-3.9-1.9-10.2-5-13.7-3.5h-.2ZM955,684.9c19.2-.4,38.6,10.3,43.3,29.6,12.6,59.9,27.5,117.5,37.4,178.3,3.4,24.2,3.9,49.2-5.8,72-3.4,7.5-11.6,13.7-18.1,14.6-21.1,2.9-39.6-18.5-47.8-36.4-33.7-66.2-38-143-53.1-213.7-2.3-24.5,22.1-43.3,43.9-44.5h.3ZM952.6,694.7,951.5,702.4c3.4-.1,6.9-1.9,10.1-3.3,3.6-1.7,7.2-3.8,9.9-5.7.2-.2.3-.3.2-.5-5.4-2.7-15.3-4.5-19.1,1.3-1.4,2.4-3.1,5.1-1.4,7.9h.2ZM923.7,706.8c2.1.8,6.5-.1,9.3-.6,4-.8,7.8-2,8.6-3.5,1-2.2,2.1-6.7.6-8.2-4-1.8-17.5,7.3-18.6,12.2h0ZM938.2,845.2c11,38.5,18.9,92.6,50.4,118.5-10.8-26.6-16.3-55.5-25.6-82.6-9.5-28-13.4-57.8-20.2-86.6-2.1-11.2-3-26.4-6.2-36.9-2-5.6-3.6-9.6-8.7-8-4.7,1.7-5.1,7.4-4.3,11.6,4.1,28,7.9,56.1,14.6,83.7v.3ZM986.5,806.8,1002.7,856.4c5.6,35.8,9.8,71.1,16.5,106.7,33.2-26.9-17.8-192.9-27.4-239.9-.5-2.1-1.8-.5-3.7.4-4.1,2.6-11.2,3.6-10,9.2,2.9,21.9,7.2,44.5,12,66.2l12.6,57.5ZM996.5,856.7,985.4,806.3c-4-10.5-8.8-63.4-16.3-68.8-.8-.5-1.3-.5-2.6.2-3.2,1.5-6.8,3.1-10.3,4.6-16.1,7.3-16.6,5.3-12.8,20.2,9.3,51.9,17.7,104.3,37.1,153.9,4.2,12.7,6.2,25.8,11.1,38,4,9,6.7,19.4,18.9,15.5,1-.3,1.5-1,1.6-2.2-.3-36.7-11.1-74.6-15.6-111.1l-11-50.3ZM962.4,862.1,934.5,713.1c0-.3-.5-.2-1.2-.2-3.7.2-8.4.2-11.8,1.8-7.8,3.8-3.5,21,4.1,24.7,1.3.7,3.4.4,4-1,1.1-2.4,0-5.6.6-8.1.6-6.1,3.3-11.1,4.4-17.1v-.2ZM956.4,707.3c3.1,3.2,9.4,3.1,12.3,6.6,6.6,7.8,9.4,4.6,17-.8,5.4-2-2-11.6-4.5-14-5.4-4.8-16,5.3-24,7.6-.4.1-.7.3-.8.4h0Z"/>
        </g>
        <g>
          <path d="M954.5,684.4c19.2-.4,38.6,10.3,43.3,29.6,12.6,59.9,27.5,117.5,37.4,178.3,3.4,24.2,3.9,49.2-5.8,72-3.4,7.5-11.6,13.7-18.1,14.6-21.1,2.9-39.6-18.5-47.8-36.4-33.7-66.2-38-143-53.1-213.7-2.3-24.5,22.1-43.3,43.9-44.5h.3Z" fill="#e6c9fe"/>
          <path d="M951,701.9,945,713.9,945,713.4c-6.1,2-6.5,8.2-7.5,13.7-1.1,4.6-3.4,9.1.3,11.8.4.2.9.2,1.5.2,9.3-1.4,23.9-5.9,28.4-13,1.5-3.4-3.8-6.4-8.7-9.3-3.9-1.9-10.2-5-13.7-3.5h-.2ZM954.5,684.4c19.2-.4,38.6,10.3,43.3,29.6,12.6,59.9,27.5,117.5,37.4,178.3,3.4,24.2,3.9,49.2-5.8,72-3.4,7.5-11.6,13.7-18.1,14.6-21.1,2.9-39.6-18.5-47.8-36.4-33.7-66.2-38-143-53.1-213.7-2.3-24.5,22.1-43.3,43.9-44.5h.3ZM952.1,694.2,951,701.9c3.4-.1,6.9-1.9,10.1-3.3,3.6-1.7,7.2-3.8,9.9-5.7.2-.2.3-.3.2-.5-5.4-2.7-15.3-4.5-19.1,1.3-1.4,2.4-3.1,5.1-1.4,7.9h.2ZM923.2,706.3c2.1.8,6.5-.1,9.3-.6,4-.8,7.8-2,8.6-3.5,1-2.2,2.1-6.7.6-8.2-4-1.8-17.5,7.3-18.6,12.2h0ZM937.7,844.7c11,38.5,18.9,92.6,50.4,118.5-10.8-26.6-16.3-55.5-25.6-82.6-9.5-28-13.4-57.8-20.2-86.6-2.1-11.2-3-26.4-6.2-36.9-2-5.6-3.6-9.6-8.7-8-4.7,1.7-5.1,7.4-4.3,11.6,4.1,28,7.9,56.1,14.6,83.7v.3ZM986,806.3,1002.2,855.9c5.6,35.8,9.8,71.1,16.5,106.7,33.2-26.9-17.8-192.9-27.4-239.9-.5-2.1-1.8-.5-3.7.4-4.1,2.6-11.2,3.6-10,9.2,2.9,21.9,7.2,44.5,12,66.2l12.6,57.5ZM996,856.2,984.9,805.8c-4-10.5-8.8-63.4-16.3-68.8-.8-.5-1.3-.5-2.6.2-3.2,1.5-6.8,3.1-10.3,4.6-16.1,7.3-16.6,5.3-12.8,20.2,9.3,51.9,17.7,104.3,37.1,153.9,4.2,12.7,6.2,25.8,11.1,38,4,9,6.7,19.4,18.9,15.5,1-.3,1.5-1,1.6-2.2-.3-36.7-11.1-74.6-15.6-111.1l-11-50.3ZM961.9,861.6,934,712.6c0-.3-.5-.2-1.2-.2-3.7.2-8.4.2-11.8,1.8-7.8,3.8-3.5,21,4.1,24.7,1.3.7,3.4.4,4-1,1.1-2.4,0-5.6.6-8.1.6-6.1,3.3-11.1,4.4-17.1v-.2ZM955.9,706.8c3.1,3.2,9.4,3.1,12.3,6.6,6.6,7.8,9.4,4.6,17-.8,5.4-2-2-11.6-4.5-14-5.4-4.8-16,5.3-24,7.6-.4.1-.7.3-.8.4h0Z"/>
        </g>
        <g>
          <path d="M954,683.9c19.2-.4,38.6,10.3,43.3,29.6,12.6,59.9,27.5,117.5,37.4,178.3,3.4,24.2,3.9,49.2-5.8,72-3.4,7.5-11.6,13.7-18.1,14.6-21.1,2.9-39.6-18.5-47.8-36.4-33.7-66.2-38-143-53.1-213.7-2.3-24.5,22.1-43.3,43.9-44.5h.3Z" fill="#e6c9fe"/>
          <path d="M950.5,701.4,944.5,713.4,944.5,712.9c-6.1,2-6.5,8.2-7.5,13.7-1.1,4.6-3.4,9.1.3,11.8.4.2.9.2,1.5.2,9.3-1.4,23.9-5.9,28.4-13,1.5-3.4-3.8-6.4-8.7-9.3-3.9-1.9-10.2-5-13.7-3.5h-.2ZM954,683.9c19.2-.4,38.6,10.3,43.3,29.6,12.6,59.9,27.5,117.5,37.4,178.3,3.4,24.2,3.9,49.2-5.8,72-3.4,7.5-11.6,13.7-18.1,14.6-21.1,2.9-39.6-18.5-47.8-36.4-33.7-66.2-38-143-53.1-213.7-2.3-24.5,22.1-43.3,43.9-44.5h.3ZM951.6,693.7,950.5,701.4c3.4-.1,6.9-1.9,10.1-3.3,3.6-1.7,7.2-3.8,9.9-5.7.2-.2.3-.3.2-.5-5.4-2.7-15.3-4.5-19.1,1.3-1.4,2.4-3.1,5.1-1.4,7.9h.2ZM922.7,705.8c2.1.8,6.5-.1,9.3-.6,4-.8,7.8-2,8.6-3.5,1-2.2,2.1-6.7.6-8.2-4-1.8-17.5,7.3-18.6,12.2h0ZM937.2,844.2c11,38.5,18.9,92.6,50.4,118.5-10.8-26.6-16.3-55.5-25.6-82.6-9.5-28-13.4-57.8-20.2-86.6-2.1-11.2-3-26.4-6.2-36.9-2-5.6-3.6-9.6-8.7-8-4.7,1.7-5.1,7.4-4.3,11.6,4.1,28,7.9,56.1,14.6,83.7v.3ZM985.5,805.8,1001.7,855.4c5.6,35.8,9.8,71.1,16.5,106.7,33.2-26.9-17.8-192.9-27.4-239.9-.5-2.1-1.8-.5-3.7.4-4.1,2.6-11.2,3.6-10,9.2,2.9,21.9,7.2,44.5,12,66.2l12.6,57.5ZM995.5,855.7,984.4,805.3c-4-10.5-8.8-63.4-16.3-68.8-.8-.5-1.3-.5-2.6.2-3.2,1.5-6.8,3.1-10.3,4.6-16.1,7.3-16.6,5.3-12.8,20.2,9.3,51.9,17.7,104.3,37.1,153.9,4.2,12.7,6.2,25.8,11.1,38,4,9,6.7,19.4,18.9,15.5,1-.3,1.5-1,1.6-2.2-.3-36.7-11.1-74.6-15.6-111.1l-11-50.3ZM961.4,861.1,933.5,712.1c0-.3-.5-.2-1.2-.2-3.7.2-8.4.2-11.8,1.8-7.8,3.8-3.5,21,4.1,24.7,1.3.7,3.4.4,4-1,1.1-2.4,0-5.6.6-8.1.6-6.1,3.3-11.1,4.4-17.1v-.2ZM955.4,706.3c3.1,3.2,9.4,3.1,12.3,6.6,6.6,7.8,9.4,4.6,17-.8,5.4-2-2-11.6-4.5-14-5.4-4.8-16,5.3-24,7.6-.4.1-.7.3-.8.4h0Z"/>
        </g>
        <g>
          <path d="M953.5,683.4c19.2-.4,38.6,10.3,43.3,29.6,12.6,59.9,27.5,117.5,37.4,178.3,3.4,24.2,3.9,49.2-5.8,72-3.4,7.5-11.6,13.7-18.1,14.6-21.1,2.9-39.6-18.5-47.8-36.4-33.7-66.2-38-143-53.1-213.7-2.3-24.5,22.1-43.3,43.9-44.5h.3Z" fill="#e6c9fe"/>
          <path d="M950,700.9,944,712.9,944,712.4c-6.1,2-6.5,8.2-7.5,13.7-1.1,4.6-3.4,9.1.3,11.8.4.2.9.2,1.5.2,9.3-1.4,23.9-5.9,28.4-13,1.5-3.4-3.8-6.4-8.7-9.3-3.9-1.9-10.2-5-13.7-3.5h-.2ZM953.5,683.4c19.2-.4,38.6,10.3,43.3,29.6,12.6,59.9,27.5,117.5,37.4,178.3,3.4,24.2,3.9,49.2-5.8,72-3.4,7.5-11.6,13.7-18.1,14.6-21.1,2.9-39.6-18.5-47.8-36.4-33.7-66.2-38-143-53.1-213.7-2.3-24.5,22.1-43.3,43.9-44.5h.3ZM951.1,693.2,950,700.9c3.4-.1,6.9-1.9,10.1-3.3,3.6-1.7,7.2-3.8,9.9-5.7.2-.2.3-.3.2-.5-5.4-2.7-15.3-4.5-19.1,1.3-1.4,2.4-3.1,5.1-1.4,7.9h.2ZM922.2,705.3c2.1.8,6.5-.1,9.3-.6,4-.8,7.8-2,8.6-3.5,1-2.2,2.1-6.7.6-8.2-4-1.8-17.5,7.3-18.6,12.2h0ZM936.7,843.7c11,38.5,18.9,92.6,50.4,118.5-10.8-26.6-16.3-55.5-25.6-82.6-9.5-28-13.4-57.8-20.2-86.6-2.1-11.2-3-26.4-6.2-36.9-2-5.6-3.6-9.6-8.7-8-4.7,1.7-5.1,7.4-4.3,11.6,4.1,28,7.9,56.1,14.6,83.7v.3ZM985,805.3,1001.2,854.9c5.6,35.8,9.8,71.1,16.5,106.7,33.2-26.9-17.8-192.9-27.4-239.9-.5-2.1-1.8-.5-3.7.4-4.1,2.6-11.2,3.6-10,9.2,2.9,21.9,7.2,44.5,12,66.2l12.6,57.5ZM995,855.2,983.9,804.8c-4-10.5-8.8-63.4-16.3-68.8-.8-.5-1.3-.5-2.6.2-3.2,1.5-6.8,3.1-10.3,4.6-16.1,7.3-16.6,5.3-12.8,20.2,9.3,51.9,17.7,104.3,37.1,153.9,4.2,12.7,6.2,25.8,11.1,38,4,9,6.7,19.4,18.9,15.5,1-.3,1.5-1,1.6-2.2-.3-36.7-11.1-74.6-15.6-111.1l-11-50.3ZM960.9,860.6,933,711.6c0-.3-.5-.2-1.2-.2-3.7.2-8.4.2-11.8,1.8-7.8,3.8-3.5,21,4.1,24.7,1.3.7,3.4.4,4-1,1.1-2.4,0-5.6.6-8.1.6-6.1,3.3-11.1,4.4-17.1v-.2ZM954.9,705.8c3.1,3.2,9.4,3.1,12.3,6.6,6.6,7.8,9.4,4.6,17-.8,5.4-2-2-11.6-4.5-14-5.4-4.8-16,5.3-24,7.6-.4.1-.7.3-.8.4h0Z"/>
        </g>
        <g>
          <path d="M953,682.9c19.2-.4,38.6,10.3,43.3,29.6,12.6,59.9,27.5,117.5,37.4,178.3,3.4,24.2,3.9,49.2-5.8,72-3.4,7.5-11.6,13.7-18.1,14.6-21.1,2.9-39.6-18.5-47.8-36.4-33.7-66.2-38-143-53.1-213.7-2.3-24.5,22.1-43.3,43.9-44.5h.3Z" fill="#e6c9fe"/>
          <path d="M949.5,700.4,943.5,712.4,943.5,711.9c-6.1,2-6.5,8.2-7.5,13.7-1.1,4.6-3.4,9.1.3,11.8.4.2.9.2,1.5.2,9.3-1.4,23.9-5.9,28.4-13,1.5-3.4-3.8-6.4-8.7-9.3-3.9-1.9-10.2-5-13.7-3.5h-.2ZM953,682.9c19.2-.4,38.6,10.3,43.3,29.6,12.6,59.9,27.5,117.5,37.4,178.3,3.4,24.2,3.9,49.2-5.8,72-3.4,7.5-11.6,13.7-18.1,14.6-21.1,2.9-39.6-18.5-47.8-36.4-33.7-66.2-38-143-53.1-213.7-2.3-24.5,22.1-43.3,43.9-44.5h.3ZM950.6,692.7,949.5,700.4c3.4-.1,6.9-1.9,10.1-3.3,3.6-1.7,7.2-3.8,9.9-5.7.2-.2.3-.3.2-.5-5.4-2.7-15.3-4.5-19.1,1.3-1.4,2.4-3.1,5.1-1.4,7.9h.2ZM921.7,704.8c2.1.8,6.5-.1,9.3-.6,4-.8,7.8-2,8.6-3.5,1-2.2,2.1-6.7.6-8.2-4-1.8-17.5,7.3-18.6,12.2h0ZM936.2,843.2c11,38.5,18.9,92.6,50.4,118.5-10.8-26.6-16.3-55.5-25.6-82.6-9.5-28-13.4-57.8-20.2-86.6-2.1-11.2-3-26.4-6.2-36.9-2-5.6-3.6-9.6-8.7-8-4.7,1.7-5.1,7.4-4.3,11.6,4.1,28,7.9,56.1,14.6,83.7v.3ZM984.5,804.8,1000.7,854.4c5.6,35.8,9.8,71.1,16.5,106.7,33.2-26.9-17.8-192.9-27.4-239.9-.5-2.1-1.8-.5-3.7.4-4.1,2.6-11.2,3.6-10,9.2,2.9,21.9,7.2,44.5,12,66.2l12.6,57.5ZM994.5,854.7,983.4,804.3c-4-10.5-8.8-63.4-16.3-68.8-.8-.5-1.3-.5-2.6.2-3.2,1.5-6.8,3.1-10.3,4.6-16.1,7.3-16.6,5.3-12.8,20.2,9.3,51.9,17.7,104.3,37.1,153.9,4.2,12.7,6.2,25.8,11.1,38,4,9,6.7,19.4,18.9,15.5,1-.3,1.5-1,1.6-2.2-.3-36.7-11.1-74.6-15.6-111.1l-11-50.3ZM960.4,860.1,932.5,711.1c0-.3-.5-.2-1.2-.2-3.7.2-8.4.2-11.8,1.8-7.8,3.8-3.5,21,4.1,24.7,1.3.7,3.4.4,4-1,1.1-2.4,0-5.6.6-8.1.6-6.1,3.3-11.1,4.4-17.1v-.2ZM954.4,705.3c3.1,3.2,9.4,3.1,12.3,6.6,6.6,7.8,9.4,4.6,17-.8,5.4-2-2-11.6-4.5-14-5.4-4.8-16,5.3-24,7.6-.4.1-.7.3-.8.4h0Z"/>
        </g>
        <g>
          <path d="M952.5,682.4c19.2-.4,38.6,10.3,43.3,29.6,12.6,59.9,27.5,117.5,37.4,178.3,3.4,24.2,3.9,49.2-5.8,72-3.4,7.5-11.6,13.7-18.1,14.6-21.1,2.9-39.6-18.5-47.8-36.4-33.7-66.2-38-143-53.1-213.7-2.3-24.5,22.1-43.3,43.9-44.5h.3Z" fill="#e6c9fe"/>
          <path d="M949,699.9,943,711.9,943,711.4c-6.1,2-6.5,8.2-7.5,13.7-1.1,4.6-3.4,9.1.3,11.8.4.2.9.2,1.5.2,9.3-1.4,23.9-5.9,28.4-13,1.5-3.4-3.8-6.4-8.7-9.3-3.9-1.9-10.2-5-13.7-3.5h-.2ZM952.5,682.4c19.2-.4,38.6,10.3,43.3,29.6,12.6,59.9,27.5,117.5,37.4,178.3,3.4,24.2,3.9,49.2-5.8,72-3.4,7.5-11.6,13.7-18.1,14.6-21.1,2.9-39.6-18.5-47.8-36.4-33.7-66.2-38-143-53.1-213.7-2.3-24.5,22.1-43.3,43.9-44.5h.3ZM950.1,692.2,949,699.9c3.4-.1,6.9-1.9,10.1-3.3,3.6-1.7,7.2-3.8,9.9-5.7.2-.2.3-.3.2-.5-5.4-2.7-15.3-4.5-19.1,1.3-1.4,2.4-3.1,5.1-1.4,7.9h.2ZM921.2,704.3c2.1.8,6.5-.1,9.3-.6,4-.8,7.8-2,8.6-3.5,1-2.2,2.1-6.7.6-8.2-4-1.8-17.5,7.3-18.6,12.2h0ZM935.7,842.7c11,38.5,18.9,92.6,50.4,118.5-10.8-26.6-16.3-55.5-25.6-82.6-9.5-28-13.4-57.8-20.2-86.6-2.1-11.2-3-26.4-6.2-36.9-2-5.6-3.6-9.6-8.7-8-4.7,1.7-5.1,7.4-4.3,11.6,4.1,28,7.9,56.1,14.6,83.7v.3ZM984,804.3,1000.2,853.9c5.6,35.8,9.8,71.1,16.5,106.7,33.2-26.9-17.8-192.9-27.4-239.9-.5-2.1-1.8-.5-3.7.4-4.1,2.6-11.2,3.6-10,9.2,2.9,21.9,7.2,44.5,12,66.2l12.6,57.5ZM994,854.2,982.9,803.8c-4-10.5-8.8-63.4-16.3-68.8-.8-.5-1.3-.5-2.6.2-3.2,1.5-6.8,3.1-10.3,4.6-16.1,7.3-16.6,5.3-12.8,20.2,9.3,51.9,17.7,104.3,37.1,153.9,4.2,12.7,6.2,25.8,11.1,38,4,9,6.7,19.4,18.9,15.5,1-.3,1.5-1,1.6-2.2-.3-36.7-11.1-74.6-15.6-111.1l-11-50.3ZM959.9,859.6,932,710.6c0-.3-.5-.2-1.2-.2-3.7.2-8.4.2-11.8,1.8-7.8,3.8-3.5,21,4.1,24.7,1.3.7,3.4.4,4-1,1.1-2.4,0-5.6.6-8.1.6-6.1,3.3-11.1,4.4-17.1v-.2ZM953.9,704.8c3.1,3.2,9.4,3.1,12.3,6.6,6.6,7.8,9.4,4.6,17-.8,5.4-2-2-11.6-4.5-14-5.4-4.8-16,5.3-24,7.6-.4.1-.7.3-.8.4h0Z"/>
        </g>
        <g>
          <path d="M952,681.9c19.2-.4,38.6,10.3,43.3,29.6,12.6,59.9,27.5,117.5,37.4,178.3,3.4,24.2,3.9,49.2-5.8,72-3.4,7.5-11.6,13.7-18.1,14.6-21.1,2.9-39.6-18.5-47.8-36.4-33.7-66.2-38-143-53.1-213.7-2.3-24.5,22.1-43.3,43.9-44.5h.3Z" fill="#e6c9fe"/>
          <path d="M948.5,699.4,942.5,711.4,942.5,710.9c-6.1,2-6.5,8.2-7.5,13.7-1.1,4.6-3.4,9.1.3,11.8.4.2.9.2,1.5.2,9.3-1.4,23.9-5.9,28.4-13,1.5-3.4-3.8-6.4-8.7-9.3-3.9-1.9-10.2-5-13.7-3.5h-.2ZM952,681.9c19.2-.4,38.6,10.3,43.3,29.6,12.6,59.9,27.5,117.5,37.4,178.3,3.4,24.2,3.9,49.2-5.8,72-3.4,7.5-11.6,13.7-18.1,14.6-21.1,2.9-39.6-18.5-47.8-36.4-33.7-66.2-38-143-53.1-213.7-2.3-24.5,22.1-43.3,43.9-44.5h.3ZM949.6,691.7,948.5,699.4c3.4-.1,6.9-1.9,10.1-3.3,3.6-1.7,7.2-3.8,9.9-5.7.2-.2.3-.3.2-.5-5.4-2.7-15.3-4.5-19.1,1.3-1.4,2.4-3.1,5.1-1.4,7.9h.2ZM920.7,703.8c2.1.8,6.5-.1,9.3-.6,4-.8,7.8-2,8.6-3.5,1-2.2,2.1-6.7.6-8.2-4-1.8-17.5,7.3-18.6,12.2h0ZM935.2,842.2c11,38.5,18.9,92.6,50.4,118.5-10.8-26.6-16.3-55.5-25.6-82.6-9.5-28-13.4-57.8-20.2-86.6-2.1-11.2-3-26.4-6.2-36.9-2-5.6-3.6-9.6-8.7-8-4.7,1.7-5.1,7.4-4.3,11.6,4.1,28,7.9,56.1,14.6,83.7v.3ZM983.5,803.8,999.7,853.4c5.6,35.8,9.8,71.1,16.5,106.7,33.2-26.9-17.8-192.9-27.4-239.9-.5-2.1-1.8-.5-3.7.4-4.1,2.6-11.2,3.6-10,9.2,2.9,21.9,7.2,44.5,12,66.2l12.6,57.5ZM993.5,853.7,982.4,803.3c-4-10.5-8.8-63.4-16.3-68.8-.8-.5-1.3-.5-2.6.2-3.2,1.5-6.8,3.1-10.3,4.6-16.1,7.3-16.6,5.3-12.8,20.2,9.3,51.9,17.7,104.3,37.1,153.9,4.2,12.7,6.2,25.8,11.1,38,4,9,6.7,19.4,18.9,15.5,1-.3,1.5-1,1.6-2.2-.3-36.7-11.1-74.6-15.6-111.1l-11-50.3ZM959.4,859.1,931.5,710.1c0-.3-.5-.2-1.2-.2-3.7.2-8.4.2-11.8,1.8-7.8,3.8-3.5,21,4.1,24.7,1.3.7,3.4.4,4-1,1.1-2.4,0-5.6.6-8.1.6-6.1,3.3-11.1,4.4-17.1v-.2ZM953.4,704.3c3.1,3.2,9.4,3.1,12.3,6.6,6.6,7.8,9.4,4.6,17-.8,5.4-2-2-11.6-4.5-14-5.4-4.8-16,5.3-24,7.6-.4.1-.7.3-.8.4h0Z"/>
        </g>
        <g>
          <path d="M951.5,681.4c19.2-.4,38.6,10.3,43.3,29.6,12.6,59.9,27.5,117.5,37.4,178.3,3.4,24.2,3.9,49.2-5.8,72-3.4,7.5-11.6,13.7-18.1,14.6-21.1,2.9-39.6-18.5-47.8-36.4-33.7-66.2-38-143-53.1-213.7-2.3-24.5,22.1-43.3,43.9-44.5h.3Z" fill="#e6c9fe"/>
          <path d="M948,698.9,942,710.9,942,710.4c-6.1,2-6.5,8.2-7.5,13.7-1.1,4.6-3.4,9.1.3,11.8.4.2.9.2,1.5.2,9.3-1.4,23.9-5.9,28.4-13,1.5-3.4-3.8-6.4-8.7-9.3-3.9-1.9-10.2-5-13.7-3.5h-.2ZM951.5,681.4c19.2-.4,38.6,10.3,43.3,29.6,12.6,59.9,27.5,117.5,37.4,178.3,3.4,24.2,3.9,49.2-5.8,72-3.4,7.5-11.6,13.7-18.1,14.6-21.1,2.9-39.6-18.5-47.8-36.4-33.7-66.2-38-143-53.1-213.7-2.3-24.5,22.1-43.3,43.9-44.5h.3ZM949.1,691.2,948,698.9c3.4-.1,6.9-1.9,10.1-3.3,3.6-1.7,7.2-3.8,9.9-5.7.2-.2.3-.3.2-.5-5.4-2.7-15.3-4.5-19.1,1.3-1.4,2.4-3.1,5.1-1.4,7.9h.2ZM920.2,703.3c2.1.8,6.5-.1,9.3-.6,4-.8,7.8-2,8.6-3.5,1-2.2,2.1-6.7.6-8.2-4-1.8-17.5,7.3-18.6,12.2h0ZM934.7,841.7c11,38.5,18.9,92.6,50.4,118.5-10.8-26.6-16.3-55.5-25.6-82.6-9.5-28-13.4-57.8-20.2-86.6-2.1-11.2-3-26.4-6.2-36.9-2-5.6-3.6-9.6-8.7-8-4.7,1.7-5.1,7.4-4.3,11.6,4.1,28,7.9,56.1,14.6,83.7v.3ZM983,803.3,999.2,852.9c5.6,35.8,9.8,71.1,16.5,106.7,33.2-26.9-17.8-192.9-27.4-239.9-.5-2.1-1.8-.5-3.7.4-4.1,2.6-11.2,3.6-10,9.2,2.9,21.9,7.2,44.5,12,66.2l12.6,57.5ZM993,853.2,981.9,802.8c-4-10.5-8.8-63.4-16.3-68.8-.8-.5-1.3-.5-2.6.2-3.2,1.5-6.8,3.1-10.3,4.6-16.1,7.3-16.6,5.3-12.8,20.2,9.3,51.9,17.7,104.3,37.1,153.9,4.2,12.7,6.2,25.8,11.1,38,4,9,6.7,19.4,18.9,15.5,1-.3,1.5-1,1.6-2.2-.3-36.7-11.1-74.6-15.6-111.1l-11-50.3ZM958.9,858.6,931,709.6c0-.3-.5-.2-1.2-.2-3.7.2-8.4.2-11.8,1.8-7.8,3.8-3.5,21,4.1,24.7,1.3.7,3.4.4,4-1,1.1-2.4,0-5.6.6-8.1.6-6.1,3.3-11.1,4.4-17.1v-.2ZM952.9,703.8c3.1,3.2,9.4,3.1,12.3,6.6,6.6,7.8,9.4,4.6,17-.8,5.4-2-2-11.6-4.5-14-5.4-4.8-16,5.3-24,7.6-.4.1-.7.3-.8.4h0Z"/>
        </g>
        <g>
          <path d="M951,680.9c19.2-.4,38.6,10.3,43.3,29.6,12.6,59.9,27.5,117.5,37.4,178.3,3.4,24.2,3.9,49.2-5.8,72-3.4,7.5-11.6,13.7-18.1,14.6-21.1,2.9-39.6-18.5-47.8-36.4-33.7-66.2-38-143-53.1-213.7-2.3-24.5,22.1-43.3,43.9-44.5h.3Z" fill="#e6c9fe"/>
          <path d="M947.5,698.4,941.5,710.4,941.5,709.9c-6.1,2-6.5,8.2-7.5,13.7-1.1,4.6-3.4,9.1.3,11.8.4.2.9.2,1.5.2,9.3-1.4,23.9-5.9,28.4-13,1.5-3.4-3.8-6.4-8.7-9.3-3.9-1.9-10.2-5-13.7-3.5h-.2ZM951,680.9c19.2-.4,38.6,10.3,43.3,29.6,12.6,59.9,27.5,117.5,37.4,178.3,3.4,24.2,3.9,49.2-5.8,72-3.4,7.5-11.6,13.7-18.1,14.6-21.1,2.9-39.6-18.5-47.8-36.4-33.7-66.2-38-143-53.1-213.7-2.3-24.5,22.1-43.3,43.9-44.5h.3ZM948.6,690.7,947.5,698.4c3.4-.1,6.9-1.9,10.1-3.3,3.6-1.7,7.2-3.8,9.9-5.7.2-.2.3-.3.2-.5-5.4-2.7-15.3-4.5-19.1,1.3-1.4,2.4-3.1,5.1-1.4,7.9h.2ZM919.7,702.8c2.1.8,6.5-.1,9.3-.6,4-.8,7.8-2,8.6-3.5,1-2.2,2.1-6.7.6-8.2-4-1.8-17.5,7.3-18.6,12.2h0ZM934.2,841.2c11,38.5,18.9,92.6,50.4,118.5-10.8-26.6-16.3-55.5-25.6-82.6-9.5-28-13.4-57.8-20.2-86.6-2.1-11.2-3-26.4-6.2-36.9-2-5.6-3.6-9.6-8.7-8-4.7,1.7-5.1,7.4-4.3,11.6,4.1,28,7.9,56.1,14.6,83.7v.3ZM982.5,802.8,998.7,852.4c5.6,35.8,9.8,71.1,16.5,106.7,33.2-26.9-17.8-192.9-27.4-239.9-.5-2.1-1.8-.5-3.7.4-4.1,2.6-11.2,3.6-10,9.2,2.9,21.9,7.2,44.5,12,66.2l12.6,57.5ZM992.5,852.7,981.4,802.3c-4-10.5-8.8-63.4-16.3-68.8-.8-.5-1.3-.5-2.6.2-3.2,1.5-6.8,3.1-10.3,4.6-16.1,7.3-16.6,5.3-12.8,20.2,9.3,51.9,17.7,104.3,37.1,153.9,4.2,12.7,6.2,25.8,11.1,38,4,9,6.7,19.4,18.9,15.5,1-.3,1.5-1,1.6-2.2-.3-36.7-11.1-74.6-15.6-111.1l-11-50.3ZM958.4,858.1,930.5,709.1c0-.3-.5-.2-1.2-.2-3.7.2-8.4.2-11.8,1.8-7.8,3.8-3.5,21,4.1,24.7,1.3.7,3.4.4,4-1,1.1-2.4,0-5.6.6-8.1.6-6.1,3.3-11.1,4.4-17.1v-.2ZM952.4,703.3c3.1,3.2,9.4,3.1,12.3,6.6,6.6,7.8,9.4,4.6,17-.8,5.4-2-2-11.6-4.5-14-5.4-4.8-16,5.3-24,7.6-.4.1-.7.3-.8.4h0Z"/>
        </g>
        <g>
          <path d="M950.5,680.4c19.2-.4,38.6,10.3,43.3,29.6,12.6,59.9,27.5,117.5,37.4,178.3,3.4,24.2,3.9,49.2-5.8,72-3.4,7.5-11.6,13.7-18.1,14.6-21.1,2.9-39.6-18.5-47.8-36.4-33.7-66.2-38-143-53.1-213.7-2.3-24.5,22.1-43.3,43.9-44.5h.3Z" fill="#e6c9fe"/>
          <path d="M947,697.9,941,709.9,941,709.4c-6.1,2-6.5,8.2-7.5,13.7-1.1,4.6-3.4,9.1.3,11.8.4.2.9.2,1.5.2,9.3-1.4,23.9-5.9,28.4-13,1.5-3.4-3.8-6.4-8.7-9.3-3.9-1.9-10.2-5-13.7-3.5h-.2ZM950.5,680.4c19.2-.4,38.6,10.3,43.3,29.6,12.6,59.9,27.5,117.5,37.4,178.3,3.4,24.2,3.9,49.2-5.8,72-3.4,7.5-11.6,13.7-18.1,14.6-21.1,2.9-39.6-18.5-47.8-36.4-33.7-66.2-38-143-53.1-213.7-2.3-24.5,22.1-43.3,43.9-44.5h.3ZM948.1,690.2,947,697.9c3.4-.1,6.9-1.9,10.1-3.3,3.6-1.7,7.2-3.8,9.9-5.7.2-.2.3-.3.2-.5-5.4-2.7-15.3-4.5-19.1,1.3-1.4,2.4-3.1,5.1-1.4,7.9h.2ZM919.2,702.3c2.1.8,6.5-.1,9.3-.6,4-.8,7.8-2,8.6-3.5,1-2.2,2.1-6.7.6-8.2-4-1.8-17.5,7.3-18.6,12.2h0ZM933.7,840.7c11,38.5,18.9,92.6,50.4,118.5-10.8-26.6-16.3-55.5-25.6-82.6-9.5-28-13.4-57.8-20.2-86.6-2.1-11.2-3-26.4-6.2-36.9-2-5.6-3.6-9.6-8.7-8-4.7,1.7-5.1,7.4-4.3,11.6,4.1,28,7.9,56.1,14.6,83.7v.3ZM982,802.3,998.2,851.9c5.6,35.8,9.8,71.1,16.5,106.7,33.2-26.9-17.8-192.9-27.4-239.9-.5-2.1-1.8-.5-3.7.4-4.1,2.6-11.2,3.6-10,9.2,2.9,21.9,7.2,44.5,12,66.2l12.6,57.5ZM992,852.2,980.9,801.8c-4-10.5-8.8-63.4-16.3-68.8-.8-.5-1.3-.5-2.6.2-3.2,1.5-6.8,3.1-10.3,4.6-16.1,7.3-16.6,5.3-12.8,20.2,9.3,51.9,17.7,104.3,37.1,153.9,4.2,12.7,6.2,25.8,11.1,38,4,9,6.7,19.4,18.9,15.5,1-.3,1.5-1,1.6-2.2-.3-36.7-11.1-74.6-15.6-111.1l-11-50.3ZM957.9,857.6,930,708.6c0-.3-.5-.2-1.2-.2-3.7.2-8.4.2-11.8,1.8-7.8,3.8-3.5,21,4.1,24.7,1.3.7,3.4.4,4-1,1.1-2.4,0-5.6.6-8.1.6-6.1,3.3-11.1,4.4-17.1v-.2ZM951.9,702.8c3.1,3.2,9.4,3.1,12.3,6.6,6.6,7.8,9.4,4.6,17-.8,5.4-2-2-11.6-4.5-14-5.4-4.8-16,5.3-24,7.6-.4.1-.7.3-.8.4h0Z"/>
        </g>
        <g>
          <path d="M950,679.9c19.2-.4,38.6,10.3,43.3,29.6,12.6,59.9,27.5,117.5,37.4,178.3,3.4,24.2,3.9,49.2-5.8,72-3.4,7.5-11.6,13.7-18.1,14.6-21.1,2.9-39.6-18.5-47.8-36.4-33.7-66.2-38-143-53.1-213.7-2.3-24.5,22.1-43.3,43.9-44.5h.3Z" fill="#e6c9fe"/>
          <path d="M946.5,697.4,940.5,709.4,940.5,708.9c-6.1,2-6.5,8.2-7.5,13.7-1.1,4.6-3.4,9.1.3,11.8.4.2.9.2,1.5.2,9.3-1.4,23.9-5.9,28.4-13,1.5-3.4-3.8-6.4-8.7-9.3-3.9-1.9-10.2-5-13.7-3.5h-.2ZM950,679.9c19.2-.4,38.6,10.3,43.3,29.6,12.6,59.9,27.5,117.5,37.4,178.3,3.4,24.2,3.9,49.2-5.8,72-3.4,7.5-11.6,13.7-18.1,14.6-21.1,2.9-39.6-18.5-47.8-36.4-33.7-66.2-38-143-53.1-213.7-2.3-24.5,22.1-43.3,43.9-44.5h.3ZM947.6,689.7,946.5,697.4c3.4-.1,6.9-1.9,10.1-3.3,3.6-1.7,7.2-3.8,9.9-5.7.2-.2.3-.3.2-.5-5.4-2.7-15.3-4.5-19.1,1.3-1.4,2.4-3.1,5.1-1.4,7.9h.2ZM918.7,701.8c2.1.8,6.5-.1,9.3-.6,4-.8,7.8-2,8.6-3.5,1-2.2,2.1-6.7.6-8.2-4-1.8-17.5,7.3-18.6,12.2h0ZM933.2,840.2c11,38.5,18.9,92.6,50.4,118.5-10.8-26.6-16.3-55.5-25.6-82.6-9.5-28-13.4-57.8-20.2-86.6-2.1-11.2-3-26.4-6.2-36.9-2-5.6-3.6-9.6-8.7-8-4.7,1.7-5.1,7.4-4.3,11.6,4.1,28,7.9,56.1,14.6,83.7v.3ZM981.5,801.8,997.7,851.4c5.6,35.8,9.8,71.1,16.5,106.7,33.2-26.9-17.8-192.9-27.4-239.9-.5-2.1-1.8-.5-3.7.4-4.1,2.6-11.2,3.6-10,9.2,2.9,21.9,7.2,44.5,12,66.2l12.6,57.5ZM991.5,851.7,980.4,801.3c-4-10.5-8.8-63.4-16.3-68.8-.8-.5-1.3-.5-2.6.2-3.2,1.5-6.8,3.1-10.3,4.6-16.1,7.3-16.6,5.3-12.8,20.2,9.3,51.9,17.7,104.3,37.1,153.9,4.2,12.7,6.2,25.8,11.1,38,4,9,6.7,19.4,18.9,15.5,1-.3,1.5-1,1.6-2.2-.3-36.7-11.1-74.6-15.6-111.1l-11-50.3ZM957.4,857.1,929.5,708.1c0-.3-.5-.2-1.2-.2-3.7.2-8.4.2-11.8,1.8-7.8,3.8-3.5,21,4.1,24.7,1.3.7,3.4.4,4-1,1.1-2.4,0-5.6.6-8.1.6-6.1,3.3-11.1,4.4-17.1v-.2ZM951.4,702.3c3.1,3.2,9.4,3.1,12.3,6.6,6.6,7.8,9.4,4.6,17-.8,5.4-2-2-11.6-4.5-14-5.4-4.8-16,5.3-24,7.6-.4.1-.7.3-.8.4h0Z"/>
        </g>
        <g>
          <path d="M949.5,679.4c19.2-.4,38.6,10.3,43.3,29.6,12.6,59.9,27.5,117.5,37.4,178.3,3.4,24.2,3.9,49.2-5.8,72-3.4,7.5-11.6,13.7-18.1,14.6-21.1,2.9-39.6-18.5-47.8-36.4-33.7-66.2-38-143-53.1-213.7-2.3-24.5,22.1-43.3,43.9-44.5h.3Z" fill="#e6c9fe"/>
          <path d="M946,696.9,940,708.9,940,708.4c-6.1,2-6.5,8.2-7.5,13.7-1.1,4.6-3.4,9.1.3,11.8.4.2.9.2,1.5.2,9.3-1.4,23.9-5.9,28.4-13,1.5-3.4-3.8-6.4-8.7-9.3-3.9-1.9-10.2-5-13.7-3.5h-.2ZM949.5,679.4c19.2-.4,38.6,10.3,43.3,29.6,12.6,59.9,27.5,117.5,37.4,178.3,3.4,24.2,3.9,49.2-5.8,72-3.4,7.5-11.6,13.7-18.1,14.6-21.1,2.9-39.6-18.5-47.8-36.4-33.7-66.2-38-143-53.1-213.7-2.3-24.5,22.1-43.3,43.9-44.5h.3ZM947.1,689.2,946,696.9c3.4-.1,6.9-1.9,10.1-3.3,3.6-1.7,7.2-3.8,9.9-5.7.2-.2.3-.3.2-.5-5.4-2.7-15.3-4.5-19.1,1.3-1.4,2.4-3.1,5.1-1.4,7.9h.2ZM918.2,701.3c2.1.8,6.5-.1,9.3-.6,4-.8,7.8-2,8.6-3.5,1-2.2,2.1-6.7.6-8.2-4-1.8-17.5,7.3-18.6,12.2h0ZM932.7,839.7c11,38.5,18.9,92.6,50.4,118.5-10.8-26.6-16.3-55.5-25.6-82.6-9.5-28-13.4-57.8-20.2-86.6-2.1-11.2-3-26.4-6.2-36.9-2-5.6-3.6-9.6-8.7-8-4.7,1.7-5.1,7.4-4.3,11.6,4.1,28,7.9,56.1,14.6,83.7v.3ZM981,801.3,997.2,850.9c5.6,35.8,9.8,71.1,16.5,106.7,33.2-26.9-17.8-192.9-27.4-239.9-.5-2.1-1.8-.5-3.7.4-4.1,2.6-11.2,3.6-10,9.2,2.9,21.9,7.2,44.5,12,66.2l12.6,57.5ZM991,851.2,979.9,800.8c-4-10.5-8.8-63.4-16.3-68.8-.8-.5-1.3-.5-2.6.2-3.2,1.5-6.8,3.1-10.3,4.6-16.1,7.3-16.6,5.3-12.8,20.2,9.3,51.9,17.7,104.3,37.1,153.9,4.2,12.7,6.2,25.8,11.1,38,4,9,6.7,19.4,18.9,15.5,1-.3,1.5-1,1.6-2.2-.3-36.7-11.1-74.6-15.6-111.1l-11-50.3ZM956.9,856.6,929,707.6c0-.3-.5-.2-1.2-.2-3.7.2-8.4.2-11.8,1.8-7.8,3.8-3.5,21,4.1,24.7,1.3.7,3.4.4,4-1,1.1-2.4,0-5.6.6-8.1.6-6.1,3.3-11.1,4.4-17.1v-.2ZM950.9,701.8c3.1,3.2,9.4,3.1,12.3,6.6,6.6,7.8,9.4,4.6,17-.8,5.4-2-2-11.6-4.5-14-5.4-4.8-16,5.3-24,7.6-.4.1-.7.3-.8.4h0Z"/>
        </g>
        <g>
          <path d="M949,678.9c19.2-.4,38.6,10.3,43.3,29.6,12.6,59.9,27.5,117.5,37.4,178.3,3.4,24.2,3.9,49.2-5.8,72-3.4,7.5-11.6,13.7-18.1,14.6-21.1,2.9-39.6-18.5-47.8-36.4-33.7-66.2-38-143-53.1-213.7-2.3-24.5,22.1-43.3,43.9-44.5h.3Z" fill="#e6c9fe"/>
          <path d="M945.5,696.4,939.5,708.4,939.5,707.9c-6.1,2-6.5,8.2-7.5,13.7-1.1,4.6-3.4,9.1.3,11.8.4.2.9.2,1.5.2,9.3-1.4,23.9-5.9,28.4-13,1.5-3.4-3.8-6.4-8.7-9.3-3.9-1.9-10.2-5-13.7-3.5h-.2ZM949,678.9c19.2-.4,38.6,10.3,43.3,29.6,12.6,59.9,27.5,117.5,37.4,178.3,3.4,24.2,3.9,49.2-5.8,72-3.4,7.5-11.6,13.7-18.1,14.6-21.1,2.9-39.6-18.5-47.8-36.4-33.7-66.2-38-143-53.1-213.7-2.3-24.5,22.1-43.3,43.9-44.5h.3ZM946.6,688.7,945.5,696.4c3.4-.1,6.9-1.9,10.1-3.3,3.6-1.7,7.2-3.8,9.9-5.7.2-.2.3-.3.2-.5-5.4-2.7-15.3-4.5-19.1,1.3-1.4,2.4-3.1,5.1-1.4,7.9h.2ZM917.7,700.8c2.1.8,6.5-.1,9.3-.6,4-.8,7.8-2,8.6-3.5,1-2.2,2.1-6.7.6-8.2-4-1.8-17.5,7.3-18.6,12.2h0ZM932.2,839.2c11,38.5,18.9,92.6,50.4,118.5-10.8-26.6-16.3-55.5-25.6-82.6-9.5-28-13.4-57.8-20.2-86.6-2.1-11.2-3-26.4-6.2-36.9-2-5.6-3.6-9.6-8.7-8-4.7,1.7-5.1,7.4-4.3,11.6,4.1,28,7.9,56.1,14.6,83.7v.3ZM980.5,800.8,996.7,850.4c5.6,35.8,9.8,71.1,16.5,106.7,33.2-26.9-17.8-192.9-27.4-239.9-.5-2.1-1.8-.5-3.7.4-4.1,2.6-11.2,3.6-10,9.2,2.9,21.9,7.2,44.5,12,66.2l12.6,57.5ZM990.5,850.7,979.4,800.3c-4-10.5-8.8-63.4-16.3-68.8-.8-.5-1.3-.5-2.6.2-3.2,1.5-6.8,3.1-10.3,4.6-16.1,7.3-16.6,5.3-12.8,20.2,9.3,51.9,17.7,104.3,37.1,153.9,4.2,12.7,6.2,25.8,11.1,38,4,9,6.7,19.4,18.9,15.5,1-.3,1.5-1,1.6-2.2-.3-36.7-11.1-74.6-15.6-111.1l-11-50.3ZM956.4,856.1,928.5,707.1c0-.3-.5-.2-1.2-.2-3.7.2-8.4.2-11.8,1.8-7.8,3.8-3.5,21,4.1,24.7,1.3.7,3.4.4,4-1,1.1-2.4,0-5.6.6-8.1.6-6.1,3.3-11.1,4.4-17.1v-.2ZM950.4,701.3c3.1,3.2,9.4,3.1,12.3,6.6,6.6,7.8,9.4,4.6,17-.8,5.4-2-2-11.6-4.5-14-5.4-4.8-16,5.3-24,7.6-.4.1-.7.3-.8.4h0Z"/>
        </g>
      </g>
      <g>
        <text transform="translate(103 352.8)" fill="red" font-family="FredokaOne-Regular, &apos;Fredoka One&apos;" font-size="280" stroke="#000" stroke-width="1.4"><tspan x="0" y="0" letter-spacing="0em">P</tspan><tspan x="168.6" y="0">eriod.</tspan></text>
        <text transform="translate(102.5 352.3)" fill="red" font-family="FredokaOne-Regular, &apos;Fredoka One&apos;" font-size="280" stroke="#000" stroke-width="1.4"><tspan x="0" y="0" letter-spacing="0em">P</tspan><tspan x="168.6" y="0">eriod.</tspan></text>
        <text transform="translate(102 351.8)" fill="red" font-family="FredokaOne-Regular, &apos;Fredoka One&apos;" font-size="280" stroke="#000" stroke-width="1.4"><tspan x="0" y="0" letter-spacing="0em">P</tspan><tspan x="168.6" y="0">eriod.</tspan></text>
        <text transform="translate(101.5 351.3)" fill="red" font-family="FredokaOne-Regular, &apos;Fredoka One&apos;" font-size="280" stroke="#000" stroke-width="1.4"><tspan x="0" y="0" letter-spacing="0em">P</tspan><tspan x="168.6" y="0">eriod.</tspan></text>
        <text transform="translate(101 350.8)" fill="red" font-family="FredokaOne-Regular, &apos;Fredoka One&apos;" font-size="280" stroke="#000" stroke-width="1.4"><tspan x="0" y="0" letter-spacing="0em">P</tspan><tspan x="168.6" y="0">eriod.</tspan></text>
        <text transform="translate(100.5 350.3)" fill="red" font-family="FredokaOne-Regular, &apos;Fredoka One&apos;" font-size="280" stroke="#000" stroke-width="1.4"><tspan x="0" y="0" letter-spacing="0em">P</tspan><tspan x="168.6" y="0">eriod.</tspan></text>
        <text transform="translate(100 349.8)" fill="red" font-family="FredokaOne-Regular, &apos;Fredoka One&apos;" font-size="280" stroke="#000" stroke-width="1.4"><tspan x="0" y="0" letter-spacing="0em">P</tspan><tspan x="168.6" y="0">eriod.</tspan></text>
        <text transform="translate(99.5 349.3)" fill="red" font-family="FredokaOne-Regular, &apos;Fredoka One&apos;" font-size="280" stroke="#000" stroke-width="1.4"><tspan x="0" y="0" letter-spacing="0em">P</tspan><tspan x="168.6" y="0">eriod.</tspan></text>
        <text transform="translate(99 348.8)" fill="red" font-family="FredokaOne-Regular, &apos;Fredoka One&apos;" font-size="280" stroke="#000" stroke-width="1.4"><tspan x="0" y="0" letter-spacing="0em">P</tspan><tspan x="168.6" y="0">eriod.</tspan></text>
        <text transform="translate(98.5 348.3)" fill="red" font-family="FredokaOne-Regular, &apos;Fredoka One&apos;" font-size="280" stroke="#000" stroke-width="1.4"><tspan x="0" y="0" letter-spacing="0em">P</tspan><tspan x="168.6" y="0">eriod.</tspan></text>
        <text transform="translate(98 347.8)" fill="red" font-family="FredokaOne-Regular, &apos;Fredoka One&apos;" font-size="280" stroke="#000" stroke-width="1.4"><tspan x="0" y="0" letter-spacing="0em">P</tspan><tspan x="168.6" y="0">eriod.</tspan></text>
        <text transform="translate(97.5 347.3)" fill="red" font-family="FredokaOne-Regular, &apos;Fredoka One&apos;" font-size="280" stroke="#000" stroke-width="1.4"><tspan x="0" y="0" letter-spacing="0em">P</tspan><tspan x="168.6" y="0">eriod.</tspan></text>
        <text transform="translate(97 346.8)" fill="red" font-family="FredokaOne-Regular, &apos;Fredoka One&apos;" font-size="280" stroke="#000" stroke-width="1.4"><tspan x="0" y="0" letter-spacing="0em">P</tspan><tspan x="168.6" y="0">eriod.</tspan></text>
        <text transform="translate(96.5 346.3)" fill="red" font-family="FredokaOne-Regular, &apos;Fredoka One&apos;" font-size="280" stroke="#000" stroke-width="1.4"><tspan x="0" y="0" letter-spacing="0em">P</tspan><tspan x="168.6" y="0">eriod.</tspan></text>
        <text transform="translate(96 345.8)" fill="red" font-family="FredokaOne-Regular, &apos;Fredoka One&apos;" font-size="280" stroke="#000" stroke-width="1.4"><tspan x="0" y="0" letter-spacing="0em">P</tspan><tspan x="168.6" y="0">eriod.</tspan></text>
        <text transform="translate(95.5 345.3)" fill="red" font-family="FredokaOne-Regular, &apos;Fredoka One&apos;" font-size="280" stroke="#000" stroke-width="1.4"><tspan x="0" y="0" letter-spacing="0em">P</tspan><tspan x="168.6" y="0">eriod.</tspan></text>
        <text transform="translate(95 344.8)" fill="red" font-family="FredokaOne-Regular, &apos;Fredoka One&apos;" font-size="280" stroke="#000" stroke-width="1.4"><tspan x="0" y="0" letter-spacing="0em">P</tspan><tspan x="168.6" y="0">eriod.</tspan></text>
        <text transform="translate(94.5 344.3)" fill="red" font-family="FredokaOne-Regular, &apos;Fredoka One&apos;" font-size="280" stroke="#000" stroke-width="1.4"><tspan x="0" y="0" letter-spacing="0em">P</tspan><tspan x="168.6" y="0">eriod.</tspan></text>
        <text transform="translate(94 343.8)" fill="red" font-family="FredokaOne-Regular, &apos;Fredoka One&apos;" font-size="280" stroke="#000" stroke-width="1.4"><tspan x="0" y="0" letter-spacing="0em">P</tspan><tspan x="168.6" y="0">eriod.</tspan></text>
        <text transform="translate(93.5 343.3)" fill="red" font-family="FredokaOne-Regular, &apos;Fredoka One&apos;" font-size="280" stroke="#000" stroke-width="1.4"><tspan x="0" y="0" letter-spacing="0em">P</tspan><tspan x="168.6" y="0">eriod.</tspan></text>
        <text transform="translate(93 342.8)" fill="red" font-family="FredokaOne-Regular, &apos;Fredoka One&apos;" font-size="280" stroke="#000" stroke-width="1.4"><tspan x="0" y="0" letter-spacing="0em">P</tspan><tspan x="168.6" y="0">eriod.</tspan></text>
        <text transform="translate(92.5 342.3)" fill="red" font-family="FredokaOne-Regular, &apos;Fredoka One&apos;" font-size="280" stroke="#000" stroke-width="1.4"><tspan x="0" y="0" letter-spacing="0em">P</tspan><tspan x="168.6" y="0">eriod.</tspan></text>
        <text transform="translate(92 341.8)" fill="red" font-family="FredokaOne-Regular, &apos;Fredoka One&apos;" font-size="280" stroke="#000" stroke-width="1.4"><tspan x="0" y="0" letter-spacing="0em">P</tspan><tspan x="168.6" y="0">eriod.</tspan></text>
        <text transform="translate(91.5 341.3)" fill="red" font-family="FredokaOne-Regular, &apos;Fredoka One&apos;" font-size="280" stroke="#000" stroke-width="1.4"><tspan x="0" y="0" letter-spacing="0em">P</tspan><tspan x="168.6" y="0">eriod.</tspan></text>
        <text transform="translate(91 340.8)" fill="red" font-family="FredokaOne-Regular, &apos;Fredoka One&apos;" font-size="280" stroke="#000" stroke-width="1.4"><tspan x="0" y="0" letter-spacing="0em">P</tspan><tspan x="168.6" y="0">eriod.</tspan></text>
        <text transform="translate(90.5 340.3)" fill="red" font-family="FredokaOne-Regular, &apos;Fredoka One&apos;" font-size="280" stroke="#000" stroke-width="1.4"><tspan x="0" y="0" letter-spacing="0em">P</tspan><tspan x="168.6" y="0">eriod.</tspan></text>
        <text transform="translate(90 339.8)" fill="red" font-family="FredokaOne-Regular, &apos;Fredoka One&apos;" font-size="280" stroke="#000" stroke-width="1.4"><tspan x="0" y="0" letter-spacing="0em">P</tspan><tspan x="168.6" y="0">eriod.</tspan></text>
        <text transform="translate(89.5 339.3)" fill="red" font-family="FredokaOne-Regular, &apos;Fredoka One&apos;" font-size="280" stroke="#000" stroke-width="1.4"><tspan x="0" y="0" letter-spacing="0em">P</tspan><tspan x="168.6" y="0">eriod.</tspan></text>
        <text transform="translate(89 338.8)" fill="red" font-family="FredokaOne-Regular, &apos;Fredoka One&apos;" font-size="280" stroke="#000" stroke-width="1.4"><tspan x="0" y="0" letter-spacing="0em">P</tspan><tspan x="168.6" y="0">eriod.</tspan></text>
        <text transform="translate(88.5 338.3)" fill="red" font-family="FredokaOne-Regular, &apos;Fredoka One&apos;" font-size="280" stroke="#000" stroke-width="1.4"><tspan x="0" y="0" letter-spacing="0em">P</tspan><tspan x="168.6" y="0">eriod.</tspan></text>
        <text transform="translate(88 337.8)" fill="red" font-family="FredokaOne-Regular, &apos;Fredoka One&apos;" font-size="280" stroke="#000" stroke-width="1.4"><tspan x="0" y="0" letter-spacing="0em">P</tspan><tspan x="168.6" y="0">eriod.</tspan></text>
        <text transform="translate(87.5 337.3)" fill="red" font-family="FredokaOne-Regular, &apos;Fredoka One&apos;" font-size="280" stroke="#000" stroke-width="1.4"><tspan x="0" y="0" letter-spacing="0em">P</tspan><tspan x="168.6" y="0">eriod.</tspan></text>
        <text transform="translate(87 336.8)" fill="red" font-family="FredokaOne-Regular, &apos;Fredoka One&apos;" font-size="280" stroke="#000" stroke-width="1.4"><tspan x="0" y="0" letter-spacing="0em">P</tspan><tspan x="168.6" y="0">eriod.</tspan></text>
        <text transform="translate(86.5 336.3)" fill="red" font-family="FredokaOne-Regular, &apos;Fredoka One&apos;" font-size="280" stroke="#000" stroke-width="1.4"><tspan x="0" y="0" letter-spacing="0em">P</tspan><tspan x="168.6" y="0">eriod.</tspan></text>
        <text transform="translate(86 335.8)" fill="red" font-family="FredokaOne-Regular, &apos;Fredoka One&apos;" font-size="280" stroke="#000" stroke-width="1.4"><tspan x="0" y="0" letter-spacing="0em">P</tspan><tspan x="168.6" y="0">eriod.</tspan></text>
        <text transform="translate(85.5 335.3)" fill="red" font-family="FredokaOne-Regular, &apos;Fredoka One&apos;" font-size="280" stroke="#000" stroke-width="1.4"><tspan x="0" y="0" letter-spacing="0em">P</tspan><tspan x="168.6" y="0">eriod.</tspan></text>
        <text transform="translate(85 334.8)" fill="red" font-family="FredokaOne-Regular, &apos;Fredoka One&apos;" font-size="280" stroke="#000" stroke-width="1.4"><tspan x="0" y="0" letter-spacing="0em">P</tspan><tspan x="168.6" y="0">eriod.</tspan></text>
        <text transform="translate(84.5 334.3)" fill="red" font-family="FredokaOne-Regular, &apos;Fredoka One&apos;" font-size="280" stroke="#000" stroke-width="1.4"><tspan x="0" y="0" letter-spacing="0em">P</tspan><tspan x="168.6" y="0">eriod.</tspan></text>
        <text transform="translate(84 333.8)" fill="red" font-family="FredokaOne-Regular, &apos;Fredoka One&apos;" font-size="280" stroke="#000" stroke-width="1.4"><tspan x="0" y="0" letter-spacing="0em">P</tspan><tspan x="168.6" y="0">eriod.</tspan></text>
        <text transform="translate(83.5 333.3)" fill="red" font-family="FredokaOne-Regular, &apos;Fredoka One&apos;" font-size="280" stroke="#000" stroke-width="1.4"><tspan x="0" y="0" letter-spacing="0em">P</tspan><tspan x="168.6" y="0">eriod.</tspan></text>
        <text transform="translate(83 332.8)" fill="red" font-family="FredokaOne-Regular, &apos;Fredoka One&apos;" font-size="280" stroke="#000" stroke-width="1.4"><tspan x="0" y="0" letter-spacing="0em">P</tspan><tspan x="168.6" y="0">eriod.</tspan></text>
        <text transform="translate(82.5 332.3)" fill="red" font-family="FredokaOne-Regular, &apos;Fredoka One&apos;" font-size="280" stroke="#000" stroke-width="1.4"><tspan x="0" y="0" letter-spacing="0em">P</tspan><tspan x="168.6" y="0">eriod.</tspan></text>
        <text transform="translate(82 331.8)" fill="red" font-family="FredokaOne-Regular, &apos;Fredoka One&apos;" font-size="280" stroke="#000" stroke-width="1.4"><tspan x="0" y="0" letter-spacing="0em">P</tspan><tspan x="168.6" y="0">eriod.</tspan></text>
        <text transform="translate(81.5 331.3)" fill="red" font-family="FredokaOne-Regular, &apos;Fredoka One&apos;" font-size="280" stroke="#000" stroke-width="1.4"><tspan x="0" y="0" letter-spacing="0em">P</tspan><tspan x="168.6" y="0">eriod.</tspan></text>
        <text transform="translate(81 330.8)" fill="red" font-family="FredokaOne-Regular, &apos;Fredoka One&apos;" font-size="280" stroke="#000" stroke-width="1.4"><tspan x="0" y="0" letter-spacing="0em">P</tspan><tspan x="168.6" y="0">eriod.</tspan></text>
        <text transform="translate(80.5 330.3)" fill="red" font-family="FredokaOne-Regular, &apos;Fredoka One&apos;" font-size="280" stroke="#000" stroke-width="1.4"><tspan x="0" y="0" letter-spacing="0em">P</tspan><tspan x="168.6" y="0">eriod.</tspan></text>
        <text transform="translate(80 329.8)" fill="red" font-family="FredokaOne-Regular, &apos;Fredoka One&apos;" font-size="280" stroke="#000" stroke-width="1.4"><tspan x="0" y="0" letter-spacing="0em">P</tspan><tspan x="168.6" y="0">eriod.</tspan></text>
        <text transform="translate(79.5 329.3)" fill="red" font-family="FredokaOne-Regular, &apos;Fredoka One&apos;" font-size="280" stroke="#000" stroke-width="1.4"><tspan x="0" y="0" letter-spacing="0em">P</tspan><tspan x="168.6" y="0">eriod.</tspan></text>
        <text transform="translate(79 328.8)" fill="red" font-family="FredokaOne-Regular, &apos;Fredoka One&apos;" font-size="280" stroke="#000" stroke-width="1.4"><tspan x="0" y="0" letter-spacing="0em">P</tspan><tspan x="168.6" y="0">eriod.</tspan></text>
        <text transform="translate(78.5 328.3)" fill="red" font-family="FredokaOne-Regular, &apos;Fredoka One&apos;" font-size="280" stroke="#000" stroke-width="1.4"><tspan x="0" y="0" letter-spacing="0em">P</tspan><tspan x="168.6" y="0">eriod.</tspan></text>
        <text transform="translate(78 327.8)" fill="red" font-family="FredokaOne-Regular, &apos;Fredoka One&apos;" font-size="280" stroke="#000" stroke-width="1.4"><tspan x="0" y="0" letter-spacing="0em">P</tspan><tspan x="168.6" y="0">eriod.</tspan></text>
      </g>
      <path d="M840.2,180.5s-1.4-9.7-5.1-11.8c-17.6-9.9-21.9,20.8-22,32.9-.7,85.9,39.4,96.8,86.4,155,53.2,66.5,85.3,151.9,80.8,237.8-1.2,23.8-14.6,47.4-25.1,67-2.9,6.2-4.7,12.7-5.6,19.5-1,6.6.6,11.9-2.4,17.1-2.7,3.9-11,8.6-16.2,5.5-14.3-17.3,7.5-55.3,16.5-71.8,17.9-30.9,13.7-68,8.6-102-8.1-47.1-25.9-92.7-52.1-132.7-8.4-12.9-18.4-25.9-28.4-37.6-21.9-25.3-49.6-46.2-66.4-75.9-13.5-22.8-15.6-51-14.8-76.5,0-18.5,0-41.3,17-52.4,24.8-16.1,50.7,5.8,48.1,26.3" fill="#73bff9" stroke="#000" stroke-miterlimit="10" stroke-width="5.7"/>
      <path d="M961.4,178.9c-15.6,2-31.3,3.3-47.6,1.5-8.5-.6-17.2-1.7-25.8-2.5-5.2-.7-5,.2-10.6-4.4-3.8-2.1-5.2-21.4-1.2-21.8,1.5.5,3.6,4.3,5.3,5.5,30.2,5.5,54.2,4.2,82.8,1.3,2.4.6,3.4,9.8,3,15.5-.5,5-3.6,5-5.9,4.9Z" fill="#73bff9" stroke="#000" stroke-miterlimit="10" stroke-width="5.7"/>
      <path d="M1236.3,80.7c-11.8,21.1-36,44.5-59.3,52.7-20.8,7.3-14.1,9.9-23.8,10.3-16.9.6-21.5,3.5-21.5,3.5,0,0-115.4,51.1-179.3,66.8l.2-19.7c65.3-16.6,113.2-35.9,170.9-60.9,11.1-3.4,8.9-9.7,15.1-15.1,3-1.5,8.6,1.2,11.4-1.3,23.7-20.8,45.1-27.6,71.2-41.4,4.4-2.3,15.4-1.8,15.1,4.9ZM1211.2,96.5c6.3-6.8-17.4,6.1-19.2,6.9-6.7,3.4-13.8,7.4-19.9,13.3-6,5.9,25-1.1,39.1-20.2Z" fill="#73bff9" stroke="#000" stroke-miterlimit="10" stroke-width="5.7"/>
    </g>
  </g>
</svg>