<?xml version="1.0" encoding="UTF-8"?>
<svg xmlns="http://www.w3.org/2000/svg" baseProfile="tiny" version="1.2" viewBox="0 0 1789.5 1022">
  <!-- Generator: Adobe Illustrator 28.6.0, SVG Export Plug-In . SVG Version: 1.2.0 Build 709)  -->
  <g>
    <g id="Ebene_2">
      <g id="Cup">
        <g>
          <path d="M1693.8,77.3c-7.9,5.8-12.9,14.2-20,20.6-2.9,1.7-7.9-.2-10.6,2.5-3.2,3.7,3.1,9.5-1.1,12.9-2.7,1.9-7.8,0-10.8,2.6-4.4,3.7,1.2,9.3.4,13.6-3.2,6.5-8.9,11.8-13.1,18-3.1,4.4-8.3,5.9-13.5,6.1-12.6.9-25.2,2.3-37.4,5.4-56.6,14.7-126.3,40.1-161.7,89-5.7,6.4-2.1,11.7-.9,18.9,1.1,6.9-2,13.5-5.9,19-5.2,6.3-11.3-4.1-17.8,5.3-3.6,4.5-7.2,8.9-10.8,13.5-6.1,6.4-8.4,7.5-3.8,16.9,6.7,14.9,17.6,23,29.8,32.8,29.6,25.7,61.1,48.8,92.9,71.8,21.6,15.3,69.4,48.2,84.7,10.9,6.6-10,1-9.2.4-18.2,1.3-4.8,4-10.9,9.6-11,20.2-.6,19.5-1,29.7-17.9,6.1-10.7,12.5-21.3,17.5-32.4,9.3-22.9,12.7-47.9,13.7-72.5,4.2-33.4-1-66.6-7.5-99.4-1.5-8.3-6.6-17.5,0-24.8,5.2-5.9,8.7-14.2,15.2-18.4,2.8-.4,7.1,2,9.6-.6,3.7-5.1-4.8-9.2,1-15.3,4.5-5.6,14.2,2.8,12.4-10.2-3.6-9.9,10.2-19.1,13.3-29.1,3.6-10-7.7-17.1-15.6-10Z" fill="#e6c9fe"/>
          <path d="M1693.8,77.3c-7.9,5.8-12.9,14.2-20,20.6-2.9,1.7-7.9-.2-10.6,2.5-3.2,3.7,3.1,9.5-1.1,12.9-2.7,1.9-7.8,0-10.8,2.6-4.4,3.7,1.2,9.3.4,13.6-3.2,6.5-8.9,11.8-13.1,18-3.1,4.4-8.3,5.9-13.5,6.1-12.6.9-25.2,2.3-37.4,5.4-56.6,14.7-126.3,40.1-161.7,89-5.7,6.4-2.1,11.7-.9,18.9,1.1,6.9-2,13.5-5.9,19-5.2,6.3-11.3-4.1-17.8,5.3-3.6,4.5-7.2,8.9-10.8,13.5-6.1,6.4-8.4,7.5-3.8,16.9,6.7,14.9,17.6,23,29.8,32.8,29.6,25.7,61.1,48.8,92.9,71.8,21.6,15.3,69.4,48.2,84.7,10.9,6.6-10,1-9.2.4-18.2,1.3-4.8,4-10.9,9.6-11,20.2-.6,19.5-1,29.7-17.9,6.1-10.7,12.5-21.3,17.5-32.4,9.3-22.9,12.7-47.9,13.7-72.5,4.2-33.4-1-66.6-7.5-99.4-1.5-8.3-6.6-17.5,0-24.8,5.2-5.9,8.7-14.2,15.2-18.4,2.8-.4,7.1,2,9.6-.6,3.7-5.1-4.8-9.2,1-15.3,4.5-5.6,14.2,2.8,12.4-10.2-3.6-9.9,10.2-19.1,13.3-29.1,3.6-10-7.7-17.1-15.6-10ZM1561.9,449.5c-41.3-12.6-73.2-44.6-107.9-69.2-14.7-11.9-28.9-24.5-43.6-36.5-8.6-6.6-15.5-15.1-19.8-25.1-3.2-7.8,8.9-3,13.8-1,2.6,1.1,4.7,3.2,4.9,6.1,2.9,16.1,29.9,31.6,42.1,42.4,32.6,24.9,65.2,50.1,100.9,70.5,4.7,2.9,10.1,4.3,15.5,2.4,4.3-1.2,6.4,3.8,8.9,6.4,5.3,6.8-12.2,5-14.8,3.8ZM1416.1,324.5c.9-1.1,3.8,0,5.4.7,23.4,9.3,43.3,25.1,63.2,40.2,26.2,20.4,52.2,38.2,76.1,61.2,1.4,1.5,3.2,5.6,1.8,6.8-3.1,1.3-9.4-1.7-12.3-3.3-24.9-15.7-47.7-31-70.9-49.2-20.5-14.8-38.9-29.4-58-46.1-2-1.7-6.7-7.9-5.3-10.3ZM1591.7,428c1.8,4-2.9,8-4.6,11.6-2.9,5.4-4.7,3.8-8.3,0-6.6-6.5-11.5-14.4-18.2-20.7-34.9-30-71.6-58.1-109.3-84.4-16.9-9.8-33.6-19.4-52.5-25-7.8-3.1,3-9.7,5.4-13.4,4.7-5.7,13,1.6,18.4,3.3,39.5,19.5,77.1,42.2,110.1,71.8,21.7,16.9,41.9,35.3,58.9,56.9ZM1590.1,415.2c-3.4-.5-5.6-5.2-8.2-7.4-21-23.7-47-42-71.1-62.3-26.3-22.6-58-36.4-87.1-54.9-1.2-1.9.6-4,1.7-6.3,3.7-10.7,13.4,1.3,19.7,3.2,41.7,19.7,80,47.4,114.6,78.1,12.2,11.3,27.8,19,37.3,33.1,3.7,4.9-2.4,9.8-4.4,14.2-.6.9-1.3,2.1-2.4,2.4ZM1617.2,400.3c-1.1,1.1-2.9,1-4.4,1.1-2.8.1-5.7.8-7.8-.5-4.9-4.8-8.4-11.2-13.5-15.9-10.1-9.4-21.6-17.3-31.9-26.4-34.8-31.2-74.1-57.7-115.8-78.5-8.1-4.9-14.5-6.4-13.8-17.6-.7-8.2,14.9,1.5,18.9,2,28.3,9.2,53.5,25.2,76.6,43.8,17.8,10.7,31.2,26.6,46.6,40.1,9,7.2,16.6,16.1,24.7,24.3,5.9,5.4,20.8,19.9,20.5,27.6ZM1646.9,165.2c11.9,46.2,16.7,93.4,11.2,140.8-2.7,16.2-5.1,33-11.3,48.3-5,11.3-11.4,22-17.4,32.7-3,4.4-5.4,10.7-9.3,2.6-14.5-23-37.5-39-56.8-57.6-11.6-12.6-25.8-21.8-39.9-31.2-27.2-21.4-58.2-37.5-91.5-46.8-1.9-.6-3.1-1.5-2.2-3.3,35.6-46.7,105.7-71.6,161.2-85.7,12.2-2.8,24.6-4.6,37.1-5.4,6.8-.2,17-4.1,18.9,5.6ZM1668.8,136.2c.2.9-.4,1.9-.9,2.7-5.3,7.3-10,15.4-16.7,21.3-2.7-.9-2.8-7.2-7.7-7.9-2.3-.6-2.2-1.5-.9-3.1,5.3-6,9.7-14.1,16-19.4,1.3-.8,10.2,5,10.3,6.5ZM1672.3,132.8c-3.7-1.7-6.8-4.6-10.5-6.9-.4-.3-.9-.7-1-1.2-.2-1.4.9-3,2.4-1.9,3,2.8,11.2,5.7,9.1,10ZM1681.5,120.1c-.3,1.4-3.6,7.1-5.3,5.7-3.2-2.7-7.9-4.7-10-8.2,1.2-9.9,13.4-3.6,15.3,2.5ZM1685.7,113.8c-3.6-1.5-6.8-4.6-10.2-6.7-.3-.2-.6-.6-.4-1,2-2.3,4.9.4,6.9,1.5,2,.9,5.2,3.4,3.7,6.2ZM1704.1,87c-3.2,6.7-8.2,12.2-12.3,18.5-2.1,3.1-3.7,1.4-6.3-.8-1.5-1.5-4.7-3.1-4.9-5.2,4.3-7.3,11.1-14.1,18.3-18.5,4.2-2.4,7.1,2.1,5.2,5.9Z" stroke="#000" stroke-miterlimit="10" stroke-width=".3"/>
        </g>
        <g>
          <path d="M1693.3,76.8c-7.9,5.8-12.9,14.2-20,20.6-2.9,1.7-7.9-.2-10.6,2.5-3.2,3.7,3.1,9.5-1.1,12.9-2.7,1.9-7.8,0-10.8,2.6-4.4,3.7,1.2,9.3.4,13.6-3.2,6.5-8.9,11.8-13.1,18-3.1,4.4-8.3,5.9-13.5,6.1-12.6.9-25.2,2.3-37.4,5.4-56.6,14.7-126.3,40.1-161.7,89-5.7,6.4-2.1,11.7-.9,18.9,1.1,6.9-2,13.5-5.9,19-5.2,6.3-11.3-4.1-17.8,5.3-3.6,4.5-7.2,8.9-10.8,13.5-6.1,6.4-8.4,7.5-3.8,16.9,6.7,14.9,17.6,23,29.8,32.8,29.6,25.7,61.1,48.8,92.9,71.8,21.6,15.3,69.4,48.2,84.7,10.9,6.6-10,1-9.2.4-18.2,1.3-4.8,4-10.9,9.6-11,20.2-.6,19.5-1,29.7-17.9,6.1-10.7,12.5-21.3,17.5-32.4,9.3-22.9,12.7-47.9,13.7-72.5,4.2-33.4-1-66.6-7.5-99.4-1.5-8.3-6.6-17.5,0-24.8,5.2-5.9,8.7-14.2,15.2-18.4,2.8-.4,7.1,2,9.6-.6,3.7-5.1-4.8-9.2,1-15.3,4.5-5.6,14.2,2.8,12.4-10.2-3.6-9.9,10.2-19.1,13.3-29.1,3.6-10-7.7-17.1-15.6-10Z" fill="#e6c9fe"/>
          <path d="M1693.3,76.8c-7.9,5.8-12.9,14.2-20,20.6-2.9,1.7-7.9-.2-10.6,2.5-3.2,3.7,3.1,9.5-1.1,12.9-2.7,1.9-7.8,0-10.8,2.6-4.4,3.7,1.2,9.3.4,13.6-3.2,6.5-8.9,11.8-13.1,18-3.1,4.4-8.3,5.9-13.5,6.1-12.6.9-25.2,2.3-37.4,5.4-56.6,14.7-126.3,40.1-161.7,89-5.7,6.4-2.1,11.7-.9,18.9,1.1,6.9-2,13.5-5.9,19-5.2,6.3-11.3-4.1-17.8,5.3-3.6,4.5-7.2,8.9-10.8,13.5-6.1,6.4-8.4,7.5-3.8,16.9,6.7,14.9,17.6,23,29.8,32.8,29.6,25.7,61.1,48.8,92.9,71.8,21.6,15.3,69.4,48.2,84.7,10.9,6.6-10,1-9.2.4-18.2,1.3-4.8,4-10.9,9.6-11,20.2-.6,19.5-1,29.7-17.9,6.1-10.7,12.5-21.3,17.5-32.4,9.3-22.9,12.7-47.9,13.7-72.5,4.2-33.4-1-66.6-7.5-99.4-1.5-8.3-6.6-17.5,0-24.8,5.2-5.9,8.7-14.2,15.2-18.4,2.8-.4,7.1,2,9.6-.6,3.7-5.1-4.8-9.2,1-15.3,4.5-5.6,14.2,2.8,12.4-10.2-3.6-9.9,10.2-19.1,13.3-29.1,3.6-10-7.7-17.1-15.6-10ZM1561.4,449c-41.3-12.6-73.2-44.6-107.9-69.2-14.7-11.9-28.9-24.5-43.6-36.5-8.6-6.6-15.5-15.1-19.8-25.1-3.2-7.8,8.9-3,13.8-1,2.6,1.1,4.7,3.2,4.9,6.1,2.9,16.1,29.9,31.6,42.1,42.4,32.6,24.9,65.2,50.1,100.9,70.5,4.7,2.9,10.1,4.3,15.5,2.4,4.3-1.2,6.4,3.8,8.9,6.4,5.3,6.8-12.2,5-14.8,3.8ZM1415.6,324c.9-1.1,3.8,0,5.4.7,23.4,9.3,43.3,25.1,63.2,40.2,26.2,20.4,52.2,38.2,76.1,61.2,1.4,1.5,3.2,5.6,1.8,6.8-3.1,1.3-9.4-1.7-12.3-3.3-24.9-15.7-47.7-31-70.9-49.2-20.5-14.8-38.9-29.4-58-46.1-2-1.7-6.7-7.9-5.3-10.3ZM1591.2,427.5c1.8,4-2.9,8-4.6,11.6-2.9,5.4-4.7,3.8-8.3,0-6.6-6.5-11.5-14.4-18.2-20.7-34.9-30-71.6-58.1-109.3-84.4-16.9-9.8-33.6-19.4-52.5-25-7.8-3.1,3-9.7,5.4-13.4,4.7-5.7,13,1.6,18.4,3.3,39.5,19.5,77.1,42.2,110.1,71.8,21.7,16.9,41.9,35.3,58.9,56.9ZM1589.6,414.7c-3.4-.5-5.6-5.2-8.2-7.4-21-23.7-47-42-71.1-62.3-26.3-22.6-58-36.4-87.1-54.9-1.2-1.9.6-4,1.7-6.3,3.7-10.7,13.4,1.3,19.7,3.2,41.7,19.7,80,47.4,114.6,78.1,12.2,11.3,27.8,19,37.3,33.1,3.7,4.9-2.4,9.8-4.4,14.2-.6.9-1.3,2.1-2.4,2.4ZM1616.7,399.8c-1.1,1.1-2.9,1-4.4,1.1-2.8.1-5.7.8-7.8-.5-4.9-4.8-8.4-11.2-13.5-15.9-10.1-9.4-21.6-17.3-31.9-26.4-34.8-31.2-74.1-57.7-115.8-78.5-8.1-4.9-14.5-6.4-13.8-17.6-.7-8.2,14.9,1.5,18.9,2,28.3,9.2,53.5,25.2,76.6,43.8,17.8,10.7,31.2,26.6,46.6,40.1,9,7.2,16.6,16.1,24.7,24.3,5.9,5.4,20.8,19.9,20.5,27.6ZM1646.4,164.7c11.9,46.2,16.7,93.4,11.2,140.8-2.7,16.2-5.1,33-11.3,48.3-5,11.3-11.4,22-17.4,32.7-3,4.4-5.4,10.7-9.3,2.6-14.5-23-37.5-39-56.8-57.6-11.6-12.6-25.8-21.8-39.9-31.2-27.2-21.4-58.2-37.5-91.5-46.8-1.9-.6-3.1-1.5-2.2-3.3,35.6-46.7,105.7-71.6,161.2-85.7,12.2-2.8,24.6-4.6,37.1-5.4,6.8-.2,17-4.1,18.9,5.6ZM1668.3,135.7c.2.9-.4,1.9-.9,2.7-5.3,7.3-10,15.4-16.7,21.3-2.7-.9-2.8-7.2-7.7-7.9-2.3-.6-2.2-1.5-.9-3.1,5.3-6,9.7-14.1,16-19.4,1.3-.8,10.2,5,10.3,6.5ZM1671.8,132.3c-3.7-1.7-6.8-4.6-10.5-6.9-.4-.3-.9-.7-1-1.2-.2-1.4.9-3,2.4-1.9,3,2.8,11.2,5.7,9.1,10ZM1681,119.6c-.3,1.4-3.6,7.1-5.3,5.7-3.2-2.7-7.9-4.7-10-8.2,1.2-9.9,13.4-3.6,15.3,2.5ZM1685.2,113.3c-3.6-1.5-6.8-4.6-10.2-6.7-.3-.2-.6-.6-.4-1,2-2.3,4.9.4,6.9,1.5,2,.9,5.2,3.4,3.7,6.2ZM1703.6,86.5c-3.2,6.7-8.2,12.2-12.3,18.5-2.1,3.1-3.7,1.4-6.3-.8-1.5-1.5-4.7-3.1-4.9-5.2,4.3-7.3,11.1-14.1,18.3-18.5,4.2-2.4,7.1,2.1,5.2,5.9Z" stroke="#000" stroke-miterlimit="10" stroke-width=".3"/>
        </g>
        <g>
          <path d="M1692.8,76.3c-7.9,5.8-12.9,14.2-20,20.6-2.9,1.7-7.9-.2-10.6,2.5-3.2,3.7,3.1,9.5-1.1,12.9-2.7,1.9-7.8,0-10.8,2.6-4.4,3.7,1.2,9.3.4,13.6-3.2,6.5-8.9,11.8-13.1,18-3.1,4.4-8.3,5.9-13.5,6.1-12.6.9-25.2,2.3-37.4,5.4-56.6,14.7-126.3,40.1-161.7,89-5.7,6.4-2.1,11.7-.9,18.9,1.1,6.9-2,13.5-5.9,19-5.2,6.3-11.3-4.1-17.8,5.3-3.6,4.5-7.2,8.9-10.8,13.5-6.1,6.4-8.4,7.5-3.8,16.9,6.7,14.9,17.6,23,29.8,32.8,29.6,25.7,61.1,48.8,92.9,71.8,21.6,15.3,69.4,48.2,84.7,10.9,6.6-10,1-9.2.4-18.2,1.3-4.8,4-10.9,9.6-11,20.2-.6,19.5-1,29.7-17.9,6.1-10.7,12.5-21.3,17.5-32.4,9.3-22.9,12.7-47.9,13.7-72.5,4.2-33.4-1-66.6-7.5-99.4-1.5-8.3-6.6-17.5,0-24.8,5.2-5.9,8.7-14.2,15.2-18.4,2.8-.4,7.1,2,9.6-.6,3.7-5.1-4.8-9.2,1-15.3,4.5-5.6,14.2,2.8,12.4-10.2-3.6-9.9,10.2-19.1,13.3-29.1,3.6-10-7.7-17.1-15.6-10Z" fill="#e6c9fe"/>
          <path d="M1692.8,76.3c-7.9,5.8-12.9,14.2-20,20.6-2.9,1.7-7.9-.2-10.6,2.5-3.2,3.7,3.1,9.5-1.1,12.9-2.7,1.9-7.8,0-10.8,2.6-4.4,3.7,1.2,9.3.4,13.6-3.2,6.5-8.9,11.8-13.1,18-3.1,4.4-8.3,5.9-13.5,6.1-12.6.9-25.2,2.3-37.4,5.4-56.6,14.7-126.3,40.1-161.7,89-5.7,6.4-2.1,11.7-.9,18.9,1.1,6.9-2,13.5-5.9,19-5.2,6.3-11.3-4.1-17.8,5.3-3.6,4.5-7.2,8.9-10.8,13.5-6.1,6.4-8.4,7.5-3.8,16.9,6.7,14.9,17.6,23,29.8,32.8,29.6,25.7,61.1,48.8,92.9,71.8,21.6,15.3,69.4,48.2,84.7,10.9,6.6-10,1-9.2.4-18.2,1.3-4.8,4-10.9,9.6-11,20.2-.6,19.5-1,29.7-17.9,6.1-10.7,12.5-21.3,17.5-32.4,9.3-22.9,12.7-47.9,13.7-72.5,4.2-33.4-1-66.6-7.5-99.4-1.5-8.3-6.6-17.5,0-24.8,5.2-5.9,8.7-14.2,15.2-18.4,2.8-.4,7.1,2,9.6-.6,3.7-5.1-4.8-9.2,1-15.3,4.5-5.6,14.2,2.8,12.4-10.2-3.6-9.9,10.2-19.1,13.3-29.1,3.6-10-7.7-17.1-15.6-10ZM1560.9,448.5c-41.3-12.6-73.2-44.6-107.9-69.2-14.7-11.9-28.9-24.5-43.6-36.5-8.6-6.6-15.5-15.1-19.8-25.1-3.2-7.8,8.9-3,13.8-1,2.6,1.1,4.7,3.2,4.9,6.1,2.9,16.1,29.9,31.6,42.1,42.4,32.6,24.9,65.2,50.1,100.9,70.5,4.7,2.9,10.1,4.3,15.5,2.4,4.3-1.2,6.4,3.8,8.9,6.4,5.3,6.8-12.2,5-14.8,3.8ZM1415.1,323.5c.9-1.1,3.8,0,5.4.7,23.4,9.3,43.3,25.1,63.2,40.2,26.2,20.4,52.2,38.2,76.1,61.2,1.4,1.5,3.2,5.6,1.8,6.8-3.1,1.3-9.4-1.7-12.3-3.3-24.9-15.7-47.7-31-70.9-49.2-20.5-14.8-38.9-29.4-58-46.1-2-1.7-6.7-7.9-5.3-10.3ZM1590.7,427c1.8,4-2.9,8-4.6,11.6-2.9,5.4-4.7,3.8-8.3,0-6.6-6.5-11.5-14.4-18.2-20.7-34.9-30-71.6-58.1-109.3-84.4-16.9-9.8-33.6-19.4-52.5-25-7.8-3.1,3-9.7,5.4-13.4,4.7-5.7,13,1.6,18.4,3.3,39.5,19.5,77.1,42.2,110.1,71.8,21.7,16.9,41.9,35.3,58.9,56.9ZM1589.1,414.2c-3.4-.5-5.6-5.2-8.2-7.4-21-23.7-47-42-71.1-62.3-26.3-22.6-58-36.4-87.1-54.9-1.2-1.9.6-4,1.7-6.3,3.7-10.7,13.4,1.3,19.7,3.2,41.7,19.7,80,47.4,114.6,78.1,12.2,11.3,27.8,19,37.3,33.1,3.7,4.9-2.4,9.8-4.4,14.2-.6.9-1.3,2.1-2.4,2.4ZM1616.2,399.3c-1.1,1.1-2.9,1-4.4,1.1-2.8.1-5.7.8-7.8-.5-4.9-4.8-8.4-11.2-13.5-15.9-10.1-9.4-21.6-17.3-31.9-26.4-34.8-31.2-74.1-57.7-115.8-78.5-8.1-4.9-14.5-6.4-13.8-17.6-.7-8.2,14.9,1.5,18.9,2,28.3,9.2,53.5,25.2,76.6,43.8,17.8,10.7,31.2,26.6,46.6,40.1,9,7.2,16.6,16.1,24.7,24.3,5.9,5.4,20.8,19.9,20.5,27.6ZM1645.9,164.2c11.9,46.2,16.7,93.4,11.2,140.8-2.7,16.2-5.1,33-11.3,48.3-5,11.3-11.4,22-17.4,32.7-3,4.4-5.4,10.7-9.3,2.6-14.5-23-37.5-39-56.8-57.6-11.6-12.6-25.8-21.8-39.9-31.2-27.2-21.4-58.2-37.5-91.5-46.8-1.9-.6-3.1-1.5-2.2-3.3,35.6-46.7,105.7-71.6,161.2-85.7,12.2-2.8,24.6-4.6,37.1-5.4,6.8-.2,17-4.1,18.9,5.6ZM1667.8,135.2c.2.9-.4,1.9-.9,2.7-5.3,7.3-10,15.4-16.7,21.3-2.7-.9-2.8-7.2-7.7-7.9-2.3-.6-2.2-1.5-.9-3.1,5.3-6,9.7-14.1,16-19.4,1.3-.8,10.2,5,10.3,6.5ZM1671.3,131.8c-3.7-1.7-6.8-4.6-10.5-6.9-.4-.3-.9-.7-1-1.2-.2-1.4.9-3,2.4-1.9,3,2.8,11.2,5.7,9.1,10ZM1680.5,119.1c-.3,1.4-3.6,7.1-5.3,5.7-3.2-2.7-7.9-4.7-10-8.2,1.2-9.9,13.4-3.6,15.3,2.5ZM1684.7,112.8c-3.6-1.5-6.8-4.6-10.2-6.7-.3-.2-.6-.6-.4-1,2-2.3,4.9.4,6.9,1.5,2,.9,5.2,3.4,3.7,6.2ZM1703.1,86c-3.2,6.7-8.2,12.2-12.3,18.5-2.1,3.1-3.7,1.4-6.3-.8-1.5-1.5-4.7-3.1-4.9-5.2,4.3-7.3,11.1-14.1,18.3-18.5,4.2-2.4,7.1,2.1,5.2,5.9Z" stroke="#000" stroke-miterlimit="10" stroke-width=".3"/>
        </g>
        <g>
          <path d="M1692.3,75.8c-7.9,5.8-12.9,14.2-20,20.6-2.9,1.7-7.9-.2-10.6,2.5-3.2,3.7,3.1,9.5-1.1,12.9-2.7,1.9-7.8,0-10.8,2.6-4.4,3.7,1.2,9.3.4,13.6-3.2,6.5-8.9,11.8-13.1,18-3.1,4.4-8.3,5.9-13.5,6.1-12.6.9-25.2,2.3-37.4,5.4-56.6,14.7-126.3,40.1-161.7,89-5.7,6.4-2.1,11.7-.9,18.9,1.1,6.9-2,13.5-5.9,19-5.2,6.3-11.3-4.1-17.8,5.3-3.6,4.5-7.2,8.9-10.8,13.5-6.1,6.4-8.4,7.5-3.8,16.9,6.7,14.9,17.6,23,29.8,32.8,29.6,25.7,61.1,48.8,92.9,71.8,21.6,15.3,69.4,48.2,84.7,10.9,6.6-10,1-9.2.4-18.2,1.3-4.8,4-10.9,9.6-11,20.2-.6,19.5-1,29.7-17.9,6.1-10.7,12.5-21.3,17.5-32.4,9.3-22.9,12.7-47.9,13.7-72.5,4.2-33.4-1-66.6-7.5-99.4-1.5-8.3-6.6-17.5,0-24.8,5.2-5.9,8.7-14.2,15.2-18.4,2.8-.4,7.1,2,9.6-.6,3.7-5.1-4.8-9.2,1-15.3,4.5-5.6,14.2,2.8,12.4-10.2-3.6-9.9,10.2-19.1,13.3-29.1,3.6-10-7.7-17.1-15.6-10Z" fill="#e6c9fe"/>
          <path d="M1692.3,75.8c-7.9,5.8-12.9,14.2-20,20.6-2.9,1.7-7.9-.2-10.6,2.5-3.2,3.7,3.1,9.5-1.1,12.9-2.7,1.9-7.8,0-10.8,2.6-4.4,3.7,1.2,9.3.4,13.6-3.2,6.5-8.9,11.8-13.1,18-3.1,4.4-8.3,5.9-13.5,6.1-12.6.9-25.2,2.3-37.4,5.4-56.6,14.7-126.3,40.1-161.7,89-5.7,6.4-2.1,11.7-.9,18.9,1.1,6.9-2,13.5-5.9,19-5.2,6.3-11.3-4.1-17.8,5.3-3.6,4.5-7.2,8.9-10.8,13.5-6.1,6.4-8.4,7.5-3.8,16.9,6.7,14.9,17.6,23,29.8,32.8,29.6,25.7,61.1,48.8,92.9,71.8,21.6,15.3,69.4,48.2,84.7,10.9,6.6-10,1-9.2.4-18.2,1.3-4.8,4-10.9,9.6-11,20.2-.6,19.5-1,29.7-17.9,6.1-10.7,12.5-21.3,17.5-32.4,9.3-22.9,12.7-47.9,13.7-72.5,4.2-33.4-1-66.6-7.5-99.4-1.5-8.3-6.6-17.5,0-24.8,5.2-5.9,8.7-14.2,15.2-18.4,2.8-.4,7.1,2,9.6-.6,3.7-5.1-4.8-9.2,1-15.3,4.5-5.6,14.2,2.8,12.4-10.2-3.6-9.9,10.2-19.1,13.3-29.1,3.6-10-7.7-17.1-15.6-10ZM1560.4,448c-41.3-12.6-73.2-44.6-107.9-69.2-14.7-11.9-28.9-24.5-43.6-36.5-8.6-6.6-15.5-15.1-19.8-25.1-3.2-7.8,8.9-3,13.8-1,2.6,1.1,4.7,3.2,4.9,6.1,2.9,16.1,29.9,31.6,42.1,42.4,32.6,24.9,65.2,50.1,100.9,70.5,4.7,2.9,10.1,4.3,15.5,2.4,4.3-1.2,6.4,3.8,8.9,6.4,5.3,6.8-12.2,5-14.8,3.8ZM1414.6,323c.9-1.1,3.8,0,5.4.7,23.4,9.3,43.3,25.1,63.2,40.2,26.2,20.4,52.2,38.2,76.1,61.2,1.4,1.5,3.2,5.6,1.8,6.8-3.1,1.3-9.4-1.7-12.3-3.3-24.9-15.7-47.7-31-70.9-49.2-20.5-14.8-38.9-29.4-58-46.1-2-1.7-6.7-7.9-5.3-10.3ZM1590.2,426.5c1.8,4-2.9,8-4.6,11.6-2.9,5.4-4.7,3.8-8.3,0-6.6-6.5-11.5-14.4-18.2-20.7-34.9-30-71.6-58.1-109.3-84.4-16.9-9.8-33.6-19.4-52.5-25-7.8-3.1,3-9.7,5.4-13.4,4.7-5.7,13,1.6,18.4,3.3,39.5,19.5,77.1,42.2,110.1,71.8,21.7,16.9,41.9,35.3,58.9,56.9ZM1588.6,413.7c-3.4-.5-5.6-5.2-8.2-7.4-21-23.7-47-42-71.1-62.3-26.3-22.6-58-36.4-87.1-54.9-1.2-1.9.6-4,1.7-6.3,3.7-10.7,13.4,1.3,19.7,3.2,41.7,19.7,80,47.4,114.6,78.1,12.2,11.3,27.8,19,37.3,33.1,3.7,4.9-2.4,9.8-4.4,14.2-.6.9-1.3,2.1-2.4,2.4ZM1615.7,398.8c-1.1,1.1-2.9,1-4.4,1.1-2.8.1-5.7.8-7.8-.5-4.9-4.8-8.4-11.2-13.5-15.9-10.1-9.4-21.6-17.3-31.9-26.4-34.8-31.2-74.1-57.7-115.8-78.5-8.1-4.9-14.5-6.4-13.8-17.6-.7-8.2,14.9,1.5,18.9,2,28.3,9.2,53.5,25.2,76.6,43.8,17.8,10.7,31.2,26.6,46.6,40.1,9,7.2,16.6,16.1,24.7,24.3,5.9,5.4,20.8,19.9,20.5,27.6ZM1645.4,163.7c11.9,46.2,16.7,93.4,11.2,140.8-2.7,16.2-5.1,33-11.3,48.3-5,11.3-11.4,22-17.4,32.7-3,4.4-5.4,10.7-9.3,2.6-14.5-23-37.5-39-56.8-57.6-11.6-12.6-25.8-21.8-39.9-31.2-27.2-21.4-58.2-37.5-91.5-46.8-1.9-.6-3.1-1.5-2.2-3.3,35.6-46.7,105.7-71.6,161.2-85.7,12.2-2.8,24.6-4.6,37.1-5.4,6.8-.2,17-4.1,18.9,5.6ZM1667.3,134.7c.2.9-.4,1.9-.9,2.7-5.3,7.3-10,15.4-16.7,21.3-2.7-.9-2.8-7.2-7.7-7.9-2.3-.6-2.2-1.5-.9-3.1,5.3-6,9.7-14.1,16-19.4,1.3-.8,10.2,5,10.3,6.5ZM1670.8,131.3c-3.7-1.7-6.8-4.6-10.5-6.9-.4-.3-.9-.7-1-1.2-.2-1.4.9-3,2.4-1.9,3,2.8,11.2,5.7,9.1,10ZM1680,118.6c-.3,1.4-3.6,7.1-5.3,5.7-3.2-2.7-7.9-4.7-10-8.2,1.2-9.9,13.4-3.6,15.3,2.5ZM1684.2,112.3c-3.6-1.5-6.8-4.6-10.2-6.7-.3-.2-.6-.6-.4-1,2-2.3,4.9.4,6.9,1.5,2,.9,5.2,3.4,3.7,6.2ZM1702.6,85.5c-3.2,6.7-8.2,12.2-12.3,18.5-2.1,3.1-3.7,1.4-6.3-.8-1.5-1.5-4.7-3.1-4.9-5.2,4.3-7.3,11.1-14.1,18.3-18.5,4.2-2.4,7.1,2.1,5.2,5.9Z" stroke="#000" stroke-miterlimit="10" stroke-width=".3"/>
        </g>
        <g>
          <path d="M1691.8,75.3c-7.9,5.8-12.9,14.2-20,20.6-2.9,1.7-7.9-.2-10.6,2.5-3.2,3.7,3.1,9.5-1.1,12.9-2.7,1.9-7.8,0-10.8,2.6-4.4,3.7,1.2,9.3.4,13.6-3.2,6.5-8.9,11.8-13.1,18-3.1,4.4-8.3,5.9-13.5,6.1-12.6.9-25.2,2.3-37.4,5.4-56.6,14.7-126.3,40.1-161.7,89-5.7,6.4-2.1,11.7-.9,18.9,1.1,6.9-2,13.5-5.9,19-5.2,6.3-11.3-4.1-17.8,5.3-3.6,4.5-7.2,8.9-10.8,13.5-6.1,6.4-8.4,7.5-3.8,16.9,6.7,14.9,17.6,23,29.8,32.8,29.6,25.7,61.1,48.8,92.9,71.8,21.6,15.3,69.4,48.2,84.7,10.9,6.6-10,1-9.2.4-18.2,1.3-4.8,4-10.9,9.6-11,20.2-.6,19.5-1,29.7-17.9,6.1-10.7,12.5-21.3,17.5-32.4,9.3-22.9,12.7-47.9,13.7-72.5,4.2-33.4-1-66.6-7.5-99.4-1.5-8.3-6.6-17.5,0-24.8,5.2-5.9,8.7-14.2,15.2-18.4,2.8-.4,7.1,2,9.6-.6,3.7-5.1-4.8-9.2,1-15.3,4.5-5.6,14.2,2.8,12.4-10.2-3.6-9.9,10.2-19.1,13.3-29.1,3.6-10-7.7-17.1-15.6-10Z" fill="#e6c9fe"/>
          <path d="M1691.8,75.3c-7.9,5.8-12.9,14.2-20,20.6-2.9,1.7-7.9-.2-10.6,2.5-3.2,3.7,3.1,9.5-1.1,12.9-2.7,1.9-7.8,0-10.8,2.6-4.4,3.7,1.2,9.3.4,13.6-3.2,6.5-8.9,11.8-13.1,18-3.1,4.4-8.3,5.9-13.5,6.1-12.6.9-25.2,2.3-37.4,5.4-56.6,14.7-126.3,40.1-161.7,89-5.7,6.4-2.1,11.7-.9,18.9,1.1,6.9-2,13.5-5.9,19-5.2,6.3-11.3-4.1-17.8,5.3-3.6,4.5-7.2,8.9-10.8,13.5-6.1,6.4-8.4,7.5-3.8,16.9,6.7,14.9,17.6,23,29.8,32.8,29.6,25.7,61.1,48.8,92.9,71.8,21.6,15.3,69.4,48.2,84.7,10.9,6.6-10,1-9.2.4-18.2,1.3-4.8,4-10.9,9.6-11,20.2-.6,19.5-1,29.7-17.9,6.1-10.7,12.5-21.3,17.5-32.4,9.3-22.9,12.7-47.9,13.7-72.5,4.2-33.4-1-66.6-7.5-99.4-1.5-8.3-6.6-17.5,0-24.8,5.2-5.9,8.7-14.2,15.2-18.4,2.8-.4,7.1,2,9.6-.6,3.7-5.1-4.8-9.2,1-15.3,4.5-5.6,14.2,2.8,12.4-10.2-3.6-9.9,10.2-19.1,13.3-29.1,3.6-10-7.7-17.1-15.6-10ZM1559.9,447.5c-41.3-12.6-73.2-44.6-107.9-69.2-14.7-11.9-28.9-24.5-43.6-36.5-8.6-6.6-15.5-15.1-19.8-25.1-3.2-7.8,8.9-3,13.8-1,2.6,1.1,4.7,3.2,4.9,6.1,2.9,16.1,29.9,31.6,42.1,42.4,32.6,24.9,65.2,50.1,100.9,70.5,4.7,2.9,10.1,4.3,15.5,2.4,4.3-1.2,6.4,3.8,8.9,6.4,5.3,6.8-12.2,5-14.8,3.8ZM1414.1,322.5c.9-1.1,3.8,0,5.4.7,23.4,9.3,43.3,25.1,63.2,40.2,26.2,20.4,52.2,38.2,76.1,61.2,1.4,1.5,3.2,5.6,1.8,6.8-3.1,1.3-9.4-1.7-12.3-3.3-24.9-15.7-47.7-31-70.9-49.2-20.5-14.8-38.9-29.4-58-46.1-2-1.7-6.7-7.9-5.3-10.3ZM1589.7,426c1.8,4-2.9,8-4.6,11.6-2.9,5.4-4.7,3.8-8.3,0-6.6-6.5-11.5-14.4-18.2-20.7-34.9-30-71.6-58.1-109.3-84.4-16.9-9.8-33.6-19.4-52.5-25-7.8-3.1,3-9.7,5.4-13.4,4.7-5.7,13,1.6,18.4,3.3,39.5,19.5,77.1,42.2,110.1,71.8,21.7,16.9,41.9,35.3,58.9,56.9ZM1588.1,413.2c-3.4-.5-5.6-5.2-8.2-7.4-21-23.7-47-42-71.1-62.3-26.3-22.6-58-36.4-87.1-54.9-1.2-1.9.6-4,1.7-6.3,3.7-10.7,13.4,1.3,19.7,3.2,41.7,19.7,80,47.4,114.6,78.1,12.2,11.3,27.8,19,37.3,33.1,3.7,4.9-2.4,9.8-4.4,14.2-.6.9-1.3,2.1-2.4,2.4ZM1615.2,398.3c-1.1,1.1-2.9,1-4.4,1.1-2.8.1-5.7.8-7.8-.5-4.9-4.8-8.4-11.2-13.5-15.9-10.1-9.4-21.6-17.3-31.9-26.4-34.8-31.2-74.1-57.7-115.8-78.5-8.1-4.9-14.5-6.4-13.8-17.6-.7-8.2,14.9,1.5,18.9,2,28.3,9.2,53.5,25.2,76.6,43.8,17.8,10.7,31.2,26.6,46.6,40.1,9,7.2,16.6,16.1,24.7,24.3,5.9,5.4,20.8,19.9,20.5,27.6ZM1644.9,163.2c11.9,46.2,16.7,93.4,11.2,140.8-2.7,16.2-5.1,33-11.3,48.3-5,11.3-11.4,22-17.4,32.7-3,4.4-5.4,10.7-9.3,2.6-14.5-23-37.5-39-56.8-57.6-11.6-12.6-25.8-21.8-39.9-31.2-27.2-21.4-58.2-37.5-91.5-46.8-1.9-.6-3.1-1.5-2.2-3.3,35.6-46.7,105.7-71.6,161.2-85.7,12.2-2.8,24.6-4.6,37.1-5.4,6.8-.2,17-4.1,18.9,5.6ZM1666.8,134.2c.2.9-.4,1.9-.9,2.7-5.3,7.3-10,15.4-16.7,21.3-2.7-.9-2.8-7.2-7.7-7.9-2.3-.6-2.2-1.5-.9-3.1,5.3-6,9.7-14.1,16-19.4,1.3-.8,10.2,5,10.3,6.5ZM1670.3,130.8c-3.7-1.7-6.8-4.6-10.5-6.9-.4-.3-.9-.7-1-1.2-.2-1.4.9-3,2.4-1.9,3,2.8,11.2,5.7,9.1,10ZM1679.5,118.1c-.3,1.4-3.6,7.1-5.3,5.7-3.2-2.7-7.9-4.7-10-8.2,1.2-9.9,13.4-3.6,15.3,2.5ZM1683.7,111.8c-3.6-1.5-6.8-4.6-10.2-6.7-.3-.2-.6-.6-.4-1,2-2.3,4.9.4,6.9,1.5,2,.9,5.2,3.4,3.7,6.2ZM1702.1,85c-3.2,6.7-8.2,12.2-12.3,18.5-2.1,3.1-3.7,1.4-6.3-.8-1.5-1.5-4.7-3.1-4.9-5.2,4.3-7.3,11.1-14.1,18.3-18.5,4.2-2.4,7.1,2.1,5.2,5.9Z" stroke="#000" stroke-miterlimit="10" stroke-width=".3"/>
        </g>
        <g>
          <path d="M1691.3,74.8c-7.9,5.8-12.9,14.2-20,20.6-2.9,1.7-7.9-.2-10.6,2.5-3.2,3.7,3.1,9.5-1.1,12.9-2.7,1.9-7.8,0-10.8,2.6-4.4,3.7,1.2,9.3.4,13.6-3.2,6.5-8.9,11.8-13.1,18-3.1,4.4-8.3,5.9-13.5,6.1-12.6.9-25.2,2.3-37.4,5.4-56.6,14.7-126.3,40.1-161.7,89-5.7,6.4-2.1,11.7-.9,18.9,1.1,6.9-2,13.5-5.9,19-5.2,6.3-11.3-4.1-17.8,5.3-3.6,4.5-7.2,8.9-10.8,13.5-6.1,6.4-8.4,7.5-3.8,16.9,6.7,14.9,17.6,23,29.8,32.8,29.6,25.7,61.1,48.8,92.9,71.8,21.6,15.3,69.4,48.2,84.7,10.9,6.6-10,1-9.2.4-18.2,1.3-4.8,4-10.9,9.6-11,20.2-.6,19.5-1,29.7-17.9,6.1-10.7,12.5-21.3,17.5-32.4,9.3-22.9,12.7-47.9,13.7-72.5,4.2-33.4-1-66.6-7.5-99.4-1.5-8.3-6.6-17.5,0-24.8,5.2-5.9,8.7-14.2,15.2-18.4,2.8-.4,7.1,2,9.6-.6,3.7-5.1-4.8-9.2,1-15.3,4.5-5.6,14.2,2.8,12.4-10.2-3.6-9.9,10.2-19.1,13.3-29.1,3.6-10-7.7-17.1-15.6-10Z" fill="#e6c9fe"/>
          <path d="M1691.3,74.8c-7.9,5.8-12.9,14.2-20,20.6-2.9,1.7-7.9-.2-10.6,2.5-3.2,3.7,3.1,9.5-1.1,12.9-2.7,1.9-7.8,0-10.8,2.6-4.4,3.7,1.2,9.3.4,13.6-3.2,6.5-8.9,11.8-13.1,18-3.1,4.4-8.3,5.9-13.5,6.1-12.6.9-25.2,2.3-37.4,5.4-56.6,14.7-126.3,40.1-161.7,89-5.7,6.4-2.1,11.7-.9,18.9,1.1,6.9-2,13.5-5.9,19-5.2,6.3-11.3-4.1-17.8,5.3-3.6,4.5-7.2,8.9-10.8,13.5-6.1,6.4-8.4,7.5-3.8,16.9,6.7,14.9,17.6,23,29.8,32.8,29.6,25.7,61.1,48.8,92.9,71.8,21.6,15.3,69.4,48.2,84.7,10.9,6.6-10,1-9.2.4-18.2,1.3-4.8,4-10.9,9.6-11,20.2-.6,19.5-1,29.7-17.9,6.1-10.7,12.5-21.3,17.5-32.4,9.3-22.9,12.7-47.9,13.7-72.5,4.2-33.4-1-66.6-7.5-99.4-1.5-8.3-6.6-17.5,0-24.8,5.2-5.9,8.7-14.2,15.2-18.4,2.8-.4,7.1,2,9.6-.6,3.7-5.1-4.8-9.2,1-15.3,4.5-5.6,14.2,2.8,12.4-10.2-3.6-9.9,10.2-19.1,13.3-29.1,3.6-10-7.7-17.1-15.6-10ZM1559.4,447c-41.3-12.6-73.2-44.6-107.9-69.2-14.7-11.9-28.9-24.5-43.6-36.5-8.6-6.6-15.5-15.1-19.8-25.1-3.2-7.8,8.9-3,13.8-1,2.6,1.1,4.7,3.2,4.9,6.1,2.9,16.1,29.9,31.6,42.1,42.4,32.6,24.9,65.2,50.1,100.9,70.5,4.7,2.9,10.1,4.3,15.5,2.4,4.3-1.2,6.4,3.8,8.9,6.4,5.3,6.8-12.2,5-14.8,3.8ZM1413.6,322c.9-1.1,3.8,0,5.4.7,23.4,9.3,43.3,25.1,63.2,40.2,26.2,20.4,52.2,38.2,76.1,61.2,1.4,1.5,3.2,5.6,1.8,6.8-3.1,1.3-9.4-1.7-12.3-3.3-24.9-15.7-47.7-31-70.9-49.2-20.5-14.8-38.9-29.4-58-46.1-2-1.7-6.7-7.9-5.3-10.3ZM1589.2,425.5c1.8,4-2.9,8-4.6,11.6-2.9,5.4-4.7,3.8-8.3,0-6.6-6.5-11.5-14.4-18.2-20.7-34.9-30-71.6-58.1-109.3-84.4-16.9-9.8-33.6-19.4-52.5-25-7.8-3.1,3-9.7,5.4-13.4,4.7-5.7,13,1.6,18.4,3.3,39.5,19.5,77.1,42.2,110.1,71.8,21.7,16.9,41.9,35.3,58.9,56.9ZM1587.6,412.7c-3.4-.5-5.6-5.2-8.2-7.4-21-23.7-47-42-71.1-62.3-26.3-22.6-58-36.4-87.1-54.9-1.2-1.9.6-4,1.7-6.3,3.7-10.7,13.4,1.3,19.7,3.2,41.7,19.7,80,47.4,114.6,78.1,12.2,11.3,27.8,19,37.3,33.1,3.7,4.9-2.4,9.8-4.4,14.2-.6.9-1.3,2.1-2.4,2.4ZM1614.7,397.8c-1.1,1.1-2.9,1-4.4,1.1-2.8.1-5.7.8-7.8-.5-4.9-4.8-8.4-11.2-13.5-15.9-10.1-9.4-21.6-17.3-31.9-26.4-34.8-31.2-74.1-57.7-115.8-78.5-8.1-4.9-14.5-6.4-13.8-17.6-.7-8.2,14.9,1.5,18.9,2,28.3,9.2,53.5,25.2,76.6,43.8,17.8,10.7,31.2,26.6,46.6,40.1,9,7.2,16.6,16.1,24.7,24.3,5.9,5.4,20.8,19.9,20.5,27.6ZM1644.4,162.7c11.9,46.2,16.7,93.4,11.2,140.8-2.7,16.2-5.1,33-11.3,48.3-5,11.3-11.4,22-17.4,32.7-3,4.4-5.4,10.7-9.3,2.6-14.5-23-37.5-39-56.8-57.6-11.6-12.6-25.8-21.8-39.9-31.2-27.2-21.4-58.2-37.5-91.5-46.8-1.9-.6-3.1-1.5-2.2-3.3,35.6-46.7,105.7-71.6,161.2-85.7,12.2-2.8,24.6-4.6,37.1-5.4,6.8-.2,17-4.1,18.9,5.6ZM1666.3,133.7c.2.9-.4,1.9-.9,2.7-5.3,7.3-10,15.4-16.7,21.3-2.7-.9-2.8-7.2-7.7-7.9-2.3-.6-2.2-1.5-.9-3.1,5.3-6,9.7-14.1,16-19.4,1.3-.8,10.2,5,10.3,6.5ZM1669.8,130.3c-3.7-1.7-6.8-4.6-10.5-6.9-.4-.3-.9-.7-1-1.2-.2-1.4.9-3,2.4-1.9,3,2.8,11.2,5.7,9.1,10ZM1679,117.6c-.3,1.4-3.6,7.1-5.3,5.7-3.2-2.7-7.9-4.7-10-8.2,1.2-9.9,13.4-3.6,15.3,2.5ZM1683.2,111.3c-3.6-1.5-6.8-4.6-10.2-6.7-.3-.2-.6-.6-.4-1,2-2.3,4.9.4,6.9,1.5,2,.9,5.2,3.4,3.7,6.2ZM1701.6,84.5c-3.2,6.7-8.2,12.2-12.3,18.5-2.1,3.1-3.7,1.4-6.3-.8-1.5-1.5-4.7-3.1-4.9-5.2,4.3-7.3,11.1-14.1,18.3-18.5,4.2-2.4,7.1,2.1,5.2,5.9Z" stroke="#000" stroke-miterlimit="10" stroke-width=".3"/>
        </g>
        <g>
          <path d="M1690.8,74.3c-7.9,5.8-12.9,14.2-20,20.6-2.9,1.7-7.9-.2-10.6,2.5-3.2,3.7,3.1,9.5-1.1,12.9-2.7,1.9-7.8,0-10.8,2.6-4.4,3.7,1.2,9.3.4,13.6-3.2,6.5-8.9,11.8-13.1,18-3.1,4.4-8.3,5.9-13.5,6.1-12.6.9-25.2,2.3-37.4,5.4-56.6,14.7-126.3,40.1-161.7,89-5.7,6.4-2.1,11.7-.9,18.9,1.1,6.9-2,13.5-5.9,19-5.2,6.3-11.3-4.1-17.8,5.3-3.6,4.5-7.2,8.9-10.8,13.5-6.1,6.4-8.4,7.5-3.8,16.9,6.7,14.9,17.6,23,29.8,32.8,29.6,25.7,61.1,48.8,92.9,71.8,21.6,15.3,69.4,48.2,84.7,10.9,6.6-10,1-9.2.4-18.2,1.3-4.8,4-10.9,9.6-11,20.2-.6,19.5-1,29.7-17.9,6.1-10.7,12.5-21.3,17.5-32.4,9.3-22.9,12.7-47.9,13.7-72.5,4.2-33.4-1-66.6-7.5-99.4-1.5-8.3-6.6-17.5,0-24.8,5.2-5.9,8.7-14.2,15.2-18.4,2.8-.4,7.1,2,9.6-.6,3.7-5.1-4.8-9.2,1-15.3,4.5-5.6,14.2,2.8,12.4-10.2-3.6-9.9,10.2-19.1,13.3-29.1,3.6-10-7.7-17.1-15.6-10Z" fill="#e6c9fe"/>
          <path d="M1690.8,74.3c-7.9,5.8-12.9,14.2-20,20.6-2.9,1.7-7.9-.2-10.6,2.5-3.2,3.7,3.1,9.5-1.1,12.9-2.7,1.9-7.8,0-10.8,2.6-4.4,3.7,1.2,9.3.4,13.6-3.2,6.5-8.9,11.8-13.1,18-3.1,4.4-8.3,5.9-13.5,6.1-12.6.9-25.2,2.3-37.4,5.4-56.6,14.7-126.3,40.1-161.7,89-5.7,6.4-2.1,11.7-.9,18.9,1.1,6.9-2,13.5-5.9,19-5.2,6.3-11.3-4.1-17.8,5.3-3.6,4.5-7.2,8.9-10.8,13.5-6.1,6.4-8.4,7.5-3.8,16.9,6.7,14.9,17.6,23,29.8,32.8,29.6,25.7,61.1,48.8,92.9,71.8,21.6,15.3,69.4,48.2,84.7,10.9,6.6-10,1-9.2.4-18.2,1.3-4.8,4-10.9,9.6-11,20.2-.6,19.5-1,29.7-17.9,6.1-10.7,12.5-21.3,17.5-32.4,9.3-22.9,12.7-47.9,13.7-72.5,4.2-33.4-1-66.6-7.5-99.4-1.5-8.3-6.6-17.5,0-24.8,5.2-5.9,8.7-14.2,15.2-18.4,2.8-.4,7.1,2,9.6-.6,3.7-5.1-4.8-9.2,1-15.3,4.5-5.6,14.2,2.8,12.4-10.2-3.6-9.9,10.2-19.1,13.3-29.1,3.6-10-7.7-17.1-15.6-10ZM1558.9,446.5c-41.3-12.6-73.2-44.6-107.9-69.2-14.7-11.9-28.9-24.5-43.6-36.5-8.6-6.6-15.5-15.1-19.8-25.1-3.2-7.8,8.9-3,13.8-1,2.6,1.1,4.7,3.2,4.9,6.1,2.9,16.1,29.9,31.6,42.1,42.4,32.6,24.9,65.2,50.1,100.9,70.5,4.7,2.9,10.1,4.3,15.5,2.4,4.3-1.2,6.4,3.8,8.9,6.4,5.3,6.8-12.2,5-14.8,3.8ZM1413.1,321.5c.9-1.1,3.8,0,5.4.7,23.4,9.3,43.3,25.1,63.2,40.2,26.2,20.4,52.2,38.2,76.1,61.2,1.4,1.5,3.2,5.6,1.8,6.8-3.1,1.3-9.4-1.7-12.3-3.3-24.9-15.7-47.7-31-70.9-49.2-20.5-14.8-38.9-29.4-58-46.1-2-1.7-6.7-7.9-5.3-10.3ZM1588.7,425c1.8,4-2.9,8-4.6,11.6-2.9,5.4-4.7,3.8-8.3,0-6.6-6.5-11.5-14.4-18.2-20.7-34.9-30-71.6-58.1-109.3-84.4-16.9-9.8-33.6-19.4-52.5-25-7.8-3.1,3-9.7,5.4-13.4,4.7-5.7,13,1.6,18.4,3.3,39.5,19.5,77.1,42.2,110.1,71.8,21.7,16.9,41.9,35.3,58.9,56.9ZM1587.1,412.2c-3.4-.5-5.6-5.2-8.2-7.4-21-23.7-47-42-71.1-62.3-26.3-22.6-58-36.4-87.1-54.9-1.2-1.9.6-4,1.7-6.3,3.7-10.7,13.4,1.3,19.7,3.2,41.7,19.7,80,47.4,114.6,78.1,12.2,11.3,27.8,19,37.3,33.1,3.7,4.9-2.4,9.8-4.4,14.2-.6.9-1.3,2.1-2.4,2.4ZM1614.2,397.3c-1.1,1.1-2.9,1-4.4,1.1-2.8.1-5.7.8-7.8-.5-4.9-4.8-8.4-11.2-13.5-15.9-10.1-9.4-21.6-17.3-31.9-26.4-34.8-31.2-74.1-57.7-115.8-78.5-8.1-4.9-14.5-6.4-13.8-17.6-.7-8.2,14.9,1.5,18.9,2,28.3,9.2,53.5,25.2,76.6,43.8,17.8,10.7,31.2,26.6,46.6,40.1,9,7.2,16.6,16.1,24.7,24.3,5.9,5.4,20.8,19.9,20.5,27.6ZM1643.9,162.2c11.9,46.2,16.7,93.4,11.2,140.8-2.7,16.2-5.1,33-11.3,48.3-5,11.3-11.4,22-17.4,32.7-3,4.4-5.4,10.7-9.3,2.6-14.5-23-37.5-39-56.8-57.6-11.6-12.6-25.8-21.8-39.9-31.2-27.2-21.4-58.2-37.5-91.5-46.8-1.9-.6-3.1-1.5-2.2-3.3,35.6-46.7,105.7-71.6,161.2-85.7,12.2-2.8,24.6-4.6,37.1-5.4,6.8-.2,17-4.1,18.9,5.6ZM1665.8,133.2c.2.9-.4,1.9-.9,2.7-5.3,7.3-10,15.4-16.7,21.3-2.7-.9-2.8-7.2-7.7-7.9-2.3-.6-2.2-1.5-.9-3.1,5.3-6,9.7-14.1,16-19.4,1.3-.8,10.2,5,10.3,6.5ZM1669.3,129.8c-3.7-1.7-6.8-4.6-10.5-6.9-.4-.3-.9-.7-1-1.2-.2-1.4.9-3,2.4-1.9,3,2.8,11.2,5.7,9.1,10ZM1678.5,117.1c-.3,1.4-3.6,7.1-5.3,5.7-3.2-2.7-7.9-4.7-10-8.2,1.2-9.9,13.4-3.6,15.3,2.5ZM1682.7,110.8c-3.6-1.5-6.8-4.6-10.2-6.7-.3-.2-.6-.6-.4-1,2-2.3,4.9.4,6.9,1.5,2,.9,5.2,3.4,3.7,6.2ZM1701.1,84c-3.2,6.7-8.2,12.2-12.3,18.5-2.1,3.1-3.7,1.4-6.3-.8-1.5-1.5-4.7-3.1-4.9-5.2,4.3-7.3,11.1-14.1,18.3-18.5,4.2-2.4,7.1,2.1,5.2,5.9Z" stroke="#000" stroke-miterlimit="10" stroke-width=".3"/>
        </g>
        <g>
          <path d="M1690.3,73.8c-7.9,5.8-12.9,14.2-20,20.6-2.9,1.7-7.9-.2-10.6,2.5-3.2,3.7,3.1,9.5-1.1,12.9-2.7,1.9-7.8,0-10.8,2.6-4.4,3.7,1.2,9.3.4,13.6-3.2,6.5-8.9,11.8-13.1,18-3.1,4.4-8.3,5.9-13.5,6.1-12.6.9-25.2,2.3-37.4,5.4-56.6,14.7-126.3,40.1-161.7,89-5.7,6.4-2.1,11.7-.9,18.9,1.1,6.9-2,13.5-5.9,19-5.2,6.3-11.3-4.1-17.8,5.3-3.6,4.5-7.2,8.9-10.8,13.5-6.1,6.4-8.4,7.5-3.8,16.9,6.7,14.9,17.6,23,29.8,32.8,29.6,25.7,61.1,48.8,92.9,71.8,21.6,15.3,69.4,48.2,84.7,10.9,6.6-10,1-9.2.4-18.2,1.3-4.8,4-10.9,9.6-11,20.2-.6,19.5-1,29.7-17.9,6.1-10.7,12.5-21.3,17.5-32.4,9.3-22.9,12.7-47.9,13.7-72.5,4.2-33.4-1-66.6-7.5-99.4-1.5-8.3-6.6-17.5,0-24.8,5.2-5.9,8.7-14.2,15.2-18.4,2.8-.4,7.1,2,9.6-.6,3.7-5.1-4.8-9.2,1-15.3,4.5-5.6,14.2,2.8,12.4-10.2-3.6-9.9,10.2-19.1,13.3-29.1,3.6-10-7.7-17.1-15.6-10Z" fill="#e6c9fe"/>
          <path d="M1690.3,73.8c-7.9,5.8-12.9,14.2-20,20.6-2.9,1.7-7.9-.2-10.6,2.5-3.2,3.7,3.1,9.5-1.1,12.9-2.7,1.9-7.8,0-10.8,2.6-4.4,3.7,1.2,9.3.4,13.6-3.2,6.5-8.9,11.8-13.1,18-3.1,4.4-8.3,5.9-13.5,6.1-12.6.9-25.2,2.3-37.4,5.4-56.6,14.7-126.3,40.1-161.7,89-5.7,6.4-2.1,11.7-.9,18.9,1.1,6.9-2,13.5-5.9,19-5.2,6.3-11.3-4.1-17.8,5.3-3.6,4.5-7.2,8.9-10.8,13.5-6.1,6.4-8.4,7.5-3.8,16.9,6.7,14.9,17.6,23,29.8,32.8,29.6,25.7,61.1,48.8,92.9,71.8,21.6,15.3,69.4,48.2,84.7,10.9,6.6-10,1-9.2.4-18.2,1.3-4.8,4-10.9,9.6-11,20.2-.6,19.5-1,29.7-17.9,6.1-10.7,12.5-21.3,17.5-32.4,9.3-22.9,12.7-47.9,13.7-72.5,4.2-33.4-1-66.6-7.5-99.4-1.5-8.3-6.6-17.5,0-24.8,5.2-5.9,8.7-14.2,15.2-18.4,2.8-.4,7.1,2,9.6-.6,3.7-5.1-4.8-9.2,1-15.3,4.5-5.6,14.2,2.8,12.4-10.2-3.6-9.9,10.2-19.1,13.3-29.1,3.6-10-7.7-17.1-15.6-10ZM1558.4,446c-41.3-12.6-73.2-44.6-107.9-69.2-14.7-11.9-28.9-24.5-43.6-36.5-8.6-6.6-15.5-15.1-19.8-25.1-3.2-7.8,8.9-3,13.8-1,2.6,1.1,4.7,3.2,4.9,6.1,2.9,16.1,29.9,31.6,42.1,42.4,32.6,24.9,65.2,50.1,100.9,70.5,4.7,2.9,10.1,4.3,15.5,2.4,4.3-1.2,6.4,3.8,8.9,6.4,5.3,6.8-12.2,5-14.8,3.8ZM1412.6,321c.9-1.1,3.8,0,5.4.7,23.4,9.3,43.3,25.1,63.2,40.2,26.2,20.4,52.2,38.2,76.1,61.2,1.4,1.5,3.2,5.6,1.8,6.8-3.1,1.3-9.4-1.7-12.3-3.3-24.9-15.7-47.7-31-70.9-49.2-20.5-14.8-38.9-29.4-58-46.1-2-1.7-6.7-7.9-5.3-10.3ZM1588.2,424.5c1.8,4-2.9,8-4.6,11.6-2.9,5.4-4.7,3.8-8.3,0-6.6-6.5-11.5-14.4-18.2-20.7-34.9-30-71.6-58.1-109.3-84.4-16.9-9.8-33.6-19.4-52.5-25-7.8-3.1,3-9.7,5.4-13.4,4.7-5.7,13,1.6,18.4,3.3,39.5,19.5,77.1,42.2,110.1,71.8,21.7,16.9,41.9,35.3,58.9,56.9ZM1586.6,411.7c-3.4-.5-5.6-5.2-8.2-7.4-21-23.7-47-42-71.1-62.3-26.3-22.6-58-36.4-87.1-54.9-1.2-1.9.6-4,1.7-6.3,3.7-10.7,13.4,1.3,19.7,3.2,41.7,19.7,80,47.4,114.6,78.1,12.2,11.3,27.8,19,37.3,33.1,3.7,4.9-2.4,9.8-4.4,14.2-.6.9-1.3,2.1-2.4,2.4ZM1613.7,396.8c-1.1,1.1-2.9,1-4.4,1.1-2.8.1-5.7.8-7.8-.5-4.9-4.8-8.4-11.2-13.5-15.9-10.1-9.4-21.6-17.3-31.9-26.4-34.8-31.2-74.1-57.7-115.8-78.5-8.1-4.9-14.5-6.4-13.8-17.6-.7-8.2,14.9,1.5,18.9,2,28.3,9.2,53.5,25.2,76.6,43.8,17.8,10.7,31.2,26.6,46.6,40.1,9,7.2,16.6,16.1,24.7,24.3,5.9,5.4,20.8,19.9,20.5,27.6ZM1643.4,161.7c11.9,46.2,16.7,93.4,11.2,140.8-2.7,16.2-5.1,33-11.3,48.3-5,11.3-11.4,22-17.4,32.7-3,4.4-5.4,10.7-9.3,2.6-14.5-23-37.5-39-56.8-57.6-11.6-12.6-25.8-21.8-39.9-31.2-27.2-21.4-58.2-37.5-91.5-46.8-1.9-.6-3.1-1.5-2.2-3.3,35.6-46.7,105.7-71.6,161.2-85.7,12.2-2.8,24.6-4.6,37.1-5.4,6.8-.2,17-4.1,18.9,5.6ZM1665.3,132.7c.2.9-.4,1.9-.9,2.7-5.3,7.3-10,15.4-16.7,21.3-2.7-.9-2.8-7.2-7.7-7.9-2.3-.6-2.2-1.5-.9-3.1,5.3-6,9.7-14.1,16-19.4,1.3-.8,10.2,5,10.3,6.5ZM1668.8,129.3c-3.7-1.7-6.8-4.6-10.5-6.9-.4-.3-.9-.7-1-1.2-.2-1.4.9-3,2.4-1.9,3,2.8,11.2,5.7,9.1,10ZM1678,116.6c-.3,1.4-3.6,7.1-5.3,5.7-3.2-2.7-7.9-4.7-10-8.2,1.2-9.9,13.4-3.6,15.3,2.5ZM1682.2,110.3c-3.6-1.5-6.8-4.6-10.2-6.7-.3-.2-.6-.6-.4-1,2-2.3,4.9.4,6.9,1.5,2,.9,5.2,3.4,3.7,6.2ZM1700.6,83.5c-3.2,6.7-8.2,12.2-12.3,18.5-2.1,3.1-3.7,1.4-6.3-.8-1.5-1.5-4.7-3.1-4.9-5.2,4.3-7.3,11.1-14.1,18.3-18.5,4.2-2.4,7.1,2.1,5.2,5.9Z" stroke="#000" stroke-miterlimit="10" stroke-width=".3"/>
        </g>
        <g>
          <path d="M1689.8,73.3c-7.9,5.8-12.9,14.2-20,20.6-2.9,1.7-7.9-.2-10.6,2.5-3.2,3.7,3.1,9.5-1.1,12.9-2.7,1.9-7.8,0-10.8,2.6-4.4,3.7,1.2,9.3.4,13.6-3.2,6.5-8.9,11.8-13.1,18-3.1,4.4-8.3,5.9-13.5,6.1-12.6.9-25.2,2.3-37.4,5.4-56.6,14.7-126.3,40.1-161.7,89-5.7,6.4-2.1,11.7-.9,18.9,1.1,6.9-2,13.5-5.9,19-5.2,6.3-11.3-4.1-17.8,5.3-3.6,4.5-7.2,8.9-10.8,13.5-6.1,6.4-8.4,7.5-3.8,16.9,6.7,14.9,17.6,23,29.8,32.8,29.6,25.7,61.1,48.8,92.9,71.8,21.6,15.3,69.4,48.2,84.7,10.9,6.6-10,1-9.2.4-18.2,1.3-4.8,4-10.9,9.6-11,20.2-.6,19.5-1,29.7-17.9,6.1-10.7,12.5-21.3,17.5-32.4,9.3-22.9,12.7-47.9,13.7-72.5,4.2-33.4-1-66.6-7.5-99.4-1.5-8.3-6.6-17.5,0-24.8,5.2-5.9,8.7-14.2,15.2-18.4,2.8-.4,7.1,2,9.6-.6,3.7-5.1-4.8-9.2,1-15.3,4.5-5.6,14.2,2.8,12.4-10.2-3.6-9.9,10.2-19.1,13.3-29.1,3.6-10-7.7-17.1-15.6-10Z" fill="#e6c9fe"/>
          <path d="M1689.8,73.3c-7.9,5.8-12.9,14.2-20,20.6-2.9,1.7-7.9-.2-10.6,2.5-3.2,3.7,3.1,9.5-1.1,12.9-2.7,1.9-7.8,0-10.8,2.6-4.4,3.7,1.2,9.3.4,13.6-3.2,6.5-8.9,11.8-13.1,18-3.1,4.4-8.3,5.9-13.5,6.1-12.6.9-25.2,2.3-37.4,5.4-56.6,14.7-126.3,40.1-161.7,89-5.7,6.4-2.1,11.7-.9,18.9,1.1,6.9-2,13.5-5.9,19-5.2,6.3-11.3-4.1-17.8,5.3-3.6,4.5-7.2,8.9-10.8,13.5-6.1,6.4-8.4,7.5-3.8,16.9,6.7,14.9,17.6,23,29.8,32.8,29.6,25.7,61.1,48.8,92.9,71.8,21.6,15.3,69.4,48.2,84.7,10.9,6.6-10,1-9.2.4-18.2,1.3-4.8,4-10.9,9.6-11,20.2-.6,19.5-1,29.7-17.9,6.1-10.7,12.5-21.3,17.5-32.4,9.3-22.9,12.7-47.9,13.7-72.5,4.2-33.4-1-66.6-7.5-99.4-1.5-8.3-6.6-17.5,0-24.8,5.2-5.9,8.7-14.2,15.2-18.4,2.8-.4,7.1,2,9.6-.6,3.7-5.1-4.8-9.2,1-15.3,4.5-5.6,14.2,2.8,12.4-10.2-3.6-9.9,10.2-19.1,13.3-29.1,3.6-10-7.7-17.1-15.6-10ZM1557.9,445.5c-41.3-12.6-73.2-44.6-107.9-69.2-14.7-11.9-28.9-24.5-43.6-36.5-8.6-6.6-15.5-15.1-19.8-25.1-3.2-7.8,8.9-3,13.8-1,2.6,1.1,4.7,3.2,4.9,6.1,2.9,16.1,29.9,31.6,42.1,42.4,32.6,24.9,65.2,50.1,100.9,70.5,4.7,2.9,10.1,4.3,15.5,2.4,4.3-1.2,6.4,3.8,8.9,6.4,5.3,6.8-12.2,5-14.8,3.8ZM1412.1,320.5c.9-1.1,3.8,0,5.4.7,23.4,9.3,43.3,25.1,63.2,40.2,26.2,20.4,52.2,38.2,76.1,61.2,1.4,1.5,3.2,5.6,1.8,6.8-3.1,1.3-9.4-1.7-12.3-3.3-24.9-15.7-47.7-31-70.9-49.2-20.5-14.8-38.9-29.4-58-46.1-2-1.7-6.7-7.9-5.3-10.3ZM1587.7,424c1.8,4-2.9,8-4.6,11.6-2.9,5.4-4.7,3.8-8.3,0-6.6-6.5-11.5-14.4-18.2-20.7-34.9-30-71.6-58.1-109.3-84.4-16.9-9.8-33.6-19.4-52.5-25-7.8-3.1,3-9.7,5.4-13.4,4.7-5.7,13,1.6,18.4,3.3,39.5,19.5,77.1,42.2,110.1,71.8,21.7,16.9,41.9,35.3,58.9,56.9ZM1586.1,411.2c-3.4-.5-5.6-5.2-8.2-7.4-21-23.7-47-42-71.1-62.3-26.3-22.6-58-36.4-87.1-54.9-1.2-1.9.6-4,1.7-6.3,3.7-10.7,13.4,1.3,19.7,3.2,41.7,19.7,80,47.4,114.6,78.1,12.2,11.3,27.8,19,37.3,33.1,3.7,4.9-2.4,9.8-4.4,14.2-.6.9-1.3,2.1-2.4,2.4ZM1613.2,396.3c-1.1,1.1-2.9,1-4.4,1.1-2.8.1-5.7.8-7.8-.5-4.9-4.8-8.4-11.2-13.5-15.9-10.1-9.4-21.6-17.3-31.9-26.4-34.8-31.2-74.1-57.7-115.8-78.5-8.1-4.9-14.5-6.4-13.8-17.6-.7-8.2,14.9,1.5,18.9,2,28.3,9.2,53.5,25.2,76.6,43.8,17.8,10.7,31.2,26.6,46.6,40.1,9,7.2,16.6,16.1,24.7,24.3,5.9,5.4,20.8,19.9,20.5,27.6ZM1642.9,161.2c11.9,46.2,16.7,93.4,11.2,140.8-2.7,16.2-5.1,33-11.3,48.3-5,11.3-11.4,22-17.4,32.7-3,4.4-5.4,10.7-9.3,2.6-14.5-23-37.5-39-56.8-57.6-11.6-12.6-25.8-21.8-39.9-31.2-27.2-21.4-58.2-37.5-91.5-46.8-1.9-.6-3.1-1.5-2.2-3.3,35.6-46.7,105.7-71.6,161.2-85.7,12.2-2.8,24.6-4.6,37.1-5.4,6.8-.2,17-4.1,18.9,5.6ZM1664.8,132.2c.2.9-.4,1.9-.9,2.7-5.3,7.3-10,15.4-16.7,21.3-2.7-.9-2.8-7.2-7.7-7.9-2.3-.6-2.2-1.5-.9-3.1,5.3-6,9.7-14.1,16-19.4,1.3-.8,10.2,5,10.3,6.5ZM1668.3,128.8c-3.7-1.7-6.8-4.6-10.5-6.9-.4-.3-.9-.7-1-1.2-.2-1.4.9-3,2.4-1.9,3,2.8,11.2,5.7,9.1,10ZM1677.5,116.1c-.3,1.4-3.6,7.1-5.3,5.7-3.2-2.7-7.9-4.7-10-8.2,1.2-9.9,13.4-3.6,15.3,2.5ZM1681.7,109.8c-3.6-1.5-6.8-4.6-10.2-6.7-.3-.2-.6-.6-.4-1,2-2.3,4.9.4,6.9,1.5,2,.9,5.2,3.4,3.7,6.2ZM1700.1,83c-3.2,6.7-8.2,12.2-12.3,18.5-2.1,3.1-3.7,1.4-6.3-.8-1.5-1.5-4.7-3.1-4.9-5.2,4.3-7.3,11.1-14.1,18.3-18.5,4.2-2.4,7.1,2.1,5.2,5.9Z" stroke="#000" stroke-miterlimit="10" stroke-width=".3"/>
        </g>
        <g>
          <path d="M1689.3,72.8c-7.9,5.8-12.9,14.2-20,20.6-2.9,1.7-7.9-.2-10.6,2.5-3.2,3.7,3.1,9.5-1.1,12.9-2.7,1.9-7.8,0-10.8,2.6-4.4,3.7,1.2,9.3.4,13.6-3.2,6.5-8.9,11.8-13.1,18-3.1,4.4-8.3,5.9-13.5,6.1-12.6.9-25.2,2.3-37.4,5.4-56.6,14.7-126.3,40.1-161.7,89-5.7,6.4-2.1,11.7-.9,18.9,1.1,6.9-2,13.5-5.9,19-5.2,6.3-11.3-4.1-17.8,5.3-3.6,4.5-7.2,8.9-10.8,13.5-6.1,6.4-8.4,7.5-3.8,16.9,6.7,14.9,17.6,23,29.8,32.8,29.6,25.7,61.1,48.8,92.9,71.8,21.6,15.3,69.4,48.2,84.7,10.9,6.6-10,1-9.2.4-18.2,1.3-4.8,4-10.9,9.6-11,20.2-.6,19.5-1,29.7-17.9,6.1-10.7,12.5-21.3,17.5-32.4,9.3-22.9,12.7-47.9,13.7-72.5,4.2-33.4-1-66.6-7.5-99.4-1.5-8.3-6.6-17.5,0-24.8,5.2-5.9,8.7-14.2,15.2-18.4,2.8-.4,7.1,2,9.6-.6,3.7-5.1-4.8-9.2,1-15.3,4.5-5.6,14.2,2.8,12.4-10.2-3.6-9.9,10.2-19.1,13.3-29.1,3.6-10-7.7-17.1-15.6-10Z" fill="#e6c9fe"/>
          <path d="M1689.3,72.8c-7.9,5.8-12.9,14.2-20,20.6-2.9,1.7-7.9-.2-10.6,2.5-3.2,3.7,3.1,9.5-1.1,12.9-2.7,1.9-7.8,0-10.8,2.6-4.4,3.7,1.2,9.3.4,13.6-3.2,6.5-8.9,11.8-13.1,18-3.1,4.4-8.3,5.9-13.5,6.1-12.6.9-25.2,2.3-37.4,5.4-56.6,14.7-126.3,40.1-161.7,89-5.7,6.4-2.1,11.7-.9,18.9,1.1,6.9-2,13.5-5.9,19-5.2,6.3-11.3-4.1-17.8,5.3-3.6,4.5-7.2,8.9-10.8,13.5-6.1,6.4-8.4,7.5-3.8,16.9,6.7,14.9,17.6,23,29.8,32.8,29.6,25.7,61.1,48.8,92.9,71.8,21.6,15.3,69.4,48.2,84.7,10.9,6.6-10,1-9.2.4-18.2,1.3-4.8,4-10.9,9.6-11,20.2-.6,19.5-1,29.7-17.9,6.1-10.7,12.5-21.3,17.5-32.4,9.3-22.9,12.7-47.9,13.7-72.5,4.2-33.4-1-66.6-7.5-99.4-1.5-8.3-6.6-17.5,0-24.8,5.2-5.9,8.7-14.2,15.2-18.4,2.8-.4,7.1,2,9.6-.6,3.7-5.1-4.8-9.2,1-15.3,4.5-5.6,14.2,2.8,12.4-10.2-3.6-9.9,10.2-19.1,13.3-29.1,3.6-10-7.7-17.1-15.6-10ZM1557.4,445c-41.3-12.6-73.2-44.6-107.9-69.2-14.7-11.9-28.9-24.5-43.6-36.5-8.6-6.6-15.5-15.1-19.8-25.1-3.2-7.8,8.9-3,13.8-1,2.6,1.1,4.7,3.2,4.9,6.1,2.9,16.1,29.9,31.6,42.1,42.4,32.6,24.9,65.2,50.1,100.9,70.5,4.7,2.9,10.1,4.3,15.5,2.4,4.3-1.2,6.4,3.8,8.9,6.4,5.3,6.8-12.2,5-14.8,3.8ZM1411.6,320c.9-1.1,3.8,0,5.4.7,23.4,9.3,43.3,25.1,63.2,40.2,26.2,20.4,52.2,38.2,76.1,61.2,1.4,1.5,3.2,5.6,1.8,6.8-3.1,1.3-9.4-1.7-12.3-3.3-24.9-15.7-47.7-31-70.9-49.2-20.5-14.8-38.9-29.4-58-46.1-2-1.7-6.7-7.9-5.3-10.3ZM1587.2,423.5c1.8,4-2.9,8-4.6,11.6-2.9,5.4-4.7,3.8-8.3,0-6.6-6.5-11.5-14.4-18.2-20.7-34.9-30-71.6-58.1-109.3-84.4-16.9-9.8-33.6-19.4-52.5-25-7.8-3.1,3-9.7,5.4-13.4,4.7-5.7,13,1.6,18.4,3.3,39.5,19.5,77.1,42.2,110.1,71.8,21.7,16.9,41.9,35.3,58.9,56.9ZM1585.6,410.7c-3.4-.5-5.6-5.2-8.2-7.4-21-23.7-47-42-71.1-62.3-26.3-22.6-58-36.4-87.1-54.9-1.2-1.9.6-4,1.7-6.3,3.7-10.7,13.4,1.3,19.7,3.2,41.7,19.7,80,47.4,114.6,78.1,12.2,11.3,27.8,19,37.3,33.1,3.7,4.9-2.4,9.8-4.4,14.2-.6.9-1.3,2.1-2.4,2.4ZM1612.7,395.8c-1.1,1.1-2.9,1-4.4,1.1-2.8.1-5.7.8-7.8-.5-4.9-4.8-8.4-11.2-13.5-15.9-10.1-9.4-21.6-17.3-31.9-26.4-34.8-31.2-74.1-57.7-115.8-78.5-8.1-4.9-14.5-6.4-13.8-17.6-.7-8.2,14.9,1.5,18.9,2,28.3,9.2,53.5,25.2,76.6,43.8,17.8,10.7,31.2,26.6,46.6,40.1,9,7.2,16.6,16.1,24.7,24.3,5.9,5.4,20.8,19.9,20.5,27.6ZM1642.4,160.7c11.9,46.2,16.7,93.4,11.2,140.8-2.7,16.2-5.1,33-11.3,48.3-5,11.3-11.4,22-17.4,32.7-3,4.4-5.4,10.7-9.3,2.6-14.5-23-37.5-39-56.8-57.6-11.6-12.6-25.8-21.8-39.9-31.2-27.2-21.4-58.2-37.5-91.5-46.8-1.9-.6-3.1-1.5-2.2-3.3,35.6-46.7,105.7-71.6,161.2-85.7,12.2-2.8,24.6-4.6,37.1-5.4,6.8-.2,17-4.1,18.9,5.6ZM1664.3,131.7c.2.9-.4,1.9-.9,2.7-5.3,7.3-10,15.4-16.7,21.3-2.7-.9-2.8-7.2-7.7-7.9-2.3-.6-2.2-1.5-.9-3.1,5.3-6,9.7-14.1,16-19.4,1.3-.8,10.2,5,10.3,6.5ZM1667.8,128.3c-3.7-1.7-6.8-4.6-10.5-6.9-.4-.3-.9-.7-1-1.2-.2-1.4.9-3,2.4-1.9,3,2.8,11.2,5.7,9.1,10ZM1677,115.6c-.3,1.4-3.6,7.1-5.3,5.7-3.2-2.7-7.9-4.7-10-8.2,1.2-9.9,13.4-3.6,15.3,2.5ZM1681.2,109.3c-3.6-1.5-6.8-4.6-10.2-6.7-.3-.2-.6-.6-.4-1,2-2.3,4.9.4,6.9,1.5,2,.9,5.2,3.4,3.7,6.2ZM1699.6,82.5c-3.2,6.7-8.2,12.2-12.3,18.5-2.1,3.1-3.7,1.4-6.3-.8-1.5-1.5-4.7-3.1-4.9-5.2,4.3-7.3,11.1-14.1,18.3-18.5,4.2-2.4,7.1,2.1,5.2,5.9Z" stroke="#000" stroke-miterlimit="10" stroke-width=".3"/>
        </g>
        <g>
          <path d="M1688.8,72.3c-7.9,5.8-12.9,14.2-20,20.6-2.9,1.7-7.9-.2-10.6,2.5-3.2,3.7,3.1,9.5-1.1,12.9-2.7,1.9-7.8,0-10.8,2.6-4.4,3.7,1.2,9.3.4,13.6-3.2,6.5-8.9,11.8-13.1,18-3.1,4.4-8.3,5.9-13.5,6.1-12.6.9-25.2,2.3-37.4,5.4-56.6,14.7-126.3,40.1-161.7,89-5.7,6.4-2.1,11.7-.9,18.9,1.1,6.9-2,13.5-5.9,19-5.2,6.3-11.3-4.1-17.8,5.3-3.6,4.5-7.2,8.9-10.8,13.5-6.1,6.4-8.4,7.5-3.8,16.9,6.7,14.9,17.6,23,29.8,32.8,29.6,25.7,61.1,48.8,92.9,71.8,21.6,15.3,69.4,48.2,84.7,10.9,6.6-10,1-9.2.4-18.2,1.3-4.8,4-10.9,9.6-11,20.2-.6,19.5-1,29.7-17.9,6.1-10.7,12.5-21.3,17.5-32.4,9.3-22.9,12.7-47.9,13.7-72.5,4.2-33.4-1-66.6-7.5-99.4-1.5-8.3-6.6-17.5,0-24.8,5.2-5.9,8.7-14.2,15.2-18.4,2.8-.4,7.1,2,9.6-.6,3.7-5.1-4.8-9.2,1-15.3,4.5-5.6,14.2,2.8,12.4-10.2-3.6-9.9,10.2-19.1,13.3-29.1,3.6-10-7.7-17.1-15.6-10Z" fill="#e6c9fe"/>
          <path d="M1688.8,72.3c-7.9,5.8-12.9,14.2-20,20.6-2.9,1.7-7.9-.2-10.6,2.5-3.2,3.7,3.1,9.5-1.1,12.9-2.7,1.9-7.8,0-10.8,2.6-4.4,3.7,1.2,9.3.4,13.6-3.2,6.5-8.9,11.8-13.1,18-3.1,4.4-8.3,5.9-13.5,6.1-12.6.9-25.2,2.3-37.4,5.4-56.6,14.7-126.3,40.1-161.7,89-5.7,6.4-2.1,11.7-.9,18.9,1.1,6.9-2,13.5-5.9,19-5.2,6.3-11.3-4.1-17.8,5.3-3.6,4.5-7.2,8.9-10.8,13.5-6.1,6.4-8.4,7.5-3.8,16.9,6.7,14.9,17.6,23,29.8,32.8,29.6,25.7,61.1,48.8,92.9,71.8,21.6,15.3,69.4,48.2,84.7,10.9,6.6-10,1-9.2.4-18.2,1.3-4.8,4-10.9,9.6-11,20.2-.6,19.5-1,29.7-17.9,6.1-10.7,12.5-21.3,17.5-32.4,9.3-22.9,12.7-47.9,13.7-72.5,4.2-33.4-1-66.6-7.5-99.4-1.5-8.3-6.6-17.5,0-24.8,5.2-5.9,8.7-14.2,15.2-18.4,2.8-.4,7.1,2,9.6-.6,3.7-5.1-4.8-9.2,1-15.3,4.5-5.6,14.2,2.8,12.4-10.2-3.6-9.9,10.2-19.1,13.3-29.1,3.6-10-7.7-17.1-15.6-10ZM1556.9,444.5c-41.3-12.6-73.2-44.6-107.9-69.2-14.7-11.9-28.9-24.5-43.6-36.5-8.6-6.6-15.5-15.1-19.8-25.1-3.2-7.8,8.9-3,13.8-1,2.6,1.1,4.7,3.2,4.9,6.1,2.9,16.1,29.9,31.6,42.1,42.4,32.6,24.9,65.2,50.1,100.9,70.5,4.7,2.9,10.1,4.3,15.5,2.4,4.3-1.2,6.4,3.8,8.9,6.4,5.3,6.8-12.2,5-14.8,3.8ZM1411.1,319.5c.9-1.1,3.8,0,5.4.7,23.4,9.3,43.3,25.1,63.2,40.2,26.2,20.4,52.2,38.2,76.1,61.2,1.4,1.5,3.2,5.6,1.8,6.8-3.1,1.3-9.4-1.7-12.3-3.3-24.9-15.7-47.7-31-70.9-49.2-20.5-14.8-38.9-29.4-58-46.1-2-1.7-6.7-7.9-5.3-10.3ZM1586.7,423c1.8,4-2.9,8-4.6,11.6-2.9,5.4-4.7,3.8-8.3,0-6.6-6.5-11.5-14.4-18.2-20.7-34.9-30-71.6-58.1-109.3-84.4-16.9-9.8-33.6-19.4-52.5-25-7.8-3.1,3-9.7,5.4-13.4,4.7-5.7,13,1.6,18.4,3.3,39.5,19.5,77.1,42.2,110.1,71.8,21.7,16.9,41.9,35.3,58.9,56.9ZM1585.1,410.2c-3.4-.5-5.6-5.2-8.2-7.4-21-23.7-47-42-71.1-62.3-26.3-22.6-58-36.4-87.1-54.9-1.2-1.9.6-4,1.7-6.3,3.7-10.7,13.4,1.3,19.7,3.2,41.7,19.7,80,47.4,114.6,78.1,12.2,11.3,27.8,19,37.3,33.1,3.7,4.9-2.4,9.8-4.4,14.2-.6.9-1.3,2.1-2.4,2.4ZM1612.2,395.3c-1.1,1.1-2.9,1-4.4,1.1-2.8.1-5.7.8-7.8-.5-4.9-4.8-8.4-11.2-13.5-15.9-10.1-9.4-21.6-17.3-31.9-26.4-34.8-31.2-74.1-57.7-115.8-78.5-8.1-4.9-14.5-6.4-13.8-17.6-.7-8.2,14.9,1.5,18.9,2,28.3,9.2,53.5,25.2,76.6,43.8,17.8,10.7,31.2,26.6,46.6,40.1,9,7.2,16.6,16.1,24.7,24.3,5.9,5.4,20.8,19.9,20.5,27.6ZM1641.9,160.2c11.9,46.2,16.7,93.4,11.2,140.8-2.7,16.2-5.1,33-11.3,48.3-5,11.3-11.4,22-17.4,32.7-3,4.4-5.4,10.7-9.3,2.6-14.5-23-37.5-39-56.8-57.6-11.6-12.6-25.8-21.8-39.9-31.2-27.2-21.4-58.2-37.5-91.5-46.8-1.9-.6-3.1-1.5-2.2-3.3,35.6-46.7,105.7-71.6,161.2-85.7,12.2-2.8,24.6-4.6,37.1-5.4,6.8-.2,17-4.1,18.9,5.6ZM1663.8,131.2c.2.9-.4,1.9-.9,2.7-5.3,7.3-10,15.4-16.7,21.3-2.7-.9-2.8-7.2-7.7-7.9-2.3-.6-2.2-1.5-.9-3.1,5.3-6,9.7-14.1,16-19.4,1.3-.8,10.2,5,10.3,6.5ZM1667.3,127.8c-3.7-1.7-6.8-4.6-10.5-6.9-.4-.3-.9-.7-1-1.2-.2-1.4.9-3,2.4-1.9,3,2.8,11.2,5.7,9.1,10ZM1676.5,115.1c-.3,1.4-3.6,7.1-5.3,5.7-3.2-2.7-7.9-4.7-10-8.2,1.2-9.9,13.4-3.6,15.3,2.5ZM1680.7,108.8c-3.6-1.5-6.8-4.6-10.2-6.7-.3-.2-.6-.6-.4-1,2-2.3,4.9.4,6.9,1.5,2,.9,5.2,3.4,3.7,6.2ZM1699.1,82c-3.2,6.7-8.2,12.2-12.3,18.5-2.1,3.1-3.7,1.4-6.3-.8-1.5-1.5-4.7-3.1-4.9-5.2,4.3-7.3,11.1-14.1,18.3-18.5,4.2-2.4,7.1,2.1,5.2,5.9Z" stroke="#000" stroke-miterlimit="10" stroke-width=".3"/>
        </g>
        <g>
          <path d="M1688.3,71.8c-7.9,5.8-12.9,14.2-20,20.6-2.9,1.7-7.9-.2-10.6,2.5-3.2,3.7,3.1,9.5-1.1,12.9-2.7,1.9-7.8,0-10.8,2.6-4.4,3.7,1.2,9.3.4,13.6-3.2,6.5-8.9,11.8-13.1,18-3.1,4.4-8.3,5.9-13.5,6.1-12.6.9-25.2,2.3-37.4,5.4-56.6,14.7-126.3,40.1-161.7,89-5.7,6.4-2.1,11.7-.9,18.9,1.1,6.9-2,13.5-5.9,19-5.2,6.3-11.3-4.1-17.8,5.3-3.6,4.5-7.2,8.9-10.8,13.5-6.1,6.4-8.4,7.5-3.8,16.9,6.7,14.9,17.6,23,29.8,32.8,29.6,25.7,61.1,48.8,92.9,71.8,21.6,15.3,69.4,48.2,84.7,10.9,6.6-10,1-9.2.4-18.2,1.3-4.8,4-10.9,9.6-11,20.2-.6,19.5-1,29.7-17.9,6.1-10.7,12.5-21.3,17.5-32.4,9.3-22.9,12.7-47.9,13.7-72.5,4.2-33.4-1-66.6-7.5-99.4-1.5-8.3-6.6-17.5,0-24.8,5.2-5.9,8.7-14.2,15.2-18.4,2.8-.4,7.1,2,9.6-.6,3.7-5.1-4.8-9.2,1-15.3,4.5-5.6,14.2,2.8,12.4-10.2-3.6-9.9,10.2-19.1,13.3-29.1,3.6-10-7.7-17.1-15.6-10Z" fill="#e6c9fe"/>
          <path d="M1688.3,71.8c-7.9,5.8-12.9,14.2-20,20.6-2.9,1.7-7.9-.2-10.6,2.5-3.2,3.7,3.1,9.5-1.1,12.9-2.7,1.9-7.8,0-10.8,2.6-4.4,3.7,1.2,9.3.4,13.6-3.2,6.5-8.9,11.8-13.1,18-3.1,4.4-8.3,5.9-13.5,6.1-12.6.9-25.2,2.3-37.4,5.4-56.6,14.7-126.3,40.1-161.7,89-5.7,6.4-2.1,11.7-.9,18.9,1.1,6.9-2,13.5-5.9,19-5.2,6.3-11.3-4.1-17.8,5.3-3.6,4.5-7.2,8.9-10.8,13.5-6.1,6.4-8.4,7.5-3.8,16.9,6.7,14.9,17.6,23,29.8,32.8,29.6,25.7,61.1,48.8,92.9,71.8,21.6,15.3,69.4,48.2,84.7,10.9,6.6-10,1-9.2.4-18.2,1.3-4.8,4-10.9,9.6-11,20.2-.6,19.5-1,29.7-17.9,6.1-10.7,12.5-21.3,17.5-32.4,9.3-22.9,12.7-47.9,13.7-72.5,4.2-33.4-1-66.6-7.5-99.4-1.5-8.3-6.6-17.5,0-24.8,5.2-5.9,8.7-14.2,15.2-18.4,2.8-.4,7.1,2,9.6-.6,3.7-5.1-4.8-9.2,1-15.3,4.5-5.6,14.2,2.8,12.4-10.2-3.6-9.9,10.2-19.1,13.3-29.1,3.6-10-7.7-17.1-15.6-10ZM1556.4,444c-41.3-12.6-73.2-44.6-107.9-69.2-14.7-11.9-28.9-24.5-43.6-36.5-8.6-6.6-15.5-15.1-19.8-25.1-3.2-7.8,8.9-3,13.8-1,2.6,1.1,4.7,3.2,4.9,6.1,2.9,16.1,29.9,31.6,42.1,42.4,32.6,24.9,65.2,50.1,100.9,70.5,4.7,2.9,10.1,4.3,15.5,2.4,4.3-1.2,6.4,3.8,8.9,6.4,5.3,6.8-12.2,5-14.8,3.8ZM1410.6,319c.9-1.1,3.8,0,5.4.7,23.4,9.3,43.3,25.1,63.2,40.2,26.2,20.4,52.2,38.2,76.1,61.2,1.4,1.5,3.2,5.6,1.8,6.8-3.1,1.3-9.4-1.7-12.3-3.3-24.9-15.7-47.7-31-70.9-49.2-20.5-14.8-38.9-29.4-58-46.1-2-1.7-6.7-7.9-5.3-10.3ZM1586.2,422.5c1.8,4-2.9,8-4.6,11.6-2.9,5.4-4.7,3.8-8.3,0-6.6-6.5-11.5-14.4-18.2-20.7-34.9-30-71.6-58.1-109.3-84.4-16.9-9.8-33.6-19.4-52.5-25-7.8-3.1,3-9.7,5.4-13.4,4.7-5.7,13,1.6,18.4,3.3,39.5,19.5,77.1,42.2,110.1,71.8,21.7,16.9,41.9,35.3,58.9,56.9ZM1584.6,409.7c-3.4-.5-5.6-5.2-8.2-7.4-21-23.7-47-42-71.1-62.3-26.3-22.6-58-36.4-87.1-54.9-1.2-1.9.6-4,1.7-6.3,3.7-10.7,13.4,1.3,19.7,3.2,41.7,19.7,80,47.4,114.6,78.1,12.2,11.3,27.8,19,37.3,33.1,3.7,4.9-2.4,9.8-4.4,14.2-.6.9-1.3,2.1-2.4,2.4ZM1611.7,394.8c-1.1,1.1-2.9,1-4.4,1.1-2.8.1-5.7.8-7.8-.5-4.9-4.8-8.4-11.2-13.5-15.9-10.1-9.4-21.6-17.3-31.9-26.4-34.8-31.2-74.1-57.7-115.8-78.5-8.1-4.9-14.5-6.4-13.8-17.6-.7-8.2,14.9,1.5,18.9,2,28.3,9.2,53.5,25.2,76.6,43.8,17.8,10.7,31.2,26.6,46.6,40.1,9,7.2,16.6,16.1,24.7,24.3,5.9,5.4,20.8,19.9,20.5,27.6ZM1641.4,159.7c11.9,46.2,16.7,93.4,11.2,140.8-2.7,16.2-5.1,33-11.3,48.3-5,11.3-11.4,22-17.4,32.7-3,4.4-5.4,10.7-9.3,2.6-14.5-23-37.5-39-56.8-57.6-11.6-12.6-25.8-21.8-39.9-31.2-27.2-21.4-58.2-37.5-91.5-46.8-1.9-.6-3.1-1.5-2.2-3.3,35.6-46.7,105.7-71.6,161.2-85.7,12.2-2.8,24.6-4.6,37.1-5.4,6.8-.2,17-4.1,18.9,5.6ZM1663.3,130.7c.2.9-.4,1.9-.9,2.7-5.3,7.3-10,15.4-16.7,21.3-2.7-.9-2.8-7.2-7.7-7.9-2.3-.6-2.2-1.5-.9-3.1,5.3-6,9.7-14.1,16-19.4,1.3-.8,10.2,5,10.3,6.5ZM1666.8,127.3c-3.7-1.7-6.8-4.6-10.5-6.9-.4-.3-.9-.7-1-1.2-.2-1.4.9-3,2.4-1.9,3,2.8,11.2,5.7,9.1,10ZM1676,114.6c-.3,1.4-3.6,7.1-5.3,5.7-3.2-2.7-7.9-4.7-10-8.2,1.2-9.9,13.4-3.6,15.3,2.5ZM1680.2,108.3c-3.6-1.5-6.8-4.6-10.2-6.7-.3-.2-.6-.6-.4-1,2-2.3,4.9.4,6.9,1.5,2,.9,5.2,3.4,3.7,6.2ZM1698.6,81.5c-3.2,6.7-8.2,12.2-12.3,18.5-2.1,3.1-3.7,1.4-6.3-.8-1.5-1.5-4.7-3.1-4.9-5.2,4.3-7.3,11.1-14.1,18.3-18.5,4.2-2.4,7.1,2.1,5.2,5.9Z" stroke="#000" stroke-miterlimit="10" stroke-width=".3"/>
        </g>
        <g>
          <path d="M1687.8,71.3c-7.9,5.8-12.9,14.2-20,20.6-2.9,1.7-7.9-.2-10.6,2.5-3.2,3.7,3.1,9.5-1.1,12.9-2.7,1.9-7.8,0-10.8,2.6-4.4,3.7,1.2,9.3.4,13.6-3.2,6.5-8.9,11.8-13.1,18-3.1,4.4-8.3,5.9-13.5,6.1-12.6.9-25.2,2.3-37.4,5.4-56.6,14.7-126.3,40.1-161.7,89-5.7,6.4-2.1,11.7-.9,18.9,1.1,6.9-2,13.5-5.9,19-5.2,6.3-11.3-4.1-17.8,5.3-3.6,4.5-7.2,8.9-10.8,13.5-6.1,6.4-8.4,7.5-3.8,16.9,6.7,14.9,17.6,23,29.8,32.8,29.6,25.7,61.1,48.8,92.9,71.8,21.6,15.3,69.4,48.2,84.7,10.9,6.6-10,1-9.2.4-18.2,1.3-4.8,4-10.9,9.6-11,20.2-.6,19.5-1,29.7-17.9,6.1-10.7,12.5-21.3,17.5-32.4,9.3-22.9,12.7-47.9,13.7-72.5,4.2-33.4-1-66.6-7.5-99.4-1.5-8.3-6.6-17.5,0-24.8,5.2-5.9,8.7-14.2,15.2-18.4,2.8-.4,7.1,2,9.6-.6,3.7-5.1-4.8-9.2,1-15.3,4.5-5.6,14.2,2.8,12.4-10.2-3.6-9.9,10.2-19.1,13.3-29.1,3.6-10-7.7-17.1-15.6-10Z" fill="#e6c9fe"/>
          <path d="M1687.8,71.3c-7.9,5.8-12.9,14.2-20,20.6-2.9,1.7-7.9-.2-10.6,2.5-3.2,3.7,3.1,9.5-1.1,12.9-2.7,1.9-7.8,0-10.8,2.6-4.4,3.7,1.2,9.3.4,13.6-3.2,6.5-8.9,11.8-13.1,18-3.1,4.4-8.3,5.9-13.5,6.1-12.6.9-25.2,2.3-37.4,5.4-56.6,14.7-126.3,40.1-161.7,89-5.7,6.4-2.1,11.7-.9,18.9,1.1,6.9-2,13.5-5.9,19-5.2,6.3-11.3-4.1-17.8,5.3-3.6,4.5-7.2,8.9-10.8,13.5-6.1,6.4-8.4,7.5-3.8,16.9,6.7,14.9,17.6,23,29.8,32.8,29.6,25.7,61.1,48.8,92.9,71.8,21.6,15.3,69.4,48.2,84.7,10.9,6.6-10,1-9.2.4-18.2,1.3-4.8,4-10.9,9.6-11,20.2-.6,19.5-1,29.7-17.9,6.1-10.7,12.5-21.3,17.5-32.4,9.3-22.9,12.7-47.9,13.7-72.5,4.2-33.4-1-66.6-7.5-99.4-1.5-8.3-6.6-17.5,0-24.8,5.2-5.9,8.7-14.2,15.2-18.4,2.8-.4,7.1,2,9.6-.6,3.7-5.1-4.8-9.2,1-15.3,4.5-5.6,14.2,2.8,12.4-10.2-3.6-9.9,10.2-19.1,13.3-29.1,3.6-10-7.7-17.1-15.6-10ZM1555.9,443.5c-41.3-12.6-73.2-44.6-107.9-69.2-14.7-11.9-28.9-24.5-43.6-36.5-8.6-6.6-15.5-15.1-19.8-25.1-3.2-7.8,8.9-3,13.8-1,2.6,1.1,4.7,3.2,4.9,6.1,2.9,16.1,29.9,31.6,42.1,42.4,32.6,24.9,65.2,50.1,100.9,70.5,4.7,2.9,10.1,4.3,15.5,2.4,4.3-1.2,6.4,3.8,8.9,6.4,5.3,6.8-12.2,5-14.8,3.8ZM1410.1,318.5c.9-1.1,3.8,0,5.4.7,23.4,9.3,43.3,25.1,63.2,40.2,26.2,20.4,52.2,38.2,76.1,61.2,1.4,1.5,3.2,5.6,1.8,6.8-3.1,1.3-9.4-1.7-12.3-3.3-24.9-15.7-47.7-31-70.9-49.2-20.5-14.8-38.9-29.4-58-46.1-2-1.7-6.7-7.9-5.3-10.3ZM1585.7,422c1.8,4-2.9,8-4.6,11.6-2.9,5.4-4.7,3.8-8.3,0-6.6-6.5-11.5-14.4-18.2-20.7-34.9-30-71.6-58.1-109.3-84.4-16.9-9.8-33.6-19.4-52.5-25-7.8-3.1,3-9.7,5.4-13.4,4.7-5.7,13,1.6,18.4,3.3,39.5,19.5,77.1,42.2,110.1,71.8,21.7,16.9,41.9,35.3,58.9,56.9ZM1584.1,409.2c-3.4-.5-5.6-5.2-8.2-7.4-21-23.7-47-42-71.1-62.3-26.3-22.6-58-36.4-87.1-54.9-1.2-1.9.6-4,1.7-6.3,3.7-10.7,13.4,1.3,19.7,3.2,41.7,19.7,80,47.4,114.6,78.1,12.2,11.3,27.8,19,37.3,33.1,3.7,4.9-2.4,9.8-4.4,14.2-.6.9-1.3,2.1-2.4,2.4ZM1611.2,394.3c-1.1,1.1-2.9,1-4.4,1.1-2.8.1-5.7.8-7.8-.5-4.9-4.8-8.4-11.2-13.5-15.9-10.1-9.4-21.6-17.3-31.9-26.4-34.8-31.2-74.1-57.7-115.8-78.5-8.1-4.9-14.5-6.4-13.8-17.6-.7-8.2,14.9,1.5,18.9,2,28.3,9.2,53.5,25.2,76.6,43.8,17.8,10.7,31.2,26.6,46.6,40.1,9,7.2,16.6,16.1,24.7,24.3,5.9,5.4,20.8,19.9,20.5,27.6ZM1640.9,159.2c11.9,46.2,16.7,93.4,11.2,140.8-2.7,16.2-5.1,33-11.3,48.3-5,11.3-11.4,22-17.4,32.7-3,4.4-5.4,10.7-9.3,2.6-14.5-23-37.5-39-56.8-57.6-11.6-12.6-25.8-21.8-39.9-31.2-27.2-21.4-58.2-37.5-91.5-46.8-1.9-.6-3.1-1.5-2.2-3.3,35.6-46.7,105.7-71.6,161.2-85.7,12.2-2.8,24.6-4.6,37.1-5.4,6.8-.2,17-4.1,18.9,5.6ZM1662.8,130.2c.2.9-.4,1.9-.9,2.7-5.3,7.3-10,15.4-16.7,21.3-2.7-.9-2.8-7.2-7.7-7.9-2.3-.6-2.2-1.5-.9-3.1,5.3-6,9.7-14.1,16-19.4,1.3-.8,10.2,5,10.3,6.5ZM1666.3,126.8c-3.7-1.7-6.8-4.6-10.5-6.9-.4-.3-.9-.7-1-1.2-.2-1.4.9-3,2.4-1.9,3,2.8,11.2,5.7,9.1,10ZM1675.5,114.1c-.3,1.4-3.6,7.1-5.3,5.7-3.2-2.7-7.9-4.7-10-8.2,1.2-9.9,13.4-3.6,15.3,2.5ZM1679.7,107.8c-3.6-1.5-6.8-4.6-10.2-6.7-.3-.2-.6-.6-.4-1,2-2.3,4.9.4,6.9,1.5,2,.9,5.2,3.4,3.7,6.2ZM1698.1,81c-3.2,6.7-8.2,12.2-12.3,18.5-2.1,3.1-3.7,1.4-6.3-.8-1.5-1.5-4.7-3.1-4.9-5.2,4.3-7.3,11.1-14.1,18.3-18.5,4.2-2.4,7.1,2.1,5.2,5.9Z" stroke="#000" stroke-miterlimit="10" stroke-width=".3"/>
        </g>
        <g>
          <path d="M1687.3,70.8c-7.9,5.8-12.9,14.2-20,20.6-2.9,1.7-7.9-.2-10.6,2.5-3.2,3.7,3.1,9.5-1.1,12.9-2.7,1.9-7.8,0-10.8,2.6-4.4,3.7,1.2,9.3.4,13.6-3.2,6.5-8.9,11.8-13.1,18-3.1,4.4-8.3,5.9-13.5,6.1-12.6.9-25.2,2.3-37.4,5.4-56.6,14.7-126.3,40.1-161.7,89-5.7,6.4-2.1,11.7-.9,18.9,1.1,6.9-2,13.5-5.9,19-5.2,6.3-11.3-4.1-17.8,5.3-3.6,4.5-7.2,8.9-10.8,13.5-6.1,6.4-8.4,7.5-3.8,16.9,6.7,14.9,17.6,23,29.8,32.8,29.6,25.7,61.1,48.8,92.9,71.8,21.6,15.3,69.4,48.2,84.7,10.9,6.6-10,1-9.2.4-18.2,1.3-4.8,4-10.9,9.6-11,20.2-.6,19.5-1,29.7-17.9,6.1-10.7,12.5-21.3,17.5-32.4,9.3-22.9,12.7-47.9,13.7-72.5,4.2-33.4-1-66.6-7.5-99.4-1.5-8.3-6.6-17.5,0-24.8,5.2-5.9,8.7-14.2,15.2-18.4,2.8-.4,7.1,2,9.6-.6,3.7-5.1-4.8-9.2,1-15.3,4.5-5.6,14.2,2.8,12.4-10.2-3.6-9.9,10.2-19.1,13.3-29.1,3.6-10-7.7-17.1-15.6-10Z" fill="#e6c9fe"/>
          <path d="M1687.3,70.8c-7.9,5.8-12.9,14.2-20,20.6-2.9,1.7-7.9-.2-10.6,2.5-3.2,3.7,3.1,9.5-1.1,12.9-2.7,1.9-7.8,0-10.8,2.6-4.4,3.7,1.2,9.3.4,13.6-3.2,6.5-8.9,11.8-13.1,18-3.1,4.4-8.3,5.9-13.5,6.1-12.6.9-25.2,2.3-37.4,5.4-56.6,14.7-126.3,40.1-161.7,89-5.7,6.4-2.1,11.7-.9,18.9,1.1,6.9-2,13.5-5.9,19-5.2,6.3-11.3-4.1-17.8,5.3-3.6,4.5-7.2,8.9-10.8,13.5-6.1,6.4-8.4,7.5-3.8,16.9,6.7,14.9,17.6,23,29.8,32.8,29.6,25.7,61.1,48.8,92.9,71.8,21.6,15.3,69.4,48.2,84.7,10.9,6.6-10,1-9.2.4-18.2,1.3-4.8,4-10.9,9.6-11,20.2-.6,19.5-1,29.7-17.9,6.1-10.7,12.5-21.3,17.5-32.4,9.3-22.9,12.7-47.9,13.7-72.5,4.2-33.4-1-66.6-7.5-99.4-1.5-8.3-6.6-17.5,0-24.8,5.2-5.9,8.7-14.2,15.2-18.4,2.8-.4,7.1,2,9.6-.6,3.7-5.1-4.8-9.2,1-15.3,4.5-5.6,14.2,2.8,12.4-10.2-3.6-9.9,10.2-19.1,13.3-29.1,3.6-10-7.7-17.1-15.6-10ZM1555.4,443c-41.3-12.6-73.2-44.6-107.9-69.2-14.7-11.9-28.9-24.5-43.6-36.5-8.6-6.6-15.5-15.1-19.8-25.1-3.2-7.8,8.9-3,13.8-1,2.6,1.1,4.7,3.2,4.9,6.1,2.9,16.1,29.9,31.6,42.1,42.4,32.6,24.9,65.2,50.1,100.9,70.5,4.7,2.9,10.1,4.3,15.5,2.4,4.3-1.2,6.4,3.8,8.9,6.4,5.3,6.8-12.2,5-14.8,3.8ZM1409.6,318c.9-1.1,3.8,0,5.4.7,23.4,9.3,43.3,25.1,63.2,40.2,26.2,20.4,52.2,38.2,76.1,61.2,1.4,1.5,3.2,5.6,1.8,6.8-3.1,1.3-9.4-1.7-12.3-3.3-24.9-15.7-47.7-31-70.9-49.2-20.5-14.8-38.9-29.4-58-46.1-2-1.7-6.7-7.9-5.3-10.3ZM1585.2,421.5c1.8,4-2.9,8-4.6,11.6-2.9,5.4-4.7,3.8-8.3,0-6.6-6.5-11.5-14.4-18.2-20.7-34.9-30-71.6-58.1-109.3-84.4-16.9-9.8-33.6-19.4-52.5-25-7.8-3.1,3-9.7,5.4-13.4,4.7-5.7,13,1.6,18.4,3.3,39.5,19.5,77.1,42.2,110.1,71.8,21.7,16.9,41.9,35.3,58.9,56.9ZM1583.6,408.7c-3.4-.5-5.6-5.2-8.2-7.4-21-23.7-47-42-71.1-62.3-26.3-22.6-58-36.4-87.1-54.9-1.2-1.9.6-4,1.7-6.3,3.7-10.7,13.4,1.3,19.7,3.2,41.7,19.7,80,47.4,114.6,78.1,12.2,11.3,27.8,19,37.3,33.1,3.7,4.9-2.4,9.8-4.4,14.2-.6.9-1.3,2.1-2.4,2.4ZM1610.7,393.8c-1.1,1.1-2.9,1-4.4,1.1-2.8.1-5.7.8-7.8-.5-4.9-4.8-8.4-11.2-13.5-15.9-10.1-9.4-21.6-17.3-31.9-26.4-34.8-31.2-74.1-57.7-115.8-78.5-8.1-4.9-14.5-6.4-13.8-17.6-.7-8.2,14.9,1.5,18.9,2,28.3,9.2,53.5,25.2,76.6,43.8,17.8,10.7,31.2,26.6,46.6,40.1,9,7.2,16.6,16.1,24.7,24.3,5.9,5.4,20.8,19.9,20.5,27.6ZM1640.4,158.7c11.9,46.2,16.7,93.4,11.2,140.8-2.7,16.2-5.1,33-11.3,48.3-5,11.3-11.4,22-17.4,32.7-3,4.4-5.4,10.7-9.3,2.6-14.5-23-37.5-39-56.8-57.6-11.6-12.6-25.8-21.8-39.9-31.2-27.2-21.4-58.2-37.5-91.5-46.8-1.9-.6-3.1-1.5-2.2-3.3,35.6-46.7,105.7-71.6,161.2-85.7,12.2-2.8,24.6-4.6,37.1-5.4,6.8-.2,17-4.1,18.9,5.6ZM1662.3,129.7c.2.9-.4,1.9-.9,2.7-5.3,7.3-10,15.4-16.7,21.3-2.7-.9-2.8-7.2-7.7-7.9-2.3-.6-2.2-1.5-.9-3.1,5.3-6,9.7-14.1,16-19.4,1.3-.8,10.2,5,10.3,6.5ZM1665.8,126.3c-3.7-1.7-6.8-4.6-10.5-6.9-.4-.3-.9-.7-1-1.2-.2-1.4.9-3,2.4-1.9,3,2.8,11.2,5.7,9.1,10ZM1675,113.6c-.3,1.4-3.6,7.1-5.3,5.7-3.2-2.7-7.9-4.7-10-8.2,1.2-9.9,13.4-3.6,15.3,2.5ZM1679.2,107.3c-3.6-1.5-6.8-4.6-10.2-6.7-.3-.2-.6-.6-.4-1,2-2.3,4.9.4,6.9,1.5,2,.9,5.2,3.4,3.7,6.2ZM1697.6,80.5c-3.2,6.7-8.2,12.2-12.3,18.5-2.1,3.1-3.7,1.4-6.3-.8-1.5-1.5-4.7-3.1-4.9-5.2,4.3-7.3,11.1-14.1,18.3-18.5,4.2-2.4,7.1,2.1,5.2,5.9Z" stroke="#000" stroke-miterlimit="10" stroke-width=".3"/>
        </g>
        <g>
          <path d="M1686.8,70.3c-7.9,5.8-12.9,14.2-20,20.6-2.9,1.7-7.9-.2-10.6,2.5-3.2,3.7,3.1,9.5-1.1,12.9-2.7,1.9-7.8,0-10.8,2.6-4.4,3.7,1.2,9.3.4,13.6-3.2,6.5-8.9,11.8-13.1,18-3.1,4.4-8.3,5.9-13.5,6.1-12.6.9-25.2,2.3-37.4,5.4-56.6,14.7-126.3,40.1-161.7,89-5.7,6.4-2.1,11.7-.9,18.9,1.1,6.9-2,13.5-5.9,19-5.2,6.3-11.3-4.1-17.8,5.3-3.6,4.5-7.2,8.9-10.8,13.5-6.1,6.4-8.4,7.5-3.8,16.9,6.7,14.9,17.6,23,29.8,32.8,29.6,25.7,61.1,48.8,92.9,71.8,21.6,15.3,69.4,48.2,84.7,10.9,6.6-10,1-9.2.4-18.2,1.3-4.8,4-10.9,9.6-11,20.2-.6,19.5-1,29.7-17.9,6.1-10.7,12.5-21.3,17.5-32.4,9.3-22.9,12.7-47.9,13.7-72.5,4.2-33.4-1-66.6-7.5-99.4-1.5-8.3-6.6-17.5,0-24.8,5.2-5.9,8.7-14.2,15.2-18.4,2.8-.4,7.1,2,9.6-.6,3.7-5.1-4.8-9.2,1-15.3,4.5-5.6,14.2,2.8,12.4-10.2-3.6-9.9,10.2-19.1,13.3-29.1,3.6-10-7.7-17.1-15.6-10Z" fill="#e6c9fe"/>
          <path d="M1686.8,70.3c-7.9,5.8-12.9,14.2-20,20.6-2.9,1.7-7.9-.2-10.6,2.5-3.2,3.7,3.1,9.5-1.1,12.9-2.7,1.9-7.8,0-10.8,2.6-4.4,3.7,1.2,9.3.4,13.6-3.2,6.5-8.9,11.8-13.1,18-3.1,4.4-8.3,5.9-13.5,6.1-12.6.9-25.2,2.3-37.4,5.4-56.6,14.7-126.3,40.1-161.7,89-5.7,6.4-2.1,11.7-.9,18.9,1.1,6.9-2,13.5-5.9,19-5.2,6.3-11.3-4.1-17.8,5.3-3.6,4.5-7.2,8.9-10.8,13.5-6.1,6.4-8.4,7.5-3.8,16.9,6.7,14.9,17.6,23,29.8,32.8,29.6,25.7,61.1,48.8,92.9,71.8,21.6,15.3,69.4,48.2,84.7,10.9,6.6-10,1-9.2.4-18.2,1.3-4.8,4-10.9,9.6-11,20.2-.6,19.5-1,29.7-17.9,6.1-10.7,12.5-21.3,17.5-32.4,9.3-22.9,12.7-47.9,13.7-72.5,4.2-33.4-1-66.6-7.5-99.4-1.5-8.3-6.6-17.5,0-24.8,5.2-5.9,8.7-14.2,15.2-18.4,2.8-.4,7.1,2,9.6-.6,3.7-5.1-4.8-9.2,1-15.3,4.5-5.6,14.2,2.8,12.4-10.2-3.6-9.9,10.2-19.1,13.3-29.1,3.6-10-7.7-17.1-15.6-10ZM1554.9,442.5c-41.3-12.6-73.2-44.6-107.9-69.2-14.7-11.9-28.9-24.5-43.6-36.5-8.6-6.6-15.5-15.1-19.8-25.1-3.2-7.8,8.9-3,13.8-1,2.6,1.1,4.7,3.2,4.9,6.1,2.9,16.1,29.9,31.6,42.1,42.4,32.6,24.9,65.2,50.1,100.9,70.5,4.7,2.9,10.1,4.3,15.5,2.4,4.3-1.2,6.4,3.8,8.9,6.4,5.3,6.8-12.2,5-14.8,3.8ZM1409.1,317.5c.9-1.1,3.8,0,5.4.7,23.4,9.3,43.3,25.1,63.2,40.2,26.2,20.4,52.2,38.2,76.1,61.2,1.4,1.5,3.2,5.6,1.8,6.8-3.1,1.3-9.4-1.7-12.3-3.3-24.9-15.7-47.7-31-70.9-49.2-20.5-14.8-38.9-29.4-58-46.1-2-1.7-6.7-7.9-5.3-10.3ZM1584.7,421c1.8,4-2.9,8-4.6,11.6-2.9,5.4-4.7,3.8-8.3,0-6.6-6.5-11.5-14.4-18.2-20.7-34.9-30-71.6-58.1-109.3-84.4-16.9-9.8-33.6-19.4-52.5-25-7.8-3.1,3-9.7,5.4-13.4,4.7-5.7,13,1.6,18.4,3.3,39.5,19.5,77.1,42.2,110.1,71.8,21.7,16.9,41.9,35.3,58.9,56.9ZM1583.1,408.2c-3.4-.5-5.6-5.2-8.2-7.4-21-23.7-47-42-71.1-62.3-26.3-22.6-58-36.4-87.1-54.9-1.2-1.9.6-4,1.7-6.3,3.7-10.7,13.4,1.3,19.7,3.2,41.7,19.7,80,47.4,114.6,78.1,12.2,11.3,27.8,19,37.3,33.1,3.7,4.9-2.4,9.8-4.4,14.2-.6.9-1.3,2.1-2.4,2.4ZM1610.2,393.3c-1.1,1.1-2.9,1-4.4,1.1-2.8.1-5.7.8-7.8-.5-4.9-4.8-8.4-11.2-13.5-15.9-10.1-9.4-21.6-17.3-31.9-26.4-34.8-31.2-74.1-57.7-115.8-78.5-8.1-4.9-14.5-6.4-13.8-17.6-.7-8.2,14.9,1.5,18.9,2,28.3,9.2,53.5,25.2,76.6,43.8,17.8,10.7,31.2,26.6,46.6,40.1,9,7.2,16.6,16.1,24.7,24.3,5.9,5.4,20.8,19.9,20.5,27.6ZM1639.9,158.2c11.9,46.2,16.7,93.4,11.2,140.8-2.7,16.2-5.1,33-11.3,48.3-5,11.3-11.4,22-17.4,32.7-3,4.4-5.4,10.7-9.3,2.6-14.5-23-37.5-39-56.8-57.6-11.6-12.6-25.8-21.8-39.9-31.2-27.2-21.4-58.2-37.5-91.5-46.8-1.9-.6-3.1-1.5-2.2-3.3,35.6-46.7,105.7-71.6,161.2-85.7,12.2-2.8,24.6-4.6,37.1-5.4,6.8-.2,17-4.1,18.9,5.6ZM1661.8,129.2c.2.9-.4,1.9-.9,2.7-5.3,7.3-10,15.4-16.7,21.3-2.7-.9-2.8-7.2-7.7-7.9-2.3-.6-2.2-1.5-.9-3.1,5.3-6,9.7-14.1,16-19.4,1.3-.8,10.2,5,10.3,6.5ZM1665.3,125.8c-3.7-1.7-6.8-4.6-10.5-6.9-.4-.3-.9-.7-1-1.2-.2-1.4.9-3,2.4-1.9,3,2.8,11.2,5.7,9.1,10ZM1674.5,113.1c-.3,1.4-3.6,7.1-5.3,5.7-3.2-2.7-7.9-4.7-10-8.2,1.2-9.9,13.4-3.6,15.3,2.5ZM1678.7,106.8c-3.6-1.5-6.8-4.6-10.2-6.7-.3-.2-.6-.6-.4-1,2-2.3,4.9.4,6.9,1.5,2,.9,5.2,3.4,3.7,6.2ZM1697.1,80c-3.2,6.7-8.2,12.2-12.3,18.5-2.1,3.1-3.7,1.4-6.3-.8-1.5-1.5-4.7-3.1-4.9-5.2,4.3-7.3,11.1-14.1,18.3-18.5,4.2-2.4,7.1,2.1,5.2,5.9Z" stroke="#000" stroke-miterlimit="10" stroke-width=".3"/>
        </g>
        <g>
          <path d="M1686.3,69.8c-7.9,5.8-12.9,14.2-20,20.6-2.9,1.7-7.9-.2-10.6,2.5-3.2,3.7,3.1,9.5-1.1,12.9-2.7,1.9-7.8,0-10.8,2.6-4.4,3.7,1.2,9.3.4,13.6-3.2,6.5-8.9,11.8-13.1,18-3.1,4.4-8.3,5.9-13.5,6.1-12.6.9-25.2,2.3-37.4,5.4-56.6,14.7-126.3,40.1-161.7,89-5.7,6.4-2.1,11.7-.9,18.9,1.1,6.9-2,13.5-5.9,19-5.2,6.3-11.3-4.1-17.8,5.3-3.6,4.5-7.2,8.9-10.8,13.5-6.1,6.4-8.4,7.5-3.8,16.9,6.7,14.9,17.6,23,29.8,32.8,29.6,25.7,61.1,48.8,92.9,71.8,21.6,15.3,69.4,48.2,84.7,10.9,6.6-10,1-9.2.4-18.2,1.3-4.8,4-10.9,9.6-11,20.2-.6,19.5-1,29.7-17.9,6.1-10.7,12.5-21.3,17.5-32.4,9.3-22.9,12.7-47.9,13.7-72.5,4.2-33.4-1-66.6-7.5-99.4-1.5-8.3-6.6-17.5,0-24.8,5.2-5.9,8.7-14.2,15.2-18.4,2.8-.4,7.1,2,9.6-.6,3.7-5.1-4.8-9.2,1-15.3,4.5-5.6,14.2,2.8,12.4-10.2-3.6-9.9,10.2-19.1,13.3-29.1,3.6-10-7.7-17.1-15.6-10Z" fill="#e6c9fe"/>
          <path d="M1686.3,69.8c-7.9,5.8-12.9,14.2-20,20.6-2.9,1.7-7.9-.2-10.6,2.5-3.2,3.7,3.1,9.5-1.1,12.9-2.7,1.9-7.8,0-10.8,2.6-4.4,3.7,1.2,9.3.4,13.6-3.2,6.5-8.9,11.8-13.1,18-3.1,4.4-8.3,5.9-13.5,6.1-12.6.9-25.2,2.3-37.4,5.4-56.6,14.7-126.3,40.1-161.7,89-5.7,6.4-2.1,11.7-.9,18.9,1.1,6.9-2,13.5-5.9,19-5.2,6.3-11.3-4.1-17.8,5.3-3.6,4.5-7.2,8.9-10.8,13.5-6.1,6.4-8.4,7.5-3.8,16.9,6.7,14.9,17.6,23,29.8,32.8,29.6,25.7,61.1,48.8,92.9,71.8,21.6,15.3,69.4,48.2,84.7,10.9,6.6-10,1-9.2.4-18.2,1.3-4.8,4-10.9,9.6-11,20.2-.6,19.5-1,29.7-17.9,6.1-10.7,12.5-21.3,17.5-32.4,9.3-22.9,12.7-47.9,13.7-72.5,4.2-33.4-1-66.6-7.5-99.4-1.5-8.3-6.6-17.5,0-24.8,5.2-5.9,8.7-14.2,15.2-18.4,2.8-.4,7.1,2,9.6-.6,3.7-5.1-4.8-9.2,1-15.3,4.5-5.6,14.2,2.8,12.4-10.2-3.6-9.9,10.2-19.1,13.3-29.1,3.6-10-7.7-17.1-15.6-10ZM1554.4,442c-41.3-12.6-73.2-44.6-107.9-69.2-14.7-11.9-28.9-24.5-43.6-36.5-8.6-6.6-15.5-15.1-19.8-25.1-3.2-7.8,8.9-3,13.8-1,2.6,1.1,4.7,3.2,4.9,6.1,2.9,16.1,29.9,31.6,42.1,42.4,32.6,24.9,65.2,50.1,100.9,70.5,4.7,2.9,10.1,4.3,15.5,2.4,4.3-1.2,6.4,3.8,8.9,6.4,5.3,6.8-12.2,5-14.8,3.8ZM1408.6,317c.9-1.1,3.8,0,5.4.7,23.4,9.3,43.3,25.1,63.2,40.2,26.2,20.4,52.2,38.2,76.1,61.2,1.4,1.5,3.2,5.6,1.8,6.8-3.1,1.3-9.4-1.7-12.3-3.3-24.9-15.7-47.7-31-70.9-49.2-20.5-14.8-38.9-29.4-58-46.1-2-1.7-6.7-7.9-5.3-10.3ZM1584.2,420.5c1.8,4-2.9,8-4.6,11.6-2.9,5.4-4.7,3.8-8.3,0-6.6-6.5-11.5-14.4-18.2-20.7-34.9-30-71.6-58.1-109.3-84.4-16.9-9.8-33.6-19.4-52.5-25-7.8-3.1,3-9.7,5.4-13.4,4.7-5.7,13,1.6,18.4,3.3,39.5,19.5,77.1,42.2,110.1,71.8,21.7,16.9,41.9,35.3,58.9,56.9ZM1582.6,407.7c-3.4-.5-5.6-5.2-8.2-7.4-21-23.7-47-42-71.1-62.3-26.3-22.6-58-36.4-87.1-54.9-1.2-1.9.6-4,1.7-6.3,3.7-10.7,13.4,1.3,19.7,3.2,41.7,19.7,80,47.4,114.6,78.1,12.2,11.3,27.8,19,37.3,33.1,3.7,4.9-2.4,9.8-4.4,14.2-.6.9-1.3,2.1-2.4,2.4ZM1609.7,392.8c-1.1,1.1-2.9,1-4.4,1.1-2.8.1-5.7.8-7.8-.5-4.9-4.8-8.4-11.2-13.5-15.9-10.1-9.4-21.6-17.3-31.9-26.4-34.8-31.2-74.1-57.7-115.8-78.5-8.1-4.9-14.5-6.4-13.8-17.6-.7-8.2,14.9,1.5,18.9,2,28.3,9.2,53.5,25.2,76.6,43.8,17.8,10.7,31.2,26.6,46.6,40.1,9,7.2,16.6,16.1,24.7,24.3,5.9,5.4,20.8,19.9,20.5,27.6ZM1639.4,157.7c11.9,46.2,16.7,93.4,11.2,140.8-2.7,16.2-5.1,33-11.3,48.3-5,11.3-11.4,22-17.4,32.7-3,4.4-5.4,10.7-9.3,2.6-14.5-23-37.5-39-56.8-57.6-11.6-12.6-25.8-21.8-39.9-31.2-27.2-21.4-58.2-37.5-91.5-46.8-1.9-.6-3.1-1.5-2.2-3.3,35.6-46.7,105.7-71.6,161.2-85.7,12.2-2.8,24.6-4.6,37.1-5.4,6.8-.2,17-4.1,18.9,5.6ZM1661.3,128.7c.2.9-.4,1.9-.9,2.7-5.3,7.3-10,15.4-16.7,21.3-2.7-.9-2.8-7.2-7.7-7.9-2.3-.6-2.2-1.5-.9-3.1,5.3-6,9.7-14.1,16-19.4,1.3-.8,10.2,5,10.3,6.5ZM1664.8,125.3c-3.7-1.7-6.8-4.6-10.5-6.9-.4-.3-.9-.7-1-1.2-.2-1.4.9-3,2.4-1.9,3,2.8,11.2,5.7,9.1,10ZM1674,112.6c-.3,1.4-3.6,7.1-5.3,5.7-3.2-2.7-7.9-4.7-10-8.2,1.2-9.9,13.4-3.6,15.3,2.5ZM1678.2,106.3c-3.6-1.5-6.8-4.6-10.2-6.7-.3-.2-.6-.6-.4-1,2-2.3,4.9.4,6.9,1.5,2,.9,5.2,3.4,3.7,6.2ZM1696.6,79.5c-3.2,6.7-8.2,12.2-12.3,18.5-2.1,3.1-3.7,1.4-6.3-.8-1.5-1.5-4.7-3.1-4.9-5.2,4.3-7.3,11.1-14.1,18.3-18.5,4.2-2.4,7.1,2.1,5.2,5.9Z" stroke="#000" stroke-miterlimit="10" stroke-width=".3"/>
        </g>
        <g>
          <path d="M1685.8,69.3c-7.9,5.8-12.9,14.2-20,20.6-2.9,1.7-7.9-.2-10.6,2.5-3.2,3.7,3.1,9.5-1.1,12.9-2.7,1.9-7.8,0-10.8,2.6-4.4,3.7,1.2,9.3.4,13.6-3.2,6.5-8.9,11.8-13.1,18-3.1,4.4-8.3,5.9-13.5,6.1-12.6.9-25.2,2.3-37.4,5.4-56.6,14.7-126.3,40.1-161.7,89-5.7,6.4-2.1,11.7-.9,18.9,1.1,6.9-2,13.5-5.9,19-5.2,6.3-11.3-4.1-17.8,5.3-3.6,4.5-7.2,8.9-10.8,13.5-6.1,6.4-8.4,7.5-3.8,16.9,6.7,14.9,17.6,23,29.8,32.8,29.6,25.7,61.1,48.8,92.9,71.8,21.6,15.3,69.4,48.2,84.7,10.9,6.6-10,1-9.2.4-18.2,1.3-4.8,4-10.9,9.6-11,20.2-.6,19.5-1,29.7-17.9,6.1-10.7,12.5-21.3,17.5-32.4,9.3-22.9,12.7-47.9,13.7-72.5,4.2-33.4-1-66.6-7.5-99.4-1.5-8.3-6.6-17.5,0-24.8,5.2-5.9,8.7-14.2,15.2-18.4,2.8-.4,7.1,2,9.6-.6,3.7-5.1-4.8-9.2,1-15.3,4.5-5.6,14.2,2.8,12.4-10.2-3.6-9.9,10.2-19.1,13.3-29.1,3.6-10-7.7-17.1-15.6-10Z" fill="#e6c9fe"/>
          <path d="M1685.8,69.3c-7.9,5.8-12.9,14.2-20,20.6-2.9,1.7-7.9-.2-10.6,2.5-3.2,3.7,3.1,9.5-1.1,12.9-2.7,1.9-7.8,0-10.8,2.6-4.4,3.7,1.2,9.3.4,13.6-3.2,6.5-8.9,11.8-13.1,18-3.1,4.4-8.3,5.9-13.5,6.1-12.6.9-25.2,2.3-37.4,5.4-56.6,14.7-126.3,40.1-161.7,89-5.7,6.4-2.1,11.7-.9,18.9,1.1,6.9-2,13.5-5.9,19-5.2,6.3-11.3-4.1-17.8,5.3-3.6,4.5-7.2,8.9-10.8,13.5-6.1,6.4-8.4,7.5-3.8,16.9,6.7,14.9,17.6,23,29.8,32.8,29.6,25.7,61.1,48.8,92.9,71.8,21.6,15.3,69.4,48.2,84.7,10.9,6.6-10,1-9.2.4-18.2,1.3-4.8,4-10.9,9.6-11,20.2-.6,19.5-1,29.7-17.9,6.1-10.7,12.5-21.3,17.5-32.4,9.3-22.9,12.7-47.9,13.7-72.5,4.2-33.4-1-66.6-7.5-99.4-1.5-8.3-6.6-17.5,0-24.8,5.2-5.9,8.7-14.2,15.2-18.4,2.8-.4,7.1,2,9.6-.6,3.7-5.1-4.8-9.2,1-15.3,4.5-5.6,14.2,2.8,12.4-10.2-3.6-9.9,10.2-19.1,13.3-29.1,3.6-10-7.7-17.1-15.6-10ZM1553.9,441.5c-41.3-12.6-73.2-44.6-107.9-69.2-14.7-11.9-28.9-24.5-43.6-36.5-8.6-6.6-15.5-15.1-19.8-25.1-3.2-7.8,8.9-3,13.8-1,2.6,1.1,4.7,3.2,4.9,6.1,2.9,16.1,29.9,31.6,42.1,42.4,32.6,24.9,65.2,50.1,100.9,70.5,4.7,2.9,10.1,4.3,15.5,2.4,4.3-1.2,6.4,3.8,8.9,6.4,5.3,6.8-12.2,5-14.8,3.8ZM1408.1,316.5c.9-1.1,3.8,0,5.4.7,23.4,9.3,43.3,25.1,63.2,40.2,26.2,20.4,52.2,38.2,76.1,61.2,1.4,1.5,3.2,5.6,1.8,6.8-3.1,1.3-9.4-1.7-12.3-3.3-24.9-15.7-47.7-31-70.9-49.2-20.5-14.8-38.9-29.4-58-46.1-2-1.7-6.7-7.9-5.3-10.3ZM1583.7,420c1.8,4-2.9,8-4.6,11.6-2.9,5.4-4.7,3.8-8.3,0-6.6-6.5-11.5-14.4-18.2-20.7-34.9-30-71.6-58.1-109.3-84.4-16.9-9.8-33.6-19.4-52.5-25-7.8-3.1,3-9.7,5.4-13.4,4.7-5.7,13,1.6,18.4,3.3,39.5,19.5,77.1,42.2,110.1,71.8,21.7,16.9,41.9,35.3,58.9,56.9ZM1582.1,407.2c-3.4-.5-5.6-5.2-8.2-7.4-21-23.7-47-42-71.1-62.3-26.3-22.6-58-36.4-87.1-54.9-1.2-1.9.6-4,1.7-6.3,3.7-10.7,13.4,1.3,19.7,3.2,41.7,19.7,80,47.4,114.6,78.1,12.2,11.3,27.8,19,37.3,33.1,3.7,4.9-2.4,9.8-4.4,14.2-.6.9-1.3,2.1-2.4,2.4ZM1609.2,392.3c-1.1,1.1-2.9,1-4.4,1.1-2.8.1-5.7.8-7.8-.5-4.9-4.8-8.4-11.2-13.5-15.9-10.1-9.4-21.6-17.3-31.9-26.4-34.8-31.2-74.1-57.7-115.8-78.5-8.1-4.9-14.5-6.4-13.8-17.6-.7-8.2,14.9,1.5,18.9,2,28.3,9.2,53.5,25.2,76.6,43.8,17.8,10.7,31.2,26.6,46.6,40.1,9,7.2,16.6,16.1,24.7,24.3,5.9,5.4,20.8,19.9,20.5,27.6ZM1638.9,157.2c11.9,46.2,16.7,93.4,11.2,140.8-2.7,16.2-5.1,33-11.3,48.3-5,11.3-11.4,22-17.4,32.7-3,4.4-5.4,10.7-9.3,2.6-14.5-23-37.5-39-56.8-57.6-11.6-12.6-25.8-21.8-39.9-31.2-27.2-21.4-58.2-37.5-91.5-46.8-1.9-.6-3.1-1.5-2.2-3.3,35.6-46.7,105.7-71.6,161.2-85.7,12.2-2.8,24.6-4.6,37.1-5.4,6.8-.2,17-4.1,18.9,5.6ZM1660.8,128.2c.2.9-.4,1.9-.9,2.7-5.3,7.3-10,15.4-16.7,21.3-2.7-.9-2.8-7.2-7.7-7.9-2.3-.6-2.2-1.5-.9-3.1,5.3-6,9.7-14.1,16-19.4,1.3-.8,10.2,5,10.3,6.5ZM1664.3,124.8c-3.7-1.7-6.8-4.6-10.5-6.9-.4-.3-.9-.7-1-1.2-.2-1.4.9-3,2.4-1.9,3,2.8,11.2,5.7,9.1,10ZM1673.5,112.1c-.3,1.4-3.6,7.1-5.3,5.7-3.2-2.7-7.9-4.7-10-8.2,1.2-9.9,13.4-3.6,15.3,2.5ZM1677.7,105.8c-3.6-1.5-6.8-4.6-10.2-6.7-.3-.2-.6-.6-.4-1,2-2.3,4.9.4,6.9,1.5,2,.9,5.2,3.4,3.7,6.2ZM1696.1,79c-3.2,6.7-8.2,12.2-12.3,18.5-2.1,3.1-3.7,1.4-6.3-.8-1.5-1.5-4.7-3.1-4.9-5.2,4.3-7.3,11.1-14.1,18.3-18.5,4.2-2.4,7.1,2.1,5.2,5.9Z" stroke="#000" stroke-miterlimit="10" stroke-width=".3"/>
        </g>
        <g>
          <path d="M1685.3,68.8c-7.9,5.8-12.9,14.2-20,20.6-2.9,1.7-7.9-.2-10.6,2.5-3.2,3.7,3.1,9.5-1.1,12.9-2.7,1.9-7.8,0-10.8,2.6-4.4,3.7,1.2,9.3.4,13.6-3.2,6.5-8.9,11.8-13.1,18-3.1,4.4-8.3,5.9-13.5,6.1-12.6.9-25.2,2.3-37.4,5.4-56.6,14.7-126.3,40.1-161.7,89-5.7,6.4-2.1,11.7-.9,18.9,1.1,6.9-2,13.5-5.9,19-5.2,6.3-11.3-4.1-17.8,5.3-3.6,4.5-7.2,8.9-10.8,13.5-6.1,6.4-8.4,7.5-3.8,16.9,6.7,14.9,17.6,23,29.8,32.8,29.6,25.7,61.1,48.8,92.9,71.8,21.6,15.3,69.4,48.2,84.7,10.9,6.6-10,1-9.2.4-18.2,1.3-4.8,4-10.9,9.6-11,20.2-.6,19.5-1,29.7-17.9,6.1-10.7,12.5-21.3,17.5-32.4,9.3-22.9,12.7-47.9,13.7-72.5,4.2-33.4-1-66.6-7.5-99.4-1.5-8.3-6.6-17.5,0-24.8,5.2-5.9,8.7-14.2,15.2-18.4,2.8-.4,7.1,2,9.6-.6,3.7-5.1-4.8-9.2,1-15.3,4.5-5.6,14.2,2.8,12.4-10.2-3.6-9.9,10.2-19.1,13.3-29.1,3.6-10-7.7-17.1-15.6-10Z" fill="#e6c9fe"/>
          <path d="M1685.3,68.8c-7.9,5.8-12.9,14.2-20,20.6-2.9,1.7-7.9-.2-10.6,2.5-3.2,3.7,3.1,9.5-1.1,12.9-2.7,1.9-7.8,0-10.8,2.6-4.4,3.7,1.2,9.3.4,13.6-3.2,6.5-8.9,11.8-13.1,18-3.1,4.4-8.3,5.9-13.5,6.1-12.6.9-25.2,2.3-37.4,5.4-56.6,14.7-126.3,40.1-161.7,89-5.7,6.4-2.1,11.7-.9,18.9,1.1,6.9-2,13.5-5.9,19-5.2,6.3-11.3-4.1-17.8,5.3-3.6,4.5-7.2,8.9-10.8,13.5-6.1,6.4-8.4,7.5-3.8,16.9,6.7,14.9,17.6,23,29.8,32.8,29.6,25.7,61.1,48.8,92.9,71.8,21.6,15.3,69.4,48.2,84.7,10.9,6.6-10,1-9.2.4-18.2,1.3-4.8,4-10.9,9.6-11,20.2-.6,19.5-1,29.7-17.9,6.1-10.7,12.5-21.3,17.5-32.4,9.3-22.9,12.7-47.9,13.7-72.5,4.2-33.4-1-66.6-7.5-99.4-1.5-8.3-6.6-17.5,0-24.8,5.2-5.9,8.7-14.2,15.2-18.4,2.8-.4,7.1,2,9.6-.6,3.7-5.1-4.8-9.2,1-15.3,4.5-5.6,14.2,2.8,12.4-10.2-3.6-9.9,10.2-19.1,13.3-29.1,3.6-10-7.7-17.1-15.6-10ZM1553.4,441c-41.3-12.6-73.2-44.6-107.9-69.2-14.7-11.9-28.9-24.5-43.6-36.5-8.6-6.6-15.5-15.1-19.8-25.1-3.2-7.8,8.9-3,13.8-1,2.6,1.1,4.7,3.2,4.9,6.1,2.9,16.1,29.9,31.6,42.1,42.4,32.6,24.9,65.2,50.1,100.9,70.5,4.7,2.9,10.1,4.3,15.5,2.4,4.3-1.2,6.4,3.8,8.9,6.4,5.3,6.8-12.2,5-14.8,3.8ZM1407.6,316c.9-1.1,3.8,0,5.4.7,23.4,9.3,43.3,25.1,63.2,40.2,26.2,20.4,52.2,38.2,76.1,61.2,1.4,1.5,3.2,5.6,1.8,6.8-3.1,1.3-9.4-1.7-12.3-3.3-24.9-15.7-47.7-31-70.9-49.2-20.5-14.8-38.9-29.4-58-46.1-2-1.7-6.7-7.9-5.3-10.3ZM1583.2,419.5c1.8,4-2.9,8-4.6,11.6-2.9,5.4-4.7,3.8-8.3,0-6.6-6.5-11.5-14.4-18.2-20.7-34.9-30-71.6-58.1-109.3-84.4-16.9-9.8-33.6-19.4-52.5-25-7.8-3.1,3-9.7,5.4-13.4,4.7-5.7,13,1.6,18.4,3.3,39.5,19.5,77.1,42.2,110.1,71.8,21.7,16.9,41.9,35.3,58.9,56.9ZM1581.6,406.7c-3.4-.5-5.6-5.2-8.2-7.4-21-23.7-47-42-71.1-62.3-26.3-22.6-58-36.4-87.1-54.9-1.2-1.9.6-4,1.7-6.3,3.7-10.7,13.4,1.3,19.7,3.2,41.7,19.7,80,47.4,114.6,78.1,12.2,11.3,27.8,19,37.3,33.1,3.7,4.9-2.4,9.8-4.4,14.2-.6.9-1.3,2.1-2.4,2.4ZM1608.7,391.8c-1.1,1.1-2.9,1-4.4,1.1-2.8.1-5.7.8-7.8-.5-4.9-4.8-8.4-11.2-13.5-15.9-10.1-9.4-21.6-17.3-31.9-26.4-34.8-31.2-74.1-57.7-115.8-78.5-8.1-4.9-14.5-6.4-13.8-17.6-.7-8.2,14.9,1.5,18.9,2,28.3,9.2,53.5,25.2,76.6,43.8,17.8,10.7,31.2,26.6,46.6,40.1,9,7.2,16.6,16.1,24.7,24.3,5.9,5.4,20.8,19.9,20.5,27.6ZM1638.4,156.7c11.9,46.2,16.7,93.4,11.2,140.8-2.7,16.2-5.1,33-11.3,48.3-5,11.3-11.4,22-17.4,32.7-3,4.4-5.4,10.7-9.3,2.6-14.5-23-37.5-39-56.8-57.6-11.6-12.6-25.8-21.8-39.9-31.2-27.2-21.4-58.2-37.5-91.5-46.8-1.9-.6-3.1-1.5-2.2-3.3,35.6-46.7,105.7-71.6,161.2-85.7,12.2-2.8,24.6-4.6,37.1-5.4,6.8-.2,17-4.1,18.9,5.6ZM1660.3,127.7c.2.9-.4,1.9-.9,2.7-5.3,7.3-10,15.4-16.7,21.3-2.7-.9-2.8-7.2-7.7-7.9-2.3-.6-2.2-1.5-.9-3.1,5.3-6,9.7-14.1,16-19.4,1.3-.8,10.2,5,10.3,6.5ZM1663.8,124.3c-3.7-1.7-6.8-4.6-10.5-6.9-.4-.3-.9-.7-1-1.2-.2-1.4.9-3,2.4-1.9,3,2.8,11.2,5.7,9.1,10ZM1673,111.6c-.3,1.4-3.6,7.1-5.3,5.7-3.2-2.7-7.9-4.7-10-8.2,1.2-9.9,13.4-3.6,15.3,2.5ZM1677.2,105.3c-3.6-1.5-6.8-4.6-10.2-6.7-.3-.2-.6-.6-.4-1,2-2.3,4.9.4,6.9,1.5,2,.9,5.2,3.4,3.7,6.2ZM1695.6,78.5c-3.2,6.7-8.2,12.2-12.3,18.5-2.1,3.1-3.7,1.4-6.3-.8-1.5-1.5-4.7-3.1-4.9-5.2,4.3-7.3,11.1-14.1,18.3-18.5,4.2-2.4,7.1,2.1,5.2,5.9Z" stroke="#000" stroke-miterlimit="10" stroke-width=".3"/>
        </g>
        <g>
          <path d="M1684.8,68.3c-7.9,5.8-12.9,14.2-20,20.6-2.9,1.7-7.9-.2-10.6,2.5-3.2,3.7,3.1,9.5-1.1,12.9-2.7,1.9-7.8,0-10.8,2.6-4.4,3.7,1.2,9.3.4,13.6-3.2,6.5-8.9,11.8-13.1,18-3.1,4.4-8.3,5.9-13.5,6.1-12.6.9-25.2,2.3-37.4,5.4-56.6,14.7-126.3,40.1-161.7,89-5.7,6.4-2.1,11.7-.9,18.9,1.1,6.9-2,13.5-5.9,19-5.2,6.3-11.3-4.1-17.8,5.3-3.6,4.5-7.2,8.9-10.8,13.5-6.1,6.4-8.4,7.5-3.8,16.9,6.7,14.9,17.6,23,29.8,32.8,29.6,25.7,61.1,48.8,92.9,71.8,21.6,15.3,69.4,48.2,84.7,10.9,6.6-10,1-9.2.4-18.2,1.3-4.8,4-10.9,9.6-11,20.2-.6,19.5-1,29.7-17.9,6.1-10.7,12.5-21.3,17.5-32.4,9.3-22.9,12.7-47.9,13.7-72.5,4.2-33.4-1-66.6-7.5-99.4-1.5-8.3-6.6-17.5,0-24.8,5.2-5.9,8.7-14.2,15.2-18.4,2.8-.4,7.1,2,9.6-.6,3.7-5.1-4.8-9.2,1-15.3,4.5-5.6,14.2,2.8,12.4-10.2-3.6-9.9,10.2-19.1,13.3-29.1,3.6-10-7.7-17.1-15.6-10Z" fill="#e6c9fe"/>
          <path d="M1684.8,68.3c-7.9,5.8-12.9,14.2-20,20.6-2.9,1.7-7.9-.2-10.6,2.5-3.2,3.7,3.1,9.5-1.1,12.9-2.7,1.9-7.8,0-10.8,2.6-4.4,3.7,1.2,9.3.4,13.6-3.2,6.5-8.9,11.8-13.1,18-3.1,4.4-8.3,5.9-13.5,6.1-12.6.9-25.2,2.3-37.4,5.4-56.6,14.7-126.3,40.1-161.7,89-5.7,6.4-2.1,11.7-.9,18.9,1.1,6.9-2,13.5-5.9,19-5.2,6.3-11.3-4.1-17.8,5.3-3.6,4.5-7.2,8.9-10.8,13.5-6.1,6.4-8.4,7.5-3.8,16.9,6.7,14.9,17.6,23,29.8,32.8,29.6,25.7,61.1,48.8,92.9,71.8,21.6,15.3,69.4,48.2,84.7,10.9,6.6-10,1-9.2.4-18.2,1.3-4.8,4-10.9,9.6-11,20.2-.6,19.5-1,29.7-17.9,6.1-10.7,12.5-21.3,17.5-32.4,9.3-22.9,12.7-47.9,13.7-72.5,4.2-33.4-1-66.6-7.5-99.4-1.5-8.3-6.6-17.5,0-24.8,5.2-5.9,8.7-14.2,15.2-18.4,2.8-.4,7.1,2,9.6-.6,3.7-5.1-4.8-9.2,1-15.3,4.5-5.6,14.2,2.8,12.4-10.2-3.6-9.9,10.2-19.1,13.3-29.1,3.6-10-7.7-17.1-15.6-10ZM1552.9,440.5c-41.3-12.6-73.2-44.6-107.9-69.2-14.7-11.9-28.9-24.5-43.6-36.5-8.6-6.6-15.5-15.1-19.8-25.1-3.2-7.8,8.9-3,13.8-1,2.6,1.1,4.7,3.2,4.9,6.1,2.9,16.1,29.9,31.6,42.1,42.4,32.6,24.9,65.2,50.1,100.9,70.5,4.7,2.9,10.1,4.3,15.5,2.4,4.3-1.2,6.4,3.8,8.9,6.4,5.3,6.8-12.2,5-14.8,3.8ZM1407.1,315.5c.9-1.1,3.8,0,5.4.7,23.4,9.3,43.3,25.1,63.2,40.2,26.2,20.4,52.2,38.2,76.1,61.2,1.4,1.5,3.2,5.6,1.8,6.8-3.1,1.3-9.4-1.7-12.3-3.3-24.9-15.7-47.7-31-70.9-49.2-20.5-14.8-38.9-29.4-58-46.1-2-1.7-6.7-7.9-5.3-10.3ZM1582.7,419c1.8,4-2.9,8-4.6,11.6-2.9,5.4-4.7,3.8-8.3,0-6.6-6.5-11.5-14.4-18.2-20.7-34.9-30-71.6-58.1-109.3-84.4-16.9-9.8-33.6-19.4-52.5-25-7.8-3.1,3-9.7,5.4-13.4,4.7-5.7,13,1.6,18.4,3.3,39.5,19.5,77.1,42.2,110.1,71.8,21.7,16.9,41.9,35.3,58.9,56.9ZM1581.1,406.2c-3.4-.5-5.6-5.2-8.2-7.4-21-23.7-47-42-71.1-62.3-26.3-22.6-58-36.4-87.1-54.9-1.2-1.9.6-4,1.7-6.3,3.7-10.7,13.4,1.3,19.7,3.2,41.7,19.7,80,47.4,114.6,78.1,12.2,11.3,27.8,19,37.3,33.1,3.7,4.9-2.4,9.8-4.4,14.2-.6.9-1.3,2.1-2.4,2.4ZM1608.2,391.3c-1.1,1.1-2.9,1-4.4,1.1-2.8.1-5.7.8-7.8-.5-4.9-4.8-8.4-11.2-13.5-15.9-10.1-9.4-21.6-17.3-31.9-26.4-34.8-31.2-74.1-57.7-115.8-78.5-8.1-4.9-14.5-6.4-13.8-17.6-.7-8.2,14.9,1.5,18.9,2,28.3,9.2,53.5,25.2,76.6,43.8,17.8,10.7,31.2,26.6,46.6,40.1,9,7.2,16.6,16.1,24.7,24.3,5.9,5.4,20.8,19.9,20.5,27.6ZM1637.9,156.2c11.9,46.2,16.7,93.4,11.2,140.8-2.7,16.2-5.1,33-11.3,48.3-5,11.3-11.4,22-17.4,32.7-3,4.4-5.4,10.7-9.3,2.6-14.5-23-37.5-39-56.8-57.6-11.6-12.6-25.8-21.8-39.9-31.2-27.2-21.4-58.2-37.5-91.5-46.8-1.9-.6-3.1-1.5-2.2-3.3,35.6-46.7,105.7-71.6,161.2-85.7,12.2-2.8,24.6-4.6,37.1-5.4,6.8-.2,17-4.1,18.9,5.6ZM1659.8,127.2c.2.9-.4,1.9-.9,2.7-5.3,7.3-10,15.4-16.7,21.3-2.7-.9-2.8-7.2-7.7-7.9-2.3-.6-2.2-1.5-.9-3.1,5.3-6,9.7-14.1,16-19.4,1.3-.8,10.2,5,10.3,6.5ZM1663.3,123.8c-3.7-1.7-6.8-4.6-10.5-6.9-.4-.3-.9-.7-1-1.2-.2-1.4.9-3,2.4-1.9,3,2.8,11.2,5.7,9.1,10ZM1672.5,111.1c-.3,1.4-3.6,7.1-5.3,5.7-3.2-2.7-7.9-4.7-10-8.2,1.2-9.9,13.4-3.6,15.3,2.5ZM1676.7,104.8c-3.6-1.5-6.8-4.6-10.2-6.7-.3-.2-.6-.6-.4-1,2-2.3,4.9.4,6.9,1.5,2,.9,5.2,3.4,3.7,6.2ZM1695.1,78c-3.2,6.7-8.2,12.2-12.3,18.5-2.1,3.1-3.7,1.4-6.3-.8-1.5-1.5-4.7-3.1-4.9-5.2,4.3-7.3,11.1-14.1,18.3-18.5,4.2-2.4,7.1,2.1,5.2,5.9Z" stroke="#000" stroke-miterlimit="10" stroke-width=".3"/>
        </g>
        <g>
          <path d="M1684.3,67.8c-7.9,5.8-12.9,14.2-20,20.6-2.9,1.7-7.9-.2-10.6,2.5-3.2,3.7,3.1,9.5-1.1,12.9-2.7,1.9-7.8,0-10.8,2.6-4.4,3.7,1.2,9.3.4,13.6-3.2,6.5-8.9,11.8-13.1,18-3.1,4.4-8.3,5.9-13.5,6.1-12.6.9-25.2,2.3-37.4,5.4-56.6,14.7-126.3,40.1-161.7,89-5.7,6.4-2.1,11.7-.9,18.9,1.1,6.9-2,13.5-5.9,19-5.2,6.3-11.3-4.1-17.8,5.3-3.6,4.5-7.2,8.9-10.8,13.5-6.1,6.4-8.4,7.5-3.8,16.9,6.7,14.9,17.6,23,29.8,32.8,29.6,25.7,61.1,48.8,92.9,71.8,21.6,15.3,69.4,48.2,84.7,10.9,6.6-10,1-9.2.4-18.2,1.3-4.8,4-10.9,9.6-11,20.2-.6,19.5-1,29.7-17.9,6.1-10.7,12.5-21.3,17.5-32.4,9.3-22.9,12.7-47.9,13.7-72.5,4.2-33.4-1-66.6-7.5-99.4-1.5-8.3-6.6-17.5,0-24.8,5.2-5.9,8.7-14.2,15.2-18.4,2.8-.4,7.1,2,9.6-.6,3.7-5.1-4.8-9.2,1-15.3,4.5-5.6,14.2,2.8,12.4-10.2-3.6-9.9,10.2-19.1,13.3-29.1,3.6-10-7.7-17.1-15.6-10Z" fill="#e6c9fe"/>
          <path d="M1684.3,67.8c-7.9,5.8-12.9,14.2-20,20.6-2.9,1.7-7.9-.2-10.6,2.5-3.2,3.7,3.1,9.5-1.1,12.9-2.7,1.9-7.8,0-10.8,2.6-4.4,3.7,1.2,9.3.4,13.6-3.2,6.5-8.9,11.8-13.1,18-3.1,4.4-8.3,5.9-13.5,6.1-12.6.9-25.2,2.3-37.4,5.4-56.6,14.7-126.3,40.1-161.7,89-5.7,6.4-2.1,11.7-.9,18.9,1.1,6.9-2,13.5-5.9,19-5.2,6.3-11.3-4.1-17.8,5.3-3.6,4.5-7.2,8.9-10.8,13.5-6.1,6.4-8.4,7.5-3.8,16.9,6.7,14.9,17.6,23,29.8,32.8,29.6,25.7,61.1,48.8,92.9,71.8,21.6,15.3,69.4,48.2,84.7,10.9,6.6-10,1-9.2.4-18.2,1.3-4.8,4-10.9,9.6-11,20.2-.6,19.5-1,29.7-17.9,6.1-10.7,12.5-21.3,17.5-32.4,9.3-22.9,12.7-47.9,13.7-72.5,4.2-33.4-1-66.6-7.5-99.4-1.5-8.3-6.6-17.5,0-24.8,5.2-5.9,8.7-14.2,15.2-18.4,2.8-.4,7.1,2,9.6-.6,3.7-5.1-4.8-9.2,1-15.3,4.5-5.6,14.2,2.8,12.4-10.2-3.6-9.9,10.2-19.1,13.3-29.1,3.6-10-7.7-17.1-15.6-10ZM1552.4,440c-41.3-12.6-73.2-44.6-107.9-69.2-14.7-11.9-28.9-24.5-43.6-36.5-8.6-6.6-15.5-15.1-19.8-25.1-3.2-7.8,8.9-3,13.8-1,2.6,1.1,4.7,3.2,4.9,6.1,2.9,16.1,29.9,31.6,42.1,42.4,32.6,24.9,65.2,50.1,100.9,70.5,4.7,2.9,10.1,4.3,15.5,2.4,4.3-1.2,6.4,3.8,8.9,6.4,5.3,6.8-12.2,5-14.8,3.8ZM1406.6,315c.9-1.1,3.8,0,5.4.7,23.4,9.3,43.3,25.1,63.2,40.2,26.2,20.4,52.2,38.2,76.1,61.2,1.4,1.5,3.2,5.6,1.8,6.8-3.1,1.3-9.4-1.7-12.3-3.3-24.9-15.7-47.7-31-70.9-49.2-20.5-14.8-38.9-29.4-58-46.1-2-1.7-6.7-7.9-5.3-10.3ZM1582.2,418.5c1.8,4-2.9,8-4.6,11.6-2.9,5.4-4.7,3.8-8.3,0-6.6-6.5-11.5-14.4-18.2-20.7-34.9-30-71.6-58.1-109.3-84.4-16.9-9.8-33.6-19.4-52.5-25-7.8-3.1,3-9.7,5.4-13.4,4.7-5.7,13,1.6,18.4,3.3,39.5,19.5,77.1,42.2,110.1,71.8,21.7,16.9,41.9,35.3,58.9,56.9ZM1580.6,405.7c-3.4-.5-5.6-5.2-8.2-7.4-21-23.7-47-42-71.1-62.3-26.3-22.6-58-36.4-87.1-54.9-1.2-1.9.6-4,1.7-6.3,3.7-10.7,13.4,1.3,19.7,3.2,41.7,19.7,80,47.4,114.6,78.1,12.2,11.3,27.8,19,37.3,33.1,3.7,4.9-2.4,9.8-4.4,14.2-.6.9-1.3,2.1-2.4,2.4ZM1607.7,390.8c-1.1,1.1-2.9,1-4.4,1.1-2.8.1-5.7.8-7.8-.5-4.9-4.8-8.4-11.2-13.5-15.9-10.1-9.4-21.6-17.3-31.9-26.4-34.8-31.2-74.1-57.7-115.8-78.5-8.1-4.9-14.5-6.4-13.8-17.6-.7-8.2,14.9,1.5,18.9,2,28.3,9.2,53.5,25.2,76.6,43.8,17.8,10.7,31.2,26.6,46.6,40.1,9,7.2,16.6,16.1,24.7,24.3,5.9,5.4,20.8,19.9,20.5,27.6ZM1637.4,155.7c11.9,46.2,16.7,93.4,11.2,140.8-2.7,16.2-5.1,33-11.3,48.3-5,11.3-11.4,22-17.4,32.7-3,4.4-5.4,10.7-9.3,2.6-14.5-23-37.5-39-56.8-57.6-11.6-12.6-25.8-21.8-39.9-31.2-27.2-21.4-58.2-37.5-91.5-46.8-1.9-.6-3.1-1.5-2.2-3.3,35.6-46.7,105.7-71.6,161.2-85.7,12.2-2.8,24.6-4.6,37.1-5.4,6.8-.2,17-4.1,18.9,5.6ZM1659.3,126.7c.2.9-.4,1.9-.9,2.7-5.3,7.3-10,15.4-16.7,21.3-2.7-.9-2.8-7.2-7.7-7.9-2.3-.6-2.2-1.5-.9-3.1,5.3-6,9.7-14.1,16-19.4,1.3-.8,10.2,5,10.3,6.5ZM1662.8,123.3c-3.7-1.7-6.8-4.6-10.5-6.9-.4-.3-.9-.7-1-1.2-.2-1.4.9-3,2.4-1.9,3,2.8,11.2,5.7,9.1,10ZM1672,110.6c-.3,1.4-3.6,7.1-5.3,5.7-3.2-2.7-7.9-4.7-10-8.2,1.2-9.9,13.4-3.6,15.3,2.5ZM1676.2,104.3c-3.6-1.5-6.8-4.6-10.2-6.7-.3-.2-.6-.6-.4-1,2-2.3,4.9.4,6.9,1.5,2,.9,5.2,3.4,3.7,6.2ZM1694.6,77.5c-3.2,6.7-8.2,12.2-12.3,18.5-2.1,3.1-3.7,1.4-6.3-.8-1.5-1.5-4.7-3.1-4.9-5.2,4.3-7.3,11.1-14.1,18.3-18.5,4.2-2.4,7.1,2.1,5.2,5.9Z" stroke="#000" stroke-miterlimit="10" stroke-width=".3"/>
        </g>
        <g>
          <path d="M1683.8,67.3c-7.9,5.8-12.9,14.2-20,20.6-2.9,1.7-7.9-.2-10.6,2.5-3.2,3.7,3.1,9.5-1.1,12.9-2.7,1.9-7.8,0-10.8,2.6-4.4,3.7,1.2,9.3.4,13.6-3.2,6.5-8.9,11.8-13.1,18-3.1,4.4-8.3,5.9-13.5,6.1-12.6.9-25.2,2.3-37.4,5.4-56.6,14.7-126.3,40.1-161.7,89-5.7,6.4-2.1,11.7-.9,18.9,1.1,6.9-2,13.5-5.9,19-5.2,6.3-11.3-4.1-17.8,5.3-3.6,4.5-7.2,8.9-10.8,13.5-6.1,6.4-8.4,7.5-3.8,16.9,6.7,14.9,17.6,23,29.8,32.8,29.6,25.7,61.1,48.8,92.9,71.8,21.6,15.3,69.4,48.2,84.7,10.9,6.6-10,1-9.2.4-18.2,1.3-4.8,4-10.9,9.6-11,20.2-.6,19.5-1,29.7-17.9,6.1-10.7,12.5-21.3,17.5-32.4,9.3-22.9,12.7-47.9,13.7-72.5,4.2-33.4-1-66.6-7.5-99.4-1.5-8.3-6.6-17.5,0-24.8,5.2-5.9,8.7-14.2,15.2-18.4,2.8-.4,7.1,2,9.6-.6,3.7-5.1-4.8-9.2,1-15.3,4.5-5.6,14.2,2.8,12.4-10.2-3.6-9.9,10.2-19.1,13.3-29.1,3.6-10-7.7-17.1-15.6-10Z" fill="#e6c9fe"/>
          <path d="M1683.8,67.3c-7.9,5.8-12.9,14.2-20,20.6-2.9,1.7-7.9-.2-10.6,2.5-3.2,3.7,3.1,9.5-1.1,12.9-2.7,1.9-7.8,0-10.8,2.6-4.4,3.7,1.2,9.3.4,13.6-3.2,6.5-8.9,11.8-13.1,18-3.1,4.4-8.3,5.9-13.5,6.1-12.6.9-25.2,2.3-37.4,5.4-56.6,14.7-126.3,40.1-161.7,89-5.7,6.4-2.1,11.7-.9,18.9,1.1,6.9-2,13.5-5.9,19-5.2,6.3-11.3-4.1-17.8,5.3-3.6,4.5-7.2,8.9-10.8,13.5-6.1,6.4-8.4,7.5-3.8,16.9,6.7,14.9,17.6,23,29.8,32.8,29.6,25.7,61.1,48.8,92.9,71.8,21.6,15.3,69.4,48.2,84.7,10.9,6.6-10,1-9.2.4-18.2,1.3-4.8,4-10.9,9.6-11,20.2-.6,19.5-1,29.7-17.9,6.1-10.7,12.5-21.3,17.5-32.4,9.3-22.9,12.7-47.9,13.7-72.5,4.2-33.4-1-66.6-7.5-99.4-1.5-8.3-6.6-17.5,0-24.8,5.2-5.9,8.7-14.2,15.2-18.4,2.8-.4,7.1,2,9.6-.6,3.7-5.1-4.8-9.2,1-15.3,4.5-5.6,14.2,2.8,12.4-10.2-3.6-9.9,10.2-19.1,13.3-29.1,3.6-10-7.7-17.1-15.6-10ZM1551.9,439.5c-41.3-12.6-73.2-44.6-107.9-69.2-14.7-11.9-28.9-24.5-43.6-36.5-8.6-6.6-15.5-15.1-19.8-25.1-3.2-7.8,8.9-3,13.8-1,2.6,1.1,4.7,3.2,4.9,6.1,2.9,16.1,29.9,31.6,42.1,42.4,32.6,24.9,65.2,50.1,100.9,70.5,4.7,2.9,10.1,4.3,15.5,2.4,4.3-1.2,6.4,3.8,8.9,6.4,5.3,6.8-12.2,5-14.8,3.8ZM1406.1,314.5c.9-1.1,3.8,0,5.4.7,23.4,9.3,43.3,25.1,63.2,40.2,26.2,20.4,52.2,38.2,76.1,61.2,1.4,1.5,3.2,5.6,1.8,6.8-3.1,1.3-9.4-1.7-12.3-3.3-24.9-15.7-47.7-31-70.9-49.2-20.5-14.8-38.9-29.4-58-46.1-2-1.7-6.7-7.9-5.3-10.3ZM1581.7,418c1.8,4-2.9,8-4.6,11.6-2.9,5.4-4.7,3.8-8.3,0-6.6-6.5-11.5-14.4-18.2-20.7-34.9-30-71.6-58.1-109.3-84.4-16.9-9.8-33.6-19.4-52.5-25-7.8-3.1,3-9.7,5.4-13.4,4.7-5.7,13,1.6,18.4,3.3,39.5,19.5,77.1,42.2,110.1,71.8,21.7,16.9,41.9,35.3,58.9,56.9ZM1580.1,405.2c-3.4-.5-5.6-5.2-8.2-7.4-21-23.7-47-42-71.1-62.3-26.3-22.6-58-36.4-87.1-54.9-1.2-1.9.6-4,1.7-6.3,3.7-10.7,13.4,1.3,19.7,3.2,41.7,19.7,80,47.4,114.6,78.1,12.2,11.3,27.8,19,37.3,33.1,3.7,4.9-2.4,9.8-4.4,14.2-.6.9-1.3,2.1-2.4,2.4ZM1607.2,390.3c-1.1,1.1-2.9,1-4.4,1.1-2.8.1-5.7.8-7.8-.5-4.9-4.8-8.4-11.2-13.5-15.9-10.1-9.4-21.6-17.3-31.9-26.4-34.8-31.2-74.1-57.7-115.8-78.5-8.1-4.9-14.5-6.4-13.8-17.6-.7-8.2,14.9,1.5,18.9,2,28.3,9.2,53.5,25.2,76.6,43.8,17.8,10.7,31.2,26.6,46.6,40.1,9,7.2,16.6,16.1,24.7,24.3,5.9,5.4,20.8,19.9,20.5,27.6ZM1636.9,155.2c11.9,46.2,16.7,93.4,11.2,140.8-2.7,16.2-5.1,33-11.3,48.3-5,11.3-11.4,22-17.4,32.7-3,4.4-5.4,10.7-9.3,2.6-14.5-23-37.5-39-56.8-57.6-11.6-12.6-25.8-21.8-39.9-31.2-27.2-21.4-58.2-37.5-91.5-46.8-1.9-.6-3.1-1.5-2.2-3.3,35.6-46.7,105.7-71.6,161.2-85.7,12.2-2.8,24.6-4.6,37.1-5.4,6.8-.2,17-4.1,18.9,5.6ZM1658.8,126.2c.2.9-.4,1.9-.9,2.7-5.3,7.3-10,15.4-16.7,21.3-2.7-.9-2.8-7.2-7.7-7.9-2.3-.6-2.2-1.5-.9-3.1,5.3-6,9.7-14.1,16-19.4,1.3-.8,10.2,5,10.3,6.5ZM1662.3,122.8c-3.7-1.7-6.8-4.6-10.5-6.9-.4-.3-.9-.7-1-1.2-.2-1.4.9-3,2.4-1.9,3,2.8,11.2,5.7,9.1,10ZM1671.5,110.1c-.3,1.4-3.6,7.1-5.3,5.7-3.2-2.7-7.9-4.7-10-8.2,1.2-9.9,13.4-3.6,15.3,2.5ZM1675.7,103.8c-3.6-1.5-6.8-4.6-10.2-6.7-.3-.2-.6-.6-.4-1,2-2.3,4.9.4,6.9,1.5,2,.9,5.2,3.4,3.7,6.2ZM1694.1,77c-3.2,6.7-8.2,12.2-12.3,18.5-2.1,3.1-3.7,1.4-6.3-.8-1.5-1.5-4.7-3.1-4.9-5.2,4.3-7.3,11.1-14.1,18.3-18.5,4.2-2.4,7.1,2.1,5.2,5.9Z" stroke="#000" stroke-miterlimit="10" stroke-width=".3"/>
        </g>
        <g>
          <path d="M1683.3,66.8c-7.9,5.8-12.9,14.2-20,20.6-2.9,1.7-7.9-.2-10.6,2.5-3.2,3.7,3.1,9.5-1.1,12.9-2.7,1.9-7.8,0-10.8,2.6-4.4,3.7,1.2,9.3.4,13.6-3.2,6.5-8.9,11.8-13.1,18-3.1,4.4-8.3,5.9-13.5,6.1-12.6.9-25.2,2.3-37.4,5.4-56.6,14.7-126.3,40.1-161.7,89-5.7,6.4-2.1,11.7-.9,18.9,1.1,6.9-2,13.5-5.9,19-5.2,6.3-11.3-4.1-17.8,5.3-3.6,4.5-7.2,8.9-10.8,13.5-6.1,6.4-8.4,7.5-3.8,16.9,6.7,14.9,17.6,23,29.8,32.8,29.6,25.7,61.1,48.8,92.9,71.8,21.6,15.3,69.4,48.2,84.7,10.9,6.6-10,1-9.2.4-18.2,1.3-4.8,4-10.9,9.6-11,20.2-.6,19.5-1,29.7-17.9,6.1-10.7,12.5-21.3,17.5-32.4,9.3-22.9,12.7-47.9,13.7-72.5,4.2-33.4-1-66.6-7.5-99.4-1.5-8.3-6.6-17.5,0-24.8,5.2-5.9,8.7-14.2,15.2-18.4,2.8-.4,7.1,2,9.6-.6,3.7-5.1-4.8-9.2,1-15.3,4.5-5.6,14.2,2.8,12.4-10.2-3.6-9.9,10.2-19.1,13.3-29.1,3.6-10-7.7-17.1-15.6-10Z" fill="#e6c9fe"/>
          <path d="M1683.3,66.8c-7.9,5.8-12.9,14.2-20,20.6-2.9,1.7-7.9-.2-10.6,2.5-3.2,3.7,3.1,9.5-1.1,12.9-2.7,1.9-7.8,0-10.8,2.6-4.4,3.7,1.2,9.3.4,13.6-3.2,6.5-8.9,11.8-13.1,18-3.1,4.4-8.3,5.9-13.5,6.1-12.6.9-25.2,2.3-37.4,5.4-56.6,14.7-126.3,40.1-161.7,89-5.7,6.4-2.1,11.7-.9,18.9,1.1,6.9-2,13.5-5.9,19-5.2,6.3-11.3-4.1-17.8,5.3-3.6,4.5-7.2,8.9-10.8,13.5-6.1,6.4-8.4,7.5-3.8,16.9,6.7,14.9,17.6,23,29.8,32.8,29.6,25.7,61.1,48.8,92.9,71.8,21.6,15.3,69.4,48.2,84.7,10.9,6.6-10,1-9.2.4-18.2,1.3-4.8,4-10.9,9.6-11,20.2-.6,19.5-1,29.7-17.9,6.1-10.7,12.5-21.3,17.5-32.4,9.3-22.9,12.7-47.9,13.7-72.5,4.2-33.4-1-66.6-7.5-99.4-1.5-8.3-6.6-17.5,0-24.8,5.2-5.9,8.7-14.2,15.2-18.4,2.8-.4,7.1,2,9.6-.6,3.7-5.1-4.8-9.2,1-15.3,4.5-5.6,14.2,2.8,12.4-10.2-3.6-9.9,10.2-19.1,13.3-29.1,3.6-10-7.7-17.1-15.6-10ZM1551.4,439c-41.3-12.6-73.2-44.6-107.9-69.2-14.7-11.9-28.9-24.5-43.6-36.5-8.6-6.6-15.5-15.1-19.8-25.1-3.2-7.8,8.9-3,13.8-1,2.6,1.1,4.7,3.2,4.9,6.1,2.9,16.1,29.9,31.6,42.1,42.4,32.6,24.9,65.2,50.1,100.9,70.5,4.7,2.9,10.1,4.3,15.5,2.4,4.3-1.2,6.4,3.8,8.9,6.4,5.3,6.8-12.2,5-14.8,3.8ZM1405.6,314c.9-1.1,3.8,0,5.4.7,23.4,9.3,43.3,25.1,63.2,40.2,26.2,20.4,52.2,38.2,76.1,61.2,1.4,1.5,3.2,5.6,1.8,6.8-3.1,1.3-9.4-1.7-12.3-3.3-24.9-15.7-47.7-31-70.9-49.2-20.5-14.8-38.9-29.4-58-46.1-2-1.7-6.7-7.9-5.3-10.3ZM1581.2,417.5c1.8,4-2.9,8-4.6,11.6-2.9,5.4-4.7,3.8-8.3,0-6.6-6.5-11.5-14.4-18.2-20.7-34.9-30-71.6-58.1-109.3-84.4-16.9-9.8-33.6-19.4-52.5-25-7.8-3.1,3-9.7,5.4-13.4,4.7-5.7,13,1.6,18.4,3.3,39.5,19.5,77.1,42.2,110.1,71.8,21.7,16.9,41.9,35.3,58.9,56.9ZM1579.6,404.7c-3.4-.5-5.6-5.2-8.2-7.4-21-23.7-47-42-71.1-62.3-26.3-22.6-58-36.4-87.1-54.9-1.2-1.9.6-4,1.7-6.3,3.7-10.7,13.4,1.3,19.7,3.2,41.7,19.7,80,47.4,114.6,78.1,12.2,11.3,27.8,19,37.3,33.1,3.7,4.9-2.4,9.8-4.4,14.2-.6.9-1.3,2.1-2.4,2.4ZM1606.7,389.8c-1.1,1.1-2.9,1-4.4,1.1-2.8.1-5.7.8-7.8-.5-4.9-4.8-8.4-11.2-13.5-15.9-10.1-9.4-21.6-17.3-31.9-26.4-34.8-31.2-74.1-57.7-115.8-78.5-8.1-4.9-14.5-6.4-13.8-17.6-.7-8.2,14.9,1.5,18.9,2,28.3,9.2,53.5,25.2,76.6,43.8,17.8,10.7,31.2,26.6,46.6,40.1,9,7.2,16.6,16.1,24.7,24.3,5.9,5.4,20.8,19.9,20.5,27.6ZM1636.4,154.7c11.9,46.2,16.7,93.4,11.2,140.8-2.7,16.2-5.1,33-11.3,48.3-5,11.3-11.4,22-17.4,32.7-3,4.4-5.4,10.7-9.3,2.6-14.5-23-37.5-39-56.8-57.6-11.6-12.6-25.8-21.8-39.9-31.2-27.2-21.4-58.2-37.5-91.5-46.8-1.9-.6-3.1-1.5-2.2-3.3,35.6-46.7,105.7-71.6,161.2-85.7,12.2-2.8,24.6-4.6,37.1-5.4,6.8-.2,17-4.1,18.9,5.6ZM1658.3,125.7c.2.9-.4,1.9-.9,2.7-5.3,7.3-10,15.4-16.7,21.3-2.7-.9-2.8-7.2-7.7-7.9-2.3-.6-2.2-1.5-.9-3.1,5.3-6,9.7-14.1,16-19.4,1.3-.8,10.2,5,10.3,6.5ZM1661.8,122.3c-3.7-1.7-6.8-4.6-10.5-6.9-.4-.3-.9-.7-1-1.2-.2-1.4.9-3,2.4-1.9,3,2.8,11.2,5.7,9.1,10ZM1671,109.6c-.3,1.4-3.6,7.1-5.3,5.7-3.2-2.7-7.9-4.7-10-8.2,1.2-9.9,13.4-3.6,15.3,2.5ZM1675.2,103.3c-3.6-1.5-6.8-4.6-10.2-6.7-.3-.2-.6-.6-.4-1,2-2.3,4.9.4,6.9,1.5,2,.9,5.2,3.4,3.7,6.2ZM1693.6,76.5c-3.2,6.7-8.2,12.2-12.3,18.5-2.1,3.1-3.7,1.4-6.3-.8-1.5-1.5-4.7-3.1-4.9-5.2,4.3-7.3,11.1-14.1,18.3-18.5,4.2-2.4,7.1,2.1,5.2,5.9Z" stroke="#000" stroke-miterlimit="10" stroke-width=".3"/>
        </g>
        <g>
          <path d="M1682.8,66.3c-7.9,5.8-12.9,14.2-20,20.6-2.9,1.7-7.9-.2-10.6,2.5-3.2,3.7,3.1,9.5-1.1,12.9-2.7,1.9-7.8,0-10.8,2.6-4.4,3.7,1.2,9.3.4,13.6-3.2,6.5-8.9,11.8-13.1,18-3.1,4.4-8.3,5.9-13.5,6.1-12.6.9-25.2,2.3-37.4,5.4-56.6,14.7-126.3,40.1-161.7,89-5.7,6.4-2.1,11.7-.9,18.9,1.1,6.9-2,13.5-5.9,19-5.2,6.3-11.3-4.1-17.8,5.3-3.6,4.5-7.2,8.9-10.8,13.5-6.1,6.4-8.4,7.5-3.8,16.9,6.7,14.9,17.6,23,29.8,32.8,29.6,25.7,61.1,48.8,92.9,71.8,21.6,15.3,69.4,48.2,84.7,10.9,6.6-10,1-9.2.4-18.2,1.3-4.8,4-10.9,9.6-11,20.2-.6,19.5-1,29.7-17.9,6.1-10.7,12.5-21.3,17.5-32.4,9.3-22.9,12.7-47.9,13.7-72.5,4.2-33.4-1-66.6-7.5-99.4-1.5-8.3-6.6-17.5,0-24.8,5.2-5.9,8.7-14.2,15.2-18.4,2.8-.4,7.1,2,9.6-.6,3.7-5.1-4.8-9.2,1-15.3,4.5-5.6,14.2,2.8,12.4-10.2-3.6-9.9,10.2-19.1,13.3-29.1,3.6-10-7.7-17.1-15.6-10Z" fill="#e6c9fe"/>
          <path d="M1682.8,66.3c-7.9,5.8-12.9,14.2-20,20.6-2.9,1.7-7.9-.2-10.6,2.5-3.2,3.7,3.1,9.5-1.1,12.9-2.7,1.9-7.8,0-10.8,2.6-4.4,3.7,1.2,9.3.4,13.6-3.2,6.5-8.9,11.8-13.1,18-3.1,4.4-8.3,5.9-13.5,6.1-12.6.9-25.2,2.3-37.4,5.4-56.6,14.7-126.3,40.1-161.7,89-5.7,6.4-2.1,11.7-.9,18.9,1.1,6.9-2,13.5-5.9,19-5.2,6.3-11.3-4.1-17.8,5.3-3.6,4.5-7.2,8.9-10.8,13.5-6.1,6.4-8.4,7.5-3.8,16.9,6.7,14.9,17.6,23,29.8,32.8,29.6,25.7,61.1,48.8,92.9,71.8,21.6,15.3,69.4,48.2,84.7,10.9,6.6-10,1-9.2.4-18.2,1.3-4.8,4-10.9,9.6-11,20.2-.6,19.5-1,29.7-17.9,6.1-10.7,12.5-21.3,17.5-32.4,9.3-22.9,12.7-47.9,13.7-72.5,4.2-33.4-1-66.6-7.5-99.4-1.5-8.3-6.6-17.5,0-24.8,5.2-5.9,8.7-14.2,15.2-18.4,2.8-.4,7.1,2,9.6-.6,3.7-5.1-4.8-9.2,1-15.3,4.5-5.6,14.2,2.8,12.4-10.2-3.6-9.9,10.2-19.1,13.3-29.1,3.6-10-7.7-17.1-15.6-10ZM1550.9,438.5c-41.3-12.6-73.2-44.6-107.9-69.2-14.7-11.9-28.9-24.5-43.6-36.5-8.6-6.6-15.5-15.1-19.8-25.1-3.2-7.8,8.9-3,13.8-1,2.6,1.1,4.7,3.2,4.9,6.1,2.9,16.1,29.9,31.6,42.1,42.4,32.6,24.9,65.2,50.1,100.9,70.5,4.7,2.9,10.1,4.3,15.5,2.4,4.3-1.2,6.4,3.8,8.9,6.4,5.3,6.8-12.2,5-14.8,3.8ZM1405.1,313.5c.9-1.1,3.8,0,5.4.7,23.4,9.3,43.3,25.1,63.2,40.2,26.2,20.4,52.2,38.2,76.1,61.2,1.4,1.5,3.2,5.6,1.8,6.8-3.1,1.3-9.4-1.7-12.3-3.3-24.9-15.7-47.7-31-70.9-49.2-20.5-14.8-38.9-29.4-58-46.1-2-1.7-6.7-7.9-5.3-10.3ZM1580.7,417c1.8,4-2.9,8-4.6,11.6-2.9,5.4-4.7,3.8-8.3,0-6.6-6.5-11.5-14.4-18.2-20.7-34.9-30-71.6-58.1-109.3-84.4-16.9-9.8-33.6-19.4-52.5-25-7.8-3.1,3-9.7,5.4-13.4,4.7-5.7,13,1.6,18.4,3.3,39.5,19.5,77.1,42.2,110.1,71.8,21.7,16.9,41.9,35.3,58.9,56.9ZM1579.1,404.2c-3.4-.5-5.6-5.2-8.2-7.4-21-23.7-47-42-71.1-62.3-26.3-22.6-58-36.4-87.1-54.9-1.2-1.9.6-4,1.7-6.3,3.7-10.7,13.4,1.3,19.7,3.2,41.7,19.7,80,47.4,114.6,78.1,12.2,11.3,27.8,19,37.3,33.1,3.7,4.9-2.4,9.8-4.4,14.2-.6.9-1.3,2.1-2.4,2.4ZM1606.2,389.3c-1.1,1.1-2.9,1-4.4,1.1-2.8.1-5.7.8-7.8-.5-4.9-4.8-8.4-11.2-13.5-15.9-10.1-9.4-21.6-17.3-31.9-26.4-34.8-31.2-74.1-57.7-115.8-78.5-8.1-4.9-14.5-6.4-13.8-17.6-.7-8.2,14.9,1.5,18.9,2,28.3,9.2,53.5,25.2,76.6,43.8,17.8,10.7,31.2,26.6,46.6,40.1,9,7.2,16.6,16.1,24.7,24.3,5.9,5.4,20.8,19.9,20.5,27.6ZM1635.9,154.2c11.9,46.2,16.7,93.4,11.2,140.8-2.7,16.2-5.1,33-11.3,48.3-5,11.3-11.4,22-17.4,32.7-3,4.4-5.4,10.7-9.3,2.6-14.5-23-37.5-39-56.8-57.6-11.6-12.6-25.8-21.8-39.9-31.2-27.2-21.4-58.2-37.5-91.5-46.8-1.9-.6-3.1-1.5-2.2-3.3,35.6-46.7,105.7-71.6,161.2-85.7,12.2-2.8,24.6-4.6,37.1-5.4,6.8-.2,17-4.1,18.9,5.6ZM1657.8,125.2c.2.9-.4,1.9-.9,2.7-5.3,7.3-10,15.4-16.7,21.3-2.7-.9-2.8-7.2-7.7-7.9-2.3-.6-2.2-1.5-.9-3.1,5.3-6,9.7-14.1,16-19.4,1.3-.8,10.2,5,10.3,6.5ZM1661.3,121.8c-3.7-1.7-6.8-4.6-10.5-6.9-.4-.3-.9-.7-1-1.2-.2-1.4.9-3,2.4-1.9,3,2.8,11.2,5.7,9.1,10ZM1670.5,109.1c-.3,1.4-3.6,7.1-5.3,5.7-3.2-2.7-7.9-4.7-10-8.2,1.2-9.9,13.4-3.6,15.3,2.5ZM1674.7,102.8c-3.6-1.5-6.8-4.6-10.2-6.7-.3-.2-.6-.6-.4-1,2-2.3,4.9.4,6.9,1.5,2,.9,5.2,3.4,3.7,6.2ZM1693.1,76c-3.2,6.7-8.2,12.2-12.3,18.5-2.1,3.1-3.7,1.4-6.3-.8-1.5-1.5-4.7-3.1-4.9-5.2,4.3-7.3,11.1-14.1,18.3-18.5,4.2-2.4,7.1,2.1,5.2,5.9Z" stroke="#000" stroke-miterlimit="10" stroke-width=".3"/>
        </g>
        <g>
          <path d="M1682.3,65.8c-7.9,5.8-12.9,14.2-20,20.6-2.9,1.7-7.9-.2-10.6,2.5-3.2,3.7,3.1,9.5-1.1,12.9-2.7,1.9-7.8,0-10.8,2.6-4.4,3.7,1.2,9.3.4,13.6-3.2,6.5-8.9,11.8-13.1,18-3.1,4.4-8.3,5.9-13.5,6.1-12.6.9-25.2,2.3-37.4,5.4-56.6,14.7-126.3,40.1-161.7,89-5.7,6.4-2.1,11.7-.9,18.9,1.1,6.9-2,13.5-5.9,19-5.2,6.3-11.3-4.1-17.8,5.3-3.6,4.5-7.2,8.9-10.8,13.5-6.1,6.4-8.4,7.5-3.8,16.9,6.7,14.9,17.6,23,29.8,32.8,29.6,25.7,61.1,48.8,92.9,71.8,21.6,15.3,69.4,48.2,84.7,10.9,6.6-10,1-9.2.4-18.2,1.3-4.8,4-10.9,9.6-11,20.2-.6,19.5-1,29.7-17.9,6.1-10.7,12.5-21.3,17.5-32.4,9.3-22.9,12.7-47.9,13.7-72.5,4.2-33.4-1-66.6-7.5-99.4-1.5-8.3-6.6-17.5,0-24.8,5.2-5.9,8.7-14.2,15.2-18.4,2.8-.4,7.1,2,9.6-.6,3.7-5.1-4.8-9.2,1-15.3,4.5-5.6,14.2,2.8,12.4-10.2-3.6-9.9,10.2-19.1,13.3-29.1,3.6-10-7.7-17.1-15.6-10Z" fill="#e6c9fe"/>
          <path d="M1682.3,65.8c-7.9,5.8-12.9,14.2-20,20.6-2.9,1.7-7.9-.2-10.6,2.5-3.2,3.7,3.1,9.5-1.1,12.9-2.7,1.9-7.8,0-10.8,2.6-4.4,3.7,1.2,9.3.4,13.6-3.2,6.5-8.9,11.8-13.1,18-3.1,4.4-8.3,5.9-13.5,6.1-12.6.9-25.2,2.3-37.4,5.4-56.6,14.7-126.3,40.1-161.7,89-5.7,6.4-2.1,11.7-.9,18.9,1.1,6.9-2,13.5-5.9,19-5.2,6.3-11.3-4.1-17.8,5.3-3.6,4.5-7.2,8.9-10.8,13.5-6.1,6.4-8.4,7.5-3.8,16.9,6.7,14.9,17.6,23,29.8,32.8,29.6,25.7,61.1,48.8,92.9,71.8,21.6,15.3,69.4,48.2,84.7,10.9,6.6-10,1-9.2.4-18.2,1.3-4.8,4-10.9,9.6-11,20.2-.6,19.5-1,29.7-17.9,6.1-10.7,12.5-21.3,17.5-32.4,9.3-22.9,12.7-47.9,13.7-72.5,4.2-33.4-1-66.6-7.5-99.4-1.5-8.3-6.6-17.5,0-24.8,5.2-5.9,8.7-14.2,15.2-18.4,2.8-.4,7.1,2,9.6-.6,3.7-5.1-4.8-9.2,1-15.3,4.5-5.6,14.2,2.8,12.4-10.2-3.6-9.9,10.2-19.1,13.3-29.1,3.6-10-7.7-17.1-15.6-10ZM1550.4,438c-41.3-12.6-73.2-44.6-107.9-69.2-14.7-11.9-28.9-24.5-43.6-36.5-8.6-6.6-15.5-15.1-19.8-25.1-3.2-7.8,8.9-3,13.8-1,2.6,1.1,4.7,3.2,4.9,6.1,2.9,16.1,29.9,31.6,42.1,42.4,32.6,24.9,65.2,50.1,100.9,70.5,4.7,2.9,10.1,4.3,15.5,2.4,4.3-1.2,6.4,3.8,8.9,6.4,5.3,6.8-12.2,5-14.8,3.8ZM1404.6,313c.9-1.1,3.8,0,5.4.7,23.4,9.3,43.3,25.1,63.2,40.2,26.2,20.4,52.2,38.2,76.1,61.2,1.4,1.5,3.2,5.6,1.8,6.8-3.1,1.3-9.4-1.7-12.3-3.3-24.9-15.7-47.7-31-70.9-49.2-20.5-14.8-38.9-29.4-58-46.1-2-1.7-6.7-7.9-5.3-10.3ZM1580.2,416.5c1.8,4-2.9,8-4.6,11.6-2.9,5.4-4.7,3.8-8.3,0-6.6-6.5-11.5-14.4-18.2-20.7-34.9-30-71.6-58.1-109.3-84.4-16.9-9.8-33.6-19.4-52.5-25-7.8-3.1,3-9.7,5.4-13.4,4.7-5.7,13,1.6,18.4,3.3,39.5,19.5,77.1,42.2,110.1,71.8,21.7,16.9,41.9,35.3,58.9,56.9ZM1578.6,403.7c-3.4-.5-5.6-5.2-8.2-7.4-21-23.7-47-42-71.1-62.3-26.3-22.6-58-36.4-87.1-54.9-1.2-1.9.6-4,1.7-6.3,3.7-10.7,13.4,1.3,19.7,3.2,41.7,19.7,80,47.4,114.6,78.1,12.2,11.3,27.8,19,37.3,33.1,3.7,4.9-2.4,9.8-4.4,14.2-.6.9-1.3,2.1-2.4,2.4ZM1605.7,388.8c-1.1,1.1-2.9,1-4.4,1.1-2.8.1-5.7.8-7.8-.5-4.9-4.8-8.4-11.2-13.5-15.9-10.1-9.4-21.6-17.3-31.9-26.4-34.8-31.2-74.1-57.7-115.8-78.5-8.1-4.9-14.5-6.4-13.8-17.6-.7-8.2,14.9,1.5,18.9,2,28.3,9.2,53.5,25.2,76.6,43.8,17.8,10.7,31.2,26.6,46.6,40.1,9,7.2,16.6,16.1,24.7,24.3,5.9,5.4,20.8,19.9,20.5,27.6ZM1635.4,153.7c11.9,46.2,16.7,93.4,11.2,140.8-2.7,16.2-5.1,33-11.3,48.3-5,11.3-11.4,22-17.4,32.7-3,4.4-5.4,10.7-9.3,2.6-14.5-23-37.5-39-56.8-57.6-11.6-12.6-25.8-21.8-39.9-31.2-27.2-21.4-58.2-37.5-91.5-46.8-1.9-.6-3.1-1.5-2.2-3.3,35.6-46.7,105.7-71.6,161.2-85.7,12.2-2.8,24.6-4.6,37.1-5.4,6.8-.2,17-4.1,18.9,5.6ZM1657.3,124.7c.2.9-.4,1.9-.9,2.7-5.3,7.3-10,15.4-16.7,21.3-2.7-.9-2.8-7.2-7.7-7.9-2.3-.6-2.2-1.5-.9-3.1,5.3-6,9.7-14.1,16-19.4,1.3-.8,10.2,5,10.3,6.5ZM1660.8,121.3c-3.7-1.7-6.8-4.6-10.5-6.9-.4-.3-.9-.7-1-1.2-.2-1.4.9-3,2.4-1.9,3,2.8,11.2,5.7,9.1,10ZM1670,108.6c-.3,1.4-3.6,7.1-5.3,5.7-3.2-2.7-7.9-4.7-10-8.2,1.2-9.9,13.4-3.6,15.3,2.5ZM1674.2,102.3c-3.6-1.5-6.8-4.6-10.2-6.7-.3-.2-.6-.6-.4-1,2-2.3,4.9.4,6.9,1.5,2,.9,5.2,3.4,3.7,6.2ZM1692.6,75.5c-3.2,6.7-8.2,12.2-12.3,18.5-2.1,3.1-3.7,1.4-6.3-.8-1.5-1.5-4.7-3.1-4.9-5.2,4.3-7.3,11.1-14.1,18.3-18.5,4.2-2.4,7.1,2.1,5.2,5.9Z" stroke="#000" stroke-miterlimit="10" stroke-width=".3"/>
        </g>
      </g>
    </g>
  </g>
</svg>