<?xml version="1.0" encoding="UTF-8"?>
<svg xmlns="http://www.w3.org/2000/svg" version="1.1" viewBox="0 0 1789.5 1022">
  <defs>
    <style>
      .cls-1 {
        fill: #e6c9fe;
      }

      .cls-2 {
        stroke-width: .6px;
      }

      .cls-2, .cls-3, .cls-4 {
        stroke: #000;
        stroke-miterlimit: 10;
      }

      .cls-3 {
        fill: none;
        stroke-width: 5.7px;
      }

      .cls-4 {
        stroke-width: 3.7px;
      }
    </style>
  </defs>
  <!-- Generator: Adobe Illustrator 28.6.0, SVG Export Plug-In . SVG Version: 1.2.0 Build 709)  -->
  <g>
    <g id="Ebene_1">
      <g id="Ebene_2">
        <g id="Binde">
          <g>
            <path class="cls-1" d="M187.6,859.5c16.7.4,43.1-12.9,56-23.6,15.7-17.6,29-38.1,37.2-60.3,5.6-9.6,7.4-20.7,13.4-29.9,4.5-7,6.5-15.1,10.5-22.1,9.1-12.3,26.3-13.5,36.7-24.3,9.2-8.3,12.7-20.1,18.8-30.6,13-26.4,25.8-53,37.1-80.1,4.2-8.2,8.2-16.6,13.7-23.8,6.5-9,16-13.8,22.6-22.7,5.9-6.7,6.8-15.5,10.3-23.4,5.8-9.2,4.9-22.7,15.4-28.3,13.1-11.1,27.5-20.1,40.9-30.6,12.8-6.9,24.7-15.4,32.4-28,7.8-11.9,7.2-26,1.6-38.6-4.4-11.8-9.4-24-16.7-34.4-9.1-16.4-24-28.4-40.8-36.3-9.6-3.6-20.6-7.2-31-4.6-19.4,5.6-38.7,11.6-56.9,20.5-13.9,7.2-26.9,15.8-40.1,24.3-2.2,1.6-4.8,1.9-7.5,1.8-8.9-.8-17.4.4-26.3.3-13.5-1.1-26.6,4.8-37.2,12.5-20,11.7-38.1,26.4-54.1,43.1-17.3,13.6-31.2,30.5-45.4,47.3-21.3,22.7-30.2,28.1-30.9,61.1-.1,6.7.5,13.3.2,20,1.2,11.3,6.7,14.5-1.8,25-4.3,7.3-8.8,14.6-13.9,21.4-7.1,8.7-9.2,19.9-14.2,29.7-10.6,19.4-23.2,37.9-29.7,59.3-3.5,20-7.9,41.3-2.6,61.3,2.2,9.2,2,18.9,6,27.7,4.5,12,11.7,22.9,19,33.5,3.6,6.2,6.9,12.2,12.6,16.9,5.2,5.4,8.3,13,15.4,16.2,16.1,7.7,30.8,20.2,49.4,20v-.4Z"/>
            <path class="cls-3" d="M175,814.8c-29.6-8.2-45.1-38.8-51.4-66.6-12.5-41.9,9.9-75.9,31.8-110.1,60.8-111.7,123.1-181.1,226.9-254.3,23.8-19.9,56.5-40.2,87.6-24.2,18.2,8.7,36.5,30.4,27.6,51-13.8,23.7-39.1,37.9-59.6,55.2-19.6,18.2-42.4,32.9-60.6,52.3-12.9,15.1-22.2,33.5-31.9,50.7-16.2,28.7-33.5,56.8-47.4,86.7-32.7,47-48.9,174.1-123.2,159.2h0Z"/>
            <path class="cls-2" d="M187.6,859.5c16.7.4,43.1-12.9,56-23.6,15.7-17.6,29-38.1,37.2-60.3,5.6-9.6,7.4-20.7,13.4-29.9,4.5-7,6.5-15.1,10.5-22.1,9.1-12.3,26.3-13.5,36.7-24.3,9.2-8.3,12.7-20.1,18.8-30.6,13-26.4,25.8-53,37.1-80.1,4.2-8.2,8.2-16.6,13.7-23.8,6.5-9,16-13.8,22.6-22.7,5.9-6.7,6.8-15.5,10.3-23.4,5.8-9.2,4.9-22.7,15.4-28.3,13.1-11.1,27.5-20.1,40.9-30.6,12.8-6.9,24.7-15.4,32.4-28,7.8-11.9,7.2-26,1.6-38.6-4.4-11.8-9.4-24-16.7-34.4-9.1-16.4-24-28.4-40.8-36.3-9.6-3.6-20.6-7.2-31-4.6-19.4,5.6-38.7,11.6-56.9,20.5-13.9,7.2-26.9,15.8-40.1,24.3-2.2,1.6-4.8,1.9-7.5,1.8-8.9-.8-17.4.4-26.3.3-13.5-1.1-26.6,4.8-37.2,12.5-20,11.7-38.1,26.4-54.1,43.1-17.3,13.6-31.2,30.5-45.4,47.3-21.3,22.7-30.2,28.1-30.9,61.1-.1,6.7.5,13.3.2,20,1.2,11.3,6.7,14.5-1.8,25-4.3,7.3-8.8,14.6-13.9,21.4-7.1,8.7-9.2,19.9-14.2,29.7-10.6,19.4-23.2,37.9-29.7,59.3-3.5,20-7.9,41.3-2.6,61.3,2.2,9.2,2,18.9,6,27.7,4.5,12,11.7,22.9,19,33.5,3.6,6.2,6.9,12.2,12.6,16.9,5.2,5.4,8.3,13,15.4,16.2,16.1,7.7,30.8,20.2,49.4,20v-.4ZM444.3,503.6c1.1,4.4-2.8,9.1-4.4,13.1-2.5,4.4-2.9,9.6-5,14.2-4.5,10.8-14.9,16.5-22.3,24.9-8.1,7.4-13.1,17.4-18,27-12.2,26.8-24.1,54-37.6,80.3-11.5,23-15.8,36.2-41.9,45.4-4.4,2.2-3.8-1.6-2.4-4.6,12.2-31,28.9-59.9,43.6-89.5,11.2-21.7,24.2-42.5,35.3-64.3,13.3-18.5,30.7-33.3,49.7-45.8.9-.5,2.4-1.5,3-.7h0ZM154.1,556.9c-2.7-3.1-2.2-8.5-2.3-12.4-.5-12.2,0-24.6,1.2-36.7,3.8-16.2,19.7-26.2,29.6-38.7,7.3-8.7,14.9-17.2,22-26,27.3-25.2,53.5-52.2,86.7-70.1,13.5-7,28.7-4.6,43.3-5.5,4.3.6-.1,3.9-1.7,5.1-13,10.7-24.7,23-38.3,33-10.2,8.4-21.8,14.9-30.9,24.6-25.5,27.3-51.3,54.2-75.8,82.4-10.7,13.5-20.5,27.8-30.5,41.9-.8,1-2.2,3.1-3.3,2.3h0ZM367.3,582.5c-20.4,34.6-37.1,71.2-55.1,107.2-7.2,17.8-14.3,35.9-23.2,53.1-2.7,4-4.8,8.6-6.1,13.2-3.9,10.7-9.7,20.7-13.2,31.5-11.3,18.2-21,39.1-39.4,51.1-11.1,6.9-24,11.5-36.5,15.2-12.4,1.1-24.4-2.7-34.9-9.3-7.3-4.2-14.9-7.8-22-12.4-5.9-8.2-14.1-15.2-19.2-24-11.1-17.5-24.3-34.9-25.6-56.4-3.4-14.2-5.5-28.3-2.5-42.7,1.4-8.7,1.3-18.2,4.6-26.6,6.8-20.4,19.2-38.6,29.4-57.6,7.7-24,24.9-43.1,37-65.1,24.9-37.6,54.7-71.3,86.4-103.2,11.4-12.7,22.1-26.4,36.4-36,22.2-14.2,39-35,60.7-49.7,22-13.8,43.6-29.2,68.4-37.8,14.8-3.9,28.8-12.3,44.5-11.1,35.4,5,59.4,36.1,70.2,68,8,16.1,6.8,34-6.4,46.9-9.5,11.9-24.9,16.4-35.7,26.8-13.5,8-25.4,18.8-38,28.1-26.8,21.4-57.5,40.9-70.5,74.5"/>
            <path class="cls-4" d="M239.2,658.7c14.4,3.2,21.5-13.4,26.5-24.2,4.1-9.9,11.1-18.2,15.6-28.1,5.4-11.7,13.5-21.9,20.6-32.6,9-12.9,14.5-27.7,23.4-40.7,8.8-10.9,14.3-24.1,24.8-33.6,10.9-11.5,33-25.9,36.5-41.5-2.3-20.5-22.5-15.8-35.6-8.5-8.2,5.6-15.2,12.6-22.7,19.1-6.2,4.8-9.8,12-16,16.8-2.7,2.4-5.8,4.5-7.9,7.6-14.2,18.3-26.5,38-39.9,56.8-16.1,20.6-32.3,42.3-42.5,66.4-5.5,17.1-4.5,40.1,17.3,42.4h0ZM237.5,656.3c-12.3-2.7-18.3-15.1-15.4-27.1h0c.2-15.4,10-27.4,17.4-40.1,7.9-13,16.7-25.5,26.4-37.3,13.5-18.8,25.5-38.7,39.7-57,7.6-7.6,15.3-15,22.4-23,13.3-11.2,27.2-28.1,46.3-26,6.3.9,11.1,8.4,9.6,14.4-6.3,10.6-15.6,19.6-24.9,27.6-7,6.5-14.9,12.7-20.3,20.7-10.6,17-22.7,32.8-31,51.1-8.5,16.1-21.2,29.9-28.8,46.4-5.1,10.6-11.5,18.2-15.9,29.3-4.8,10.3-11.9,25.5-25.6,21.1h0Z"/>
          </g>
          <g>
            <path class="cls-1" d="M187,859.2c16.7.4,43.1-12.9,56-23.6,15.7-17.6,29-38.1,37.2-60.3,5.6-9.6,7.4-20.7,13.4-29.9,4.5-7,6.5-15.1,10.5-22.1,9.1-12.3,26.3-13.5,36.7-24.3,9.2-8.3,12.7-20.1,18.8-30.6,13-26.4,25.8-53,37.1-80.1,4.2-8.2,8.2-16.6,13.7-23.8,6.5-9,16-13.8,22.6-22.7,5.9-6.7,6.8-15.5,10.3-23.4,5.8-9.2,4.9-22.7,15.4-28.3,13.1-11.1,27.5-20.1,40.9-30.6,12.8-6.9,24.7-15.4,32.4-28,7.8-11.9,7.2-26,1.6-38.6-4.4-11.8-9.4-24-16.7-34.4-9.1-16.4-24-28.4-40.8-36.3-9.6-3.6-20.6-7.2-31-4.6-19.4,5.6-38.7,11.6-56.9,20.5-13.9,7.2-26.9,15.8-40.1,24.3-2.2,1.6-4.8,1.9-7.5,1.8-8.9-.8-17.4.4-26.3.3-13.5-1.1-26.6,4.8-37.2,12.5-20,11.7-38.1,26.4-54.1,43.1-17.3,13.6-31.2,30.5-45.4,47.3-21.3,22.7-30.2,28.1-30.9,61.1-.1,6.7.5,13.3.2,20,1.2,11.3,6.7,14.5-1.8,25-4.3,7.3-8.8,14.6-13.9,21.4-7.1,8.7-9.2,19.9-14.2,29.7-10.6,19.4-23.2,37.9-29.7,59.3-3.5,20-7.9,41.3-2.6,61.3,2.2,9.2,2,18.9,6,27.7,4.5,12,11.7,22.9,19,33.5,3.6,6.2,6.9,12.2,12.6,16.9,5.2,5.4,8.3,13,15.4,16.2,16.1,7.7,30.8,20.2,49.4,20v-.4Z"/>
            <path class="cls-3" d="M174.3,814.5c-29.6-8.2-45.1-38.8-51.4-66.6-12.5-41.9,9.9-75.9,31.8-110.1,60.8-111.7,123.1-181.1,226.9-254.3,23.8-19.9,56.5-40.2,87.6-24.2,18.2,8.7,36.5,30.4,27.6,51-13.8,23.7-39.1,37.9-59.6,55.2-19.6,18.2-42.4,32.9-60.6,52.3-12.9,15.1-22.2,33.5-31.9,50.7-16.2,28.7-33.5,56.8-47.4,86.7-32.7,47-48.9,174.1-123.2,159.2h0Z"/>
            <path class="cls-2" d="M187,859.2c16.7.4,43.1-12.9,56-23.6,15.7-17.6,29-38.1,37.2-60.3,5.6-9.6,7.4-20.7,13.4-29.9,4.5-7,6.5-15.1,10.5-22.1,9.1-12.3,26.3-13.5,36.7-24.3,9.2-8.3,12.7-20.1,18.8-30.6,13-26.4,25.8-53,37.1-80.1,4.2-8.2,8.2-16.6,13.7-23.8,6.5-9,16-13.8,22.6-22.7,5.9-6.7,6.8-15.5,10.3-23.4,5.8-9.2,4.9-22.7,15.4-28.3,13.1-11.1,27.5-20.1,40.9-30.6,12.8-6.9,24.7-15.4,32.4-28,7.8-11.9,7.2-26,1.6-38.6-4.4-11.8-9.4-24-16.7-34.4-9.1-16.4-24-28.4-40.8-36.3-9.6-3.6-20.6-7.2-31-4.6-19.4,5.6-38.7,11.6-56.9,20.5-13.9,7.2-26.9,15.8-40.1,24.3-2.2,1.6-4.8,1.9-7.5,1.8-8.9-.8-17.4.4-26.3.3-13.5-1.1-26.6,4.8-37.2,12.5-20,11.7-38.1,26.4-54.1,43.1-17.3,13.6-31.2,30.5-45.4,47.3-21.3,22.7-30.2,28.1-30.9,61.1-.1,6.7.5,13.3.2,20,1.2,11.3,6.7,14.5-1.8,25-4.3,7.3-8.8,14.6-13.9,21.4-7.1,8.7-9.2,19.9-14.2,29.7-10.6,19.4-23.2,37.9-29.7,59.3-3.5,20-7.9,41.3-2.6,61.3,2.2,9.2,2,18.9,6,27.7,4.5,12,11.7,22.9,19,33.5,3.6,6.2,6.9,12.2,12.6,16.9,5.2,5.4,8.3,13,15.4,16.2,16.1,7.7,30.8,20.2,49.4,20v-.4ZM443.7,503.3c1.1,4.4-2.8,9.1-4.4,13.1-2.5,4.4-2.9,9.6-5,14.2-4.5,10.8-14.9,16.5-22.3,24.9-8.1,7.4-13.1,17.4-18,27-12.2,26.8-24.1,54-37.6,80.3-11.5,23-15.8,36.2-41.9,45.4-4.4,2.2-3.8-1.6-2.4-4.6,12.2-31,28.9-59.9,43.6-89.5,11.2-21.7,24.2-42.5,35.3-64.3,13.3-18.5,30.7-33.3,49.7-45.8.9-.5,2.4-1.5,3-.7h0ZM153.5,556.6c-2.7-3.1-2.2-8.5-2.3-12.4-.5-12.2,0-24.6,1.2-36.7,3.8-16.2,19.7-26.2,29.6-38.7,7.3-8.7,14.9-17.2,22-26,27.3-25.2,53.5-52.2,86.7-70.1,13.5-7,28.7-4.6,43.3-5.5,4.3.6-.1,3.9-1.7,5.1-13,10.7-24.7,23-38.3,33-10.2,8.4-21.8,14.9-30.9,24.6-25.5,27.3-51.3,54.2-75.8,82.4-10.7,13.5-20.5,27.8-30.5,41.9-.8,1-2.2,3.1-3.3,2.3h0ZM366.7,582.2c-20.4,34.6-37.1,71.2-55.1,107.2-7.2,17.8-14.3,35.9-23.2,53.1-2.7,4-4.8,8.6-6.1,13.2-3.9,10.7-9.7,20.7-13.2,31.5-11.3,18.2-21,39.1-39.4,51.1-11.1,6.9-24,11.5-36.5,15.2-12.4,1.1-24.4-2.7-34.9-9.3-7.3-4.2-14.9-7.8-22-12.4-5.9-8.2-14.1-15.2-19.2-24-11.1-17.5-24.3-34.9-25.6-56.4-3.4-14.2-5.5-28.3-2.5-42.7,1.4-8.7,1.3-18.2,4.6-26.6,6.8-20.4,19.2-38.6,29.4-57.6,7.7-24,24.9-43.1,37-65.1,24.9-37.6,54.7-71.3,86.4-103.2,11.4-12.7,22.1-26.4,36.4-36,22.2-14.2,39-35,60.7-49.7,22-13.8,43.6-29.2,68.4-37.8,14.8-3.9,28.8-12.3,44.5-11.1,35.4,5,59.4,36.1,70.2,68,8,16.1,6.8,34-6.4,46.9-9.5,11.9-24.9,16.4-35.7,26.8-13.5,8-25.4,18.8-38,28.1-26.8,21.4-57.5,40.9-70.5,74.5"/>
            <path class="cls-4" d="M238.6,658.4c14.4,3.2,21.5-13.4,26.5-24.2,4.1-9.9,11.1-18.2,15.6-28.1,5.4-11.7,13.5-21.9,20.6-32.6,9-12.9,14.5-27.7,23.4-40.7,8.8-10.9,14.3-24.1,24.8-33.6,10.9-11.5,33-25.9,36.5-41.5-2.3-20.5-22.5-15.8-35.6-8.5-8.2,5.6-15.2,12.6-22.7,19.1-6.2,4.8-9.8,12-16,16.8-2.7,2.4-5.8,4.5-7.9,7.6-14.2,18.3-26.5,38-39.9,56.8-16.1,20.6-32.3,42.3-42.5,66.4-5.5,17.1-4.5,40.1,17.3,42.4h0ZM236.8,656c-12.3-2.7-18.3-15.1-15.4-27.1h0c.2-15.4,10-27.4,17.4-40.1,7.9-13,16.7-25.5,26.4-37.3,13.5-18.8,25.5-38.7,39.7-57,7.6-7.6,15.3-15,22.4-23,13.3-11.2,27.2-28.1,46.3-26,6.3.9,11.1,8.4,9.6,14.4-6.3,10.6-15.6,19.6-24.9,27.6-7,6.5-14.9,12.7-20.3,20.7-10.6,17-22.7,32.8-31,51.1-8.5,16.1-21.2,29.9-28.8,46.4-5.1,10.6-11.5,18.2-15.9,29.3-4.8,10.3-11.9,25.5-25.6,21.1Z"/>
          </g>
          <g>
            <path class="cls-1" d="M186.3,858.9c16.7.4,43.1-12.9,56-23.6,15.7-17.6,29-38.1,37.2-60.3,5.6-9.6,7.4-20.7,13.4-29.9,4.5-7,6.5-15.1,10.5-22.1,9.1-12.3,26.3-13.5,36.7-24.3,9.2-8.3,12.7-20.1,18.8-30.6,13-26.4,25.8-53,37.1-80.1,4.2-8.2,8.2-16.6,13.7-23.8,6.5-9,16-13.8,22.6-22.7,5.9-6.7,6.8-15.5,10.3-23.4,5.8-9.2,4.9-22.7,15.4-28.3,13.1-11.1,27.5-20.1,40.9-30.6,12.8-6.9,24.7-15.4,32.4-28,7.8-11.9,7.2-26,1.6-38.6-4.4-11.8-9.4-24-16.7-34.4-9.1-16.4-24-28.4-40.8-36.3-9.6-3.6-20.6-7.2-31-4.6-19.4,5.6-38.7,11.6-56.9,20.5-13.9,7.2-26.9,15.8-40.1,24.3-2.2,1.6-4.8,1.9-7.5,1.8-8.9-.8-17.4.4-26.3.3-13.5-1.1-26.6,4.8-37.2,12.5-20,11.7-38.1,26.4-54.1,43.1-17.3,13.6-31.2,30.5-45.4,47.3-21.3,22.7-30.2,28.1-30.9,61.1-.1,6.7.5,13.3.2,20,1.2,11.3,6.7,14.5-1.8,25-4.3,7.3-8.8,14.6-13.9,21.4-7.1,8.7-9.2,19.9-14.2,29.7-10.6,19.4-23.2,37.9-29.7,59.3-3.5,20-7.9,41.3-2.6,61.3,2.2,9.2,2,18.9,6,27.7,4.5,12,11.7,22.9,19,33.5,3.6,6.2,6.9,12.2,12.6,16.9,5.2,5.4,8.3,13,15.4,16.2,16.1,7.7,30.8,20.2,49.4,20v-.4Z"/>
            <path class="cls-3" d="M173.7,814.2c-29.6-8.2-45.1-38.8-51.4-66.6-12.5-41.9,9.9-75.9,31.8-110.1,60.8-111.7,123.1-181.1,226.9-254.3,23.8-19.9,56.5-40.2,87.6-24.2,18.2,8.7,36.5,30.4,27.6,51-13.8,23.7-39.1,37.9-59.6,55.2-19.6,18.2-42.4,32.9-60.6,52.3-12.9,15.1-22.2,33.5-31.9,50.7-16.2,28.7-33.5,56.8-47.4,86.7-32.7,47-48.9,174.1-123.2,159.2h0Z"/>
            <path class="cls-2" d="M186.3,858.9c16.7.4,43.1-12.9,56-23.6,15.7-17.6,29-38.1,37.2-60.3,5.6-9.6,7.4-20.7,13.4-29.9,4.5-7,6.5-15.1,10.5-22.1,9.1-12.3,26.3-13.5,36.7-24.3,9.2-8.3,12.7-20.1,18.8-30.6,13-26.4,25.8-53,37.1-80.1,4.2-8.2,8.2-16.6,13.7-23.8,6.5-9,16-13.8,22.6-22.7,5.9-6.7,6.8-15.5,10.3-23.4,5.8-9.2,4.9-22.7,15.4-28.3,13.1-11.1,27.5-20.1,40.9-30.6,12.8-6.9,24.7-15.4,32.4-28,7.8-11.9,7.2-26,1.6-38.6-4.4-11.8-9.4-24-16.7-34.4-9.1-16.4-24-28.4-40.8-36.3-9.6-3.6-20.6-7.2-31-4.6-19.4,5.6-38.7,11.6-56.9,20.5-13.9,7.2-26.9,15.8-40.1,24.3-2.2,1.6-4.8,1.9-7.5,1.8-8.9-.8-17.4.4-26.3.3-13.5-1.1-26.6,4.8-37.2,12.5-20,11.7-38.1,26.4-54.1,43.1-17.3,13.6-31.2,30.5-45.4,47.3-21.3,22.7-30.2,28.1-30.9,61.1-.1,6.7.5,13.3.2,20,1.2,11.3,6.7,14.5-1.8,25-4.3,7.3-8.8,14.6-13.9,21.4-7.1,8.7-9.2,19.9-14.2,29.7-10.6,19.4-23.2,37.9-29.7,59.3-3.5,20-7.9,41.3-2.6,61.3,2.2,9.2,2,18.9,6,27.7,4.5,12,11.7,22.9,19,33.5,3.6,6.2,6.9,12.2,12.6,16.9,5.2,5.4,8.3,13,15.4,16.2,16.1,7.7,30.8,20.2,49.4,20v-.4ZM443,503.1c1.1,4.4-2.8,9.1-4.4,13.1-2.5,4.4-2.9,9.6-5,14.2-4.5,10.8-14.9,16.5-22.3,24.9-8.1,7.4-13.1,17.4-18,27-12.2,26.8-24.1,54-37.6,80.3-11.5,23-15.8,36.2-41.9,45.4-4.4,2.2-3.8-1.6-2.4-4.6,12.2-31,28.9-59.9,43.6-89.5,11.2-21.7,24.2-42.5,35.3-64.3,13.3-18.5,30.7-33.3,49.7-45.8.9-.5,2.4-1.5,3-.7h0ZM152.8,556.3c-2.7-3.1-2.2-8.5-2.3-12.4-.5-12.2,0-24.6,1.2-36.7,3.8-16.2,19.7-26.2,29.6-38.7,7.3-8.7,14.9-17.2,22-26,27.3-25.2,53.5-52.2,86.7-70.1,13.5-7,28.7-4.6,43.3-5.5,4.3.6-.1,3.9-1.7,5.1-13,10.7-24.7,23-38.3,33-10.2,8.4-21.8,14.9-30.9,24.6-25.5,27.3-51.3,54.2-75.8,82.4-10.7,13.5-20.5,27.8-30.5,41.9-.8,1-2.2,3.1-3.3,2.3h0ZM366,581.9c-20.4,34.6-37.1,71.2-55.1,107.2-7.2,17.8-14.3,35.9-23.2,53.1-2.7,4-4.8,8.6-6.1,13.2-3.9,10.7-9.7,20.7-13.2,31.5-11.3,18.2-21,39.1-39.4,51.1-11.1,6.9-24,11.5-36.5,15.2-12.4,1.1-24.4-2.7-34.9-9.3-7.3-4.2-14.9-7.8-22-12.4-5.9-8.2-14.1-15.2-19.2-24-11.1-17.5-24.3-34.9-25.6-56.4-3.4-14.2-5.5-28.3-2.5-42.7,1.4-8.7,1.3-18.2,4.6-26.6,6.8-20.4,19.2-38.6,29.4-57.6,7.7-24,24.9-43.1,37-65.1,24.9-37.6,54.7-71.3,86.4-103.2,11.4-12.7,22.1-26.4,36.4-36,22.2-14.2,39-35,60.7-49.7,22-13.8,43.6-29.2,68.4-37.8,14.8-3.9,28.8-12.3,44.5-11.1,35.4,5,59.4,36.1,70.2,68,8,16.1,6.8,34-6.4,46.9-9.5,11.9-24.9,16.4-35.7,26.8-13.5,8-25.4,18.8-38,28.1-26.8,21.4-57.5,40.9-70.5,74.5"/>
            <path class="cls-4" d="M237.9,658.1c14.4,3.2,21.5-13.4,26.5-24.2,4.1-9.9,11.1-18.2,15.6-28.1,5.4-11.7,13.5-21.9,20.6-32.6,9-12.9,14.5-27.7,23.4-40.7,8.8-10.9,14.3-24.1,24.8-33.6,10.9-11.5,33-25.9,36.5-41.5-2.3-20.5-22.5-15.8-35.6-8.5-8.2,5.6-15.2,12.6-22.7,19.1-6.2,4.8-9.8,12-16,16.8-2.7,2.4-5.8,4.5-7.9,7.6-14.2,18.3-26.5,38-39.9,56.8-16.1,20.6-32.3,42.3-42.5,66.4-5.5,17.1-4.5,40.1,17.3,42.4h0ZM236.2,655.7c-12.3-2.7-18.3-15.1-15.4-27.1h0c.2-15.4,10-27.4,17.4-40.1,7.9-13,16.7-25.5,26.4-37.3,13.5-18.8,25.5-38.7,39.7-57,7.6-7.6,15.3-15,22.4-23,13.3-11.2,27.2-28.1,46.3-26,6.3.9,11.1,8.4,9.6,14.4-6.3,10.6-15.6,19.6-24.9,27.6-7,6.5-14.9,12.7-20.3,20.7-10.6,17-22.7,32.8-31,51.1-8.5,16.1-21.2,29.9-28.8,46.4-5.1,10.6-11.5,18.2-15.9,29.3-4.8,10.3-11.9,25.5-25.6,21.1Z"/>
          </g>
          <g>
            <path class="cls-1" d="M185.7,858.6c16.7.4,43.1-12.9,56-23.6,15.7-17.6,29-38.1,37.2-60.3,5.6-9.6,7.4-20.7,13.4-29.9,4.5-7,6.5-15.1,10.5-22.1,9.1-12.3,26.3-13.5,36.7-24.3,9.2-8.3,12.7-20.1,18.8-30.6,13-26.4,25.8-53,37.1-80.1,4.2-8.2,8.2-16.6,13.7-23.8,6.5-9,16-13.8,22.6-22.7,5.9-6.7,6.8-15.5,10.3-23.4,5.8-9.2,4.9-22.7,15.4-28.3,13.1-11.1,27.5-20.1,40.9-30.6,12.8-6.9,24.7-15.4,32.4-28,7.8-11.9,7.2-26,1.6-38.6-4.4-11.8-9.4-24-16.7-34.4-9.1-16.4-24-28.4-40.8-36.3-9.6-3.6-20.6-7.2-31-4.6-19.4,5.6-38.7,11.6-56.9,20.5-13.9,7.2-26.9,15.8-40.1,24.3-2.2,1.6-4.8,1.9-7.5,1.8-8.9-.8-17.4.4-26.3.3-13.5-1.1-26.6,4.8-37.2,12.5-20,11.7-38.1,26.4-54.1,43.1-17.3,13.6-31.2,30.5-45.4,47.3-21.3,22.7-30.2,28.1-30.9,61.1-.1,6.7.5,13.3.2,20,1.2,11.3,6.7,14.5-1.8,25-4.3,7.3-8.8,14.6-13.9,21.4-7.1,8.7-9.2,19.9-14.2,29.7-10.6,19.4-23.2,37.9-29.7,59.3-3.5,20-7.9,41.3-2.6,61.3,2.2,9.2,2,18.9,6,27.7,4.5,12,11.7,22.9,19,33.5,3.6,6.2,6.9,12.2,12.6,16.9,5.2,5.4,8.3,13,15.4,16.2,16.1,7.7,30.8,20.2,49.4,20v-.4Z"/>
            <path class="cls-3" d="M173.1,813.9c-29.6-8.2-45.1-38.8-51.4-66.6-12.5-41.9,9.9-75.9,31.8-110.1,60.8-111.7,123.1-181.1,226.9-254.3,23.8-19.9,56.5-40.2,87.6-24.2,18.2,8.7,36.5,30.4,27.6,51-13.8,23.7-39.1,37.9-59.6,55.2-19.6,18.2-42.4,32.9-60.6,52.3-12.9,15.1-22.2,33.5-31.9,50.7-16.2,28.7-33.5,56.8-47.4,86.7-32.7,47-48.9,174.1-123.2,159.2h0Z"/>
            <path class="cls-2" d="M185.7,858.6c16.7.4,43.1-12.9,56-23.6,15.7-17.6,29-38.1,37.2-60.3,5.6-9.6,7.4-20.7,13.4-29.9,4.5-7,6.5-15.1,10.5-22.1,9.1-12.3,26.3-13.5,36.7-24.3,9.2-8.3,12.7-20.1,18.8-30.6,13-26.4,25.8-53,37.1-80.1,4.2-8.2,8.2-16.6,13.7-23.8,6.5-9,16-13.8,22.6-22.7,5.9-6.7,6.8-15.5,10.3-23.4,5.8-9.2,4.9-22.7,15.4-28.3,13.1-11.1,27.5-20.1,40.9-30.6,12.8-6.9,24.7-15.4,32.4-28,7.8-11.9,7.2-26,1.6-38.6-4.4-11.8-9.4-24-16.7-34.4-9.1-16.4-24-28.4-40.8-36.3-9.6-3.6-20.6-7.2-31-4.6-19.4,5.6-38.7,11.6-56.9,20.5-13.9,7.2-26.9,15.8-40.1,24.3-2.2,1.6-4.8,1.9-7.5,1.8-8.9-.8-17.4.4-26.3.3-13.5-1.1-26.6,4.8-37.2,12.5-20,11.7-38.1,26.4-54.1,43.1-17.3,13.6-31.2,30.5-45.4,47.3-21.3,22.7-30.2,28.1-30.9,61.1-.1,6.7.5,13.3.2,20,1.2,11.3,6.7,14.5-1.8,25-4.3,7.3-8.8,14.6-13.9,21.4-7.1,8.7-9.2,19.9-14.2,29.7-10.6,19.4-23.2,37.9-29.7,59.3-3.5,20-7.9,41.3-2.6,61.3,2.2,9.2,2,18.9,6,27.7,4.5,12,11.7,22.9,19,33.5,3.6,6.2,6.9,12.2,12.6,16.9,5.2,5.4,8.3,13,15.4,16.2,16.1,7.7,30.8,20.2,49.4,20v-.4ZM442.4,502.8c1.1,4.4-2.8,9.1-4.4,13.1-2.5,4.4-2.9,9.6-5,14.2-4.5,10.8-14.9,16.5-22.3,24.9-8.1,7.4-13.1,17.4-18,27-12.2,26.8-24.1,54-37.6,80.3-11.5,23-15.8,36.2-41.9,45.4-4.4,2.2-3.8-1.6-2.4-4.6,12.2-31,28.9-59.9,43.6-89.5,11.2-21.7,24.2-42.5,35.3-64.3,13.3-18.5,30.7-33.3,49.7-45.8.9-.5,2.4-1.5,3-.7h0ZM152.2,556c-2.7-3.1-2.2-8.5-2.3-12.4-.5-12.2,0-24.6,1.2-36.7,3.8-16.2,19.7-26.2,29.6-38.7,7.3-8.7,14.9-17.2,22-26,27.3-25.2,53.5-52.2,86.7-70.1,13.5-7,28.7-4.6,43.3-5.5,4.3.6-.1,3.9-1.7,5.1-13,10.7-24.7,23-38.3,33-10.2,8.4-21.8,14.9-30.9,24.6-25.5,27.3-51.3,54.2-75.8,82.4-10.7,13.5-20.5,27.8-30.5,41.9-.8,1-2.2,3.1-3.3,2.3h0ZM365.4,581.7c-20.4,34.6-37.1,71.2-55.1,107.2-7.2,17.8-14.3,35.9-23.2,53.1-2.7,4-4.8,8.6-6.1,13.2-3.9,10.7-9.7,20.7-13.2,31.5-11.3,18.2-21,39.1-39.4,51.1-11.1,6.9-24,11.5-36.5,15.2-12.4,1.1-24.4-2.7-34.9-9.3-7.3-4.2-14.9-7.8-22-12.4-5.9-8.2-14.1-15.2-19.2-24-11.1-17.5-24.3-34.9-25.6-56.4-3.4-14.2-5.5-28.3-2.5-42.7,1.4-8.7,1.3-18.2,4.6-26.6,6.8-20.4,19.2-38.6,29.4-57.6,7.7-24,24.9-43.1,37-65.1,24.9-37.6,54.7-71.3,86.4-103.2,11.4-12.7,22.1-26.4,36.4-36,22.2-14.2,39-35,60.7-49.7,22-13.8,43.6-29.2,68.4-37.8,14.8-3.9,28.8-12.3,44.5-11.1,35.4,5,59.4,36.1,70.2,68,8,16.1,6.8,34-6.4,46.9-9.5,11.9-24.9,16.4-35.7,26.8-13.5,8-25.4,18.8-38,28.1-26.8,21.4-57.5,40.9-70.5,74.5"/>
            <path class="cls-4" d="M237.3,657.8c14.4,3.2,21.5-13.4,26.5-24.2,4.1-9.9,11.1-18.2,15.6-28.1,5.4-11.7,13.5-21.9,20.6-32.6,9-12.9,14.5-27.7,23.4-40.7,8.8-10.9,14.3-24.1,24.8-33.6,10.9-11.5,33-25.9,36.5-41.5-2.3-20.5-22.5-15.8-35.6-8.5-8.2,5.6-15.2,12.6-22.7,19.1-6.2,4.8-9.8,12-16,16.8-2.7,2.4-5.8,4.5-7.9,7.6-14.2,18.3-26.5,38-39.9,56.8-16.1,20.6-32.3,42.3-42.5,66.4-5.5,17.1-4.5,40.1,17.3,42.4h0ZM235.5,655.4c-12.3-2.7-18.3-15.1-15.4-27.1h0c.2-15.4,10-27.4,17.4-40.1,7.9-13,16.7-25.5,26.4-37.3,13.5-18.8,25.5-38.7,39.7-57,7.6-7.6,15.3-15,22.4-23,13.3-11.2,27.2-28.1,46.3-26,6.3.9,11.1,8.4,9.6,14.4-6.3,10.6-15.6,19.6-24.9,27.6-7,6.5-14.9,12.7-20.3,20.7-10.6,17-22.7,32.8-31,51.1-8.5,16.1-21.2,29.9-28.8,46.4-5.1,10.6-11.5,18.2-15.9,29.3-4.8,10.3-11.9,25.5-25.6,21.1Z"/>
          </g>
          <g>
            <path class="cls-1" d="M185,858.4c16.7.4,43.1-12.9,56-23.6,15.7-17.6,29-38.1,37.2-60.3,5.6-9.6,7.4-20.7,13.4-29.9,4.5-7,6.5-15.1,10.5-22.1,9.1-12.3,26.3-13.5,36.7-24.3,9.2-8.3,12.7-20.1,18.8-30.6,13-26.4,25.8-53,37.1-80.1,4.2-8.2,8.2-16.6,13.7-23.8,6.5-9,16-13.8,22.6-22.7,5.9-6.7,6.8-15.5,10.3-23.4,5.8-9.2,4.9-22.7,15.4-28.3,13.1-11.1,27.5-20.1,40.9-30.6,12.8-6.9,24.7-15.4,32.4-28,7.8-11.9,7.2-26,1.6-38.6-4.4-11.8-9.4-24-16.7-34.4-9.1-16.4-24-28.4-40.8-36.3-9.6-3.6-20.6-7.2-31-4.6-19.4,5.6-38.7,11.6-56.9,20.5-13.9,7.2-26.9,15.8-40.1,24.3-2.2,1.6-4.8,1.9-7.5,1.8-8.9-.8-17.4.4-26.3.3-13.5-1.1-26.6,4.8-37.2,12.5-20,11.7-38.1,26.4-54.1,43.1-17.3,13.6-31.2,30.5-45.4,47.3-21.3,22.7-30.2,28.1-30.9,61.1-.1,6.7.5,13.3.2,20,1.2,11.3,6.7,14.5-1.8,25-4.3,7.3-8.8,14.6-13.9,21.4-7.1,8.7-9.2,19.9-14.2,29.7-10.6,19.4-23.2,37.9-29.7,59.3-3.5,20-7.9,41.3-2.6,61.3,2.2,9.2,2,18.9,6,27.7,4.5,12,11.7,22.9,19,33.5,3.6,6.2,6.9,12.2,12.6,16.9,5.2,5.4,8.3,13,15.4,16.2,16.1,7.7,30.8,20.2,49.4,20v-.4Z"/>
            <path class="cls-3" d="M172.4,813.6c-29.6-8.2-45.1-38.8-51.4-66.6-12.5-41.9,9.9-75.9,31.8-110.1,60.8-111.7,123.1-181.1,226.9-254.3,23.8-19.9,56.5-40.2,87.6-24.2,18.2,8.7,36.5,30.4,27.6,51-13.8,23.7-39.1,37.9-59.6,55.2-19.6,18.2-42.4,32.9-60.6,52.3-12.9,15.1-22.2,33.5-31.9,50.7-16.2,28.7-33.5,56.8-47.4,86.7-32.7,47-48.9,174.1-123.2,159.2h0Z"/>
            <path class="cls-2" d="M185,858.4c16.7.4,43.1-12.9,56-23.6,15.7-17.6,29-38.1,37.2-60.3,5.6-9.6,7.4-20.7,13.4-29.9,4.5-7,6.5-15.1,10.5-22.1,9.1-12.3,26.3-13.5,36.7-24.3,9.2-8.3,12.7-20.1,18.8-30.6,13-26.4,25.8-53,37.1-80.1,4.2-8.2,8.2-16.6,13.7-23.8,6.5-9,16-13.8,22.6-22.7,5.9-6.7,6.8-15.5,10.3-23.4,5.8-9.2,4.9-22.7,15.4-28.3,13.1-11.1,27.5-20.1,40.9-30.6,12.8-6.9,24.7-15.4,32.4-28,7.8-11.9,7.2-26,1.6-38.6-4.4-11.8-9.4-24-16.7-34.4-9.1-16.4-24-28.4-40.8-36.3-9.6-3.6-20.6-7.2-31-4.6-19.4,5.6-38.7,11.6-56.9,20.5-13.9,7.2-26.9,15.8-40.1,24.3-2.2,1.6-4.8,1.9-7.5,1.8-8.9-.8-17.4.4-26.3.3-13.5-1.1-26.6,4.8-37.2,12.5-20,11.7-38.1,26.4-54.1,43.1-17.3,13.6-31.2,30.5-45.4,47.3-21.3,22.7-30.2,28.1-30.9,61.1-.1,6.7.5,13.3.2,20,1.2,11.3,6.7,14.5-1.8,25-4.3,7.3-8.8,14.6-13.9,21.4-7.1,8.7-9.2,19.9-14.2,29.7-10.6,19.4-23.2,37.9-29.7,59.3-3.5,20-7.9,41.3-2.6,61.3,2.2,9.2,2,18.9,6,27.7,4.5,12,11.7,22.9,19,33.5,3.6,6.2,6.9,12.2,12.6,16.9,5.2,5.4,8.3,13,15.4,16.2,16.1,7.7,30.8,20.2,49.4,20v-.4ZM441.8,502.5c1.1,4.4-2.8,9.1-4.4,13.1-2.5,4.4-2.9,9.6-5,14.2-4.5,10.8-14.9,16.5-22.3,24.9-8.1,7.4-13.1,17.4-18,27-12.2,26.8-24.1,54-37.6,80.3-11.5,23-15.8,36.2-41.9,45.4-4.4,2.2-3.8-1.6-2.4-4.6,12.2-31,28.9-59.9,43.6-89.5,11.2-21.7,24.2-42.5,35.3-64.3,13.3-18.5,30.7-33.3,49.7-45.8.9-.5,2.4-1.5,3-.7h0ZM151.5,555.7c-2.7-3.1-2.2-8.5-2.3-12.4-.5-12.2,0-24.6,1.2-36.7,3.8-16.2,19.7-26.2,29.6-38.7,7.3-8.7,14.9-17.2,22-26,27.3-25.2,53.5-52.2,86.7-70.1,13.5-7,28.7-4.6,43.3-5.5,4.3.6-.1,3.9-1.7,5.1-13,10.7-24.7,23-38.3,33-10.2,8.4-21.8,14.9-30.9,24.6-25.5,27.3-51.3,54.2-75.8,82.4-10.7,13.5-20.5,27.8-30.5,41.9-.8,1-2.2,3.1-3.3,2.3h0ZM364.8,581.4c-20.4,34.6-37.1,71.2-55.1,107.2-7.2,17.8-14.3,35.9-23.2,53.1-2.7,4-4.8,8.6-6.1,13.2-3.9,10.7-9.7,20.7-13.2,31.5-11.3,18.2-21,39.1-39.4,51.1-11.1,6.9-24,11.5-36.5,15.2-12.4,1.1-24.4-2.7-34.9-9.3-7.3-4.2-14.9-7.8-22-12.4-5.9-8.2-14.1-15.2-19.2-24-11.1-17.5-24.3-34.9-25.6-56.4-3.4-14.2-5.5-28.3-2.5-42.7,1.4-8.7,1.3-18.2,4.6-26.6,6.8-20.4,19.2-38.6,29.4-57.6,7.7-24,24.9-43.1,37-65.1,24.9-37.6,54.7-71.3,86.4-103.2,11.4-12.7,22.1-26.4,36.4-36,22.2-14.2,39-35,60.7-49.7,22-13.8,43.6-29.2,68.4-37.8,14.8-3.9,28.8-12.3,44.5-11.1,35.4,5,59.4,36.1,70.2,68,8,16.1,6.8,34-6.4,46.9-9.5,11.9-24.9,16.4-35.7,26.8-13.5,8-25.4,18.8-38,28.1-26.8,21.4-57.5,40.9-70.5,74.5"/>
            <path class="cls-4" d="M236.7,657.5c14.4,3.2,21.5-13.4,26.5-24.2,4.1-9.9,11.1-18.2,15.6-28.1,5.4-11.7,13.5-21.9,20.6-32.6,9-12.9,14.5-27.7,23.4-40.7,8.8-10.9,14.3-24.1,24.8-33.6,10.9-11.5,33-25.9,36.5-41.5-2.3-20.5-22.5-15.8-35.6-8.5-8.2,5.6-15.2,12.6-22.7,19.1-6.2,4.8-9.8,12-16,16.8-2.7,2.4-5.8,4.5-7.9,7.6-14.2,18.3-26.5,38-39.9,56.8-16.1,20.6-32.3,42.3-42.5,66.4-5.5,17.1-4.5,40.1,17.3,42.4h0ZM234.9,655.1c-12.3-2.7-18.3-15.1-15.4-27.1h0c.2-15.4,10-27.4,17.4-40.1,7.9-13,16.7-25.5,26.4-37.3,13.5-18.8,25.5-38.7,39.7-57,7.6-7.6,15.3-15,22.4-23,13.3-11.2,27.2-28.1,46.3-26,6.3.9,11.1,8.4,9.6,14.4-6.3,10.6-15.6,19.6-24.9,27.6-7,6.5-14.9,12.7-20.3,20.7-10.6,17-22.7,32.8-31,51.1-8.5,16.1-21.2,29.9-28.8,46.4-5.1,10.6-11.5,18.2-15.9,29.3-4.8,10.3-11.9,25.5-25.6,21.1Z"/>
          </g>
          <g>
            <path class="cls-1" d="M184.4,858.1c16.7.4,43.1-12.9,56-23.6,15.7-17.6,29-38.1,37.2-60.3,5.6-9.6,7.4-20.7,13.4-29.9,4.5-7,6.5-15.1,10.5-22.1,9.1-12.3,26.3-13.5,36.7-24.3,9.2-8.3,12.7-20.1,18.8-30.6,13-26.4,25.8-53,37.1-80.1,4.2-8.2,8.2-16.6,13.7-23.8,6.5-9,16-13.8,22.6-22.7,5.9-6.7,6.8-15.5,10.3-23.4,5.8-9.2,4.9-22.7,15.4-28.3,13.1-11.1,27.5-20.1,40.9-30.6,12.8-6.9,24.7-15.4,32.4-28,7.8-11.9,7.2-26,1.6-38.6-4.4-11.8-9.4-24-16.7-34.4-9.1-16.4-24-28.4-40.8-36.3-9.6-3.6-20.6-7.2-31-4.6-19.4,5.6-38.7,11.6-56.9,20.5-13.9,7.2-26.9,15.8-40.1,24.3-2.2,1.6-4.8,1.9-7.5,1.8-8.9-.8-17.4.4-26.3.3-13.5-1.1-26.6,4.8-37.2,12.5-20,11.7-38.1,26.4-54.1,43.1-17.3,13.6-31.2,30.5-45.4,47.3-21.3,22.7-30.2,28.1-30.9,61.1-.1,6.7.5,13.3.2,20,1.2,11.3,6.7,14.5-1.8,25-4.3,7.3-8.8,14.6-13.9,21.4-7.1,8.7-9.2,19.9-14.2,29.7-10.6,19.4-23.2,37.9-29.7,59.3-3.5,20-7.9,41.3-2.6,61.3,2.2,9.2,2,18.9,6,27.7,4.5,12,11.7,22.9,19,33.5,3.6,6.2,6.9,12.2,12.6,16.9,5.2,5.4,8.3,13,15.4,16.2,16.1,7.7,30.8,20.2,49.4,20v-.4Z"/>
            <path class="cls-3" d="M171.8,813.3c-29.6-8.2-45.1-38.8-51.4-66.6-12.5-41.9,9.9-75.9,31.8-110.1,60.8-111.7,123.1-181.1,226.9-254.3,23.8-19.9,56.5-40.2,87.6-24.2,18.2,8.7,36.5,30.4,27.6,51-13.8,23.7-39.1,37.9-59.6,55.2-19.6,18.2-42.4,32.9-60.6,52.3-12.9,15.1-22.2,33.5-31.9,50.7-16.2,28.7-33.5,56.8-47.4,86.7-32.7,47-48.9,174.1-123.2,159.2h0Z"/>
            <path class="cls-2" d="M184.4,858.1c16.7.4,43.1-12.9,56-23.6,15.7-17.6,29-38.1,37.2-60.3,5.6-9.6,7.4-20.7,13.4-29.9,4.5-7,6.5-15.1,10.5-22.1,9.1-12.3,26.3-13.5,36.7-24.3,9.2-8.3,12.7-20.1,18.8-30.6,13-26.4,25.8-53,37.1-80.1,4.2-8.2,8.2-16.6,13.7-23.8,6.5-9,16-13.8,22.6-22.7,5.9-6.7,6.8-15.5,10.3-23.4,5.8-9.2,4.9-22.7,15.4-28.3,13.1-11.1,27.5-20.1,40.9-30.6,12.8-6.9,24.7-15.4,32.4-28,7.8-11.9,7.2-26,1.6-38.6-4.4-11.8-9.4-24-16.7-34.4-9.1-16.4-24-28.4-40.8-36.3-9.6-3.6-20.6-7.2-31-4.6-19.4,5.6-38.7,11.6-56.9,20.5-13.9,7.2-26.9,15.8-40.1,24.3-2.2,1.6-4.8,1.9-7.5,1.8-8.9-.8-17.4.4-26.3.3-13.5-1.1-26.6,4.8-37.2,12.5-20,11.7-38.1,26.4-54.1,43.1-17.3,13.6-31.2,30.5-45.4,47.3-21.3,22.7-30.2,28.1-30.9,61.1-.1,6.7.5,13.3.2,20,1.2,11.3,6.7,14.5-1.8,25-4.3,7.3-8.8,14.6-13.9,21.4-7.1,8.7-9.2,19.9-14.2,29.7-10.6,19.4-23.2,37.9-29.7,59.3-3.5,20-7.9,41.3-2.6,61.3,2.2,9.2,2,18.9,6,27.7,4.5,12,11.7,22.9,19,33.5,3.6,6.2,6.9,12.2,12.6,16.9,5.2,5.4,8.3,13,15.4,16.2,16.1,7.7,30.8,20.2,49.4,20v-.4ZM441.1,502.2c1.1,4.4-2.8,9.1-4.4,13.1-2.5,4.4-2.9,9.6-5,14.2-4.5,10.8-14.9,16.5-22.3,24.9-8.1,7.4-13.1,17.4-18,27-12.2,26.8-24.1,54-37.6,80.3-11.5,23-15.8,36.2-41.9,45.4-4.4,2.2-3.8-1.6-2.4-4.6,12.2-31,28.9-59.9,43.6-89.5,11.2-21.7,24.2-42.5,35.3-64.3,13.3-18.5,30.7-33.3,49.7-45.8.9-.5,2.4-1.5,3-.7h0ZM150.9,555.4c-2.7-3.1-2.2-8.5-2.3-12.4-.5-12.2,0-24.6,1.2-36.7,3.8-16.2,19.7-26.2,29.6-38.7,7.3-8.7,14.9-17.2,22-26,27.3-25.2,53.5-52.2,86.7-70.1,13.5-7,28.7-4.6,43.3-5.5,4.3.6-.1,3.9-1.7,5.1-13,10.7-24.7,23-38.3,33-10.2,8.4-21.8,14.9-30.9,24.6-25.5,27.3-51.3,54.2-75.8,82.4-10.7,13.5-20.5,27.8-30.5,41.9-.8,1-2.2,3.1-3.3,2.3h0ZM364.1,581.1c-20.4,34.6-37.1,71.2-55.1,107.2-7.2,17.8-14.3,35.9-23.2,53.1-2.7,4-4.8,8.6-6.1,13.2-3.9,10.7-9.7,20.7-13.2,31.5-11.3,18.2-21,39.1-39.4,51.1-11.1,6.9-24,11.5-36.5,15.2-12.4,1.1-24.4-2.7-34.9-9.3-7.3-4.2-14.9-7.8-22-12.4-5.9-8.2-14.1-15.2-19.2-24-11.1-17.5-24.3-34.9-25.6-56.4-3.4-14.2-5.5-28.3-2.5-42.7,1.4-8.7,1.3-18.2,4.6-26.6,6.8-20.4,19.2-38.6,29.4-57.6,7.7-24,24.9-43.1,37-65.1,24.9-37.6,54.7-71.3,86.4-103.2,11.4-12.7,22.1-26.4,36.4-36,22.2-14.2,39-35,60.7-49.7,22-13.8,43.6-29.2,68.4-37.8,14.8-3.9,28.8-12.3,44.5-11.1,35.4,5,59.4,36.1,70.2,68,8,16.1,6.8,34-6.4,46.9-9.5,11.9-24.9,16.4-35.7,26.8-13.5,8-25.4,18.8-38,28.1-26.8,21.4-57.5,40.9-70.5,74.5"/>
            <path class="cls-4" d="M236,657.2c14.4,3.2,21.5-13.4,26.5-24.2,4.1-9.9,11.1-18.2,15.6-28.1,5.4-11.7,13.5-21.9,20.6-32.6,9-12.9,14.5-27.7,23.4-40.7,8.8-10.9,14.3-24.1,24.8-33.6,10.9-11.5,33-25.9,36.5-41.5-2.3-20.5-22.5-15.8-35.6-8.5-8.2,5.6-15.2,12.6-22.7,19.1-6.2,4.8-9.8,12-16,16.8-2.7,2.4-5.8,4.5-7.9,7.6-14.2,18.3-26.5,38-39.9,56.8-16.1,20.6-32.3,42.3-42.5,66.4-5.5,17.1-4.5,40.1,17.3,42.4h0ZM234.2,654.8c-12.3-2.7-18.3-15.1-15.4-27.1h0c.2-15.4,10-27.4,17.4-40.1,7.9-13,16.7-25.5,26.4-37.3,13.5-18.8,25.5-38.7,39.7-57,7.6-7.6,15.3-15,22.4-23,13.3-11.2,27.2-28.1,46.3-26,6.3.9,11.1,8.4,9.6,14.4-6.3,10.6-15.6,19.6-24.9,27.6-7,6.5-14.9,12.7-20.3,20.7-10.6,17-22.7,32.8-31,51.1-8.5,16.1-21.2,29.9-28.8,46.4-5.1,10.6-11.5,18.2-15.9,29.3-4.8,10.3-11.9,25.5-25.6,21.1Z"/>
          </g>
          <g>
            <path class="cls-1" d="M183.7,857.8c16.7.4,43.1-12.9,56-23.6,15.7-17.6,29-38.1,37.2-60.3,5.6-9.6,7.4-20.7,13.4-29.9,4.5-7,6.5-15.1,10.5-22.1,9.1-12.3,26.3-13.5,36.7-24.3,9.2-8.3,12.7-20.1,18.8-30.6,13-26.4,25.8-53,37.1-80.1,4.2-8.2,8.2-16.6,13.7-23.8,6.5-9,16-13.8,22.6-22.7,5.9-6.7,6.8-15.5,10.3-23.4,5.8-9.2,4.9-22.7,15.4-28.3,13.1-11.1,27.5-20.1,40.9-30.6,12.8-6.9,24.7-15.4,32.4-28,7.8-11.9,7.2-26,1.6-38.6-4.4-11.8-9.4-24-16.7-34.4-9.1-16.4-24-28.4-40.8-36.3-9.6-3.6-20.6-7.2-31-4.6-19.4,5.6-38.7,11.6-56.9,20.5-13.9,7.2-26.9,15.8-40.1,24.3-2.2,1.6-4.8,1.9-7.5,1.8-8.9-.8-17.4.4-26.3.3-13.5-1.1-26.6,4.8-37.2,12.5-20,11.7-38.1,26.4-54.1,43.1-17.3,13.6-31.2,30.5-45.4,47.3-21.3,22.7-30.2,28.1-30.9,61.1-.1,6.7.5,13.3.2,20,1.2,11.3,6.7,14.5-1.8,25-4.3,7.3-8.8,14.6-13.9,21.4-7.1,8.7-9.2,19.9-14.2,29.7-10.6,19.4-23.2,37.9-29.7,59.3-3.5,20-7.9,41.3-2.6,61.3,2.2,9.2,2,18.9,6,27.7,4.5,12,11.7,22.9,19,33.5,3.6,6.2,6.9,12.2,12.6,16.9,5.2,5.4,8.3,13,15.4,16.2,16.1,7.7,30.8,20.2,49.4,20v-.4Z"/>
            <path class="cls-3" d="M171.1,813c-29.6-8.2-45.1-38.8-51.4-66.6-12.5-41.9,9.9-75.9,31.8-110.1,60.8-111.7,123.1-181.1,226.9-254.3,23.8-19.9,56.5-40.2,87.6-24.2,18.2,8.7,36.5,30.4,27.6,51-13.8,23.7-39.1,37.9-59.6,55.2-19.6,18.2-42.4,32.9-60.6,52.3-12.9,15.1-22.2,33.5-31.9,50.7-16.2,28.7-33.5,56.8-47.4,86.7-32.7,47-48.9,174.1-123.2,159.2h0Z"/>
            <path class="cls-2" d="M183.7,857.8c16.7.4,43.1-12.9,56-23.6,15.7-17.6,29-38.1,37.2-60.3,5.6-9.6,7.4-20.7,13.4-29.9,4.5-7,6.5-15.1,10.5-22.1,9.1-12.3,26.3-13.5,36.7-24.3,9.2-8.3,12.7-20.1,18.8-30.6,13-26.4,25.8-53,37.1-80.1,4.2-8.2,8.2-16.6,13.7-23.8,6.5-9,16-13.8,22.6-22.7,5.9-6.7,6.8-15.5,10.3-23.4,5.8-9.2,4.9-22.7,15.4-28.3,13.1-11.1,27.5-20.1,40.9-30.6,12.8-6.9,24.7-15.4,32.4-28,7.8-11.9,7.2-26,1.6-38.6-4.4-11.8-9.4-24-16.7-34.4-9.1-16.4-24-28.4-40.8-36.3-9.6-3.6-20.6-7.2-31-4.6-19.4,5.6-38.7,11.6-56.9,20.5-13.9,7.2-26.9,15.8-40.1,24.3-2.2,1.6-4.8,1.9-7.5,1.8-8.9-.8-17.4.4-26.3.3-13.5-1.1-26.6,4.8-37.2,12.5-20,11.7-38.1,26.4-54.1,43.1-17.3,13.6-31.2,30.5-45.4,47.3-21.3,22.7-30.2,28.1-30.9,61.1-.1,6.7.5,13.3.2,20,1.2,11.3,6.7,14.5-1.8,25-4.3,7.3-8.8,14.6-13.9,21.4-7.1,8.7-9.2,19.9-14.2,29.7-10.6,19.4-23.2,37.9-29.7,59.3-3.5,20-7.9,41.3-2.6,61.3,2.2,9.2,2,18.9,6,27.7,4.5,12,11.7,22.9,19,33.5,3.6,6.2,6.9,12.2,12.6,16.9,5.2,5.4,8.3,13,15.4,16.2,16.1,7.7,30.8,20.2,49.4,20v-.4ZM440.5,501.9c1.1,4.4-2.8,9.1-4.4,13.1-2.5,4.4-2.9,9.6-5,14.2-4.5,10.8-14.9,16.5-22.3,24.9-8.1,7.4-13.1,17.4-18,27-12.2,26.8-24.1,54-37.6,80.3-11.5,23-15.8,36.2-41.9,45.4-4.4,2.2-3.8-1.6-2.4-4.6,12.2-31,28.9-59.9,43.6-89.5,11.2-21.7,24.2-42.5,35.3-64.3,13.3-18.5,30.7-33.3,49.7-45.8.9-.5,2.4-1.5,3-.7h0ZM150.3,555.1c-2.7-3.1-2.2-8.5-2.3-12.4-.5-12.2,0-24.6,1.2-36.7,3.8-16.2,19.7-26.2,29.6-38.7,7.3-8.7,14.9-17.2,22-26,27.3-25.2,53.5-52.2,86.7-70.1,13.5-7,28.7-4.6,43.3-5.5,4.3.6-.1,3.9-1.7,5.1-13,10.7-24.7,23-38.3,33-10.2,8.4-21.8,14.9-30.9,24.6-25.5,27.3-51.3,54.2-75.8,82.4-10.7,13.5-20.5,27.8-30.5,41.9-.8,1-2.2,3.1-3.3,2.3h0ZM363.5,580.8c-20.4,34.6-37.1,71.2-55.1,107.2-7.2,17.8-14.3,35.9-23.2,53.1-2.7,4-4.8,8.6-6.1,13.2-3.9,10.7-9.7,20.7-13.2,31.5-11.3,18.2-21,39.1-39.4,51.1-11.1,6.9-24,11.5-36.5,15.2-12.4,1.1-24.4-2.7-34.9-9.3-7.3-4.2-14.9-7.8-22-12.4-5.9-8.2-14.1-15.2-19.2-24-11.1-17.5-24.3-34.9-25.6-56.4-3.4-14.2-5.5-28.3-2.5-42.7,1.4-8.7,1.3-18.2,4.6-26.6,6.8-20.4,19.2-38.6,29.4-57.6,7.7-24,24.9-43.1,37-65.1,24.9-37.6,54.7-71.3,86.4-103.2,11.4-12.7,22.1-26.4,36.4-36,22.2-14.2,39-35,60.7-49.7,22-13.8,43.6-29.2,68.4-37.8,14.8-3.9,28.8-12.3,44.5-11.1,35.4,5,59.4,36.1,70.2,68,8,16.1,6.8,34-6.4,46.9-9.5,11.9-24.9,16.4-35.7,26.8-13.5,8-25.4,18.8-38,28.1-26.8,21.4-57.5,40.9-70.5,74.5"/>
            <path class="cls-4" d="M235.4,656.9c14.4,3.2,21.5-13.4,26.5-24.2,4.1-9.9,11.1-18.2,15.6-28.1,5.4-11.7,13.5-21.9,20.6-32.6,9-12.9,14.5-27.7,23.4-40.7,8.8-10.9,14.3-24.1,24.8-33.6,10.9-11.5,33-25.9,36.5-41.5-2.3-20.5-22.5-15.8-35.6-8.5-8.2,5.6-15.2,12.6-22.7,19.1-6.2,4.8-9.8,12-16,16.8-2.7,2.4-5.8,4.5-7.9,7.6-14.2,18.3-26.5,38-39.9,56.8-16.1,20.6-32.3,42.3-42.5,66.4-5.5,17.1-4.5,40.1,17.3,42.4h0ZM233.6,654.5c-12.3-2.7-18.3-15.1-15.4-27.1h0c.2-15.4,10-27.4,17.4-40.1,7.9-13,16.7-25.5,26.4-37.3,13.5-18.8,25.5-38.7,39.7-57,7.6-7.6,15.3-15,22.4-23,13.3-11.2,27.2-28.1,46.3-26,6.3.9,11.1,8.4,9.6,14.4-6.3,10.6-15.6,19.6-24.9,27.6-7,6.5-14.9,12.7-20.3,20.7-10.6,17-22.7,32.8-31,51.1-8.5,16.1-21.2,29.9-28.8,46.4-5.1,10.6-11.5,18.2-15.9,29.3-4.8,10.3-11.9,25.5-25.6,21.1Z"/>
          </g>
          <g>
            <path class="cls-1" d="M183.1,857.5c16.7.4,43.1-12.9,56-23.6,15.7-17.6,29-38.1,37.2-60.3,5.6-9.6,7.4-20.7,13.4-29.9,4.5-7,6.5-15.1,10.5-22.1,9.1-12.3,26.3-13.5,36.7-24.3,9.2-8.3,12.7-20.1,18.8-30.6,13-26.4,25.8-53,37.1-80.1,4.2-8.2,8.2-16.6,13.7-23.8,6.5-9,16-13.8,22.6-22.7,5.9-6.7,6.8-15.5,10.3-23.4,5.8-9.2,4.9-22.7,15.4-28.3,13.1-11.1,27.5-20.1,40.9-30.6,12.8-6.9,24.7-15.4,32.4-28,7.8-11.9,7.2-26,1.6-38.6-4.4-11.8-9.4-24-16.7-34.4-9.1-16.4-24-28.4-40.8-36.3-9.6-3.6-20.6-7.2-31-4.6-19.4,5.6-38.7,11.6-56.9,20.5-13.9,7.2-26.9,15.8-40.1,24.3-2.2,1.6-4.8,1.9-7.5,1.8-8.9-.8-17.4.4-26.3.3-13.5-1.1-26.6,4.8-37.2,12.5-20,11.7-38.1,26.4-54.1,43.1-17.3,13.6-31.2,30.5-45.4,47.3-21.3,22.7-30.2,28.1-30.9,61.1-.1,6.7.5,13.3.2,20,1.2,11.3,6.7,14.5-1.8,25-4.3,7.3-8.8,14.6-13.9,21.4-7.1,8.7-9.2,19.9-14.2,29.7-10.6,19.4-23.2,37.9-29.7,59.3-3.5,20-7.9,41.3-2.6,61.3,2.2,9.2,2,18.9,6,27.7,4.5,12,11.7,22.9,19,33.5,3.6,6.2,6.9,12.2,12.6,16.9,5.2,5.4,8.3,13,15.4,16.2,16.1,7.7,30.8,20.2,49.4,20v-.4Z"/>
            <path class="cls-3" d="M170.5,812.8c-29.6-8.2-45.1-38.8-51.4-66.6-12.5-41.9,9.9-75.9,31.8-110.1,60.8-111.7,123.1-181.1,226.9-254.3,23.8-19.9,56.5-40.2,87.6-24.2,18.2,8.7,36.5,30.4,27.6,51-13.8,23.7-39.1,37.9-59.6,55.2-19.6,18.2-42.4,32.9-60.6,52.3-12.9,15.1-22.2,33.5-31.9,50.7-16.2,28.7-33.5,56.8-47.4,86.7-32.7,47-48.9,174.1-123.2,159.2h0Z"/>
            <path class="cls-2" d="M183.1,857.5c16.7.4,43.1-12.9,56-23.6,15.7-17.6,29-38.1,37.2-60.3,5.6-9.6,7.4-20.7,13.4-29.9,4.5-7,6.5-15.1,10.5-22.1,9.1-12.3,26.3-13.5,36.7-24.3,9.2-8.3,12.7-20.1,18.8-30.6,13-26.4,25.8-53,37.1-80.1,4.2-8.2,8.2-16.6,13.7-23.8,6.5-9,16-13.8,22.6-22.7,5.9-6.7,6.8-15.5,10.3-23.4,5.8-9.2,4.9-22.7,15.4-28.3,13.1-11.1,27.5-20.1,40.9-30.6,12.8-6.9,24.7-15.4,32.4-28,7.8-11.9,7.2-26,1.6-38.6-4.4-11.8-9.4-24-16.7-34.4-9.1-16.4-24-28.4-40.8-36.3-9.6-3.6-20.6-7.2-31-4.6-19.4,5.6-38.7,11.6-56.9,20.5-13.9,7.2-26.9,15.8-40.1,24.3-2.2,1.6-4.8,1.9-7.5,1.8-8.9-.8-17.4.4-26.3.3-13.5-1.1-26.6,4.8-37.2,12.5-20,11.7-38.1,26.4-54.1,43.1-17.3,13.6-31.2,30.5-45.4,47.3-21.3,22.7-30.2,28.1-30.9,61.1-.1,6.7.5,13.3.2,20,1.2,11.3,6.7,14.5-1.8,25-4.3,7.3-8.8,14.6-13.9,21.4-7.1,8.7-9.2,19.9-14.2,29.7-10.6,19.4-23.2,37.9-29.7,59.3-3.5,20-7.9,41.3-2.6,61.3,2.2,9.2,2,18.9,6,27.7,4.5,12,11.7,22.9,19,33.5,3.6,6.2,6.9,12.2,12.6,16.9,5.2,5.4,8.3,13,15.4,16.2,16.1,7.7,30.8,20.2,49.4,20v-.4ZM439.8,501.6c1.1,4.4-2.8,9.1-4.4,13.1-2.5,4.4-2.9,9.6-5,14.2-4.5,10.8-14.9,16.5-22.3,24.9-8.1,7.4-13.1,17.4-18,27-12.2,26.8-24.1,54-37.6,80.3-11.5,23-15.8,36.2-41.9,45.4-4.4,2.2-3.8-1.6-2.4-4.6,12.2-31,28.9-59.9,43.6-89.5,11.2-21.7,24.2-42.5,35.3-64.3,13.3-18.5,30.7-33.3,49.7-45.8.9-.5,2.4-1.5,3-.7h0ZM149.6,554.8c-2.7-3.1-2.2-8.5-2.3-12.4-.5-12.2,0-24.6,1.2-36.7,3.8-16.2,19.7-26.2,29.6-38.7,7.3-8.7,14.9-17.2,22-26,27.3-25.2,53.5-52.2,86.7-70.1,13.5-7,28.7-4.6,43.3-5.5,4.3.6-.1,3.9-1.7,5.1-13,10.7-24.7,23-38.3,33-10.2,8.4-21.8,14.9-30.9,24.6-25.5,27.3-51.3,54.2-75.8,82.4-10.7,13.5-20.5,27.8-30.5,41.9-.8,1-2.2,3.1-3.3,2.3h0ZM362.8,580.5c-20.4,34.6-37.1,71.2-55.1,107.2-7.2,17.8-14.3,35.9-23.2,53.1-2.7,4-4.8,8.6-6.1,13.2-3.9,10.7-9.7,20.7-13.2,31.5-11.3,18.2-21,39.1-39.4,51.1-11.1,6.9-24,11.5-36.5,15.2-12.4,1.1-24.4-2.7-34.9-9.3-7.3-4.2-14.9-7.8-22-12.4-5.9-8.2-14.1-15.2-19.2-24-11.1-17.5-24.3-34.9-25.6-56.4-3.4-14.2-5.5-28.3-2.5-42.7,1.4-8.7,1.3-18.2,4.6-26.6,6.8-20.4,19.2-38.6,29.4-57.6,7.7-24,24.9-43.1,37-65.1,24.9-37.6,54.7-71.3,86.4-103.2,11.4-12.7,22.1-26.4,36.4-36,22.2-14.2,39-35,60.7-49.7,22-13.8,43.6-29.2,68.4-37.8,14.8-3.9,28.8-12.3,44.5-11.1,35.4,5,59.4,36.1,70.2,68,8,16.1,6.8,34-6.4,46.9-9.5,11.9-24.9,16.4-35.7,26.8-13.5,8-25.4,18.8-38,28.1-26.8,21.4-57.5,40.9-70.5,74.5"/>
            <path class="cls-4" d="M234.7,656.7c14.4,3.2,21.5-13.4,26.5-24.2,4.1-9.9,11.1-18.2,15.6-28.1,5.4-11.7,13.5-21.9,20.6-32.6,9-12.9,14.5-27.7,23.4-40.7,8.8-10.9,14.3-24.1,24.8-33.6,10.9-11.5,33-25.9,36.5-41.5-2.3-20.5-22.5-15.8-35.6-8.5-8.2,5.6-15.2,12.6-22.7,19.1-6.2,4.8-9.8,12-16,16.8-2.7,2.4-5.8,4.5-7.9,7.6-14.2,18.3-26.5,38-39.9,56.8-16.1,20.6-32.3,42.3-42.5,66.4-5.5,17.1-4.5,40.1,17.3,42.4h0ZM232.9,654.2c-12.3-2.7-18.3-15.1-15.4-27.1h0c.2-15.4,10-27.4,17.4-40.1,7.9-13,16.7-25.5,26.4-37.3,13.5-18.8,25.5-38.7,39.7-57,7.6-7.6,15.3-15,22.4-23,13.3-11.2,27.2-28.1,46.3-26,6.3.9,11.1,8.4,9.6,14.4-6.3,10.6-15.6,19.6-24.9,27.6-7,6.5-14.9,12.7-20.3,20.7-10.6,17-22.7,32.8-31,51.1-8.5,16.1-21.2,29.9-28.8,46.4-5.1,10.6-11.5,18.2-15.9,29.3-4.8,10.3-11.9,25.5-25.6,21.1Z"/>
          </g>
          <g>
            <path class="cls-1" d="M182.4,857.2c16.7.4,43.1-12.9,56-23.6,15.7-17.6,29-38.1,37.2-60.3,5.6-9.6,7.4-20.7,13.4-29.9,4.5-7,6.5-15.1,10.5-22.1,9.1-12.3,26.3-13.5,36.7-24.3,9.2-8.3,12.7-20.1,18.8-30.6,13-26.4,25.8-53,37.1-80.1,4.2-8.2,8.2-16.6,13.7-23.8,6.5-9,16-13.8,22.6-22.7,5.9-6.7,6.8-15.5,10.3-23.4,5.8-9.2,4.9-22.7,15.4-28.3,13.1-11.1,27.5-20.1,40.9-30.6,12.8-6.9,24.7-15.4,32.4-28,7.8-11.9,7.2-26,1.6-38.6-4.4-11.8-9.4-24-16.7-34.4-9.1-16.4-24-28.4-40.8-36.3-9.6-3.6-20.6-7.2-31-4.6-19.4,5.6-38.7,11.6-56.9,20.5-13.9,7.2-26.9,15.8-40.1,24.3-2.2,1.6-4.8,1.9-7.5,1.8-8.9-.8-17.4.4-26.3.3-13.5-1.1-26.6,4.8-37.2,12.5-20,11.7-38.1,26.4-54.1,43.1-17.3,13.6-31.2,30.5-45.4,47.3-21.3,22.7-30.2,28.1-30.9,61.1-.1,6.7.5,13.3.2,20,1.2,11.3,6.7,14.5-1.8,25-4.3,7.3-8.8,14.6-13.9,21.4-7.1,8.7-9.2,19.9-14.2,29.7-10.6,19.4-23.2,37.9-29.7,59.3-3.5,20-7.9,41.3-2.6,61.3,2.2,9.2,2,18.9,6,27.7,4.5,12,11.7,22.9,19,33.5,3.6,6.2,6.9,12.2,12.6,16.9,5.2,5.4,8.3,13,15.4,16.2,16.1,7.7,30.8,20.2,49.4,20v-.4Z"/>
            <path class="cls-3" d="M169.8,812.5c-29.6-8.2-45.1-38.8-51.4-66.6-12.5-41.9,9.9-75.9,31.8-110.1,60.8-111.7,123.1-181.1,226.9-254.3,23.8-19.9,56.5-40.2,87.6-24.2,18.2,8.7,36.5,30.4,27.6,51-13.8,23.7-39.1,37.9-59.6,55.2-19.6,18.2-42.4,32.9-60.6,52.3-12.9,15.1-22.2,33.5-31.9,50.7-16.2,28.7-33.5,56.8-47.4,86.7-32.7,47-48.9,174.1-123.2,159.2h0Z"/>
            <path class="cls-2" d="M182.4,857.2c16.7.4,43.1-12.9,56-23.6,15.7-17.6,29-38.1,37.2-60.3,5.6-9.6,7.4-20.7,13.4-29.9,4.5-7,6.5-15.1,10.5-22.1,9.1-12.3,26.3-13.5,36.7-24.3,9.2-8.3,12.7-20.1,18.8-30.6,13-26.4,25.8-53,37.1-80.1,4.2-8.2,8.2-16.6,13.7-23.8,6.5-9,16-13.8,22.6-22.7,5.9-6.7,6.8-15.5,10.3-23.4,5.8-9.2,4.9-22.7,15.4-28.3,13.1-11.1,27.5-20.1,40.9-30.6,12.8-6.9,24.7-15.4,32.4-28,7.8-11.9,7.2-26,1.6-38.6-4.4-11.8-9.4-24-16.7-34.4-9.1-16.4-24-28.4-40.8-36.3-9.6-3.6-20.6-7.2-31-4.6-19.4,5.6-38.7,11.6-56.9,20.5-13.9,7.2-26.9,15.8-40.1,24.3-2.2,1.6-4.8,1.9-7.5,1.8-8.9-.8-17.4.4-26.3.3-13.5-1.1-26.6,4.8-37.2,12.5-20,11.7-38.1,26.4-54.1,43.1-17.3,13.6-31.2,30.5-45.4,47.3-21.3,22.7-30.2,28.1-30.9,61.1-.1,6.7.5,13.3.2,20,1.2,11.3,6.7,14.5-1.8,25-4.3,7.3-8.8,14.6-13.9,21.4-7.1,8.7-9.2,19.9-14.2,29.7-10.6,19.4-23.2,37.9-29.7,59.3-3.5,20-7.9,41.3-2.6,61.3,2.2,9.2,2,18.9,6,27.7,4.5,12,11.7,22.9,19,33.5,3.6,6.2,6.9,12.2,12.6,16.9,5.2,5.4,8.3,13,15.4,16.2,16.1,7.7,30.8,20.2,49.4,20v-.4ZM439.2,501.3c1.1,4.4-2.8,9.1-4.4,13.1-2.5,4.4-2.9,9.6-5,14.2-4.5,10.8-14.9,16.5-22.3,24.9-8.1,7.4-13.1,17.4-18,27-12.2,26.8-24.1,54-37.6,80.3-11.5,23-15.8,36.2-41.9,45.4-4.4,2.2-3.8-1.6-2.4-4.6,12.2-31,28.9-59.9,43.6-89.5,11.2-21.7,24.2-42.5,35.3-64.3,13.3-18.5,30.7-33.3,49.7-45.8.9-.5,2.4-1.5,3-.7h0ZM149,554.6c-2.7-3.1-2.2-8.5-2.3-12.4-.5-12.2,0-24.6,1.2-36.7,3.8-16.2,19.7-26.2,29.6-38.7,7.3-8.7,14.9-17.2,22-26,27.3-25.2,53.5-52.2,86.7-70.1,13.5-7,28.7-4.6,43.3-5.5,4.3.6-.1,3.9-1.7,5.1-13,10.7-24.7,23-38.3,33-10.2,8.4-21.8,14.9-30.9,24.6-25.5,27.3-51.3,54.2-75.8,82.4-10.7,13.5-20.5,27.8-30.5,41.9-.8,1-2.2,3.1-3.3,2.3h0ZM362.2,580.2c-20.4,34.6-37.1,71.2-55.1,107.2-7.2,17.8-14.3,35.9-23.2,53.1-2.7,4-4.8,8.6-6.1,13.2-3.9,10.7-9.7,20.7-13.2,31.5-11.3,18.2-21,39.1-39.4,51.1-11.1,6.9-24,11.5-36.5,15.2-12.4,1.1-24.4-2.7-34.9-9.3-7.3-4.2-14.9-7.8-22-12.4-5.9-8.2-14.1-15.2-19.2-24-11.1-17.5-24.3-34.9-25.6-56.4-3.4-14.2-5.5-28.3-2.5-42.7,1.4-8.7,1.3-18.2,4.6-26.6,6.8-20.4,19.2-38.6,29.4-57.6,7.7-24,24.9-43.1,37-65.1,24.9-37.6,54.7-71.3,86.4-103.2,11.4-12.7,22.1-26.4,36.4-36,22.2-14.2,39-35,60.7-49.7,22-13.8,43.6-29.2,68.4-37.8,14.8-3.9,28.8-12.3,44.5-11.1,35.4,5,59.4,36.1,70.2,68,8,16.1,6.8,34-6.4,46.9-9.5,11.9-24.9,16.4-35.7,26.8-13.5,8-25.4,18.8-38,28.1-26.8,21.4-57.5,40.9-70.5,74.5"/>
            <path class="cls-4" d="M234.1,656.4c14.4,3.2,21.5-13.4,26.5-24.2,4.1-9.9,11.1-18.2,15.6-28.1,5.4-11.7,13.5-21.9,20.6-32.6,9-12.9,14.5-27.7,23.4-40.7,8.8-10.9,14.3-24.1,24.8-33.6,10.9-11.5,33-25.9,36.5-41.5-2.3-20.5-22.5-15.8-35.6-8.5-8.2,5.6-15.2,12.6-22.7,19.1-6.2,4.8-9.8,12-16,16.8-2.7,2.4-5.8,4.5-7.9,7.6-14.2,18.3-26.5,38-39.9,56.8-16.1,20.6-32.3,42.3-42.5,66.4-5.5,17.1-4.5,40.1,17.3,42.4h0ZM232.3,653.9c-12.3-2.7-18.3-15.1-15.4-27.1h0c.2-15.4,10-27.4,17.4-40.1,7.9-13,16.7-25.5,26.4-37.3,13.5-18.8,25.5-38.7,39.7-57,7.6-7.6,15.3-15,22.4-23,13.3-11.2,27.2-28.1,46.3-26,6.3.9,11.1,8.4,9.6,14.4-6.3,10.6-15.6,19.6-24.9,27.6-7,6.5-14.9,12.7-20.3,20.7-10.6,17-22.7,32.8-31,51.1-8.5,16.1-21.2,29.9-28.8,46.4-5.1,10.6-11.5,18.2-15.9,29.3-4.8,10.3-11.9,25.5-25.6,21.1Z"/>
          </g>
          <g>
            <path class="cls-1" d="M181.8,856.9c16.7.4,43.1-12.9,56-23.6,15.7-17.6,29-38.1,37.2-60.3,5.6-9.6,7.4-20.7,13.4-29.9,4.5-7,6.5-15.1,10.5-22.1,9.1-12.3,26.3-13.5,36.7-24.3,9.2-8.3,12.7-20.1,18.8-30.6,13-26.4,25.8-53,37.1-80.1,4.2-8.2,8.2-16.6,13.7-23.8,6.5-9,16-13.8,22.6-22.7,5.9-6.7,6.8-15.5,10.3-23.4,5.8-9.2,4.9-22.7,15.4-28.3,13.1-11.1,27.5-20.1,40.9-30.6,12.8-6.9,24.7-15.4,32.4-28,7.8-11.9,7.2-26,1.6-38.6-4.4-11.8-9.4-24-16.7-34.4-9.1-16.4-24-28.4-40.8-36.3-9.6-3.6-20.6-7.2-31-4.6-19.4,5.6-38.7,11.6-56.9,20.5-13.9,7.2-26.9,15.8-40.1,24.3-2.2,1.6-4.8,1.9-7.5,1.8-8.9-.8-17.4.4-26.3.3-13.5-1.1-26.6,4.8-37.2,12.5-20,11.7-38.1,26.4-54.1,43.1-17.3,13.6-31.2,30.5-45.4,47.3-21.3,22.7-30.2,28.1-30.9,61.1-.1,6.7.5,13.3.2,20,1.2,11.3,6.7,14.5-1.8,25-4.3,7.3-8.8,14.6-13.9,21.4-7.1,8.7-9.2,19.9-14.2,29.7-10.6,19.4-23.2,37.9-29.7,59.3-3.5,20-7.9,41.3-2.6,61.3,2.2,9.2,2,18.9,6,27.7,4.5,12,11.7,22.9,19,33.5,3.6,6.2,6.9,12.2,12.6,16.9,5.2,5.4,8.3,13,15.4,16.2,16.1,7.7,30.8,20.2,49.4,20v-.4Z"/>
            <path class="cls-3" d="M169.2,812.2c-29.6-8.2-45.1-38.8-51.4-66.6-12.5-41.9,9.9-75.9,31.8-110.1,60.8-111.7,123.1-181.1,226.9-254.3,23.8-19.9,56.5-40.2,87.6-24.2,18.2,8.7,36.5,30.4,27.6,51-13.8,23.7-39.1,37.9-59.6,55.2-19.6,18.2-42.4,32.9-60.6,52.3-12.9,15.1-22.2,33.5-31.9,50.7-16.2,28.7-33.5,56.8-47.4,86.7-32.7,47-48.9,174.1-123.2,159.2h0Z"/>
            <path class="cls-2" d="M181.8,856.9c16.7.4,43.1-12.9,56-23.6,15.7-17.6,29-38.1,37.2-60.3,5.6-9.6,7.4-20.7,13.4-29.9,4.5-7,6.5-15.1,10.5-22.1,9.1-12.3,26.3-13.5,36.7-24.3,9.2-8.3,12.7-20.1,18.8-30.6,13-26.4,25.8-53,37.1-80.1,4.2-8.2,8.2-16.6,13.7-23.8,6.5-9,16-13.8,22.6-22.7,5.9-6.7,6.8-15.5,10.3-23.4,5.8-9.2,4.9-22.7,15.4-28.3,13.1-11.1,27.5-20.1,40.9-30.6,12.8-6.9,24.7-15.4,32.4-28,7.8-11.9,7.2-26,1.6-38.6-4.4-11.8-9.4-24-16.7-34.4-9.1-16.4-24-28.4-40.8-36.3-9.6-3.6-20.6-7.2-31-4.6-19.4,5.6-38.7,11.6-56.9,20.5-13.9,7.2-26.9,15.8-40.1,24.3-2.2,1.6-4.8,1.9-7.5,1.8-8.9-.8-17.4.4-26.3.3-13.5-1.1-26.6,4.8-37.2,12.5-20,11.7-38.1,26.4-54.1,43.1-17.3,13.6-31.2,30.5-45.4,47.3-21.3,22.7-30.2,28.1-30.9,61.1-.1,6.7.5,13.3.2,20,1.2,11.3,6.7,14.5-1.8,25-4.3,7.3-8.8,14.6-13.9,21.4-7.1,8.7-9.2,19.9-14.2,29.7-10.6,19.4-23.2,37.9-29.7,59.3-3.5,20-7.9,41.3-2.6,61.3,2.2,9.2,2,18.9,6,27.7,4.5,12,11.7,22.9,19,33.5,3.6,6.2,6.9,12.2,12.6,16.9,5.2,5.4,8.3,13,15.4,16.2,16.1,7.7,30.8,20.2,49.4,20v-.4ZM438.5,501c1.1,4.4-2.8,9.1-4.4,13.1-2.5,4.4-2.9,9.6-5,14.2-4.5,10.8-14.9,16.5-22.3,24.9-8.1,7.4-13.1,17.4-18,27-12.2,26.8-24.1,54-37.6,80.3-11.5,23-15.8,36.2-41.9,45.4-4.4,2.2-3.8-1.6-2.4-4.6,12.2-31,28.9-59.9,43.6-89.5,11.2-21.7,24.2-42.5,35.3-64.3,13.3-18.5,30.7-33.3,49.7-45.8.9-.5,2.4-1.5,3-.7h0ZM148.3,554.3c-2.7-3.1-2.2-8.5-2.3-12.4-.5-12.2,0-24.6,1.2-36.7,3.8-16.2,19.7-26.2,29.6-38.7,7.3-8.7,14.9-17.2,22-26,27.3-25.2,53.5-52.2,86.7-70.1,13.5-7,28.7-4.6,43.3-5.5,4.3.6-.1,3.9-1.7,5.1-13,10.7-24.7,23-38.3,33-10.2,8.4-21.8,14.9-30.9,24.6-25.5,27.3-51.3,54.2-75.8,82.4-10.7,13.5-20.5,27.8-30.5,41.9-.8,1-2.2,3.1-3.3,2.3h0ZM361.5,579.9c-20.4,34.6-37.1,71.2-55.1,107.2-7.2,17.8-14.3,35.9-23.2,53.1-2.7,4-4.8,8.6-6.1,13.2-3.9,10.7-9.7,20.7-13.2,31.5-11.3,18.2-21,39.1-39.4,51.1-11.1,6.9-24,11.5-36.5,15.2-12.4,1.1-24.4-2.7-34.9-9.3-7.3-4.2-14.9-7.8-22-12.4-5.9-8.2-14.1-15.2-19.2-24-11.1-17.5-24.3-34.9-25.6-56.4-3.4-14.2-5.5-28.3-2.5-42.7,1.4-8.7,1.3-18.2,4.6-26.6,6.8-20.4,19.2-38.6,29.4-57.6,7.7-24,24.9-43.1,37-65.1,24.9-37.6,54.7-71.3,86.4-103.2,11.4-12.7,22.1-26.4,36.4-36,22.2-14.2,39-35,60.7-49.7,22-13.8,43.6-29.2,68.4-37.8,14.8-3.9,28.8-12.3,44.5-11.1,35.4,5,59.4,36.1,70.2,68,8,16.1,6.8,34-6.4,46.9-9.5,11.9-24.9,16.4-35.7,26.8-13.5,8-25.4,18.8-38,28.1-26.8,21.4-57.5,40.9-70.5,74.5"/>
            <path class="cls-4" d="M233.4,656.1c14.4,3.2,21.5-13.4,26.5-24.2,4.1-9.9,11.1-18.2,15.6-28.1,5.4-11.7,13.5-21.9,20.6-32.6,9-12.9,14.5-27.7,23.4-40.7,8.8-10.9,14.3-24.1,24.8-33.6,10.9-11.5,33-25.9,36.5-41.5-2.3-20.5-22.5-15.8-35.6-8.5-8.2,5.6-15.2,12.6-22.7,19.1-6.2,4.8-9.8,12-16,16.8-2.7,2.4-5.8,4.5-7.9,7.6-14.2,18.3-26.5,38-39.9,56.8-16.1,20.6-32.3,42.3-42.5,66.4-5.5,17.1-4.5,40.1,17.3,42.4h0ZM231.7,653.7c-12.3-2.7-18.3-15.1-15.4-27.1h0c.2-15.4,10-27.4,17.4-40.1,7.9-13,16.7-25.5,26.4-37.3,13.5-18.8,25.5-38.7,39.7-57,7.6-7.6,15.3-15,22.4-23,13.3-11.2,27.2-28.1,46.3-26,6.3.9,11.1,8.4,9.6,14.4-6.3,10.6-15.6,19.6-24.9,27.6-7,6.5-14.9,12.7-20.3,20.7-10.6,17-22.7,32.8-31,51.1-8.5,16.1-21.2,29.9-28.8,46.4-5.1,10.6-11.5,18.2-15.9,29.3-4.8,10.3-11.9,25.5-25.6,21.1Z"/>
          </g>
          <g>
            <path class="cls-1" d="M181.1,856.6c16.7.4,43.1-12.9,56-23.6,15.7-17.6,29-38.1,37.2-60.3,5.6-9.6,7.4-20.7,13.4-29.9,4.5-7,6.5-15.1,10.5-22.1,9.1-12.3,26.3-13.5,36.7-24.3,9.2-8.3,12.7-20.1,18.8-30.6,13-26.4,25.8-53,37.1-80.1,4.2-8.2,8.2-16.6,13.7-23.8,6.5-9,16-13.8,22.6-22.7,5.9-6.7,6.8-15.5,10.3-23.4,5.8-9.2,4.9-22.7,15.4-28.3,13.1-11.1,27.5-20.1,40.9-30.6,12.8-6.9,24.7-15.4,32.4-28,7.8-11.9,7.2-26,1.6-38.6-4.4-11.8-9.4-24-16.7-34.4-9.1-16.4-24-28.4-40.8-36.3-9.6-3.6-20.6-7.2-31-4.6-19.4,5.6-38.7,11.6-56.9,20.5-13.9,7.2-26.9,15.8-40.1,24.3-2.2,1.6-4.8,1.9-7.5,1.8-8.9-.8-17.4.4-26.3.3-13.5-1.1-26.6,4.8-37.2,12.5-20,11.7-38.1,26.4-54.1,43.1-17.3,13.6-31.2,30.5-45.4,47.3-21.3,22.7-30.2,28.1-30.9,61.1-.1,6.7.5,13.3.2,20,1.2,11.3,6.7,14.5-1.8,25-4.3,7.3-8.8,14.6-13.9,21.4-7.1,8.7-9.2,19.9-14.2,29.7-10.6,19.4-23.2,37.9-29.7,59.3-3.5,20-7.9,41.3-2.6,61.3,2.2,9.2,2,18.9,6,27.7,4.5,12,11.7,22.9,19,33.5,3.6,6.2,6.9,12.2,12.6,16.9,5.2,5.4,8.3,13,15.4,16.2,16.1,7.7,30.8,20.2,49.4,20v-.4Z"/>
            <path class="cls-3" d="M168.5,811.9c-29.6-8.2-45.1-38.8-51.4-66.6-12.5-41.9,9.9-75.9,31.8-110.1,60.8-111.7,123.1-181.1,226.9-254.3,23.8-19.9,56.5-40.2,87.6-24.2,18.2,8.7,36.5,30.4,27.6,51-13.8,23.7-39.1,37.9-59.6,55.2-19.6,18.2-42.4,32.9-60.6,52.3-12.9,15.1-22.2,33.5-31.9,50.7-16.2,28.7-33.5,56.8-47.4,86.7-32.7,47-48.9,174.1-123.2,159.2h0Z"/>
            <path class="cls-2" d="M181.1,856.6c16.7.4,43.1-12.9,56-23.6,15.7-17.6,29-38.1,37.2-60.3,5.6-9.6,7.4-20.7,13.4-29.9,4.5-7,6.5-15.1,10.5-22.1,9.1-12.3,26.3-13.5,36.7-24.3,9.2-8.3,12.7-20.1,18.8-30.6,13-26.4,25.8-53,37.1-80.1,4.2-8.2,8.2-16.6,13.7-23.8,6.5-9,16-13.8,22.6-22.7,5.9-6.7,6.8-15.5,10.3-23.4,5.8-9.2,4.9-22.7,15.4-28.3,13.1-11.1,27.5-20.1,40.9-30.6,12.8-6.9,24.7-15.4,32.4-28,7.8-11.9,7.2-26,1.6-38.6-4.4-11.8-9.4-24-16.7-34.4-9.1-16.4-24-28.4-40.8-36.3-9.6-3.6-20.6-7.2-31-4.6-19.4,5.6-38.7,11.6-56.9,20.5-13.9,7.2-26.9,15.8-40.1,24.3-2.2,1.6-4.8,1.9-7.5,1.8-8.9-.8-17.4.4-26.3.3-13.5-1.1-26.6,4.8-37.2,12.5-20,11.7-38.1,26.4-54.1,43.1-17.3,13.6-31.2,30.5-45.4,47.3-21.3,22.7-30.2,28.1-30.9,61.1-.1,6.7.5,13.3.2,20,1.2,11.3,6.7,14.5-1.8,25-4.3,7.3-8.8,14.6-13.9,21.4-7.1,8.7-9.2,19.9-14.2,29.7-10.6,19.4-23.2,37.9-29.7,59.3-3.5,20-7.9,41.3-2.6,61.3,2.2,9.2,2,18.9,6,27.7,4.5,12,11.7,22.9,19,33.5,3.6,6.2,6.9,12.2,12.6,16.9,5.2,5.4,8.3,13,15.4,16.2,16.1,7.7,30.8,20.2,49.4,20v-.4ZM437.9,500.7c1.1,4.4-2.8,9.1-4.4,13.1-2.5,4.4-2.9,9.6-5,14.2-4.5,10.8-14.9,16.5-22.3,24.9-8.1,7.4-13.1,17.4-18,27-12.2,26.8-24.1,54-37.6,80.3-11.5,23-15.8,36.2-41.9,45.4-4.4,2.2-3.8-1.6-2.4-4.6,12.2-31,28.9-59.9,43.6-89.5,11.2-21.7,24.2-42.5,35.3-64.3,13.3-18.5,30.7-33.3,49.7-45.8.9-.5,2.4-1.5,3-.7h0ZM147.7,554c-2.7-3.1-2.2-8.5-2.3-12.4-.5-12.2,0-24.6,1.2-36.7,3.8-16.2,19.7-26.2,29.6-38.7,7.3-8.7,14.9-17.2,22-26,27.3-25.2,53.5-52.2,86.7-70.1,13.5-7,28.7-4.6,43.3-5.5,4.3.6-.1,3.9-1.7,5.1-13,10.7-24.7,23-38.3,33-10.2,8.4-21.8,14.9-30.9,24.6-25.5,27.3-51.3,54.2-75.8,82.4-10.7,13.5-20.5,27.8-30.5,41.9-.8,1-2.2,3.1-3.3,2.3h0ZM360.9,579.6c-20.4,34.6-37.1,71.2-55.1,107.2-7.2,17.8-14.3,35.9-23.2,53.1-2.7,4-4.8,8.6-6.1,13.2-3.9,10.7-9.7,20.7-13.2,31.5-11.3,18.2-21,39.1-39.4,51.1-11.1,6.9-24,11.5-36.5,15.2-12.4,1.1-24.4-2.7-34.9-9.3-7.3-4.2-14.9-7.8-22-12.4-5.9-8.2-14.1-15.2-19.2-24-11.1-17.5-24.3-34.9-25.6-56.4-3.4-14.2-5.5-28.3-2.5-42.7,1.4-8.7,1.3-18.2,4.6-26.6,6.8-20.4,19.2-38.6,29.4-57.6,7.7-24,24.9-43.1,37-65.1,24.9-37.6,54.7-71.3,86.4-103.2,11.4-12.7,22.1-26.4,36.4-36,22.2-14.2,39-35,60.7-49.7,22-13.8,43.6-29.2,68.4-37.8,14.8-3.9,28.8-12.3,44.5-11.1,35.4,5,59.4,36.1,70.2,68,8,16.1,6.8,34-6.4,46.9-9.5,11.9-24.9,16.4-35.7,26.8-13.5,8-25.4,18.8-38,28.1-26.8,21.4-57.5,40.9-70.5,74.5"/>
            <path class="cls-4" d="M232.8,655.8c14.4,3.2,21.5-13.4,26.5-24.2,4.1-9.9,11.1-18.2,15.6-28.1,5.4-11.7,13.5-21.9,20.6-32.6,9-12.9,14.5-27.7,23.4-40.7,8.8-10.9,14.3-24.1,24.8-33.6,10.9-11.5,33-25.9,36.5-41.5-2.3-20.5-22.5-15.8-35.6-8.5-8.2,5.6-15.2,12.6-22.7,19.1-6.2,4.8-9.8,12-16,16.8-2.7,2.4-5.8,4.5-7.9,7.6-14.2,18.3-26.5,38-39.9,56.8-16.1,20.6-32.3,42.3-42.5,66.4-5.5,17.1-4.5,40.1,17.3,42.4h0ZM231,653.4c-12.3-2.7-18.3-15.1-15.4-27.1h0c.2-15.4,10-27.4,17.4-40.1,7.9-13,16.7-25.5,26.4-37.3,13.5-18.8,25.5-38.7,39.7-57,7.6-7.6,15.3-15,22.4-23,13.3-11.2,27.2-28.1,46.3-26,6.3.9,11.1,8.4,9.6,14.4-6.3,10.6-15.6,19.6-24.9,27.6-7,6.5-14.9,12.7-20.3,20.7-10.6,17-22.7,32.8-31,51.1-8.5,16.1-21.2,29.9-28.8,46.4-5.1,10.6-11.5,18.2-15.9,29.3-4.8,10.3-11.9,25.5-25.6,21.1Z"/>
          </g>
          <g>
            <path class="cls-1" d="M180.5,856.3c16.7.4,43.1-12.9,56-23.6,15.7-17.6,29-38.1,37.2-60.3,5.6-9.6,7.4-20.7,13.4-29.9,4.5-7,6.5-15.1,10.5-22.1,9.1-12.3,26.3-13.5,36.7-24.3,9.2-8.3,12.7-20.1,18.8-30.6,13-26.4,25.8-53,37.1-80.1,4.2-8.2,8.2-16.6,13.7-23.8,6.5-9,16-13.8,22.6-22.7,5.9-6.7,6.8-15.5,10.3-23.4,5.8-9.2,4.9-22.7,15.4-28.3,13.1-11.1,27.5-20.1,40.9-30.6,12.8-6.9,24.7-15.4,32.4-28,7.8-11.9,7.2-26,1.6-38.6-4.4-11.8-9.4-24-16.7-34.4-9.1-16.4-24-28.4-40.8-36.3-9.6-3.6-20.6-7.2-31-4.6-19.4,5.6-38.7,11.6-56.9,20.5-13.9,7.2-26.9,15.8-40.1,24.3-2.2,1.6-4.8,1.9-7.5,1.8-8.9-.8-17.4.4-26.3.3-13.5-1.1-26.6,4.8-37.2,12.5-20,11.7-38.1,26.4-54.1,43.1-17.3,13.6-31.2,30.5-45.4,47.3-21.3,22.7-30.2,28.1-30.9,61.1-.1,6.7.5,13.3.2,20,1.2,11.3,6.7,14.5-1.8,25-4.3,7.3-8.8,14.6-13.9,21.4-7.1,8.7-9.2,19.9-14.2,29.7-10.6,19.4-23.2,37.9-29.7,59.3-3.5,20-7.9,41.3-2.6,61.3,2.2,9.2,2,18.9,6,27.7,4.5,12,11.7,22.9,19,33.5,3.6,6.2,6.9,12.2,12.6,16.9,5.2,5.4,8.3,13,15.4,16.2,16.1,7.7,30.8,20.2,49.4,20v-.4Z"/>
            <path class="cls-3" d="M167.9,811.6c-29.6-8.2-45.1-38.8-51.4-66.6-12.5-41.9,9.9-75.9,31.8-110.1,60.8-111.7,123.1-181.1,226.9-254.3,23.8-19.9,56.5-40.2,87.6-24.2,18.2,8.7,36.5,30.4,27.6,51-13.8,23.7-39.1,37.9-59.6,55.2-19.6,18.2-42.4,32.9-60.6,52.3-12.9,15.1-22.2,33.5-31.9,50.7-16.2,28.7-33.5,56.8-47.4,86.7-32.7,47-48.9,174.1-123.2,159.2h0Z"/>
            <path class="cls-2" d="M180.5,856.3c16.7.4,43.1-12.9,56-23.6,15.7-17.6,29-38.1,37.2-60.3,5.6-9.6,7.4-20.7,13.4-29.9,4.5-7,6.5-15.1,10.5-22.1,9.1-12.3,26.3-13.5,36.7-24.3,9.2-8.3,12.7-20.1,18.8-30.6,13-26.4,25.8-53,37.1-80.1,4.2-8.2,8.2-16.6,13.7-23.8,6.5-9,16-13.8,22.6-22.7,5.9-6.7,6.8-15.5,10.3-23.4,5.8-9.2,4.9-22.7,15.4-28.3,13.1-11.1,27.5-20.1,40.9-30.6,12.8-6.9,24.7-15.4,32.4-28,7.8-11.9,7.2-26,1.6-38.6-4.4-11.8-9.4-24-16.7-34.4-9.1-16.4-24-28.4-40.8-36.3-9.6-3.6-20.6-7.2-31-4.6-19.4,5.6-38.7,11.6-56.9,20.5-13.9,7.2-26.9,15.8-40.1,24.3-2.2,1.6-4.8,1.9-7.5,1.8-8.9-.8-17.4.4-26.3.3-13.5-1.1-26.6,4.8-37.2,12.5-20,11.7-38.1,26.4-54.1,43.1-17.3,13.6-31.2,30.5-45.4,47.3-21.3,22.7-30.2,28.1-30.9,61.1-.1,6.7.5,13.3.2,20,1.2,11.3,6.7,14.5-1.8,25-4.3,7.3-8.8,14.6-13.9,21.4-7.1,8.7-9.2,19.9-14.2,29.7-10.6,19.4-23.2,37.9-29.7,59.3-3.5,20-7.9,41.3-2.6,61.3,2.2,9.2,2,18.9,6,27.7,4.5,12,11.7,22.9,19,33.5,3.6,6.2,6.9,12.2,12.6,16.9,5.2,5.4,8.3,13,15.4,16.2,16.1,7.7,30.8,20.2,49.4,20v-.4ZM437.2,500.4c1.1,4.4-2.8,9.1-4.4,13.1-2.5,4.4-2.9,9.6-5,14.2-4.5,10.8-14.9,16.5-22.3,24.9-8.1,7.4-13.1,17.4-18,27-12.2,26.8-24.1,54-37.6,80.3-11.5,23-15.8,36.2-41.9,45.4-4.4,2.2-3.8-1.6-2.4-4.6,12.2-31,28.9-59.9,43.6-89.5,11.2-21.7,24.2-42.5,35.3-64.3,13.3-18.5,30.7-33.3,49.7-45.8.9-.5,2.4-1.5,3-.7h0ZM147,553.7c-2.7-3.1-2.2-8.5-2.3-12.4-.5-12.2,0-24.6,1.2-36.7,3.8-16.2,19.7-26.2,29.6-38.7,7.3-8.7,14.9-17.2,22-26,27.3-25.2,53.5-52.2,86.7-70.1,13.5-7,28.7-4.6,43.3-5.5,4.3.6-.1,3.9-1.7,5.1-13,10.7-24.7,23-38.3,33-10.2,8.4-21.8,14.9-30.9,24.6-25.5,27.3-51.3,54.2-75.8,82.4-10.7,13.5-20.5,27.8-30.5,41.9-.8,1-2.2,3.1-3.3,2.3h0ZM360.2,579.3c-20.4,34.6-37.1,71.2-55.1,107.2-7.2,17.8-14.3,35.9-23.2,53.1-2.7,4-4.8,8.6-6.1,13.2-3.9,10.7-9.7,20.7-13.2,31.5-11.3,18.2-21,39.1-39.4,51.1-11.1,6.9-24,11.5-36.5,15.2-12.4,1.1-24.4-2.7-34.9-9.3-7.3-4.2-14.9-7.8-22-12.4-5.9-8.2-14.1-15.2-19.2-24-11.1-17.5-24.3-34.9-25.6-56.4-3.4-14.2-5.5-28.3-2.5-42.7,1.4-8.7,1.3-18.2,4.6-26.6,6.8-20.4,19.2-38.6,29.4-57.6,7.7-24,24.9-43.1,37-65.1,24.9-37.6,54.7-71.3,86.4-103.2,11.4-12.7,22.1-26.4,36.4-36,22.2-14.2,39-35,60.7-49.7,22-13.8,43.6-29.2,68.4-37.8,14.8-3.9,28.8-12.3,44.5-11.1,35.4,5,59.4,36.1,70.2,68,8,16.1,6.8,34-6.4,46.9-9.5,11.9-24.9,16.4-35.7,26.8-13.5,8-25.4,18.8-38,28.1-26.8,21.4-57.5,40.9-70.5,74.5"/>
            <path class="cls-4" d="M232.1,655.5c14.4,3.2,21.5-13.4,26.5-24.2,4.1-9.9,11.1-18.2,15.6-28.1,5.4-11.7,13.5-21.9,20.6-32.6,9-12.9,14.5-27.7,23.4-40.7,8.8-10.9,14.3-24.1,24.8-33.6,10.9-11.5,33-25.9,36.5-41.5-2.3-20.5-22.5-15.8-35.6-8.5-8.2,5.6-15.2,12.6-22.7,19.1-6.2,4.8-9.8,12-16,16.8-2.7,2.4-5.8,4.5-7.9,7.6-14.2,18.3-26.5,38-39.9,56.8-16.1,20.6-32.3,42.3-42.5,66.4-5.5,17.1-4.5,40.1,17.3,42.4h0ZM230.4,653.1c-12.3-2.7-18.3-15.1-15.4-27.1h0c.2-15.4,10-27.4,17.4-40.1,7.9-13,16.7-25.5,26.4-37.3,13.5-18.8,25.5-38.7,39.7-57,7.6-7.6,15.3-15,22.4-23,13.3-11.2,27.2-28.1,46.3-26,6.3.9,11.1,8.4,9.6,14.4-6.3,10.6-15.6,19.6-24.9,27.6-7,6.5-14.9,12.7-20.3,20.7-10.6,17-22.7,32.8-31,51.1-8.5,16.1-21.2,29.9-28.8,46.4-5.1,10.6-11.5,18.2-15.9,29.3-4.8,10.3-11.9,25.5-25.6,21.1Z"/>
          </g>
          <g>
            <path class="cls-1" d="M179.9,856c16.7.4,43.1-12.9,56-23.6,15.7-17.6,29-38.1,37.2-60.3,5.6-9.6,7.4-20.7,13.4-29.9,4.5-7,6.5-15.1,10.5-22.1,9.1-12.3,26.3-13.5,36.7-24.3,9.2-8.3,12.7-20.1,18.8-30.6,13-26.4,25.8-53,37.1-80.1,4.2-8.2,8.2-16.6,13.7-23.8,6.5-9,16-13.8,22.6-22.7,5.9-6.7,6.8-15.5,10.3-23.4,5.8-9.2,4.9-22.7,15.4-28.3,13.1-11.1,27.5-20.1,40.9-30.6,12.8-6.9,24.7-15.4,32.4-28,7.8-11.9,7.2-26,1.6-38.6-4.4-11.8-9.4-24-16.7-34.4-9.1-16.4-24-28.4-40.8-36.3-9.6-3.6-20.6-7.2-31-4.6-19.4,5.6-38.7,11.6-56.9,20.5-13.9,7.2-26.9,15.8-40.1,24.3-2.2,1.6-4.8,1.9-7.5,1.8-8.9-.8-17.4.4-26.3.3-13.5-1.1-26.6,4.8-37.2,12.5-20,11.7-38.1,26.4-54.1,43.1-17.3,13.6-31.2,30.5-45.4,47.3-21.3,22.7-30.2,28.1-30.9,61.1-.1,6.7.5,13.3.2,20,1.2,11.3,6.7,14.5-1.8,25-4.3,7.3-8.8,14.6-13.9,21.4-7.1,8.7-9.2,19.9-14.2,29.7-10.6,19.4-23.2,37.9-29.7,59.3-3.5,20-7.9,41.3-2.6,61.3,2.2,9.2,2,18.9,6,27.7,4.5,12,11.7,22.9,19,33.5,3.6,6.2,6.9,12.2,12.6,16.9,5.2,5.4,8.3,13,15.4,16.2,16.1,7.7,30.8,20.2,49.4,20v-.4Z"/>
            <path class="cls-3" d="M167.2,811.3c-29.6-8.2-45.1-38.8-51.4-66.6-12.5-41.9,9.9-75.9,31.8-110.1,60.8-111.7,123.1-181.1,226.9-254.3,23.8-19.9,56.5-40.2,87.6-24.2,18.2,8.7,36.5,30.4,27.6,51-13.8,23.7-39.1,37.9-59.6,55.2-19.6,18.2-42.4,32.9-60.6,52.3-12.9,15.1-22.2,33.5-31.9,50.7-16.2,28.7-33.5,56.8-47.4,86.7-32.7,47-48.9,174.1-123.2,159.2h0Z"/>
            <path class="cls-2" d="M179.9,856c16.7.4,43.1-12.9,56-23.6,15.7-17.6,29-38.1,37.2-60.3,5.6-9.6,7.4-20.7,13.4-29.9,4.5-7,6.5-15.1,10.5-22.1,9.1-12.3,26.3-13.5,36.7-24.3,9.2-8.3,12.7-20.1,18.8-30.6,13-26.4,25.8-53,37.1-80.1,4.2-8.2,8.2-16.6,13.7-23.8,6.5-9,16-13.8,22.6-22.7,5.9-6.7,6.8-15.5,10.3-23.4,5.8-9.2,4.9-22.7,15.4-28.3,13.1-11.1,27.5-20.1,40.9-30.6,12.8-6.9,24.7-15.4,32.4-28,7.8-11.9,7.2-26,1.6-38.6-4.4-11.8-9.4-24-16.7-34.4-9.1-16.4-24-28.4-40.8-36.3-9.6-3.6-20.6-7.2-31-4.6-19.4,5.6-38.7,11.6-56.9,20.5-13.9,7.2-26.9,15.8-40.1,24.3-2.2,1.6-4.8,1.9-7.5,1.8-8.9-.8-17.4.4-26.3.3-13.5-1.1-26.6,4.8-37.2,12.5-20,11.7-38.1,26.4-54.1,43.1-17.3,13.6-31.2,30.5-45.4,47.3-21.3,22.7-30.2,28.1-30.9,61.1-.1,6.7.5,13.3.2,20,1.2,11.3,6.7,14.5-1.8,25-4.3,7.3-8.8,14.6-13.9,21.4-7.1,8.7-9.2,19.9-14.2,29.7-10.6,19.4-23.2,37.9-29.7,59.3-3.5,20-7.9,41.3-2.6,61.3,2.2,9.2,2,18.9,6,27.7,4.5,12,11.7,22.9,19,33.5,3.6,6.2,6.9,12.2,12.6,16.9,5.2,5.4,8.3,13,15.4,16.2,16.1,7.7,30.8,20.2,49.4,20v-.4ZM436.6,500.2c1.1,4.4-2.8,9.1-4.4,13.1-2.5,4.4-2.9,9.6-5,14.2-4.5,10.8-14.9,16.5-22.3,24.9-8.1,7.4-13.1,17.4-18,27-12.2,26.8-24.1,54-37.6,80.3-11.5,23-15.8,36.2-41.9,45.4-4.4,2.2-3.8-1.6-2.4-4.6,12.2-31,28.9-59.9,43.6-89.5,11.2-21.7,24.2-42.5,35.3-64.3,13.3-18.5,30.7-33.3,49.7-45.8.9-.5,2.4-1.5,3-.7h0ZM146.4,553.4c-2.7-3.1-2.2-8.5-2.3-12.4-.5-12.2,0-24.6,1.2-36.7,3.8-16.2,19.7-26.2,29.6-38.7,7.3-8.7,14.9-17.2,22-26,27.3-25.2,53.5-52.2,86.7-70.1,13.5-7,28.7-4.6,43.3-5.5,4.3.6-.1,3.9-1.7,5.1-13,10.7-24.7,23-38.3,33-10.2,8.4-21.8,14.9-30.9,24.6-25.5,27.3-51.3,54.2-75.8,82.4-10.7,13.5-20.5,27.8-30.5,41.9-.8,1-2.2,3.1-3.3,2.3h0ZM359.6,579c-20.4,34.6-37.1,71.2-55.1,107.2-7.2,17.8-14.3,35.9-23.2,53.1-2.7,4-4.8,8.6-6.1,13.2-3.9,10.7-9.7,20.7-13.2,31.5-11.3,18.2-21,39.1-39.4,51.1-11.1,6.9-24,11.5-36.5,15.2-12.4,1.1-24.4-2.7-34.9-9.3-7.3-4.2-14.9-7.8-22-12.4-5.9-8.2-14.1-15.2-19.2-24-11.1-17.5-24.3-34.9-25.6-56.4-3.4-14.2-5.5-28.3-2.5-42.7,1.4-8.7,1.3-18.2,4.6-26.6,6.8-20.4,19.2-38.6,29.4-57.6,7.7-24,24.9-43.1,37-65.1,24.9-37.6,54.7-71.3,86.4-103.2,11.4-12.7,22.1-26.4,36.4-36,22.2-14.2,39-35,60.7-49.7,22-13.8,43.6-29.2,68.4-37.8,14.8-3.9,28.8-12.3,44.5-11.1,35.4,5,59.4,36.1,70.2,68,8,16.1,6.8,34-6.4,46.9-9.5,11.9-24.9,16.4-35.7,26.8-13.5,8-25.4,18.8-38,28.1-26.8,21.4-57.5,40.9-70.5,74.5"/>
            <path class="cls-4" d="M231.5,655.2c14.4,3.2,21.5-13.4,26.5-24.2,4.1-9.9,11.1-18.2,15.6-28.1,5.4-11.7,13.5-21.9,20.6-32.6,9-12.9,14.5-27.7,23.4-40.7,8.8-10.9,14.3-24.1,24.8-33.6,10.9-11.5,33-25.9,36.5-41.5-2.3-20.5-22.5-15.8-35.6-8.5-8.2,5.6-15.2,12.6-22.7,19.1-6.2,4.8-9.8,12-16,16.8-2.7,2.4-5.8,4.5-7.9,7.6-14.2,18.3-26.5,38-39.9,56.8-16.1,20.6-32.3,42.3-42.5,66.4-5.5,17.1-4.5,40.1,17.3,42.4h0ZM229.7,652.8c-12.3-2.7-18.3-15.1-15.4-27.1h0c.2-15.4,10-27.4,17.4-40.1,7.9-13,16.7-25.5,26.4-37.3,13.5-18.8,25.5-38.7,39.7-57,7.6-7.6,15.3-15,22.4-23,13.3-11.2,27.2-28.1,46.3-26,6.3.9,11.1,8.4,9.6,14.4-6.3,10.6-15.6,19.6-24.9,27.6-7,6.5-14.9,12.7-20.3,20.7-10.6,17-22.7,32.8-31,51.1-8.5,16.1-21.2,29.9-28.8,46.4-5.1,10.6-11.5,18.2-15.9,29.3-4.8,10.3-11.9,25.5-25.6,21.1Z"/>
          </g>
          <g>
            <path class="cls-1" d="M179.2,855.8c16.7.4,43.1-12.9,56-23.6,15.7-17.6,29-38.1,37.2-60.3,5.6-9.6,7.4-20.7,13.4-29.9,4.5-7,6.5-15.1,10.5-22.1,9.1-12.3,26.3-13.5,36.7-24.3,9.2-8.3,12.7-20.1,18.8-30.6,13-26.4,25.8-53,37.1-80.1,4.2-8.2,8.2-16.6,13.7-23.8,6.5-9,16-13.8,22.6-22.7,5.9-6.7,6.8-15.5,10.3-23.4,5.8-9.2,4.9-22.7,15.4-28.3,13.1-11.1,27.5-20.1,40.9-30.6,12.8-6.9,24.7-15.4,32.4-28,7.8-11.9,7.2-26,1.6-38.6-4.4-11.8-9.4-24-16.7-34.4-9.1-16.4-24-28.4-40.8-36.3-9.6-3.6-20.6-7.2-31-4.6-19.4,5.6-38.7,11.6-56.9,20.5-13.9,7.2-26.9,15.8-40.1,24.3-2.2,1.6-4.8,1.9-7.5,1.8-8.9-.8-17.4.4-26.3.3-13.5-1.1-26.6,4.8-37.2,12.5-20,11.7-38.1,26.4-54.1,43.1-17.3,13.6-31.2,30.5-45.4,47.3-21.3,22.7-30.2,28.1-30.9,61.1-.1,6.7.5,13.3.2,20,1.2,11.3,6.7,14.5-1.8,25-4.3,7.3-8.8,14.6-13.9,21.4-7.1,8.7-9.2,19.9-14.2,29.7-10.6,19.4-23.2,37.9-29.7,59.3-3.5,20-7.9,41.3-2.6,61.3,2.2,9.2,2,18.9,6,27.7,4.5,12,11.7,22.9,19,33.5,3.6,6.2,6.9,12.2,12.6,16.9,5.2,5.4,8.3,13,15.4,16.2,16.1,7.7,30.8,20.2,49.4,20v-.4Z"/>
            <path class="cls-3" d="M166.6,811c-29.6-8.2-45.1-38.8-51.4-66.6-12.5-41.9,9.9-75.9,31.8-110.1,60.8-111.7,123.1-181.1,226.9-254.3,23.8-19.9,56.5-40.2,87.6-24.2,18.2,8.7,36.5,30.4,27.6,51-13.8,23.7-39.1,37.9-59.6,55.2-19.6,18.2-42.4,32.9-60.6,52.3-12.9,15.1-22.2,33.5-31.9,50.7-16.2,28.7-33.5,56.8-47.4,86.7-32.7,47-48.9,174.1-123.2,159.2h0Z"/>
            <path class="cls-2" d="M179.2,855.8c16.7.4,43.1-12.9,56-23.6,15.7-17.6,29-38.1,37.2-60.3,5.6-9.6,7.4-20.7,13.4-29.9,4.5-7,6.5-15.1,10.5-22.1,9.1-12.3,26.3-13.5,36.7-24.3,9.2-8.3,12.7-20.1,18.8-30.6,13-26.4,25.8-53,37.1-80.1,4.2-8.2,8.2-16.6,13.7-23.8,6.5-9,16-13.8,22.6-22.7,5.9-6.7,6.8-15.5,10.3-23.4,5.8-9.2,4.9-22.7,15.4-28.3,13.1-11.1,27.5-20.1,40.9-30.6,12.8-6.9,24.7-15.4,32.4-28,7.8-11.9,7.2-26,1.6-38.6-4.4-11.8-9.4-24-16.7-34.4-9.1-16.4-24-28.4-40.8-36.3-9.6-3.6-20.6-7.2-31-4.6-19.4,5.6-38.7,11.6-56.9,20.5-13.9,7.2-26.9,15.8-40.1,24.3-2.2,1.6-4.8,1.9-7.5,1.8-8.9-.8-17.4.4-26.3.3-13.5-1.1-26.6,4.8-37.2,12.5-20,11.7-38.1,26.4-54.1,43.1-17.3,13.6-31.2,30.5-45.4,47.3-21.3,22.7-30.2,28.1-30.9,61.1-.1,6.7.5,13.3.2,20,1.2,11.3,6.7,14.5-1.8,25-4.3,7.3-8.8,14.6-13.9,21.4-7.1,8.7-9.2,19.9-14.2,29.7-10.6,19.4-23.2,37.9-29.7,59.3-3.5,20-7.9,41.3-2.6,61.3,2.2,9.2,2,18.9,6,27.7,4.5,12,11.7,22.9,19,33.5,3.6,6.2,6.9,12.2,12.6,16.9,5.2,5.4,8.3,13,15.4,16.2,16.1,7.7,30.8,20.2,49.4,20v-.4ZM436,499.9c1.1,4.4-2.8,9.1-4.4,13.1-2.5,4.4-2.9,9.6-5,14.2-4.5,10.8-14.9,16.5-22.3,24.9-8.1,7.4-13.1,17.4-18,27-12.2,26.8-24.1,54-37.6,80.3-11.5,23-15.8,36.2-41.9,45.4-4.4,2.2-3.8-1.6-2.4-4.6,12.2-31,28.9-59.9,43.6-89.5,11.2-21.7,24.2-42.5,35.3-64.3,13.3-18.5,30.7-33.3,49.7-45.8.9-.5,2.4-1.5,3-.7h0ZM145.7,553.1c-2.7-3.1-2.2-8.5-2.3-12.4-.5-12.2,0-24.6,1.2-36.7,3.8-16.2,19.7-26.2,29.6-38.7,7.3-8.7,14.9-17.2,22-26,27.3-25.2,53.5-52.2,86.7-70.1,13.5-7,28.7-4.6,43.3-5.5,4.3.6-.1,3.9-1.7,5.1-13,10.7-24.7,23-38.3,33-10.2,8.4-21.8,14.9-30.9,24.6-25.5,27.3-51.3,54.2-75.8,82.4-10.7,13.5-20.5,27.8-30.5,41.9-.8,1-2.2,3.1-3.3,2.3h0ZM359,578.8c-20.4,34.6-37.1,71.2-55.1,107.2-7.2,17.8-14.3,35.9-23.2,53.1-2.7,4-4.8,8.6-6.1,13.2-3.9,10.7-9.7,20.7-13.2,31.5-11.3,18.2-21,39.1-39.4,51.1-11.1,6.9-24,11.5-36.5,15.2-12.4,1.1-24.4-2.7-34.9-9.3-7.3-4.2-14.9-7.8-22-12.4-5.9-8.2-14.1-15.2-19.2-24-11.1-17.5-24.3-34.9-25.6-56.4-3.4-14.2-5.5-28.3-2.5-42.7,1.4-8.7,1.3-18.2,4.6-26.6,6.8-20.4,19.2-38.6,29.4-57.6,7.7-24,24.9-43.1,37-65.1,24.9-37.6,54.7-71.3,86.4-103.2,11.4-12.7,22.1-26.4,36.4-36,22.2-14.2,39-35,60.7-49.7,22-13.8,43.6-29.2,68.4-37.8,14.8-3.9,28.8-12.3,44.5-11.1,35.4,5,59.4,36.1,70.2,68,8,16.1,6.8,34-6.4,46.9-9.5,11.9-24.9,16.4-35.7,26.8-13.5,8-25.4,18.8-38,28.1-26.8,21.4-57.5,40.9-70.5,74.5"/>
            <path class="cls-4" d="M230.8,654.9c14.4,3.2,21.5-13.4,26.5-24.2,4.1-9.9,11.1-18.2,15.6-28.1,5.4-11.7,13.5-21.9,20.6-32.6,9-12.9,14.5-27.7,23.4-40.7,8.8-10.9,14.3-24.1,24.8-33.6,10.9-11.5,33-25.9,36.5-41.5-2.3-20.5-22.5-15.8-35.6-8.5-8.2,5.6-15.2,12.6-22.7,19.1-6.2,4.8-9.8,12-16,16.8-2.7,2.4-5.8,4.5-7.9,7.6-14.2,18.3-26.5,38-39.9,56.8-16.1,20.6-32.3,42.3-42.5,66.4-5.5,17.1-4.5,40.1,17.3,42.4h0ZM229.1,652.5c-12.3-2.7-18.3-15.1-15.4-27.1h0c.2-15.4,10-27.4,17.4-40.1,7.9-13,16.7-25.5,26.4-37.3,13.5-18.8,25.5-38.7,39.7-57,7.6-7.6,15.3-15,22.4-23,13.3-11.2,27.2-28.1,46.3-26,6.3.9,11.1,8.4,9.6,14.4-6.3,10.6-15.6,19.6-24.9,27.6-7,6.5-14.9,12.7-20.3,20.7-10.6,17-22.7,32.8-31,51.1-8.5,16.1-21.2,29.9-28.8,46.4-5.1,10.6-11.5,18.2-15.9,29.3-4.8,10.3-11.9,25.5-25.6,21.1Z"/>
          </g>
          <g>
            <path class="cls-1" d="M178.6,855.5c16.7.4,43.1-12.9,56-23.6,15.7-17.6,29-38.1,37.2-60.3,5.6-9.6,7.4-20.7,13.4-29.9,4.5-7,6.5-15.1,10.5-22.1,9.1-12.3,26.3-13.5,36.7-24.3,9.2-8.3,12.7-20.1,18.8-30.6,13-26.4,25.8-53,37.1-80.1,4.2-8.2,8.2-16.6,13.7-23.8,6.5-9,16-13.8,22.6-22.7,5.9-6.7,6.8-15.5,10.3-23.4,5.8-9.2,4.9-22.7,15.4-28.3,13.1-11.1,27.5-20.1,40.9-30.6,12.8-6.9,24.7-15.4,32.4-28,7.8-11.9,7.2-26,1.6-38.6-4.4-11.8-9.4-24-16.7-34.4-9.1-16.4-24-28.4-40.8-36.3-9.6-3.6-20.6-7.2-31-4.6-19.4,5.6-38.7,11.6-56.9,20.5-13.9,7.2-26.9,15.8-40.1,24.3-2.2,1.6-4.8,1.9-7.5,1.8-8.9-.8-17.4.4-26.3.3-13.5-1.1-26.6,4.8-37.2,12.5-20,11.7-38.1,26.4-54.1,43.1-17.3,13.6-31.2,30.5-45.4,47.3-21.3,22.7-30.2,28.1-30.9,61.1-.1,6.7.5,13.3.2,20,1.2,11.3,6.7,14.5-1.8,25-4.3,7.3-8.8,14.6-13.9,21.4-7.1,8.7-9.2,19.9-14.2,29.7-10.6,19.4-23.2,37.9-29.7,59.3-3.5,20-7.9,41.3-2.6,61.3,2.2,9.2,2,18.9,6,27.7,4.5,12,11.7,22.9,19,33.5,3.6,6.2,6.9,12.2,12.6,16.9,5.2,5.4,8.3,13,15.4,16.2,16.1,7.7,30.8,20.2,49.4,20v-.4Z"/>
            <path class="cls-3" d="M166,810.7c-29.6-8.2-45.1-38.8-51.4-66.6-12.5-41.9,9.9-75.9,31.8-110.1,60.8-111.7,123.1-181.1,226.9-254.3,23.8-19.9,56.5-40.2,87.6-24.2,18.2,8.7,36.5,30.4,27.6,51-13.8,23.7-39.1,37.9-59.6,55.2-19.6,18.2-42.4,32.9-60.6,52.3-12.9,15.1-22.2,33.5-31.9,50.7-16.2,28.7-33.5,56.8-47.4,86.7-32.7,47-48.9,174.1-123.2,159.2h0Z"/>
            <path class="cls-2" d="M178.6,855.5c16.7.4,43.1-12.9,56-23.6,15.7-17.6,29-38.1,37.2-60.3,5.6-9.6,7.4-20.7,13.4-29.9,4.5-7,6.5-15.1,10.5-22.1,9.1-12.3,26.3-13.5,36.7-24.3,9.2-8.3,12.7-20.1,18.8-30.6,13-26.4,25.8-53,37.1-80.1,4.2-8.2,8.2-16.6,13.7-23.8,6.5-9,16-13.8,22.6-22.7,5.9-6.7,6.8-15.5,10.3-23.4,5.8-9.2,4.9-22.7,15.4-28.3,13.1-11.1,27.5-20.1,40.9-30.6,12.8-6.9,24.7-15.4,32.4-28,7.8-11.9,7.2-26,1.6-38.6-4.4-11.8-9.4-24-16.7-34.4-9.1-16.4-24-28.4-40.8-36.3-9.6-3.6-20.6-7.2-31-4.6-19.4,5.6-38.7,11.6-56.9,20.5-13.9,7.2-26.9,15.8-40.1,24.3-2.2,1.6-4.8,1.9-7.5,1.8-8.9-.8-17.4.4-26.3.3-13.5-1.1-26.6,4.8-37.2,12.5-20,11.7-38.1,26.4-54.1,43.1-17.3,13.6-31.2,30.5-45.4,47.3-21.3,22.7-30.2,28.1-30.9,61.1-.1,6.7.5,13.3.2,20,1.2,11.3,6.7,14.5-1.8,25-4.3,7.3-8.8,14.6-13.9,21.4-7.1,8.7-9.2,19.9-14.2,29.7-10.6,19.4-23.2,37.9-29.7,59.3-3.5,20-7.9,41.3-2.6,61.3,2.2,9.2,2,18.9,6,27.7,4.5,12,11.7,22.9,19,33.5,3.6,6.2,6.9,12.2,12.6,16.9,5.2,5.4,8.3,13,15.4,16.2,16.1,7.7,30.8,20.2,49.4,20v-.4ZM435.3,499.6c1.1,4.4-2.8,9.1-4.4,13.1-2.5,4.4-2.9,9.6-5,14.2-4.5,10.8-14.9,16.5-22.3,24.9-8.1,7.4-13.1,17.4-18,27-12.2,26.8-24.1,54-37.6,80.3-11.5,23-15.8,36.2-41.9,45.4-4.4,2.2-3.8-1.6-2.4-4.6,12.2-31,28.9-59.9,43.6-89.5,11.2-21.7,24.2-42.5,35.3-64.3,13.3-18.5,30.7-33.3,49.7-45.8.9-.5,2.4-1.5,3-.7h0ZM145.1,552.8c-2.7-3.1-2.2-8.5-2.3-12.4-.5-12.2,0-24.6,1.2-36.7,3.8-16.2,19.7-26.2,29.6-38.7,7.3-8.7,14.9-17.2,22-26,27.3-25.2,53.5-52.2,86.7-70.1,13.5-7,28.7-4.6,43.3-5.5,4.3.6-.1,3.9-1.7,5.1-13,10.7-24.7,23-38.3,33-10.2,8.4-21.8,14.9-30.9,24.6-25.5,27.3-51.3,54.2-75.8,82.4-10.7,13.5-20.5,27.8-30.5,41.9-.8,1-2.2,3.1-3.3,2.3h0ZM358.3,578.5c-20.4,34.6-37.1,71.2-55.1,107.2-7.2,17.8-14.3,35.9-23.2,53.1-2.7,4-4.8,8.6-6.1,13.2-3.9,10.7-9.7,20.7-13.2,31.5-11.3,18.2-21,39.1-39.4,51.1-11.1,6.9-24,11.5-36.5,15.2-12.4,1.1-24.4-2.7-34.9-9.3-7.3-4.2-14.9-7.8-22-12.4-5.9-8.2-14.1-15.2-19.2-24-11.1-17.5-24.3-34.9-25.6-56.4-3.4-14.2-5.5-28.3-2.5-42.7,1.4-8.7,1.3-18.2,4.6-26.6,6.8-20.4,19.2-38.6,29.4-57.6,7.7-24,24.9-43.1,37-65.1,24.9-37.6,54.7-71.3,86.4-103.2,11.4-12.7,22.1-26.4,36.4-36,22.2-14.2,39-35,60.7-49.7,22-13.8,43.6-29.2,68.4-37.8,14.8-3.9,28.8-12.3,44.5-11.1,35.4,5,59.4,36.1,70.2,68,8,16.1,6.8,34-6.4,46.9-9.5,11.9-24.9,16.4-35.7,26.8-13.5,8-25.4,18.8-38,28.1-26.8,21.4-57.5,40.9-70.5,74.5"/>
            <path class="cls-4" d="M230.2,654.6c14.4,3.2,21.5-13.4,26.5-24.2,4.1-9.9,11.1-18.2,15.6-28.1,5.4-11.7,13.5-21.9,20.6-32.6,9-12.9,14.5-27.7,23.4-40.7,8.8-10.9,14.3-24.1,24.8-33.6,10.9-11.5,33-25.9,36.5-41.5-2.3-20.5-22.5-15.8-35.6-8.5-8.2,5.6-15.2,12.6-22.7,19.1-6.2,4.8-9.8,12-16,16.8-2.7,2.4-5.8,4.5-7.9,7.6-14.2,18.3-26.5,38-39.9,56.8-16.1,20.6-32.3,42.3-42.5,66.4-5.5,17.1-4.5,40.1,17.3,42.4h0ZM228.4,652.2c-12.3-2.7-18.3-15.1-15.4-27.1h0c.2-15.4,10-27.4,17.4-40.1,7.9-13,16.7-25.5,26.4-37.3,13.5-18.8,25.5-38.7,39.7-57,7.6-7.6,15.3-15,22.4-23,13.3-11.2,27.2-28.1,46.3-26,6.3.9,11.1,8.4,9.6,14.4-6.3,10.6-15.6,19.6-24.9,27.6-7,6.5-14.9,12.7-20.3,20.7-10.6,17-22.7,32.8-31,51.1-8.5,16.1-21.2,29.9-28.8,46.4-5.1,10.6-11.5,18.2-15.9,29.3-4.8,10.3-11.9,25.5-25.6,21.1Z"/>
          </g>
          <g>
            <path class="cls-1" d="M177.9,855.2c16.7.4,43.1-12.9,56-23.6,15.7-17.6,29-38.1,37.2-60.3,5.6-9.6,7.4-20.7,13.4-29.9,4.5-7,6.5-15.1,10.5-22.1,9.1-12.3,26.3-13.5,36.7-24.3,9.2-8.3,12.7-20.1,18.8-30.6,13-26.4,25.8-53,37.1-80.1,4.2-8.2,8.2-16.6,13.7-23.8,6.5-9,16-13.8,22.6-22.7,5.9-6.7,6.8-15.5,10.3-23.4,5.8-9.2,4.9-22.7,15.4-28.3,13.1-11.1,27.5-20.1,40.9-30.6,12.8-6.9,24.7-15.4,32.4-28,7.8-11.9,7.2-26,1.6-38.6-4.4-11.8-9.4-24-16.7-34.4-9.1-16.4-24-28.4-40.8-36.3-9.6-3.6-20.6-7.2-31-4.6-19.4,5.6-38.7,11.6-56.9,20.5-13.9,7.2-26.9,15.8-40.1,24.3-2.2,1.6-4.8,1.9-7.5,1.8-8.9-.8-17.4.4-26.3.3-13.5-1.1-26.6,4.8-37.2,12.5-20,11.7-38.1,26.4-54.1,43.1-17.3,13.6-31.2,30.5-45.4,47.3-21.3,22.7-30.2,28.1-30.9,61.1-.1,6.7.5,13.3.2,20,1.2,11.3,6.7,14.5-1.8,25-4.3,7.3-8.8,14.6-13.9,21.4-7.1,8.7-9.2,19.9-14.2,29.7-10.6,19.4-23.2,37.9-29.7,59.3-3.5,20-7.9,41.3-2.6,61.3,2.2,9.2,2,18.9,6,27.7,4.5,12,11.7,22.9,19,33.5,3.6,6.2,6.9,12.2,12.6,16.9,5.2,5.4,8.3,13,15.4,16.2,16.1,7.7,30.8,20.2,49.4,20v-.4Z"/>
            <path class="cls-3" d="M165.3,810.4c-29.6-8.2-45.1-38.8-51.4-66.6-12.5-41.9,9.9-75.9,31.8-110.1,60.8-111.7,123.1-181.1,226.9-254.3,23.8-19.9,56.5-40.2,87.6-24.2,18.2,8.7,36.5,30.4,27.6,51-13.8,23.7-39.1,37.9-59.6,55.2-19.6,18.2-42.4,32.9-60.6,52.3-12.9,15.1-22.2,33.5-31.9,50.7-16.2,28.7-33.5,56.8-47.4,86.7-32.7,47-48.9,174.1-123.2,159.2h0Z"/>
            <path class="cls-2" d="M177.9,855.2c16.7.4,43.1-12.9,56-23.6,15.7-17.6,29-38.1,37.2-60.3,5.6-9.6,7.4-20.7,13.4-29.9,4.5-7,6.5-15.1,10.5-22.1,9.1-12.3,26.3-13.5,36.7-24.3,9.2-8.3,12.7-20.1,18.8-30.6,13-26.4,25.8-53,37.1-80.1,4.2-8.2,8.2-16.6,13.7-23.8,6.5-9,16-13.8,22.6-22.7,5.9-6.7,6.8-15.5,10.3-23.4,5.8-9.2,4.9-22.7,15.4-28.3,13.1-11.1,27.5-20.1,40.9-30.6,12.8-6.9,24.7-15.4,32.4-28,7.8-11.9,7.2-26,1.6-38.6-4.4-11.8-9.4-24-16.7-34.4-9.1-16.4-24-28.4-40.8-36.3-9.6-3.6-20.6-7.2-31-4.6-19.4,5.6-38.7,11.6-56.9,20.5-13.9,7.2-26.9,15.8-40.1,24.3-2.2,1.6-4.8,1.9-7.5,1.8-8.9-.8-17.4.4-26.3.3-13.5-1.1-26.6,4.8-37.2,12.5-20,11.7-38.1,26.4-54.1,43.1-17.3,13.6-31.2,30.5-45.4,47.3-21.3,22.7-30.2,28.1-30.9,61.1-.1,6.7.5,13.3.2,20,1.2,11.3,6.7,14.5-1.8,25-4.3,7.3-8.8,14.6-13.9,21.4-7.1,8.7-9.2,19.9-14.2,29.7-10.6,19.4-23.2,37.9-29.7,59.3-3.5,20-7.9,41.3-2.6,61.3,2.2,9.2,2,18.9,6,27.7,4.5,12,11.7,22.9,19,33.5,3.6,6.2,6.9,12.2,12.6,16.9,5.2,5.4,8.3,13,15.4,16.2,16.1,7.7,30.8,20.2,49.4,20v-.4ZM434.7,499.3c1.1,4.4-2.8,9.1-4.4,13.1-2.5,4.4-2.9,9.6-5,14.2-4.5,10.8-14.9,16.5-22.3,24.9-8.1,7.4-13.1,17.4-18,27-12.2,26.8-24.1,54-37.6,80.3-11.5,23-15.8,36.2-41.9,45.4-4.4,2.2-3.8-1.6-2.4-4.6,12.2-31,28.9-59.9,43.6-89.5,11.2-21.7,24.2-42.5,35.3-64.3,13.3-18.5,30.7-33.3,49.7-45.8.9-.5,2.4-1.5,3-.7h0ZM144.5,552.5c-2.7-3.1-2.2-8.5-2.3-12.4-.5-12.2,0-24.6,1.2-36.7,3.8-16.2,19.7-26.2,29.6-38.7,7.3-8.7,14.9-17.2,22-26,27.3-25.2,53.5-52.2,86.7-70.1,13.5-7,28.7-4.6,43.3-5.5,4.3.6-.1,3.9-1.7,5.1-13,10.7-24.7,23-38.3,33-10.2,8.4-21.8,14.9-30.9,24.6-25.5,27.3-51.3,54.2-75.8,82.4-10.7,13.5-20.5,27.8-30.5,41.9-.8,1-2.2,3.1-3.3,2.3h0ZM357.7,578.2c-20.4,34.6-37.1,71.2-55.1,107.2-7.2,17.8-14.3,35.9-23.2,53.1-2.7,4-4.8,8.6-6.1,13.2-3.9,10.7-9.7,20.7-13.2,31.5-11.3,18.2-21,39.1-39.4,51.1-11.1,6.9-24,11.5-36.5,15.2-12.4,1.1-24.4-2.7-34.9-9.3-7.3-4.2-14.9-7.8-22-12.4-5.9-8.2-14.1-15.2-19.2-24-11.1-17.5-24.3-34.9-25.6-56.4-3.4-14.2-5.5-28.3-2.5-42.7,1.4-8.7,1.3-18.2,4.6-26.6,6.8-20.4,19.2-38.6,29.4-57.6,7.7-24,24.9-43.1,37-65.1,24.9-37.6,54.7-71.3,86.4-103.2,11.4-12.7,22.1-26.4,36.4-36,22.2-14.2,39-35,60.7-49.7,22-13.8,43.6-29.2,68.4-37.8,14.8-3.9,28.8-12.3,44.5-11.1,35.4,5,59.4,36.1,70.2,68,8,16.1,6.8,34-6.4,46.9-9.5,11.9-24.9,16.4-35.7,26.8-13.5,8-25.4,18.8-38,28.1-26.8,21.4-57.5,40.9-70.5,74.5"/>
            <path class="cls-4" d="M229.6,654.3c14.4,3.2,21.5-13.4,26.5-24.2,4.1-9.9,11.1-18.2,15.6-28.1,5.4-11.7,13.5-21.9,20.6-32.6,9-12.9,14.5-27.7,23.4-40.7,8.8-10.9,14.3-24.1,24.8-33.6,10.9-11.5,33-25.9,36.5-41.5-2.3-20.5-22.5-15.8-35.6-8.5-8.2,5.6-15.2,12.6-22.7,19.1-6.2,4.8-9.8,12-16,16.8-2.7,2.4-5.8,4.5-7.9,7.6-14.2,18.3-26.5,38-39.9,56.8-16.1,20.6-32.3,42.3-42.5,66.4-5.5,17.1-4.5,40.1,17.3,42.4h0ZM227.8,651.9c-12.3-2.7-18.3-15.1-15.4-27.1h0c.2-15.4,10-27.4,17.4-40.1,7.9-13,16.7-25.5,26.4-37.3,13.5-18.8,25.5-38.7,39.7-57,7.6-7.6,15.3-15,22.4-23,13.3-11.2,27.2-28.1,46.3-26,6.3.9,11.1,8.4,9.6,14.4-6.3,10.6-15.6,19.6-24.9,27.6-7,6.5-14.9,12.7-20.3,20.7-10.6,17-22.7,32.8-31,51.1-8.5,16.1-21.2,29.9-28.8,46.4-5.1,10.6-11.5,18.2-15.9,29.3-4.8,10.3-11.9,25.5-25.6,21.1Z"/>
          </g>
          <g>
            <path class="cls-1" d="M177.3,854.9c16.7.4,43.1-12.9,56-23.6,15.7-17.6,29-38.1,37.2-60.3,5.6-9.6,7.4-20.7,13.4-29.9,4.5-7,6.5-15.1,10.5-22.1,9.1-12.3,26.3-13.5,36.7-24.3,9.2-8.3,12.7-20.1,18.8-30.6,13-26.4,25.8-53,37.1-80.1,4.2-8.2,8.2-16.6,13.7-23.8,6.5-9,16-13.8,22.6-22.7,5.9-6.7,6.8-15.5,10.3-23.4,5.8-9.2,4.9-22.7,15.4-28.3,13.1-11.1,27.5-20.1,40.9-30.6,12.8-6.9,24.7-15.4,32.4-28,7.8-11.9,7.2-26,1.6-38.6-4.4-11.8-9.4-24-16.7-34.4-9.1-16.4-24-28.4-40.8-36.3-9.6-3.6-20.6-7.2-31-4.6-19.4,5.6-38.7,11.6-56.9,20.5-13.9,7.2-26.9,15.8-40.1,24.3-2.2,1.6-4.8,1.9-7.5,1.8-8.9-.8-17.4.4-26.3.3-13.5-1.1-26.6,4.8-37.2,12.5-20,11.7-38.1,26.4-54.1,43.1-17.3,13.6-31.2,30.5-45.4,47.3-21.3,22.7-30.2,28.1-30.9,61.1-.1,6.7.5,13.3.2,20,1.2,11.3,6.7,14.5-1.8,25-4.3,7.3-8.8,14.6-13.9,21.4-7.1,8.7-9.2,19.9-14.2,29.7-10.6,19.4-23.2,37.9-29.7,59.3-3.5,20-7.9,41.3-2.6,61.3,2.2,9.2,2,18.9,6,27.7,4.5,12,11.7,22.9,19,33.5,3.6,6.2,6.9,12.2,12.6,16.9,5.2,5.4,8.3,13,15.4,16.2,16.1,7.7,30.8,20.2,49.4,20v-.4Z"/>
            <path class="cls-3" d="M164.7,810.1c-29.6-8.2-45.1-38.8-51.4-66.6-12.5-41.9,9.9-75.9,31.8-110.1,60.8-111.7,123.1-181.1,226.9-254.3,23.8-19.9,56.5-40.2,87.6-24.2,18.2,8.7,36.5,30.4,27.6,51-13.8,23.7-39.1,37.9-59.6,55.2-19.6,18.2-42.4,32.9-60.6,52.3-12.9,15.1-22.2,33.5-31.9,50.7-16.2,28.7-33.5,56.8-47.4,86.7-32.7,47-48.9,174.1-123.2,159.2h0Z"/>
            <path class="cls-2" d="M177.3,854.9c16.7.4,43.1-12.9,56-23.6,15.7-17.6,29-38.1,37.2-60.3,5.6-9.6,7.4-20.7,13.4-29.9,4.5-7,6.5-15.1,10.5-22.1,9.1-12.3,26.3-13.5,36.7-24.3,9.2-8.3,12.7-20.1,18.8-30.6,13-26.4,25.8-53,37.1-80.1,4.2-8.2,8.2-16.6,13.7-23.8,6.5-9,16-13.8,22.6-22.7,5.9-6.7,6.8-15.5,10.3-23.4,5.8-9.2,4.9-22.7,15.4-28.3,13.1-11.1,27.5-20.1,40.9-30.6,12.8-6.9,24.7-15.4,32.4-28,7.8-11.9,7.2-26,1.6-38.6-4.4-11.8-9.4-24-16.7-34.4-9.1-16.4-24-28.4-40.8-36.3-9.6-3.6-20.6-7.2-31-4.6-19.4,5.6-38.7,11.6-56.9,20.5-13.9,7.2-26.9,15.8-40.1,24.3-2.2,1.6-4.8,1.9-7.5,1.8-8.9-.8-17.4.4-26.3.3-13.5-1.1-26.6,4.8-37.2,12.5-20,11.7-38.1,26.4-54.1,43.1-17.3,13.6-31.2,30.5-45.4,47.3-21.3,22.7-30.2,28.1-30.9,61.1-.1,6.7.5,13.3.2,20,1.2,11.3,6.7,14.5-1.8,25-4.3,7.3-8.8,14.6-13.9,21.4-7.1,8.7-9.2,19.9-14.2,29.7-10.6,19.4-23.2,37.9-29.7,59.3-3.5,20-7.9,41.3-2.6,61.3,2.2,9.2,2,18.9,6,27.7,4.5,12,11.7,22.9,19,33.5,3.6,6.2,6.9,12.2,12.6,16.9,5.2,5.4,8.3,13,15.4,16.2,16.1,7.7,30.8,20.2,49.4,20v-.4ZM434,499c1.1,4.4-2.8,9.1-4.4,13.1-2.5,4.4-2.9,9.6-5,14.2-4.5,10.8-14.9,16.5-22.3,24.9-8.1,7.4-13.1,17.4-18,27-12.2,26.8-24.1,54-37.6,80.3-11.5,23-15.8,36.2-41.9,45.4-4.4,2.2-3.8-1.6-2.4-4.6,12.2-31,28.9-59.9,43.6-89.5,11.2-21.7,24.2-42.5,35.3-64.3,13.3-18.5,30.7-33.3,49.7-45.8.9-.5,2.4-1.5,3-.7h0ZM143.8,552.2c-2.7-3.1-2.2-8.5-2.3-12.4-.5-12.2,0-24.6,1.2-36.7,3.8-16.2,19.7-26.2,29.6-38.7,7.3-8.7,14.9-17.2,22-26,27.3-25.2,53.5-52.2,86.7-70.1,13.5-7,28.7-4.6,43.3-5.5,4.3.6-.1,3.9-1.7,5.1-13,10.7-24.7,23-38.3,33-10.2,8.4-21.8,14.9-30.9,24.6-25.5,27.3-51.3,54.2-75.8,82.4-10.7,13.5-20.5,27.8-30.5,41.9-.8,1-2.2,3.1-3.3,2.3h0ZM357,577.9c-20.4,34.6-37.1,71.2-55.1,107.2-7.2,17.8-14.3,35.9-23.2,53.1-2.7,4-4.8,8.6-6.1,13.2-3.9,10.7-9.7,20.7-13.2,31.5-11.3,18.2-21,39.1-39.4,51.1-11.1,6.9-24,11.5-36.5,15.2-12.4,1.1-24.4-2.7-34.9-9.3-7.3-4.2-14.9-7.8-22-12.4-5.9-8.2-14.1-15.2-19.2-24-11.1-17.5-24.3-34.9-25.6-56.4-3.4-14.2-5.5-28.3-2.5-42.7,1.4-8.7,1.3-18.2,4.6-26.6,6.8-20.4,19.2-38.6,29.4-57.6,7.7-24,24.9-43.1,37-65.1,24.9-37.6,54.7-71.3,86.4-103.2,11.4-12.7,22.1-26.4,36.4-36,22.2-14.2,39-35,60.7-49.7,22-13.8,43.6-29.2,68.4-37.8,14.8-3.9,28.8-12.3,44.5-11.1,35.4,5,59.4,36.1,70.2,68,8,16.1,6.8,34-6.4,46.9-9.5,11.9-24.9,16.4-35.7,26.8-13.5,8-25.4,18.8-38,28.1-26.8,21.4-57.5,40.9-70.5,74.5"/>
            <path class="cls-4" d="M228.9,654c14.4,3.2,21.5-13.4,26.5-24.2,4.1-9.9,11.1-18.2,15.6-28.1,5.4-11.7,13.5-21.9,20.6-32.6,9-12.9,14.5-27.7,23.4-40.7,8.8-10.9,14.3-24.1,24.8-33.6,10.9-11.5,33-25.9,36.5-41.5-2.3-20.5-22.5-15.8-35.6-8.5-8.2,5.6-15.2,12.6-22.7,19.1-6.2,4.8-9.8,12-16,16.8-2.7,2.4-5.8,4.5-7.9,7.6-14.2,18.3-26.5,38-39.9,56.8-16.1,20.6-32.3,42.3-42.5,66.4-5.5,17.1-4.5,40.1,17.3,42.4h0ZM227.1,651.6c-12.3-2.7-18.3-15.1-15.4-27.1h0c.2-15.4,10-27.4,17.4-40.1,7.9-13,16.7-25.5,26.4-37.3,13.5-18.8,25.5-38.7,39.7-57,7.6-7.6,15.3-15,22.4-23,13.3-11.2,27.2-28.1,46.3-26,6.3.9,11.1,8.4,9.6,14.4-6.3,10.6-15.6,19.6-24.9,27.6-7,6.5-14.9,12.7-20.3,20.7-10.6,17-22.7,32.8-31,51.1-8.5,16.1-21.2,29.9-28.8,46.4-5.1,10.6-11.5,18.2-15.9,29.3-4.8,10.3-11.9,25.5-25.6,21.1Z"/>
          </g>
          <g>
            <path class="cls-1" d="M176.6,854.6c16.7.4,43.1-12.9,56-23.6,15.7-17.6,29-38.1,37.2-60.3,5.6-9.6,7.4-20.7,13.4-29.9,4.5-7,6.5-15.1,10.5-22.1,9.1-12.3,26.3-13.5,36.7-24.3,9.2-8.3,12.7-20.1,18.8-30.6,13-26.4,25.8-53,37.1-80.1,4.2-8.2,8.2-16.6,13.7-23.8,6.5-9,16-13.8,22.6-22.7,5.9-6.7,6.8-15.5,10.3-23.4,5.8-9.2,4.9-22.7,15.4-28.3,13.1-11.1,27.5-20.1,40.9-30.6,12.8-6.9,24.7-15.4,32.4-28,7.8-11.9,7.2-26,1.6-38.6-4.4-11.8-9.4-24-16.7-34.4-9.1-16.4-24-28.4-40.8-36.3-9.6-3.6-20.6-7.2-31-4.6-19.4,5.6-38.7,11.6-56.9,20.5-13.9,7.2-26.9,15.8-40.1,24.3-2.2,1.6-4.8,1.9-7.5,1.8-8.9-.8-17.4.4-26.3.3-13.5-1.1-26.6,4.8-37.2,12.5-20,11.7-38.1,26.4-54.1,43.1-17.3,13.6-31.2,30.5-45.4,47.3-21.3,22.7-30.2,28.1-30.9,61.1-.1,6.7.5,13.3.2,20,1.2,11.3,6.7,14.5-1.8,25-4.3,7.3-8.8,14.6-13.9,21.4-7.1,8.7-9.2,19.9-14.2,29.7-10.6,19.4-23.2,37.9-29.7,59.3-3.5,20-7.9,41.3-2.6,61.3,2.2,9.2,2,18.9,6,27.7,4.5,12,11.7,22.9,19,33.5,3.6,6.2,6.9,12.2,12.6,16.9,5.2,5.4,8.3,13,15.4,16.2,16.1,7.7,30.8,20.2,49.4,20v-.4Z"/>
            <path class="cls-3" d="M164,809.9c-29.6-8.2-45.1-38.8-51.4-66.6-12.5-41.9,9.9-75.9,31.8-110.1,60.8-111.7,123.1-181.1,226.9-254.3,23.8-19.9,56.5-40.2,87.6-24.2,18.2,8.7,36.5,30.4,27.6,51-13.8,23.7-39.1,37.9-59.6,55.2-19.6,18.2-42.4,32.9-60.6,52.3-12.9,15.1-22.2,33.5-31.9,50.7-16.2,28.7-33.5,56.8-47.4,86.7-32.7,47-48.9,174.1-123.2,159.2h0Z"/>
            <path class="cls-2" d="M176.6,854.6c16.7.4,43.1-12.9,56-23.6,15.7-17.6,29-38.1,37.2-60.3,5.6-9.6,7.4-20.7,13.4-29.9,4.5-7,6.5-15.1,10.5-22.1,9.1-12.3,26.3-13.5,36.7-24.3,9.2-8.3,12.7-20.1,18.8-30.6,13-26.4,25.8-53,37.1-80.1,4.2-8.2,8.2-16.6,13.7-23.8,6.5-9,16-13.8,22.6-22.7,5.9-6.7,6.8-15.5,10.3-23.4,5.8-9.2,4.9-22.7,15.4-28.3,13.1-11.1,27.5-20.1,40.9-30.6,12.8-6.9,24.7-15.4,32.4-28,7.8-11.9,7.2-26,1.6-38.6-4.4-11.8-9.4-24-16.7-34.4-9.1-16.4-24-28.4-40.8-36.3-9.6-3.6-20.6-7.2-31-4.6-19.4,5.6-38.7,11.6-56.9,20.5-13.9,7.2-26.9,15.8-40.1,24.3-2.2,1.6-4.8,1.9-7.5,1.8-8.9-.8-17.4.4-26.3.3-13.5-1.1-26.6,4.8-37.2,12.5-20,11.7-38.1,26.4-54.1,43.1-17.3,13.6-31.2,30.5-45.4,47.3-21.3,22.7-30.2,28.1-30.9,61.1-.1,6.7.5,13.3.2,20,1.2,11.3,6.7,14.5-1.8,25-4.3,7.3-8.8,14.6-13.9,21.4-7.1,8.7-9.2,19.9-14.2,29.7-10.6,19.4-23.2,37.9-29.7,59.3-3.5,20-7.9,41.3-2.6,61.3,2.2,9.2,2,18.9,6,27.7,4.5,12,11.7,22.9,19,33.5,3.6,6.2,6.9,12.2,12.6,16.9,5.2,5.4,8.3,13,15.4,16.2,16.1,7.7,30.8,20.2,49.4,20v-.4ZM433.4,498.7c1.1,4.4-2.8,9.1-4.4,13.1-2.5,4.4-2.9,9.6-5,14.2-4.5,10.8-14.9,16.5-22.3,24.9-8.1,7.4-13.1,17.4-18,27-12.2,26.8-24.1,54-37.6,80.3-11.5,23-15.8,36.2-41.9,45.4-4.4,2.2-3.8-1.6-2.4-4.6,12.2-31,28.9-59.9,43.6-89.5,11.2-21.7,24.2-42.5,35.3-64.3,13.3-18.5,30.7-33.3,49.7-45.8.9-.5,2.4-1.5,3-.7h0ZM143.2,551.9c-2.7-3.1-2.2-8.5-2.3-12.4-.5-12.2,0-24.6,1.2-36.7,3.8-16.2,19.7-26.2,29.6-38.7,7.3-8.7,14.9-17.2,22-26,27.3-25.2,53.5-52.2,86.7-70.1,13.5-7,28.7-4.6,43.3-5.5,4.3.6-.1,3.9-1.7,5.1-13,10.7-24.7,23-38.3,33-10.2,8.4-21.8,14.9-30.9,24.6-25.5,27.3-51.3,54.2-75.8,82.4-10.7,13.5-20.5,27.8-30.5,41.9-.8,1-2.2,3.1-3.3,2.3h0ZM356.4,577.6c-20.4,34.6-37.1,71.2-55.1,107.2-7.2,17.8-14.3,35.9-23.2,53.1-2.7,4-4.8,8.6-6.1,13.2-3.9,10.7-9.7,20.7-13.2,31.5-11.3,18.2-21,39.1-39.4,51.1-11.1,6.9-24,11.5-36.5,15.2-12.4,1.1-24.4-2.7-34.9-9.3-7.3-4.2-14.9-7.8-22-12.4-5.9-8.2-14.1-15.2-19.2-24-11.1-17.5-24.3-34.9-25.6-56.4-3.4-14.2-5.5-28.3-2.5-42.7,1.4-8.7,1.3-18.2,4.6-26.6,6.8-20.4,19.2-38.6,29.4-57.6,7.7-24,24.9-43.1,37-65.1,24.9-37.6,54.7-71.3,86.4-103.2,11.4-12.7,22.1-26.4,36.4-36,22.2-14.2,39-35,60.7-49.7,22-13.8,43.6-29.2,68.4-37.8,14.8-3.9,28.8-12.3,44.5-11.1,35.4,5,59.4,36.1,70.2,68,8,16.1,6.8,34-6.4,46.9-9.5,11.9-24.9,16.4-35.7,26.8-13.5,8-25.4,18.8-38,28.1-26.8,21.4-57.5,40.9-70.5,74.5"/>
            <path class="cls-4" d="M228.3,653.8c14.4,3.2,21.5-13.4,26.5-24.2,4.1-9.9,11.1-18.2,15.6-28.1,5.4-11.7,13.5-21.9,20.6-32.6,9-12.9,14.5-27.7,23.4-40.7,8.8-10.9,14.3-24.1,24.8-33.6,10.9-11.5,33-25.9,36.5-41.5-2.3-20.5-22.5-15.8-35.6-8.5-8.2,5.6-15.2,12.6-22.7,19.1-6.2,4.8-9.8,12-16,16.8-2.7,2.4-5.8,4.5-7.9,7.6-14.2,18.3-26.5,38-39.9,56.8-16.1,20.6-32.3,42.3-42.5,66.4-5.5,17.1-4.5,40.1,17.3,42.4h0ZM226.5,651.3c-12.3-2.7-18.3-15.1-15.4-27.1h0c.2-15.4,10-27.4,17.4-40.1,7.9-13,16.7-25.5,26.4-37.3,13.5-18.8,25.5-38.7,39.7-57,7.6-7.6,15.3-15,22.4-23,13.3-11.2,27.2-28.1,46.3-26,6.3.9,11.1,8.4,9.6,14.4-6.3,10.6-15.6,19.6-24.9,27.6-7,6.5-14.9,12.7-20.3,20.7-10.6,17-22.7,32.8-31,51.1-8.5,16.1-21.2,29.9-28.8,46.4-5.1,10.6-11.5,18.2-15.9,29.3-4.8,10.3-11.9,25.5-25.6,21.1Z"/>
          </g>
          <g>
            <path class="cls-1" d="M176,854.3c16.7.4,43.1-12.9,56-23.6,15.7-17.6,29-38.1,37.2-60.3,5.6-9.6,7.4-20.7,13.4-29.9,4.5-7,6.5-15.1,10.5-22.1,9.1-12.3,26.3-13.5,36.7-24.3,9.2-8.3,12.7-20.1,18.8-30.6,13-26.4,25.8-53,37.1-80.1,4.2-8.2,8.2-16.6,13.7-23.8,6.5-9,16-13.8,22.6-22.7,5.9-6.7,6.8-15.5,10.3-23.4,5.8-9.2,4.9-22.7,15.4-28.3,13.1-11.1,27.5-20.1,40.9-30.6,12.8-6.9,24.7-15.4,32.4-28,7.8-11.9,7.2-26,1.6-38.6-4.4-11.8-9.4-24-16.7-34.4-9.1-16.4-24-28.4-40.8-36.3-9.6-3.6-20.6-7.2-31-4.6-19.4,5.6-38.7,11.6-56.9,20.5-13.9,7.2-26.9,15.8-40.1,24.3-2.2,1.6-4.8,1.9-7.5,1.8-8.9-.8-17.4.4-26.3.3-13.5-1.1-26.6,4.8-37.2,12.5-20,11.7-38.1,26.4-54.1,43.1-17.3,13.6-31.2,30.5-45.4,47.3-21.3,22.7-30.2,28.1-30.9,61.1-.1,6.7.5,13.3.2,20,1.2,11.3,6.7,14.5-1.8,25-4.3,7.3-8.8,14.6-13.9,21.4-7.1,8.7-9.2,19.9-14.2,29.7-10.6,19.4-23.2,37.9-29.7,59.3-3.5,20-7.9,41.3-2.6,61.3,2.2,9.2,2,18.9,6,27.7,4.5,12,11.7,22.9,19,33.5,3.6,6.2,6.9,12.2,12.6,16.9,5.2,5.4,8.3,13,15.4,16.2,16.1,7.7,30.8,20.2,49.4,20v-.4Z"/>
            <path class="cls-3" d="M163.4,809.6c-29.6-8.2-45.1-38.8-51.4-66.6-12.5-41.9,9.9-75.9,31.8-110.1,60.8-111.7,123.1-181.1,226.9-254.3,23.8-19.9,56.5-40.2,87.6-24.2,18.2,8.7,36.5,30.4,27.6,51-13.8,23.7-39.1,37.9-59.6,55.2-19.6,18.2-42.4,32.9-60.6,52.3-12.9,15.1-22.2,33.5-31.9,50.7-16.2,28.7-33.5,56.8-47.4,86.7-32.7,47-48.9,174.1-123.2,159.2h0Z"/>
            <path class="cls-2" d="M176,854.3c16.7.4,43.1-12.9,56-23.6,15.7-17.6,29-38.1,37.2-60.3,5.6-9.6,7.4-20.7,13.4-29.9,4.5-7,6.5-15.1,10.5-22.1,9.1-12.3,26.3-13.5,36.7-24.3,9.2-8.3,12.7-20.1,18.8-30.6,13-26.4,25.8-53,37.1-80.1,4.2-8.2,8.2-16.6,13.7-23.8,6.5-9,16-13.8,22.6-22.7,5.9-6.7,6.8-15.5,10.3-23.4,5.8-9.2,4.9-22.7,15.4-28.3,13.1-11.1,27.5-20.1,40.9-30.6,12.8-6.9,24.7-15.4,32.4-28,7.8-11.9,7.2-26,1.6-38.6-4.4-11.8-9.4-24-16.7-34.4-9.1-16.4-24-28.4-40.8-36.3-9.6-3.6-20.6-7.2-31-4.6-19.4,5.6-38.7,11.6-56.9,20.5-13.9,7.2-26.9,15.8-40.1,24.3-2.2,1.6-4.8,1.9-7.5,1.8-8.9-.8-17.4.4-26.3.3-13.5-1.1-26.6,4.8-37.2,12.5-20,11.7-38.1,26.4-54.1,43.1-17.3,13.6-31.2,30.5-45.4,47.3-21.3,22.7-30.2,28.1-30.9,61.1-.1,6.7.5,13.3.2,20,1.2,11.3,6.7,14.5-1.8,25-4.3,7.3-8.8,14.6-13.9,21.4-7.1,8.7-9.2,19.9-14.2,29.7-10.6,19.4-23.2,37.9-29.7,59.3-3.5,20-7.9,41.3-2.6,61.3,2.2,9.2,2,18.9,6,27.7,4.5,12,11.7,22.9,19,33.5,3.6,6.2,6.9,12.2,12.6,16.9,5.2,5.4,8.3,13,15.4,16.2,16.1,7.7,30.8,20.2,49.4,20v-.4ZM432.7,498.4c1.1,4.4-2.8,9.1-4.4,13.1-2.5,4.4-2.9,9.6-5,14.2-4.5,10.8-14.9,16.5-22.3,24.9-8.1,7.4-13.1,17.4-18,27-12.2,26.8-24.1,54-37.6,80.3-11.5,23-15.8,36.2-41.9,45.4-4.4,2.2-3.8-1.6-2.4-4.6,12.2-31,28.9-59.9,43.6-89.5,11.2-21.7,24.2-42.5,35.3-64.3,13.3-18.5,30.7-33.3,49.7-45.8.9-.5,2.4-1.5,3-.7h0ZM142.5,551.7c-2.7-3.1-2.2-8.5-2.3-12.4-.5-12.2,0-24.6,1.2-36.7,3.8-16.2,19.7-26.2,29.6-38.7,7.3-8.7,14.9-17.2,22-26,27.3-25.2,53.5-52.2,86.7-70.1,13.5-7,28.7-4.6,43.3-5.5,4.3.6-.1,3.9-1.7,5.1-13,10.7-24.7,23-38.3,33-10.2,8.4-21.8,14.9-30.9,24.6-25.5,27.3-51.3,54.2-75.8,82.4-10.7,13.5-20.5,27.8-30.5,41.9-.8,1-2.2,3.1-3.3,2.3h0ZM355.7,577.3c-20.4,34.6-37.1,71.2-55.1,107.2-7.2,17.8-14.3,35.9-23.2,53.1-2.7,4-4.8,8.6-6.1,13.2-3.9,10.7-9.7,20.7-13.2,31.5-11.3,18.2-21,39.1-39.4,51.1-11.1,6.9-24,11.5-36.5,15.2-12.4,1.1-24.4-2.7-34.9-9.3-7.3-4.2-14.9-7.8-22-12.4-5.9-8.2-14.1-15.2-19.2-24-11.1-17.5-24.3-34.9-25.6-56.4-3.4-14.2-5.5-28.3-2.5-42.7,1.4-8.7,1.3-18.2,4.6-26.6,6.8-20.4,19.2-38.6,29.4-57.6,7.7-24,24.9-43.1,37-65.1,24.9-37.6,54.7-71.3,86.4-103.2,11.4-12.7,22.1-26.4,36.4-36,22.2-14.2,39-35,60.7-49.7,22-13.8,43.6-29.2,68.4-37.8,14.8-3.9,28.8-12.3,44.5-11.1,35.4,5,59.4,36.1,70.2,68,8,16.1,6.8,34-6.4,46.9-9.5,11.9-24.9,16.4-35.7,26.8-13.5,8-25.4,18.8-38,28.1-26.8,21.4-57.5,40.9-70.5,74.5"/>
            <path class="cls-4" d="M227.6,653.5c14.4,3.2,21.5-13.4,26.5-24.2,4.1-9.9,11.1-18.2,15.6-28.1,5.4-11.7,13.5-21.9,20.6-32.6,9-12.9,14.5-27.7,23.4-40.7,8.8-10.9,14.3-24.1,24.8-33.6,10.9-11.5,33-25.9,36.5-41.5-2.3-20.5-22.5-15.8-35.6-8.5-8.2,5.6-15.2,12.6-22.7,19.1-6.2,4.8-9.8,12-16,16.8-2.7,2.4-5.8,4.5-7.9,7.6-14.2,18.3-26.5,38-39.9,56.8-16.1,20.6-32.3,42.3-42.5,66.4-5.5,17.1-4.5,40.1,17.3,42.4h0ZM225.8,651c-12.3-2.7-18.3-15.1-15.4-27.1h0c.2-15.4,10-27.4,17.4-40.1,7.9-13,16.7-25.5,26.4-37.3,13.5-18.8,25.5-38.7,39.7-57,7.6-7.6,15.3-15,22.4-23,13.3-11.2,27.2-28.1,46.3-26,6.3.9,11.1,8.4,9.6,14.4-6.3,10.6-15.6,19.6-24.9,27.6-7,6.5-14.9,12.7-20.3,20.7-10.6,17-22.7,32.8-31,51.1-8.5,16.1-21.2,29.9-28.8,46.4-5.1,10.6-11.5,18.2-15.9,29.3-4.8,10.3-11.9,25.5-25.6,21.1Z"/>
          </g>
          <g>
            <path class="cls-1" d="M175.3,854c16.7.4,43.1-12.9,56-23.6,15.7-17.6,29-38.1,37.2-60.3,5.6-9.6,7.4-20.7,13.4-29.9,4.5-7,6.5-15.1,10.5-22.1,9.1-12.3,26.3-13.5,36.7-24.3,9.2-8.3,12.7-20.1,18.8-30.6,13-26.4,25.8-53,37.1-80.1,4.2-8.2,8.2-16.6,13.7-23.8,6.5-9,16-13.8,22.6-22.7,5.9-6.7,6.8-15.5,10.3-23.4,5.8-9.2,4.9-22.7,15.4-28.3,13.1-11.1,27.5-20.1,40.9-30.6,12.8-6.9,24.7-15.4,32.4-28,7.8-11.9,7.2-26,1.6-38.6-4.4-11.8-9.4-24-16.7-34.4-9.1-16.4-24-28.4-40.8-36.3-9.6-3.6-20.6-7.2-31-4.6-19.4,5.6-38.7,11.6-56.9,20.5-13.9,7.2-26.9,15.8-40.1,24.3-2.2,1.6-4.8,1.9-7.5,1.8-8.9-.8-17.4.4-26.3.3-13.5-1.1-26.6,4.8-37.2,12.5-20,11.7-38.1,26.4-54.1,43.1-17.3,13.6-31.2,30.5-45.4,47.3-21.3,22.7-30.2,28.1-30.9,61.1-.1,6.7.5,13.3.2,20,1.2,11.3,6.7,14.5-1.8,25-4.3,7.3-8.8,14.6-13.9,21.4-7.1,8.7-9.2,19.9-14.2,29.7-10.6,19.4-23.2,37.9-29.7,59.3-3.5,20-7.9,41.3-2.6,61.3,2.2,9.2,2,18.9,6,27.7,4.5,12,11.7,22.9,19,33.5,3.6,6.2,6.9,12.2,12.6,16.9,5.2,5.4,8.3,13,15.4,16.2,16.1,7.7,30.8,20.2,49.4,20v-.4Z"/>
            <path class="cls-3" d="M162.7,809.3c-29.6-8.2-45.1-38.8-51.4-66.6-12.5-41.9,9.9-75.9,31.8-110.1,60.8-111.7,123.1-181.1,226.9-254.3,23.8-19.9,56.5-40.2,87.6-24.2,18.2,8.7,36.5,30.4,27.6,51-13.8,23.7-39.1,37.9-59.6,55.2-19.6,18.2-42.4,32.9-60.6,52.3-12.9,15.1-22.2,33.5-31.9,50.7-16.2,28.7-33.5,56.8-47.4,86.7-32.7,47-48.9,174.1-123.2,159.2h0Z"/>
            <path class="cls-2" d="M175.3,854c16.7.4,43.1-12.9,56-23.6,15.7-17.6,29-38.1,37.2-60.3,5.6-9.6,7.4-20.7,13.4-29.9,4.5-7,6.5-15.1,10.5-22.1,9.1-12.3,26.3-13.5,36.7-24.3,9.2-8.3,12.7-20.1,18.8-30.6,13-26.4,25.8-53,37.1-80.1,4.2-8.2,8.2-16.6,13.7-23.8,6.5-9,16-13.8,22.6-22.7,5.9-6.7,6.8-15.5,10.3-23.4,5.8-9.2,4.9-22.7,15.4-28.3,13.1-11.1,27.5-20.1,40.9-30.6,12.8-6.9,24.7-15.4,32.4-28,7.8-11.9,7.2-26,1.6-38.6-4.4-11.8-9.4-24-16.7-34.4-9.1-16.4-24-28.4-40.8-36.3-9.6-3.6-20.6-7.2-31-4.6-19.4,5.6-38.7,11.6-56.9,20.5-13.9,7.2-26.9,15.8-40.1,24.3-2.2,1.6-4.8,1.9-7.5,1.8-8.9-.8-17.4.4-26.3.3-13.5-1.1-26.6,4.8-37.2,12.5-20,11.7-38.1,26.4-54.1,43.1-17.3,13.6-31.2,30.5-45.4,47.3-21.3,22.7-30.2,28.1-30.9,61.1-.1,6.7.5,13.3.2,20,1.2,11.3,6.7,14.5-1.8,25-4.3,7.3-8.8,14.6-13.9,21.4-7.1,8.7-9.2,19.9-14.2,29.7-10.6,19.4-23.2,37.9-29.7,59.3-3.5,20-7.9,41.3-2.6,61.3,2.2,9.2,2,18.9,6,27.7,4.5,12,11.7,22.9,19,33.5,3.6,6.2,6.9,12.2,12.6,16.9,5.2,5.4,8.3,13,15.4,16.2,16.1,7.7,30.8,20.2,49.4,20v-.4ZM432.1,498.1c1.1,4.4-2.8,9.1-4.4,13.1-2.5,4.4-2.9,9.6-5,14.2-4.5,10.8-14.9,16.5-22.3,24.9-8.1,7.4-13.1,17.4-18,27-12.2,26.8-24.1,54-37.6,80.3-11.5,23-15.8,36.2-41.9,45.4-4.4,2.2-3.8-1.6-2.4-4.6,12.2-31,28.9-59.9,43.6-89.5,11.2-21.7,24.2-42.5,35.3-64.3,13.3-18.5,30.7-33.3,49.7-45.8.9-.5,2.4-1.5,3-.7h0ZM141.9,551.4c-2.7-3.1-2.2-8.5-2.3-12.4-.5-12.2,0-24.6,1.2-36.7,3.8-16.2,19.7-26.2,29.6-38.7,7.3-8.7,14.9-17.2,22-26,27.3-25.2,53.5-52.2,86.7-70.1,13.5-7,28.7-4.6,43.3-5.5,4.3.6-.1,3.9-1.7,5.1-13,10.7-24.7,23-38.3,33-10.2,8.4-21.8,14.9-30.9,24.6-25.5,27.3-51.3,54.2-75.8,82.4-10.7,13.5-20.5,27.8-30.5,41.9-.8,1-2.2,3.1-3.3,2.3h0ZM355.1,577c-20.4,34.6-37.1,71.2-55.1,107.2-7.2,17.8-14.3,35.9-23.2,53.1-2.7,4-4.8,8.6-6.1,13.2-3.9,10.7-9.7,20.7-13.2,31.5-11.3,18.2-21,39.1-39.4,51.1-11.1,6.9-24,11.5-36.5,15.2-12.4,1.1-24.4-2.7-34.9-9.3-7.3-4.2-14.9-7.8-22-12.4-5.9-8.2-14.1-15.2-19.2-24-11.1-17.5-24.3-34.9-25.6-56.4-3.4-14.2-5.5-28.3-2.5-42.7,1.4-8.7,1.3-18.2,4.6-26.6,6.8-20.4,19.2-38.6,29.4-57.6,7.7-24,24.9-43.1,37-65.1,24.9-37.6,54.7-71.3,86.4-103.2,11.4-12.7,22.1-26.4,36.4-36,22.2-14.2,39-35,60.7-49.7,22-13.8,43.6-29.2,68.4-37.8,14.8-3.9,28.8-12.3,44.5-11.1,35.4,5,59.4,36.1,70.2,68,8,16.1,6.8,34-6.4,46.9-9.5,11.9-24.9,16.4-35.7,26.8-13.5,8-25.4,18.8-38,28.1-26.8,21.4-57.5,40.9-70.5,74.5"/>
            <path class="cls-4" d="M227,653.2c14.4,3.2,21.5-13.4,26.5-24.2,4.1-9.9,11.1-18.2,15.6-28.1,5.4-11.7,13.5-21.9,20.6-32.6,9-12.9,14.5-27.7,23.4-40.7,8.8-10.9,14.3-24.1,24.8-33.6,10.9-11.5,33-25.9,36.5-41.5-2.3-20.5-22.5-15.8-35.6-8.5-8.2,5.6-15.2,12.6-22.7,19.1-6.2,4.8-9.8,12-16,16.8-2.7,2.4-5.8,4.5-7.9,7.6-14.2,18.3-26.5,38-39.9,56.8-16.1,20.6-32.3,42.3-42.5,66.4-5.5,17.1-4.5,40.1,17.3,42.4h0ZM225.2,650.8c-12.3-2.7-18.3-15.1-15.4-27.1h0c.2-15.4,10-27.4,17.4-40.1,7.9-13,16.7-25.5,26.4-37.3,13.5-18.8,25.5-38.7,39.7-57,7.6-7.6,15.3-15,22.4-23,13.3-11.2,27.2-28.1,46.3-26,6.3.9,11.1,8.4,9.6,14.4-6.3,10.6-15.6,19.6-24.9,27.6-7,6.5-14.9,12.7-20.3,20.7-10.6,17-22.7,32.8-31,51.1-8.5,16.1-21.2,29.9-28.8,46.4-5.1,10.6-11.5,18.2-15.9,29.3-4.8,10.3-11.9,25.5-25.6,21.1Z"/>
          </g>
          <g>
            <path class="cls-1" d="M174.7,853.7c16.7.4,43.1-12.9,56-23.6,15.7-17.6,29-38.1,37.2-60.3,5.6-9.6,7.4-20.7,13.4-29.9,4.5-7,6.5-15.1,10.5-22.1,9.1-12.3,26.3-13.5,36.7-24.3,9.2-8.3,12.7-20.1,18.8-30.6,13-26.4,25.8-53,37.1-80.1,4.2-8.2,8.2-16.6,13.7-23.8,6.5-9,16-13.8,22.6-22.7,5.9-6.7,6.8-15.5,10.3-23.4,5.8-9.2,4.9-22.7,15.4-28.3,13.1-11.1,27.5-20.1,40.9-30.6,12.8-6.9,24.7-15.4,32.4-28,7.8-11.9,7.2-26,1.6-38.6-4.4-11.8-9.4-24-16.7-34.4-9.1-16.4-24-28.4-40.8-36.3-9.6-3.6-20.6-7.2-31-4.6-19.4,5.6-38.7,11.6-56.9,20.5-13.9,7.2-26.9,15.8-40.1,24.3-2.2,1.6-4.8,1.9-7.5,1.8-8.9-.8-17.4.4-26.3.3-13.5-1.1-26.6,4.8-37.2,12.5-20,11.7-38.1,26.4-54.1,43.1-17.3,13.6-31.2,30.5-45.4,47.3-21.3,22.7-30.2,28.1-30.9,61.1-.1,6.7.5,13.3.2,20,1.2,11.3,6.7,14.5-1.8,25-4.3,7.3-8.8,14.6-13.9,21.4-7.1,8.7-9.2,19.9-14.2,29.7-10.6,19.4-23.2,37.9-29.7,59.3-3.5,20-7.9,41.3-2.6,61.3,2.2,9.2,2,18.9,6,27.7,4.5,12,11.7,22.9,19,33.5,3.6,6.2,6.9,12.2,12.6,16.9,5.2,5.4,8.3,13,15.4,16.2,16.1,7.7,30.8,20.2,49.4,20v-.4Z"/>
            <path class="cls-3" d="M162.1,809c-29.6-8.2-45.1-38.8-51.4-66.6-12.5-41.9,9.9-75.9,31.8-110.1,60.8-111.7,123.1-181.1,226.9-254.3,23.8-19.9,56.5-40.2,87.6-24.2,18.2,8.7,36.5,30.4,27.6,51-13.8,23.7-39.1,37.9-59.6,55.2-19.6,18.2-42.4,32.9-60.6,52.3-12.9,15.1-22.2,33.5-31.9,50.7-16.2,28.7-33.5,56.8-47.4,86.7-32.7,47-48.9,174.1-123.2,159.2h0Z"/>
            <path class="cls-2" d="M174.7,853.7c16.7.4,43.1-12.9,56-23.6,15.7-17.6,29-38.1,37.2-60.3,5.6-9.6,7.4-20.7,13.4-29.9,4.5-7,6.5-15.1,10.5-22.1,9.1-12.3,26.3-13.5,36.7-24.3,9.2-8.3,12.7-20.1,18.8-30.6,13-26.4,25.8-53,37.1-80.1,4.2-8.2,8.2-16.6,13.7-23.8,6.5-9,16-13.8,22.6-22.7,5.9-6.7,6.8-15.5,10.3-23.4,5.8-9.2,4.9-22.7,15.4-28.3,13.1-11.1,27.5-20.1,40.9-30.6,12.8-6.9,24.7-15.4,32.4-28,7.8-11.9,7.2-26,1.6-38.6-4.4-11.8-9.4-24-16.7-34.4-9.1-16.4-24-28.4-40.8-36.3-9.6-3.6-20.6-7.2-31-4.6-19.4,5.6-38.7,11.6-56.9,20.5-13.9,7.2-26.9,15.8-40.1,24.3-2.2,1.6-4.8,1.9-7.5,1.8-8.9-.8-17.4.4-26.3.3-13.5-1.1-26.6,4.8-37.2,12.5-20,11.7-38.1,26.4-54.1,43.1-17.3,13.6-31.2,30.5-45.4,47.3-21.3,22.7-30.2,28.1-30.9,61.1-.1,6.7.5,13.3.2,20,1.2,11.3,6.7,14.5-1.8,25-4.3,7.3-8.8,14.6-13.9,21.4-7.1,8.7-9.2,19.9-14.2,29.7-10.6,19.4-23.2,37.9-29.7,59.3-3.5,20-7.9,41.3-2.6,61.3,2.2,9.2,2,18.9,6,27.7,4.5,12,11.7,22.9,19,33.5,3.6,6.2,6.9,12.2,12.6,16.9,5.2,5.4,8.3,13,15.4,16.2,16.1,7.7,30.8,20.2,49.4,20v-.4ZM431.4,497.8c1.1,4.4-2.8,9.1-4.4,13.1-2.5,4.4-2.9,9.6-5,14.2-4.5,10.8-14.9,16.5-22.3,24.9-8.1,7.4-13.1,17.4-18,27-12.2,26.8-24.1,54-37.6,80.3-11.5,23-15.8,36.2-41.9,45.4-4.4,2.2-3.8-1.6-2.4-4.6,12.2-31,28.9-59.9,43.6-89.5,11.2-21.7,24.2-42.5,35.3-64.3,13.3-18.5,30.7-33.3,49.7-45.8.9-.5,2.4-1.5,3-.7h0ZM141.2,551.1c-2.7-3.1-2.2-8.5-2.3-12.4-.5-12.2,0-24.6,1.2-36.7,3.8-16.2,19.7-26.2,29.6-38.7,7.3-8.7,14.9-17.2,22-26,27.3-25.2,53.5-52.2,86.7-70.1,13.5-7,28.7-4.6,43.3-5.5,4.3.6-.1,3.9-1.7,5.1-13,10.7-24.7,23-38.3,33-10.2,8.4-21.8,14.9-30.9,24.6-25.5,27.3-51.3,54.2-75.8,82.4-10.7,13.5-20.5,27.8-30.5,41.9-.8,1-2.2,3.1-3.3,2.3h0ZM354.4,576.7c-20.4,34.6-37.1,71.2-55.1,107.2-7.2,17.8-14.3,35.9-23.2,53.1-2.7,4-4.8,8.6-6.1,13.2-3.9,10.7-9.7,20.7-13.2,31.5-11.3,18.2-21,39.1-39.4,51.1-11.1,6.9-24,11.5-36.5,15.2-12.4,1.1-24.4-2.7-34.9-9.3-7.3-4.2-14.9-7.8-22-12.4-5.9-8.2-14.1-15.2-19.2-24-11.1-17.5-24.3-34.9-25.6-56.4-3.4-14.2-5.5-28.3-2.5-42.7,1.4-8.7,1.3-18.2,4.6-26.6,6.8-20.4,19.2-38.6,29.4-57.6,7.7-24,24.9-43.1,37-65.1,24.9-37.6,54.7-71.3,86.4-103.2,11.4-12.7,22.1-26.4,36.4-36,22.2-14.2,39-35,60.7-49.7,22-13.8,43.6-29.2,68.4-37.8,14.8-3.9,28.8-12.3,44.5-11.1,35.4,5,59.4,36.1,70.2,68,8,16.1,6.8,34-6.4,46.9-9.5,11.9-24.9,16.4-35.7,26.8-13.5,8-25.4,18.8-38,28.1-26.8,21.4-57.5,40.9-70.5,74.5"/>
            <path class="cls-4" d="M226.3,652.9c14.4,3.2,21.5-13.4,26.5-24.2,4.1-9.9,11.1-18.2,15.6-28.1,5.4-11.7,13.5-21.9,20.6-32.6,9-12.9,14.5-27.7,23.4-40.7,8.8-10.9,14.3-24.1,24.8-33.6,10.9-11.5,33-25.9,36.5-41.5-2.3-20.5-22.5-15.8-35.6-8.5-8.2,5.6-15.2,12.6-22.7,19.1-6.2,4.8-9.8,12-16,16.8-2.7,2.4-5.8,4.5-7.9,7.6-14.2,18.3-26.5,38-39.9,56.8-16.1,20.6-32.3,42.3-42.5,66.4-5.5,17.1-4.5,40.1,17.3,42.4h0ZM224.6,650.5c-12.3-2.7-18.3-15.1-15.4-27.1h0c.2-15.4,10-27.4,17.4-40.1,7.9-13,16.7-25.5,26.4-37.3,13.5-18.8,25.5-38.7,39.7-57,7.6-7.6,15.3-15,22.4-23,13.3-11.2,27.2-28.1,46.3-26,6.3.9,11.1,8.4,9.6,14.4-6.3,10.6-15.6,19.6-24.9,27.6-7,6.5-14.9,12.7-20.3,20.7-10.6,17-22.7,32.8-31,51.1-8.5,16.1-21.2,29.9-28.8,46.4-5.1,10.6-11.5,18.2-15.9,29.3-4.8,10.3-11.9,25.5-25.6,21.1Z"/>
          </g>
        </g>
      </g>
    </g>
  </g>
</svg>